<svg width="24" height="24" viewBox="0 0 24 24" fill="none" xmlns="http://www.w3.org/2000/svg">
<path d="M13.664 1.90396L21.3054 6.99822C21.8571 7.366 22.0061 8.11135 21.6384 8.66301C21.5504 8.79489 21.4373 8.90805 21.3054 8.99597L13.664 14.0902C12.6559 14.7623 11.3426 14.7623 10.3344 14.0902L2.69305 8.99597C2.14138 8.6282 1.99231 7.88284 2.36009 7.33118C2.448 7.1993 2.56117 7.08614 2.69305 6.99822L10.3344 1.90396C11.3426 1.23188 12.6559 1.23188 13.664 1.90396ZM21.634 12.4293C21.4558 12.7143 21.2198 12.9587 20.9412 13.1468L13.6783 18.0492C12.6637 18.7341 11.3348 18.7341 10.3201 18.0492L3.05722 13.1468C2.14365 12.5301 1.78938 11.3949 2.12187 10.3981L10.3344 15.8719C11.2795 16.5019 12.4929 16.5413 13.4716 15.99L13.664 15.8719L21.8758 10.3975C22.0939 11.0532 22.0288 11.7975 21.634 12.4293ZM21.634 16.3309C21.4558 16.6159 21.2198 16.8604 20.9412 17.0484L13.6783 21.9509C12.6637 22.6358 11.3348 22.6358 10.3201 21.9509L3.05722 17.0484C2.14365 16.4318 1.78938 15.2966 2.12187 14.2997L10.3344 19.7735C11.2795 20.4036 12.4929 20.4429 13.4716 19.8916L13.664 19.7735L21.8758 14.2991C22.0939 14.9548 22.0288 15.6991 21.634 16.3309Z" fill="#0A2EBF"/>
</svg>
