<svg width="24" height="24" viewBox="0 0 24 24" fill="none" xmlns="http://www.w3.org/2000/svg">
<path d="M2.29081 8.79327L6.28658 4.79327C6.64684 4.43262 7.214 4.40456 7.60645 4.70931L7.70071 4.79243L11.7059 8.79243C12.0967 9.1827 12.0971 9.81586 11.7069 10.2066C11.3466 10.5674 10.7794 10.5955 10.3869 10.2907L10.2927 10.2076L7.99929 7.917L7.9993 18.5007C7.9993 19.0135 7.61326 19.4362 7.11592 19.4939L6.9993 19.5007C6.48647 19.5007 6.06379 19.1146 6.00603 18.6173L5.9993 18.5007L5.99929 7.91L3.70577 10.2067C3.34548 10.5674 2.77826 10.5954 2.38581 10.2906L2.29156 10.2075C1.93088 9.84719 1.90285 9.27997 2.20767 8.88752L2.29081 8.79327L6.28658 4.79327L2.29081 8.79327ZM16.8827 4.50994L16.9993 4.50322C17.5121 4.50322 17.9348 4.88926 17.9926 5.3866L17.9993 5.50322L17.9993 16.087L20.2919 13.7932C20.6522 13.4326 21.2194 13.4046 21.6118 13.7094L21.7061 13.7926C22.0667 14.1529 22.0947 14.7201 21.7899 15.1125L21.7067 15.2068L17.7105 19.2068C17.3502 19.5674 16.783 19.5954 16.3905 19.2906L16.2963 19.2074L12.2925 15.2074C11.9018 14.8171 11.9015 14.1839 12.2919 13.7932C12.6522 13.4326 13.2194 13.4046 13.6118 13.7094L13.7061 13.7926L15.9993 16.083L15.9993 5.50322C15.9993 4.99038 16.3853 4.56771 16.8827 4.50994L16.9993 4.50322L16.8827 4.50994Z" fill="#84868C"/>
</svg>
