<svg width="24" height="24" viewBox="0 0 24 24" fill="none" xmlns="http://www.w3.org/2000/svg">
<rect width="24" height="24" rx="2" fill="#2DDC88"/>
<path d="M19.6997 19.6997C19.2994 20.1001 18.6502 20.1001 18.2499 19.6997L17.5249 18.9748L16.8 19.6997C16.3996 20.1001 15.7505 20.1001 15.3501 19.6997C14.9784 19.328 14.9518 18.7417 15.2705 18.3393L15.3501 18.2499L16.0751 17.5249L15.3501 16.8L13.9003 18.2499C13.4999 18.6502 12.8508 18.6502 12.4504 18.2499C12.0786 17.8781 12.0521 17.2918 12.3707 16.8894L12.4504 16.8L13.9003 15.3501L10.2756 11.7255C10.245 11.6949 10.2167 11.6628 10.1908 11.6295C8.61749 12.5635 6.55416 12.3536 5.2011 11.0006C3.59963 9.39908 3.59963 6.80258 5.2011 5.2011C6.80258 3.59963 9.39908 3.59963 11.0006 5.2011C12.3536 6.55416 12.5635 8.61749 11.6302 10.1909L11.6786 10.2315L19.6997 18.2499C20.1001 18.6502 20.1001 19.2994 19.6997 19.6997ZM9.55069 9.55069C10.3514 8.74995 10.3514 7.4517 9.55069 6.65097C8.74995 5.85023 7.4517 5.85023 6.65097 6.65097C5.85023 7.4517 5.85023 8.74995 6.65097 9.55069C7.4517 10.3514 8.74995 10.3514 9.55069 9.55069Z" fill="white"/>
</svg>
