<svg width="24" height="24" viewBox="0 0 24 24" fill="none" xmlns="http://www.w3.org/2000/svg">
<path d="M13.6911 2.50718C13.3307 2.14686 13.3308 1.56267 13.6911 1.20235L14.6232 0.270238C14.9835 -0.0900793 15.5677 -0.0900796 15.928 0.270238L22.4525 6.7947C22.8128 7.15502 22.8128 7.73921 22.4525 8.09953L21.5204 9.03165C21.16 9.39196 20.5759 9.39196 20.2155 9.03165L13.6911 2.50718Z" fill="#7490FF"/>
<path d="M0.270239 14.6243C-0.0900792 14.9846 -0.0900798 15.5688 0.270238 15.9291L6.7947 22.4536C7.15502 22.8139 7.73921 22.8139 8.09953 22.4536L9.03165 21.5214C9.39196 21.1611 9.39196 20.5769 9.03165 20.2166L2.50718 13.6921C2.14686 13.3318 1.56267 13.3318 1.20235 13.6921L0.270239 14.6243Z" fill="#7490FF"/>
<path d="M13.5983 3.5323L3.53205 13.5985L9.12441 19.1909L13.263 15.0523L22.2106 24L24.0002 22.2104L15.0525 13.2628L19.1906 9.12465L13.5983 3.5323Z" fill="#7490FF"/>
</svg>
