<svg width="32" height="32" viewBox="0 0 32 32" fill="none" xmlns="http://www.w3.org/2000/svg">
<rect width="32" height="32" rx="2" fill="#D2D3D9"/>
<path d="M7.15407 16.8252C6.94864 17.0306 6.94864 17.3637 7.15407 17.5691L11.6177 22.0327C11.8231 22.2382 12.1562 22.2382 12.3616 22.0327L13.1055 21.2888C13.311 21.0834 13.311 20.7503 13.1055 20.5449L8.64194 16.0813C8.43651 15.8758 8.10344 15.8758 7.89801 16.0813L7.15407 16.8252Z" fill="white"/>
<path d="M16.0813 9.38587L9.38587 16.0813L13.1055 19.8009L15.8579 17.0485L21.8094 23L22.9997 21.8097L17.0482 15.8582L19.8009 13.1055L16.0813 9.38587Z" fill="white"/>
<path d="M16.0813 8.64194C15.8758 8.43651 15.8758 8.10344 16.0813 7.89801L16.8252 7.15407C17.0306 6.94864 17.3637 6.94864 17.5691 7.15407L22.0327 11.6177C22.2382 11.8231 22.2382 12.1562 22.0327 12.3616L21.2888 13.1055C21.0834 13.311 20.7503 13.311 20.5449 13.1055L16.0813 8.64194Z" fill="white"/>
</svg>
