<svg width="24" height="24" viewBox="0 0 24 24" fill="none" xmlns="http://www.w3.org/2000/svg">
<path d="M21 17H9C8.44772 17 8 17.4477 8 18C8 18.5128 8.38604 18.9355 8.88338 18.9933L9 19H21C21.5523 19 22 18.5523 22 18C22 17.4872 21.614 17.0645 21.1166 17.0067L21 17H9H21ZM21 11H3C2.44772 11 2 11.4477 2 12C2 12.5128 2.38604 12.9355 2.88338 12.9933L3 13H21C21.5523 13 22 12.5523 22 12C22 11.4872 21.614 11.0645 21.1166 11.0067L21 11H3H21ZM21 5H6C5.44772 5 5 5.44772 5 6C5 6.51284 5.38604 6.93551 5.88338 6.99327L6 7H21C21.5523 7 22 6.55228 22 6C22 5.48716 21.614 5.06449 21.1166 5.00673L21 5H6H21Z" fill="white"/>
</svg>
