<svg width="24" height="24" viewBox="0 0 24 24" fill="none" xmlns="http://www.w3.org/2000/svg">
<path d="M16.0824 9.65712C15.5309 9.18866 15.0048 8.68671 14.5693 8.10334C12.0919 4.78513 13.3754 2 13.3754 2C8.77663 3.98495 7.72925 7.13534 7.67968 9.48171L7.68216 9.50657C7.68216 9.50657 7.72228 10.8515 8.30912 12.3295C8.49285 12.7921 8.28805 13.3332 7.82144 13.4726C7.4357 13.5878 7.03926 13.3925 6.8763 13.0285C6.61248 12.4391 6.26405 11.5018 6.36415 10.8407C5.63574 11.8334 5.15377 13.041 5.03 14.3804C4.70437 17.9022 7.06404 21.1707 10.437 21.8625C14.3067 22.656 17.9658 19.9257 18.4865 15.9656C18.8123 13.4878 17.8281 11.1403 16.0824 9.65712Z" fill="white"/>
</svg>
