<svg width="24" height="24" viewBox="0 0 24 24" fill="none" xmlns="http://www.w3.org/2000/svg">
<path d="M21.9878 10.9948L21.9883 16.2758C21.9883 17.7384 20.8466 18.9342 19.4058 19.0208L19.2383 19.0258H4.76049C3.29795 19.0258 2.10208 17.8841 2.0155 16.4434L2.01049 16.2758L2.00977 10.9948H21.9878ZM18.2523 14.5H15.7523L15.6506 14.5069C15.2845 14.5566 15.0023 14.8703 15.0023 15.25C15.0023 15.6297 15.2845 15.9435 15.6506 15.9932L15.7523 16H18.2523L18.3541 15.9932C18.7202 15.9435 19.0023 15.6297 19.0023 15.25C19.0023 14.8703 18.7202 14.5566 18.3541 14.5069L18.2523 14.5ZM19.2383 5.02075C20.7009 5.02075 21.8967 6.16246 21.9833 7.60323L21.9883 7.77075L21.9878 9.49475H2.00977L2.01049 7.77075C2.01049 6.30822 3.15219 5.11235 4.59296 5.02577L4.76049 5.02075H19.2383Z" fill="white"/>
</svg>
