<svg width="129" height="32" viewBox="0 0 129 32" fill="none" xmlns="http://www.w3.org/2000/svg">
<path fill-rule="evenodd" clip-rule="evenodd" d="M68.1754 3.05623H69.3564C69.2686 1.57316 68.2535 0.888672 66.8381 0.888672C65.579 0.888672 64.3296 1.53514 64.3491 2.83757C64.3687 4.16853 65.5497 4.56782 66.7015 4.87204C66.7698 4.89032 66.8375 4.90803 66.9042 4.92551L66.9043 4.92552C67.7053 5.1352 68.3706 5.30936 68.3706 5.99384C68.3706 6.69735 67.6873 7.03959 66.9065 7.03959C65.9987 7.03959 65.335 6.54524 65.3057 5.63258H64.0954C64.1734 7.24874 65.3643 7.99978 66.9065 7.99978C68.1851 7.99978 69.5419 7.37233 69.5419 5.98433C69.5419 4.57814 68.3559 4.26484 67.2099 3.96209L67.0919 3.93086C66.1842 3.69319 65.5302 3.4365 65.5302 2.82807C65.5302 2.13407 66.1354 1.84886 66.8186 1.84886C67.658 1.84886 68.0875 2.24815 68.1754 3.05623ZM55.3708 5.75617H56.542C56.2199 7.02058 55.0682 7.96176 53.321 7.96176C51.1443 7.96176 49.7778 6.45968 49.7778 4.44423C49.7778 2.44779 51.1541 0.926699 53.3308 0.926699C55.0877 0.926699 56.1126 1.81083 56.542 3.13228H55.3708C54.9998 2.3147 54.3947 1.8964 53.3308 1.8964C51.8471 1.8964 50.9589 3.02771 50.9589 4.44423C50.9589 5.86075 51.8471 6.99206 53.3308 6.99206C54.4728 6.99206 55.0877 6.4977 55.3708 5.75617ZM63.7053 7.83817H62.4657L61.7727 5.99384H58.8542L58.1612 7.83817H56.9313L59.5863 1.05029H61.0601L63.7053 7.83817ZM60.3281 2.06752H60.2988L59.1958 5.07168H61.4311L60.3281 2.06752ZM70.6326 1.05029H73.1216C74.6345 1.05029 75.591 1.94393 75.591 3.14179C75.591 4.36817 74.5564 5.29034 73.1216 5.29034H71.8136V7.83817H70.6326V1.05029ZM71.8136 4.33015H73.024C73.9024 4.33015 74.41 3.91184 74.41 3.1513C74.41 2.39075 73.9024 2.01048 73.024 2.01048H71.8136V4.33015ZM77.5995 6.86847V4.88154H80.7035V3.92135H77.5995V2.01998H80.9084V1.05029H76.4185V7.83817H80.9377V6.86847H77.5995ZM83.2901 7.83817H82.1091V1.05029H84.764C86.355 1.05029 87.2237 1.86788 87.2237 2.98018C87.2237 3.8548 86.6479 4.56782 85.828 4.76746C86.4234 4.9576 86.6479 5.46146 86.8919 6.25053C86.9172 6.32695 86.9411 6.40032 86.9641 6.47109C87.1271 6.97252 87.2477 7.34321 87.5556 7.7431V7.83817H86.2867C86.0582 7.54821 85.9427 7.15302 85.8252 6.751C85.777 6.58623 85.7285 6.42032 85.6718 6.26003C85.4473 5.63258 85.174 5.17625 84.3248 5.17625H83.2901V7.83817ZM83.2901 1.99146V4.22557H84.7055C85.5839 4.22557 86.0524 3.76924 86.0524 3.06574C86.0524 2.46681 85.662 1.99146 84.6664 1.99146H83.2901ZM90.3213 10.222V30.7092H93.6736V10.222H90.3213ZM86.5686 21.5846V27.2947C86.5686 28.4137 86.6264 29.9345 86.8576 30.7092H83.4475C83.3319 30.1066 83.303 29.418 83.303 28.7293V28.2989H83.2741C82.7539 29.6475 81.3956 31.0822 78.5346 31.0822C75.1823 31.0822 73.2749 29.0163 73.2749 26.6634C73.2749 22.8407 77.2873 22.3226 79.683 22.0134L79.6831 22.0133C79.9847 21.9744 80.2606 21.9388 80.4998 21.9003C82.4649 21.5846 83.2741 21.2977 83.2741 20.0639C83.2741 18.8301 82.2048 18.0266 80.3842 18.0266C78.7658 18.0266 77.6098 18.9161 77.5231 20.4082H74.2575C74.402 17.9693 76.3382 15.4442 80.3264 15.4442C85.2971 15.4442 86.5686 18.3997 86.5686 21.5846ZM79.3727 28.6433C81.4245 28.6433 83.3608 27.1799 83.3608 23.8801V22.3307C83.014 23.2202 82.1759 23.9088 79.7195 24.3392C77.6676 24.7122 76.5983 25.2861 76.5983 26.606C76.5983 27.7824 77.6387 28.6433 79.3727 28.6433ZM57.9564 30.7092H54.055L49.7778 15.8746H53.2169L55.182 23.6506C55.3921 24.4849 55.5386 25.2139 55.692 25.978L55.692 25.978C55.7919 26.4753 55.8948 26.9873 56.0201 27.5529H56.049C56.2189 26.878 56.3472 26.2583 56.4781 25.6261L56.4781 25.6261C56.6143 24.9681 56.7533 24.2968 56.9449 23.5358L58.8812 15.8746H62.8404L64.7766 23.5645C64.9506 24.2555 65.1159 25.0066 65.2821 25.7614L65.2821 25.7614L65.2821 25.7615L65.2821 25.7615L65.2821 25.7616L65.2821 25.7616L65.2821 25.7616C65.4196 26.3859 65.5575 27.0128 65.7014 27.6103H65.7303C65.8689 27.0187 66.0075 26.3742 66.1492 25.715C66.3031 24.9995 66.4608 24.2664 66.6262 23.5645L68.5047 15.8746H71.9437L67.6377 30.7092H63.7363L61.7133 22.9619C61.3954 21.7281 61.0775 20.4082 60.8752 19.3179H60.7885C60.5284 20.5517 60.2972 21.642 59.9793 22.9332L57.9564 30.7092ZM97.6658 30.7092V10.222H101.018V30.7092H97.6658ZM118.824 23.5645C118.795 19.3752 116.715 15.4729 111.628 15.4729C107.264 15.4729 104.086 18.744 104.086 23.2489C104.086 27.9259 107.149 31.1109 111.628 31.1109C115.154 31.1109 117.726 29.3319 118.622 26.3191H115.299C114.749 27.8111 113.333 28.4424 111.628 28.4424C109.287 28.4424 107.553 26.8929 107.322 24.1958H118.824V23.5645ZM107.38 21.7855C107.727 19.5187 109.287 18.0553 111.599 18.0553C113.911 18.0553 115.27 19.4613 115.501 21.7855H107.38ZM128.889 15.8746V18.457H125.97V25.6017C125.97 27.0938 126.404 28.1555 127.675 28.1555H128.571V30.7092H126.982C123.716 30.7092 122.647 28.6146 122.647 26.0034V18.457H120.335V15.8746H122.647V12.5462L125.855 10.9393H125.97V15.8746H128.889Z" fill="white"/>
<g clip-path="url(#clip0_10445_405)">
<path fill-rule="evenodd" clip-rule="evenodd" d="M3.55556 0.888672C1.59188 0.888672 0 2.48055 0 4.44423V27.5553C0 29.519 1.59188 31.1109 3.55556 31.1109H37.3333C39.297 31.1109 40.8889 29.519 40.8889 27.5553V4.44423C40.8889 2.48055 39.297 0.888672 37.3333 0.888672H3.55556ZM27.0052 4.95266C26.3273 4.27475 25.2282 4.27475 24.5503 4.95266L14.7307 14.7723C14.0527 15.4502 14.0527 16.5493 14.7307 17.2272L24.5503 27.0469C25.2282 27.7248 26.3273 27.7248 27.0052 27.0469L32.5288 21.5233C32.8678 21.1844 32.8678 20.6348 32.5288 20.2959L30.0739 17.841C29.7349 17.502 29.1854 17.502 28.8464 17.841L26.6984 19.989C26.1899 20.4975 25.3656 20.4975 24.8572 19.989L21.7885 16.9204C21.2801 16.4119 21.2801 15.5876 21.7885 15.0792L24.8572 12.0105C25.3656 11.5021 26.1899 11.5021 26.6984 12.0105L28.8464 14.1586C29.1854 14.4975 29.7349 14.4975 30.0739 14.1586L32.5288 11.7037C32.8678 11.3647 32.8678 10.8152 32.5288 10.4762L27.0052 4.95266Z" fill="#FF0012"/>
</g>
<defs>
<clipPath id="clip0_10445_405">
<rect width="40.8889" height="32" fill="white"/>
</clipPath>
</defs>
</svg>
