<svg width="104" height="68" viewBox="0 0 104 68" fill="none" xmlns="http://www.w3.org/2000/svg">
<path fill-rule="evenodd" clip-rule="evenodd" d="M8 0C3.58172 0 0 3.58172 0 8V60C0 64.4183 3.58172 68 8 68H96C100.418 68 104 64.4183 104 60V8C104 3.58172 100.418 0 96 0H8ZM72.7618 9.14397C71.2365 7.61868 68.7635 7.61868 67.2382 9.14397L45.144 31.2382C43.6187 32.7635 43.6187 35.2365 45.144 36.7618L67.2382 58.856C68.7635 60.3813 71.2365 60.3813 72.7618 58.856L85.1898 46.428C85.9524 45.6654 85.9524 44.4289 85.1898 43.6662L79.6662 38.1427C78.9036 37.38 77.6671 37.38 76.9045 38.1427L72.0713 42.9758C70.9274 44.1198 69.0726 44.1198 67.9287 42.9758L61.0242 36.0713C59.8802 34.9274 59.8802 33.0726 61.0242 31.9287L67.9287 25.0242C69.0726 23.8802 70.9274 23.8802 72.0713 25.0242L76.9044 29.8573C77.6671 30.62 78.9036 30.62 79.6662 29.8573L85.1898 24.3338C85.9524 23.5711 85.9524 22.3346 85.1898 21.572L72.7618 9.14397Z" fill="#FF0012"/>
</svg>
