<svg width="44" height="32" viewBox="0 0 44 32" fill="none" xmlns="http://www.w3.org/2000/svg">
<path fill-rule="evenodd" clip-rule="evenodd" d="M3.76471 0C1.68552 0 0 1.68552 0 3.76471V28.2353C0 30.3145 1.68552 32 3.76471 32H39.5294C41.6086 32 43.2941 30.3145 43.2941 28.2353V3.76471C43.2941 1.68552 41.6086 0 39.5294 0H3.76471ZM28.5938 4.30304C27.876 3.58526 26.7122 3.58526 25.9945 4.30304L15.5972 14.7003C14.8794 15.4181 14.8794 16.5819 15.5972 17.2997L25.9945 27.697C26.7122 28.4147 27.876 28.4147 28.5938 27.697L34.4423 21.8485C34.8012 21.4896 34.8012 20.9077 34.4423 20.5488L31.8429 17.9495C31.484 17.5906 30.9022 17.5906 30.5433 17.9495L28.2689 20.2239C27.7305 20.7622 26.8577 20.7622 26.3194 20.2239L23.0702 16.9747C22.5319 16.4364 22.5319 15.5636 23.0702 15.0253L26.3194 11.7761C26.8577 11.2378 27.7305 11.2378 28.2689 11.7761L30.5433 14.0505C30.9022 14.4094 31.484 14.4094 31.8429 14.0505L34.4423 11.4512C34.8012 11.0923 34.8012 10.5104 34.4423 10.1515L28.5938 4.30304Z" fill="white"/>
</svg>
