<svg width="164" height="40" viewBox="0 0 164 40" fill="none" xmlns="http://www.w3.org/2000/svg">
<path fill-rule="evenodd" clip-rule="evenodd" d="M86.2191 3.82056H87.6954C87.5856 1.96673 86.3167 1.11111 84.5476 1.11111C82.9736 1.11111 81.4119 1.91919 81.4363 3.54724C81.4607 5.21094 82.937 5.71004 84.3767 6.09032C84.4621 6.11315 84.5466 6.13528 84.63 6.15711L84.6302 6.15718C85.6314 6.41927 86.4631 6.63698 86.4631 7.49258C86.4631 8.37196 85.609 8.79977 84.633 8.79977C83.4983 8.79977 82.6686 8.18182 82.632 7.041H81.1191C81.2167 9.0612 82.7052 10 84.633 10C86.2313 10 87.9272 9.21569 87.9272 7.48069C87.9272 5.72294 86.4448 5.33132 85.0123 4.95289L84.8648 4.91385C83.7301 4.61676 82.9126 4.2959 82.9126 3.53536C82.9126 2.66786 83.6691 2.31135 84.5231 2.31135C85.5724 2.31135 86.1093 2.81046 86.2191 3.82056ZM70.2133 7.19549H71.6774C71.2748 8.776 69.8351 9.95247 67.6511 9.95247C64.9303 9.95247 63.2222 8.07487 63.2222 5.55556C63.2222 3.06002 64.9425 1.15865 67.6633 1.15865C69.8595 1.15865 71.1406 2.26382 71.6774 3.91563H70.2133C69.7497 2.89365 68.9932 2.37077 67.6633 2.37077C65.8088 2.37077 64.6985 3.78491 64.6985 5.55556C64.6985 7.32621 65.8088 8.74035 67.6633 8.74035C69.0908 8.74035 69.8595 8.1224 70.2133 7.19549ZM80.6315 9.79798H79.082L78.2157 7.49258H74.5676L73.7014 9.79798H72.164L75.4827 1.31313H77.3251L80.6315 9.79798ZM76.41 2.58467H76.3734L74.9947 6.33987H77.7887L76.41 2.58467ZM89.2906 1.31313H92.4018C94.293 1.31313 95.4887 2.43019 95.4887 3.92751C95.4887 5.46049 94.1954 6.61319 92.4018 6.61319H90.7669V9.79798H89.2906V1.31313ZM90.7669 5.41296H92.2798C93.3779 5.41296 94.0124 4.89008 94.0124 3.9394C94.0124 2.98871 93.3779 2.51337 92.2798 2.51337H90.7669V5.41296ZM97.9993 8.58586V6.1022H101.879V4.90196H97.9993V2.52526H102.135V1.31313H96.523V9.79798H102.172V8.58586H97.9993ZM105.113 9.79798H103.636V1.31313H106.955C108.944 1.31313 110.03 2.33512 110.03 3.72549C110.03 4.81878 109.31 5.71004 108.285 5.9596C109.029 6.19727 109.31 6.8271 109.615 7.81343C109.646 7.90895 109.676 8.00065 109.705 8.0891C109.909 8.7159 110.059 9.17927 110.444 9.67915V9.79798H108.858C108.573 9.43553 108.428 8.94155 108.281 8.43902C108.221 8.23307 108.161 8.02568 108.09 7.82532C107.809 7.041 107.467 6.47059 106.406 6.47059H105.113V9.79798ZM105.113 2.48961V5.28224H106.882C107.98 5.28224 108.565 4.71183 108.565 3.83245C108.565 3.08378 108.077 2.48961 106.833 2.48961H105.113ZM113.901 12.7778V38.3868H118.092V12.7778H113.901ZM109.211 26.9811V34.1186C109.211 35.5174 109.283 37.4184 109.572 38.3868H105.309C105.165 37.6335 105.129 36.7727 105.129 35.9119V35.3739H105.093C104.442 37.0597 102.744 38.853 99.1681 38.853C94.9777 38.853 92.5935 36.2706 92.5935 33.3295C92.5935 28.5511 97.609 27.9036 100.604 27.517L100.604 27.5169L100.604 27.5169C100.981 27.4682 101.326 27.4237 101.625 27.3756C104.081 26.9811 105.093 26.6224 105.093 25.0801C105.093 23.5379 103.756 22.5336 101.48 22.5336C99.4571 22.5336 98.0121 23.6455 97.9038 25.5105H93.8217C94.0023 22.4618 96.4227 19.3056 101.408 19.3056C107.621 19.3056 109.211 22.9999 109.211 26.9811ZM100.216 35.8043C102.781 35.8043 105.201 33.9751 105.201 29.8504V27.9136C104.767 29.0255 103.72 29.8863 100.649 30.4243C98.0844 30.8906 96.7478 31.6079 96.7478 33.2578C96.7478 34.7283 98.0483 35.8043 100.216 35.8043ZM73.4453 38.3868H68.5686L63.2222 19.8436H67.521L69.9774 29.5635C70.24 30.6064 70.4231 31.5177 70.6149 32.4728C70.7398 33.0943 70.8684 33.7344 71.025 34.4414H71.0611C71.2736 33.5978 71.4339 32.8231 71.5975 32.033L71.5975 32.0329L71.5975 32.0329C71.7678 31.2104 71.9415 30.3712 72.181 29.42L74.6013 19.8436H79.5504L81.9707 29.4559C82.1882 30.3196 82.3948 31.2585 82.6025 32.2021L82.6025 32.2023L82.6026 32.2024C82.7743 32.9828 82.9468 33.7663 83.1267 34.5131H83.1628C83.336 33.7736 83.5092 32.968 83.6864 32.144C83.8788 31.2495 84.0758 30.3333 84.2826 29.4559L86.6307 19.8436H90.9295L85.547 38.3868H80.6702L78.1415 28.7027C77.7441 27.1604 77.3468 25.5105 77.0939 24.1476H76.9855C76.6604 25.6899 76.3714 27.0528 75.9741 28.6668L73.4453 38.3868ZM123.082 38.3868V12.7778H127.273V38.3868H123.082ZM149.53 29.4559C149.494 24.2193 146.893 19.3414 140.535 19.3414C135.08 19.3414 131.107 23.4303 131.107 29.0614C131.107 34.9077 134.936 38.8889 140.535 38.8889C144.942 38.8889 148.157 36.6651 149.277 32.8991H145.123C144.437 34.7642 142.667 35.5533 140.535 35.5533C137.609 35.5533 135.442 33.6165 135.153 30.245H149.53V29.4559ZM135.225 27.2321C135.658 24.3987 137.609 22.5694 140.499 22.5694C143.389 22.5694 145.087 24.3269 145.376 27.2321H135.225ZM162.111 19.8436V23.0716H158.463V32.0024C158.463 33.8675 159.004 35.1946 160.594 35.1946H161.714V38.3868H159.727C155.645 38.3868 154.308 35.7685 154.308 32.5046V23.0716H151.418V19.8436H154.308V15.683L158.318 13.6745H158.463V19.8436H162.111Z" fill="#0021A5"/>
<g clip-path="url(#clip0_4834_8275)">
<path fill-rule="evenodd" clip-rule="evenodd" d="M5.44444 1.11111C2.98985 1.11111 1 3.10096 1 5.55556V34.4445C1 36.8991 2.98985 38.8889 5.44444 38.8889H47.6667C50.1213 38.8889 52.1111 36.8991 52.1111 34.4445V5.55556C52.1111 3.10096 50.1213 1.11111 47.6667 1.11111H5.44444ZM34.7565 6.1911C33.9092 5.34371 32.5353 5.34371 31.6879 6.1911L19.4133 18.4657C18.5659 19.3131 18.5659 20.6869 19.4133 21.5343L31.6879 33.8089C32.5353 34.6563 33.9092 34.6563 34.7565 33.8089L41.661 26.9045C42.0847 26.4808 42.0847 25.7938 41.661 25.3701L38.5924 22.3015C38.1687 21.8778 37.4817 21.8778 37.058 22.3015L34.373 24.9866C33.7374 25.6221 32.707 25.6221 32.0715 24.9866L28.2357 21.1507C27.6001 20.5152 27.6001 19.4848 28.2357 18.8493L32.0715 15.0135C32.707 14.3779 33.7374 14.3779 34.373 15.0135L37.058 17.6985C37.4817 18.1222 38.1687 18.1222 38.5924 17.6985L41.661 14.6299C42.0847 14.2062 42.0847 13.5192 41.661 13.0956L34.7565 6.1911Z" fill="#FF0012"/>
</g>
<defs>
<clipPath id="clip0_4834_8275">
<rect width="51.1111" height="40" fill="white" transform="translate(1)"/>
</clipPath>
</defs>
</svg>
