<svg version="1.0" xmlns="http://www.w3.org/2000/svg"
 width="32.000000pt" height="32.000000pt" viewBox="0 0 32.000000 32.000000"
 preserveAspectRatio="xMidYMid meet">
<metadata>
Created by potrace 1.16, written by Peter Selinger 2001-2019
</metadata>
<g transform="translate(0.000000,32.000000) scale(0.006154,-0.005489)"
fill="#EA3329" stroke="none">
<path d="M1015 5819 c-162 -21 -330 -78 -470 -162 -108 -64 -262 -208 -333
-311 -102 -147 -177 -338 -201 -510 -15 -103 -15 -3741 -1 -3841 54 -379 276
-696 606 -865 43 -22 121 -54 171 -70 196 -63 78 -60 2346 -60 l2067 0 0 585
0 585 -1922 2 c-1852 3 -1925 4 -1966 22 -56 24 -117 94 -131 151 -8 31 -11
479 -11 1568 0 1672 -3 1583 60 1659 16 20 49 46 73 57 l43 21 1927 0 1927 0
0 591 0 592 -92 -6 c-240 -14 -441 -142 -547 -346 -51 -99 -59 -130 -75 -287
-16 -146 -31 -187 -98 -260 -22 -24 -65 -56 -95 -70 -149 -73 -345 5 -414 164
-15 33 -23 83 -29 167 -10 135 -27 201 -76 295 -86 165 -248 285 -437 324 -67
14 -213 16 -1164 15 -598 -1 -1119 -5 -1158 -10z"/>
</g>
</svg>
