<svg width="24" height="24" viewBox="0 0 24 24" fill="none" xmlns="http://www.w3.org/2000/svg">
<path fill-rule="evenodd" clip-rule="evenodd" d="M6 2C3.79086 2 2 3.79086 2 6V18C2 20.2091 3.79086 22 6 22H18C20.2091 22 22 20.2091 22 18V6C22 3.79086 20.2091 2 18 2H6ZM15.2197 8.96967L10.75 13.4393L8.78033 11.4697C8.48744 11.1768 8.01256 11.1768 7.71967 11.4697C7.42678 11.7626 7.42678 12.2374 7.71967 12.5303L10.2197 15.0303C10.5126 15.3232 10.9874 15.3232 11.2803 15.0303L16.2803 10.0303C16.5732 9.73744 16.5732 9.26256 16.2803 8.96967C15.9874 8.67678 15.5126 8.67678 15.2197 8.96967Z" fill="#0A2EBF"/>
</svg>
