<svg width="24" height="24" viewBox="0 0 24 24" fill="none" xmlns="http://www.w3.org/2000/svg">
<path d="M6.2097 6.3871L6.29289 6.29289C6.65338 5.93241 7.22061 5.90468 7.6129 6.2097L7.70711 6.29289L12 10.585L16.2929 6.29289C16.6834 5.90237 17.3166 5.90237 17.7071 6.29289C18.0976 6.68342 18.0976 7.31658 17.7071 7.70711L13.415 12L17.7071 16.2929C18.0676 16.6534 18.0953 17.2206 17.7903 17.6129L17.7071 17.7071C17.3466 18.0676 16.7794 18.0953 16.3871 17.7903L16.2929 17.7071L12 13.415L7.70711 17.7071C7.31658 18.0976 6.68342 18.0976 6.29289 17.7071C5.90237 17.3166 5.90237 16.6834 6.29289 16.2929L10.585 12L6.29289 7.70711C5.93241 7.34662 5.90468 6.77939 6.2097 6.3871Z" fill="#BCBDC1"/>
</svg>
