<svg width="16" height="20" viewBox="0 0 16 20" fill="none" xmlns="http://www.w3.org/2000/svg">
<path d="M13.7545 11.9999C14.9966 11.9999 16.0034 13.0068 16.0034 14.2488V15.1673C16.0034 15.7406 15.8242 16.2997 15.4908 16.7662C13.9449 18.9294 11.4206 20.0011 8.00036 20.0011C4.5794 20.0011 2.05643 18.9289 0.514274 16.7646C0.182312 16.2987 0.00390625 15.7409 0.00390625 15.1688V14.2488C0.00390625 13.0068 1.01076 11.9999 2.25278 11.9999H13.7545ZM8.00036 0.00463867C10.7618 0.00463867 13.0004 2.24321 13.0004 5.00464C13.0004 7.76606 10.7618 10.0046 8.00036 10.0046C5.23894 10.0046 3.00036 7.76606 3.00036 5.00464C3.00036 2.24321 5.23894 0.00463867 8.00036 0.00463867Z" fill="#BCBDC1"/>
</svg>
