<svg width="16" height="16" viewBox="0 0 16 16" fill="none" xmlns="http://www.w3.org/2000/svg">
<path fill-rule="evenodd" clip-rule="evenodd" d="M2 0C0.895431 0 0 0.895433 0 2V10.3077C0 11.4123 0.895433 12.3077 2 12.3077H10.3077C11.4123 12.3077 12.3077 11.4123 12.3077 10.3077V2C12.3077 0.895431 11.4123 0 10.3077 0H2ZM2.46154 14V13.5385H11.0386C12.4193 13.5385 13.5386 12.4192 13.5386 11.0385V2.46154H14C15.1046 2.46154 16 3.35697 16 4.46154V14C16 15.1046 15.1046 16 14 16H4.46154C3.35697 16 2.46154 15.1046 2.46154 14Z" fill="#BCBDC1"/>
</svg>
