<svg width="24" height="24" viewBox="0 0 24 24" fill="none" xmlns="http://www.w3.org/2000/svg">
<path d="M9.42779 4.48828C10.2297 4.21348 10.657 3.34064 10.3822 2.53872C10.1074 1.7368 9.23459 1.30948 8.43267 1.58428C7.35537 1.95344 6.35433 2.48465 5.45854 3.14814C2.75649 5.14947 1 8.36601 1 11.9925C1 15.619 2.75649 18.8355 5.45854 20.8368C6.35177 21.4984 7.34965 22.0285 8.42344 22.3975C9.22511 22.673 10.0983 22.2465 10.3739 21.4448C10.6494 20.6432 10.2228 19.7699 9.42115 19.4944C8.64927 19.2292 7.93043 18.8476 7.28564 18.37C5.33159 16.9227 4.06977 14.6051 4.06977 11.9925C4.06977 9.37986 5.33159 7.06226 7.28564 5.61495C7.93228 5.136 8.65339 4.75364 9.42779 4.48828Z" fill="#BCBDC1"/>
<path d="M15.5673 1.58428C14.7654 1.30948 13.8926 1.7368 13.6178 2.53872C13.343 3.34064 13.7703 4.21348 14.5722 4.48828C15.3466 4.75364 16.0677 5.136 16.7144 5.61495C18.6684 7.06226 19.9302 9.37986 19.9302 11.9925C19.9302 14.6051 18.6684 16.9227 16.7144 18.37C16.0696 18.8476 15.3507 19.2292 14.5788 19.4944C13.7772 19.7699 13.3506 20.6432 13.6261 21.4448C13.9017 22.2465 14.7749 22.673 15.5766 22.3975C16.6503 22.0285 17.6482 21.4984 18.5415 20.8368C21.2435 18.8355 23 15.619 23 11.9925C23 8.36601 21.2435 5.14947 18.5415 3.14814C17.6457 2.48465 16.6446 1.95344 15.5673 1.58428Z" fill="#BCBDC1"/>
<path d="M12 16.853C14.6844 16.853 16.8605 14.6768 16.8605 11.9925C16.8605 9.30813 14.6844 7.13202 12 7.13202C9.31564 7.13202 7.13953 9.30813 7.13953 11.9925C7.13953 14.6768 9.31564 16.853 12 16.853Z" fill="#BCBDC1"/>
</svg>
