<svg width="24" height="24" viewBox="0 0 24 24" fill="none" xmlns="http://www.w3.org/2000/svg">
<path fill-rule="evenodd" clip-rule="evenodd" d="M15.6603 3.42861C15.6603 5.32217 14.1253 6.85721 12.2317 6.85721C11.6677 6.85721 11.1356 6.72104 10.6663 6.47977C10.8527 5.11259 10.4204 3.67723 9.36944 2.62627C9.24979 2.50662 9.12517 2.395 8.99623 2.29139C9.4653 0.956776 10.7368 0 12.2317 0C14.1253 0 15.6603 1.53504 15.6603 3.42861ZM8.55759 3.43404C9.89654 4.773 9.89654 6.94387 8.55759 8.28283C8.11446 8.72595 7.58023 9.02242 7.01518 9.17224C6.17807 8.11026 4.88012 7.42848 3.42294 7.42848C3.31109 7.42848 3.20017 7.4325 3.09033 7.44039C2.41825 6.14852 2.62441 4.51845 3.70881 3.43404C5.04776 2.09509 7.21863 2.09509 8.55759 3.43404ZM16.8023 3.4289C16.8023 4.97444 16.0353 6.34085 14.8612 7.16827C15.0282 7.60388 15.2873 8.01228 15.6385 8.36345C16.9774 9.70241 19.1483 9.70241 20.4872 8.36345C21.8262 7.0245 21.8262 4.85363 20.4872 3.51467C19.4782 2.50568 17.9968 2.25703 16.755 2.76872C16.7862 2.98428 16.8023 3.2047 16.8023 3.4289ZM9.19443 16.9625C9.03101 16.4779 8.75622 16.0226 8.37008 15.6364C7.03113 14.2975 4.86026 14.2975 3.5213 15.6364C2.18235 16.9754 2.18235 19.1463 3.5213 20.4852C4.588 21.5519 6.18269 21.7688 7.46411 21.1359C7.44132 20.9509 7.42959 20.7625 7.42959 20.5713C7.42959 19.1045 8.1204 17.799 9.19443 16.9625ZM20.5746 16.5709C20.7617 16.5709 20.9461 16.5596 21.1273 16.5378C21.8129 17.8331 21.6105 19.4752 20.52 20.5656C19.1811 21.9046 17.0102 21.9046 15.6713 20.5656C14.3323 19.2266 14.3323 17.0558 15.6713 15.7168C16.0652 15.3229 16.5312 15.0448 17.0269 14.8827C17.8651 15.9128 19.143 16.5709 20.5746 16.5709ZM15.2379 21.7069C15.1098 21.6038 14.9859 21.4927 14.8669 21.3737C13.8161 20.3229 13.3838 18.8879 13.57 17.5209C13.1001 17.2788 12.567 17.1422 12.002 17.1422C10.1085 17.1422 8.57344 18.6772 8.57344 20.5708C8.57344 22.4644 10.1085 23.9994 12.002 23.9994C13.4974 23.9994 14.7692 23.0421 15.2379 21.7069ZM6.53928 13.4441C6.74331 13.0053 6.85721 12.516 6.85721 12.0002C6.85721 10.1067 5.32217 8.57162 3.42861 8.57162C1.53504 8.57162 0 10.1067 0 12.0002C0 13.5022 0.965853 14.7787 2.31036 15.2423C2.43959 15.07 2.58259 14.9047 2.73935 14.7479C3.77659 13.7107 5.18826 13.276 6.53928 13.4441ZM21.4903 9.25284C20.3978 10.3453 18.89 10.7693 17.4751 10.5247C17.2617 10.9716 17.1422 11.472 17.1422 12.0003C17.1422 13.8939 18.6772 15.4289 20.5708 15.4289C22.4644 15.4289 23.9994 13.8939 23.9994 12.0003C23.9994 10.5658 23.1184 9.33703 21.868 8.82557C21.7525 8.9738 21.6266 9.11655 21.4903 9.25284Z" fill="#FF0012"/>
</svg>
