<svg width="24" height="24" viewBox="0 0 24 24" fill="none" xmlns="http://www.w3.org/2000/svg">
<path fill-rule="evenodd" clip-rule="evenodd" d="M1.56509 3C0.700714 3 0 3.70071 0 4.56509C0 5.42946 0.700715 6.13018 1.56509 6.13018H5.73866C6.60303 6.13018 7.30375 5.42946 7.30375 4.56509C7.30375 3.70071 6.60303 3 5.73866 3H1.56509ZM0 10.3037C0 8.86309 1.16786 7.69524 2.60848 7.69524H4.69526C6.13589 7.69524 7.30375 8.86309 7.30375 10.3037C7.30375 11.7443 6.13589 12.9122 4.69526 12.9122H2.60848C1.16786 12.9122 0 11.7443 0 10.3037ZM0 18.1293C0 16.1124 1.635 14.4774 3.65187 14.4774C5.66875 14.4774 7.30375 16.1124 7.30375 18.1293C7.30375 20.1461 5.66875 21.7811 3.65187 21.7811C1.635 21.7811 0 20.1461 0 18.1293ZM8.3481 4.56509C8.3481 3.70071 9.04881 3 9.91319 3H14.0868C14.9511 3 15.6518 3.70071 15.6518 4.56509C15.6518 5.42946 14.9511 6.13018 14.0868 6.13018H9.91319C9.04881 6.13018 8.3481 5.42946 8.3481 4.56509ZM10.9566 7.69551C9.51596 7.69551 8.3481 8.86337 8.3481 10.304C8.3481 11.7446 9.51596 12.9125 10.9566 12.9125H13.0434C14.484 12.9125 15.6518 11.7446 15.6518 10.304C15.6518 8.86337 14.484 7.69551 13.0434 7.69551H10.9566ZM8.3481 18.1293C8.3481 16.1124 9.9831 14.4774 12 14.4774C14.0168 14.4774 15.6518 16.1124 15.6518 18.1293C15.6518 20.1461 14.0168 21.7811 12 21.7811C9.9831 21.7811 8.3481 20.1461 8.3481 18.1293ZM18.2613 3C17.3969 3 16.6962 3.70071 16.6962 4.56509C16.6962 5.42946 17.3969 6.13018 18.2613 6.13018H22.4349C23.2992 6.13018 23.9999 5.42946 23.9999 4.56509C23.9999 3.70071 23.2992 3 22.4349 3H18.2613ZM16.6962 10.304C16.6962 8.86337 17.8641 7.69551 19.3047 7.69551H21.3915C22.8321 7.69551 23.9999 8.86337 23.9999 10.304C23.9999 11.7446 22.8321 12.9125 21.3915 12.9125H19.3047C17.8641 12.9125 16.6962 11.7446 16.6962 10.304ZM20.3481 14.4774C18.3312 14.4774 16.6962 16.1124 16.6962 18.1293C16.6962 20.1461 18.3312 21.7811 20.3481 21.7811C22.3649 21.7811 23.9999 20.1461 23.9999 18.1293C23.9999 16.1124 22.3649 14.4774 20.3481 14.4774Z" fill="#FF0012"/>
</svg>
