<svg width="24" height="24" viewBox="0 0 24 24" fill="none" xmlns="http://www.w3.org/2000/svg">
<path d="M1.48612 2.3339C0.494587 2.38642 0.569487 3.93316 1.56221 3.88065H3.94711C4.14208 3.88065 5.09676 8.95769 5.20732 9.44583C5.734 11.7743 6.26187 14.1028 6.78854 16.4312C6.8682 16.7797 7.1678 17.0268 7.51138 17.0268H21.7304C22.7362 17.0423 22.7362 15.4657 21.7304 15.48H8.10226L5.26082 2.93183C5.18236 2.58215 4.88276 2.3339 4.53798 2.3339H1.56221C1.53724 2.33271 1.51227 2.33271 1.48612 2.3339ZM10.4872 18.5735C9.66564 18.5735 8.99987 19.2658 8.99987 20.1203C8.99987 20.9748 9.66564 21.667 10.4872 21.667C11.3087 21.667 11.9745 20.9748 11.9745 20.1203C11.9745 19.2658 11.3087 18.5735 10.4872 18.5735ZM17.9248 18.5735C17.1033 18.5735 16.4375 19.2658 16.4375 20.1203C16.4375 20.9748 17.1033 21.667 17.9248 21.667C18.7463 21.667 19.4121 20.9748 19.4121 20.1203C19.4121 19.2658 18.7463 18.5735 17.9248 18.5735Z" fill="#0A2EBF"/>
<path d="M8.10226 4.81037C7.6481 4.81037 7.19157 5.19944 7.28312 5.66251L8.85244 13.0823C8.94399 13.5442 9.21743 13.9345 9.67159 13.9345H20.2289C20.683 13.9345 20.9458 13.543 21.048 13.0823L22.7648 5.66251C22.867 5.20302 22.3998 4.81037 21.9456 4.81037H8.10226ZM13.1324 11.2933C13.1324 12.2398 11.5679 12.2398 11.5679 11.2933V8.71065C11.5679 7.76422 13.1324 7.76422 13.1324 8.71065V11.2933ZM15.8062 10.033C15.8062 10.9794 14.2417 10.9794 14.2417 10.033V7.45034C14.2417 6.50391 15.8062 6.50391 15.8062 7.45034V10.033ZM18.48 11.2933C18.48 12.2398 16.9155 12.2398 16.9155 11.2933V8.71065C16.9155 7.76422 18.48 7.76422 18.48 8.71065V11.2933Z" fill="#0A2EBF"/>
</svg>
