<svg width="32" height="32" viewBox="0 0 32 32" fill="none" xmlns="http://www.w3.org/2000/svg">
<rect width="32" height="32" rx="2" fill="#D2D3D9"/>
<path d="M8.29714 20H5.71902V12.7273H8.31845C9.04998 12.7273 9.67972 12.8729 10.2077 13.1641C10.7356 13.4529 11.1416 13.8684 11.4257 14.4105C11.7122 14.9527 11.8554 15.6013 11.8554 16.3565C11.8554 17.1141 11.7122 17.7652 11.4257 18.3097C11.1416 18.8542 10.7332 19.272 10.2006 19.5632C9.67025 19.8544 9.03578 20 8.29714 20ZM7.25666 18.6825H8.23322C8.68777 18.6825 9.07011 18.602 9.38024 18.4411C9.69274 18.2777 9.92711 18.0256 10.0834 17.6847C10.242 17.3414 10.3213 16.8987 10.3213 16.3565C10.3213 15.8191 10.242 15.38 10.0834 15.0391C9.92711 14.6982 9.69392 14.4472 9.38379 14.2862C9.07366 14.1252 8.69132 14.0447 8.23677 14.0447H7.25666V18.6825ZM15.4518 20.1065C14.8907 20.1065 14.4078 19.9929 14.0029 19.7656C13.6005 19.536 13.2903 19.2116 13.0725 18.7926C12.8547 18.3712 12.7458 17.8729 12.7458 17.2976C12.7458 16.7365 12.8547 16.2441 13.0725 15.8203C13.2903 15.3965 13.5969 15.0663 13.9923 14.8295C14.39 14.5928 14.8564 14.4744 15.3914 14.4744C15.7513 14.4744 16.0863 14.5324 16.3964 14.6484C16.7089 14.7621 16.9811 14.9337 17.2132 15.1634C17.4475 15.393 17.6298 15.6818 17.76 16.0298C17.8902 16.3755 17.9553 16.7803 17.9553 17.2443V17.6598H13.3495V16.7223H16.5313C16.5313 16.5045 16.484 16.3116 16.3893 16.1435C16.2946 15.9754 16.1632 15.844 15.9951 15.7493C15.8294 15.6522 15.6365 15.6037 15.4163 15.6037C15.1866 15.6037 14.983 15.657 14.8055 15.7635C14.6303 15.8677 14.493 16.0085 14.3936 16.1861C14.2941 16.3613 14.2432 16.5566 14.2409 16.772V17.6634C14.2409 17.9332 14.2906 18.1664 14.39 18.3629C14.4918 18.5594 14.635 18.7109 14.8197 18.8175C15.0044 18.924 15.2233 18.9773 15.4767 18.9773C15.6447 18.9773 15.7986 18.9536 15.9383 18.9062C16.078 18.8589 16.1975 18.7879 16.297 18.6932C16.3964 18.5985 16.4722 18.4825 16.5242 18.3452L17.9234 18.4375C17.8524 18.7737 17.7068 19.0672 17.4866 19.3182C17.2688 19.5668 16.9871 19.7609 16.6414 19.9006C16.2981 20.0379 15.9016 20.1065 15.4518 20.1065ZM18.971 20V12.7273H23.7863V13.995H20.5086V15.728H23.4667V16.9957H20.5086V20H18.971ZM24.7922 20V14.5455H26.305V20H24.7922ZM25.5521 13.8423C25.3272 13.8423 25.1343 13.7678 24.9733 13.6186C24.8147 13.4671 24.7354 13.286 24.7354 13.0753C24.7354 12.867 24.8147 12.6882 24.9733 12.5391C25.1343 12.3875 25.3272 12.3118 25.5521 12.3118C25.777 12.3118 25.9688 12.3875 26.1274 12.5391C26.2884 12.6882 26.3689 12.867 26.3689 13.0753C26.3689 13.286 26.2884 13.4671 26.1274 13.6186C25.9688 13.7678 25.777 13.8423 25.5521 13.8423Z" fill="white"/>
</svg>
