<svg width="24" height="24" viewBox="0 0 24 24" fill="none" xmlns="http://www.w3.org/2000/svg">
<path d="M14.2224 3.7958L15.6544 4.89367C13.8047 7.78144 9.65201 10.9556 6.78807 10.9556L1.93721 10.9556C1.11382 10.9556 0.672291 11.3255 0.672291 12.0058C0.672291 12.674 1.11382 13.044 1.93721 13.044L6.78807 13.044C9.61621 13.044 13.7212 16.1584 15.6186 19.0582L14.2343 20.0725C13.5422 20.5737 13.6974 21.1823 14.473 21.4329L18.8644 22.9364C19.5087 23.1512 19.9622 22.8052 19.9503 22.1488L19.8786 17.495C19.8667 16.6954 19.3417 16.3613 18.6615 16.8506L17.3369 17.8171C15.368 15.0129 11.8596 12.3757 10.0577 12.0177L10.0577 11.9819C11.8716 11.6239 15.368 8.9986 17.3369 6.19433L18.5541 7.1251C19.2223 7.65018 19.7593 7.32799 19.7951 6.52848L19.998 1.8746C20.0338 1.21826 19.5923 0.860283 18.9359 1.05121L14.5088 2.43542C13.7212 2.67406 13.5422 3.27072 14.2224 3.7958Z" fill="white"/>
</svg>
