<svg width="24" height="24" viewBox="0 0 24 24" fill="none" xmlns="http://www.w3.org/2000/svg">
<path d="M22.0007 12.0007C22.0007 17.5236 17.5236 22.0007 12.0007 22.0007C6.47788 22.0007 2.00073 17.5236 2.00073 12.0007C2.00073 6.47788 6.47788 2.00073 12.0007 2.00073C17.5236 2.00073 22.0007 6.47788 22.0007 12.0007ZM16.5318 12.7811L16.6044 12.6969C16.798 12.436 16.8004 12.0777 16.6116 11.8144L16.5318 11.7204L16.4476 11.6478C16.1867 11.4541 15.8284 11.4517 15.5651 11.6406L15.4711 11.7204L12.7514 14.44L12.7514 7.75003L12.7446 7.64826C12.6994 7.31546 12.436 7.05202 12.1032 7.00687L12.0014 7.00003L11.8997 7.00687C11.5669 7.05202 11.3034 7.31546 11.2583 7.64826L11.2514 7.75003L11.2514 14.44L8.53104 11.7198L8.44694 11.6472C8.15337 11.4293 7.7367 11.4534 7.47038 11.7196C7.20407 11.9858 7.17978 12.4025 7.39758 12.6961L7.47018 12.7803L11.4702 16.7818L11.5543 16.8544C11.8153 17.0481 12.1736 17.0506 12.437 16.8617L12.5309 16.7819L16.5318 12.7811Z" fill="#BCBDC1"/>
</svg>
