<svg width="32" height="32" viewBox="0 0 32 32" fill="none" xmlns="http://www.w3.org/2000/svg">
<rect width="32" height="32" rx="2" fill="#D2D3D9"/>
<path d="M6.52957 14V6.72727H11.4301V7.99503H8.06721V9.72798H11.178V10.9957H8.06721V12.7322H11.4443V14H6.52957Z" fill="white"/>
<path d="M12.6526 14V6.72727H15.5219C16.0712 6.72727 16.5399 6.82552 16.9282 7.02201C17.3188 7.21614 17.6159 7.49195 17.8195 7.84943C18.0255 8.20454 18.1285 8.62239 18.1285 9.10298C18.1285 9.58593 18.0243 10.0014 17.816 10.3494C17.6076 10.6951 17.3058 10.9602 16.9104 11.1449C16.5174 11.3295 16.0416 11.4219 15.4829 11.4219H13.5617V10.1861H15.2343C15.5279 10.1861 15.7717 10.1458 15.9658 10.0653C16.16 9.98485 16.3044 9.86411 16.3991 9.70312C16.4961 9.54214 16.5447 9.34209 16.5447 9.10298C16.5447 8.8615 16.4961 8.6579 16.3991 8.49219C16.3044 8.32647 16.1588 8.20099 15.9623 8.11576C15.7681 8.02817 15.5231 7.98437 15.2272 7.98437H14.1903V14H12.6526ZM16.5802 10.6903L18.3877 14H16.6903L14.9218 10.6903H16.5802Z" fill="white"/>
<path d="M25.632 9.27344H24.0766C24.0482 9.0722 23.9902 8.89346 23.9026 8.73721C23.815 8.5786 23.7026 8.44365 23.5653 8.33238C23.4279 8.22111 23.2693 8.13589 23.0894 8.0767C22.9118 8.01752 22.7189 7.98792 22.5106 7.98792C22.1342 7.98792 21.8063 8.08144 21.5269 8.26846C21.2476 8.45312 21.0309 8.72301 20.8771 9.07812C20.7232 9.43087 20.6462 9.85937 20.6462 10.3636C20.6462 10.8821 20.7232 11.3177 20.8771 11.6705C21.0333 12.0232 21.2511 12.2895 21.5305 12.4695C21.8098 12.6494 22.133 12.7393 22.4999 12.7393C22.7059 12.7393 22.8965 12.7121 23.0717 12.6577C23.2492 12.6032 23.4066 12.5239 23.544 12.4197C23.6813 12.3132 23.7949 12.1842 23.8849 12.0327C23.9772 11.8812 24.0411 11.7083 24.0766 11.5142L25.632 11.5213C25.5918 11.8551 25.4912 12.1771 25.3302 12.4872C25.1716 12.795 24.9573 13.0708 24.6874 13.3146C24.4199 13.5561 24.1003 13.7479 23.7286 13.8899C23.3593 14.0296 22.9414 14.0994 22.4751 14.0994C21.8264 14.0994 21.2464 13.9526 20.735 13.6591C20.226 13.3655 19.8235 12.9406 19.5276 12.3842C19.2341 11.8279 19.0873 11.1544 19.0873 10.3636C19.0873 9.57055 19.2364 8.89583 19.5347 8.33949C19.833 7.78314 20.2378 7.35937 20.7492 7.06818C21.2606 6.77462 21.8359 6.62784 22.4751 6.62784C22.8965 6.62784 23.2871 6.68702 23.6469 6.8054C24.0092 6.92377 24.3299 7.09659 24.6093 7.32386C24.8887 7.54877 25.1159 7.82457 25.2911 8.15128C25.4687 8.47798 25.5823 8.85203 25.632 9.27344Z" fill="white"/>
<path d="M9.9977 26V24.892L12.5865 22.495C12.8066 22.282 12.9913 22.0902 13.1405 21.9197C13.292 21.7493 13.4068 21.5824 13.4849 21.419C13.563 21.2533 13.6021 21.0746 13.6021 20.8828C13.6021 20.6697 13.5536 20.4863 13.4565 20.3324C13.3594 20.1761 13.2269 20.0566 13.0588 19.9737C12.8907 19.8885 12.7001 19.8459 12.487 19.8459C12.2645 19.8459 12.0704 19.8909 11.9047 19.9808C11.7389 20.0708 11.6111 20.1998 11.5211 20.3679C11.4312 20.536 11.3862 20.736 11.3862 20.968H9.92668C9.92668 20.4922 10.0344 20.0791 10.2498 19.7287C10.4653 19.3783 10.7671 19.1072 11.1554 18.9155C11.5436 18.7237 11.9911 18.6278 12.4977 18.6278C13.0185 18.6278 13.4719 18.7202 13.8578 18.9048C14.246 19.0871 14.5479 19.3404 14.7633 19.6648C14.9788 19.9891 15.0865 20.3608 15.0865 20.7798C15.0865 21.0544 15.032 21.3255 14.9231 21.593C14.8166 21.8606 14.626 22.1577 14.3514 22.4844C14.0768 22.8087 13.6897 23.1982 13.1902 23.6527L12.1284 24.6932V24.7429H15.1824V26H9.9977Z" fill="white"/>
<path d="M19.1481 26.1598C18.5373 26.1574 18.0117 26.0071 17.5714 25.7088C17.1334 25.4105 16.7961 24.9785 16.5593 24.4126C16.3249 23.8468 16.2089 23.1662 16.2113 22.3707C16.2113 21.5777 16.3285 20.9017 16.5629 20.343C16.7996 19.7843 17.137 19.3594 17.5749 19.0682C18.0153 18.7746 18.5397 18.6278 19.1481 18.6278C19.7565 18.6278 20.2797 18.7746 20.7177 19.0682C21.158 19.3617 21.4966 19.7879 21.7333 20.3466C21.9701 20.9029 22.0872 21.5777 22.0849 22.3707C22.0849 23.1686 21.9665 23.8504 21.7298 24.4162C21.4954 24.982 21.1592 25.4141 20.7212 25.7124C20.2833 26.0107 19.7589 26.1598 19.1481 26.1598ZM19.1481 24.8849C19.5648 24.8849 19.8974 24.6754 20.146 24.2564C20.3945 23.8374 20.5176 23.2088 20.5153 22.3707C20.5153 21.8191 20.4585 21.3598 20.3448 20.9929C20.2336 20.6259 20.0749 20.3501 19.869 20.1655C19.6654 19.9808 19.4251 19.8885 19.1481 19.8885C18.7338 19.8885 18.4024 20.0956 18.1538 20.5099C17.9052 20.9242 17.7797 21.5445 17.7774 22.3707C17.7774 22.9294 17.833 23.3958 17.9443 23.7699C18.0579 24.1416 18.2177 24.4209 18.4237 24.608C18.6296 24.7926 18.8711 24.8849 19.1481 24.8849Z" fill="white"/>
</svg>
