<svg width="32" height="32" viewBox="0 0 32 32" fill="none" xmlns="http://www.w3.org/2000/svg">
<rect width="32" height="32" rx="2" fill="#D2D3D9"/>
<path d="M6.5293 14V6.7273H11.4299V7.99506H8.06694V9.72801H11.1777V10.9958H8.06694V12.7323H11.4441V14H6.5293Z" fill="white"/>
<path d="M12.6523 14V6.7273H15.5217C16.0709 6.7273 16.5397 6.82555 16.9279 7.02205C17.3185 7.21617 17.6156 7.49198 17.8192 7.84946C18.0252 8.20457 18.1282 8.62242 18.1282 9.10301C18.1282 9.58597 18.024 10.0014 17.8157 10.3495C17.6074 10.6951 17.3055 10.9603 16.9102 11.1449C16.5172 11.3296 16.0413 11.4219 15.4826 11.4219H13.5614V10.1861H15.234C15.5276 10.1861 15.7714 10.1459 15.9656 10.0654C16.1597 9.98488 16.3041 9.86414 16.3988 9.70315C16.4959 9.54217 16.5444 9.34212 16.5444 9.10301C16.5444 8.86153 16.4959 8.65794 16.3988 8.49222C16.3041 8.3265 16.1585 8.20102 15.962 8.11579C15.7679 8.0282 15.5228 7.9844 15.2269 7.9844H14.19V14H12.6523ZM16.5799 10.6904L18.3874 14H16.69L14.9215 10.6904H16.5799Z" fill="white"/>
<path d="M25.6317 9.27347H24.0763C24.0479 9.07223 23.9899 8.89349 23.9023 8.73724C23.8147 8.57863 23.7023 8.44368 23.565 8.33241C23.4277 8.22115 23.2691 8.13592 23.0891 8.07673C22.9116 8.01755 22.7186 7.98795 22.5103 7.98795C22.1339 7.98795 21.806 8.08147 21.5266 8.26849C21.2473 8.45315 21.0307 8.72304 20.8768 9.07815C20.7229 9.4309 20.646 9.8594 20.646 10.3637C20.646 10.8821 20.7229 11.3177 20.8768 11.6705C21.033 12.0232 21.2508 12.2896 21.5302 12.4695C21.8095 12.6494 22.1327 12.7394 22.4996 12.7394C22.7056 12.7394 22.8962 12.7121 23.0714 12.6577C23.2489 12.6032 23.4064 12.5239 23.5437 12.4198C23.681 12.3132 23.7946 12.1842 23.8846 12.0327C23.9769 11.8812 24.0408 11.7084 24.0763 11.5142L25.6317 11.5213C25.5915 11.8551 25.4909 12.1771 25.3299 12.4872C25.1713 12.795 24.957 13.0708 24.6871 13.3147C24.4196 13.5561 24.1 13.7479 23.7283 13.8899C23.359 14.0296 22.9412 14.0995 22.4748 14.0995C21.8261 14.0995 21.2461 13.9527 20.7347 13.6591C20.2257 13.3656 19.8233 12.9406 19.5273 12.3843C19.2338 11.8279 19.087 11.1544 19.087 10.3637C19.087 9.57058 19.2361 8.89586 19.5344 8.33952C19.8327 7.78317 20.2376 7.3594 20.7489 7.06821C21.2603 6.77465 21.8356 6.62787 22.4748 6.62787C22.8962 6.62787 23.2868 6.68705 23.6467 6.80543C24.0089 6.9238 24.3297 7.09662 24.609 7.32389C24.8884 7.5488 25.1156 7.8246 25.2908 8.15131C25.4684 8.47801 25.582 8.85206 25.6317 9.27347Z" fill="white"/>
<path d="M9.99743 26V24.8921L12.5862 22.4951C12.8064 22.282 12.991 22.0902 13.1402 21.9198C13.2917 21.7493 13.4065 21.5824 13.4846 21.4191C13.5628 21.2533 13.6018 21.0746 13.6018 20.8828C13.6018 20.6698 13.5533 20.4863 13.4562 20.3324C13.3592 20.1762 13.2266 20.0566 13.0585 19.9737C12.8904 19.8885 12.6998 19.8459 12.4868 19.8459C12.2642 19.8459 12.0701 19.8909 11.9044 19.9809C11.7387 20.0708 11.6108 20.1998 11.5209 20.3679C11.4309 20.536 11.3859 20.7361 11.3859 20.9681H9.9264C9.9264 20.4922 10.0341 20.0791 10.2496 19.7287C10.465 19.3783 10.7668 19.1073 11.1551 18.9155C11.5434 18.7237 11.9908 18.6279 12.4974 18.6279C13.0183 18.6279 13.4716 18.7202 13.8575 18.9049C14.2458 19.0871 14.5476 19.3405 14.7631 19.6648C14.9785 19.9891 15.0862 20.3608 15.0862 20.7799C15.0862 21.0545 15.0318 21.3256 14.9229 21.5931C14.8163 21.8606 14.6257 22.1577 14.3511 22.4844C14.0765 22.8087 13.6894 23.1982 13.1899 23.6527L12.1281 24.6932V24.7429H15.1821V26H9.99743Z" fill="white"/>
<path d="M19.1478 26.1598C18.537 26.1575 18.0115 26.0071 17.5711 25.7088C17.1331 25.4105 16.7958 24.9785 16.559 24.4127C16.3247 23.8469 16.2087 23.1662 16.211 22.3708C16.211 21.5777 16.3282 20.9018 16.5626 20.3431C16.7993 19.7844 17.1367 19.3594 17.5747 19.0682C18.015 18.7746 18.5394 18.6279 19.1478 18.6279C19.7562 18.6279 20.2794 18.7746 20.7174 19.0682C21.1578 19.3618 21.4963 19.7879 21.733 20.3466C21.9698 20.903 22.087 21.5777 22.0846 22.3708C22.0846 23.1686 21.9662 23.8504 21.7295 24.4162C21.4951 24.982 21.1589 25.4141 20.721 25.7124C20.283 26.0107 19.7586 26.1598 19.1478 26.1598ZM19.1478 24.885C19.5645 24.885 19.8971 24.6755 20.1457 24.2564C20.3943 23.8374 20.5174 23.2088 20.515 22.3708C20.515 21.8192 20.4582 21.3599 20.3445 20.9929C20.2333 20.626 20.0747 20.3502 19.8687 20.1655C19.6651 19.9809 19.4248 19.8885 19.1478 19.8885C18.7335 19.8885 18.4021 20.0957 18.1535 20.51C17.9049 20.9243 17.7794 21.5445 17.7771 22.3708C17.7771 22.9295 17.8327 23.3959 17.944 23.7699C18.0576 24.1416 18.2174 24.421 18.4234 24.608C18.6293 24.7926 18.8708 24.885 19.1478 24.885Z" fill="white"/>
</svg>
