<svg width="24" height="24" viewBox="0 0 24 24" fill="none" xmlns="http://www.w3.org/2000/svg">
<path fill-rule="evenodd" clip-rule="evenodd" d="M21 9.99753L20.9994 3.94194L20.9858 3.82657L20.9596 3.71531L20.9287 3.62667L20.8807 3.52482L20.8027 3.40307L20.7079 3.29372C20.6522 3.23789 20.5898 3.1886 20.5217 3.14707L20.4 3.0833L20.301 3.04696L20.2353 3.02796L20.1896 3.01898L20.084 3.00348L20 3H13.9988L13.8822 3.00673C13.3848 3.06449 12.9988 3.48716 12.9988 4L13.0055 4.11662C13.0633 4.61396 13.486 5 13.9988 5L17.5892 4.99979L11.0439 11.5477L10.9608 11.6419C10.6558 12.0343 10.6837 12.6015 11.0442 12.9619L11.1384 13.0451C11.5308 13.35 12.098 13.3222 12.4584 12.9616L19.0002 6.41779L19 9.99753L19.0067 10.1141C19.0645 10.6115 19.4872 10.9975 20 10.9975C20.5523 10.9975 21 10.5498 21 9.99753ZM4 8C4 6.89543 4.89543 6 6 6H9.22222C9.77451 6 10.2222 5.55228 10.2222 5C10.2222 4.44772 9.77451 4 9.22222 4H6C3.79086 4 2 5.79086 2 8V18C2 20.2091 3.79086 22 6 22H16C18.2091 22 20 20.2091 20 18V15.6667C20 15.1144 19.5523 14.6667 19 14.6667C18.4477 14.6667 18 15.1144 18 15.6667V18C18 19.1046 17.1046 20 16 20H6C4.89543 20 4 19.1046 4 18V8Z" fill="#BCBDC1"/>
</svg>
