<svg width="19" height="18" viewBox="0 0 19 18" fill="none" xmlns="http://www.w3.org/2000/svg">
<path fill-rule="evenodd" clip-rule="evenodd" d="M5.90629 4.15942L6.3825 2.21968C6.59237 1.3617 7.45803 0.836303 8.31601 1.04617C9.10249 1.23855 9.60951 1.98198 9.5269 2.76541L9.48952 2.97968L9.19874 4.15942H12.3291L12.7701 2.24253C12.9509 1.45331 13.6868 0.935429 14.4714 1.00653L14.6862 1.04076C15.4754 1.22157 15.9933 1.95748 15.9222 2.74204L15.888 2.95683L15.6109 4.15942L16.4128 4.15972C17.2224 4.15972 17.8916 4.76139 17.9975 5.54202L18.0121 5.75903C18.0121 6.5687 17.4104 7.23784 16.6298 7.34374L16.4128 7.35834L14.8774 7.35804L14.1033 10.74L15.3757 10.742C16.1853 10.742 16.8545 11.3437 16.9604 12.1243L16.975 12.3414C16.975 13.151 16.3733 13.8202 15.5927 13.9261L15.3757 13.9407L13.3697 13.9387L12.9553 15.7575C12.7745 16.5467 12.0386 17.0646 11.2541 16.9935L11.0393 16.9592C10.25 16.7784 9.73216 16.0425 9.80326 15.258L9.83749 15.0432L10.088 13.9387H6.80617L6.35836 15.7803C6.16598 16.5668 5.42256 17.0738 4.63912 16.9912L4.42485 16.9538C3.63837 16.7614 3.13135 16.018 3.21396 15.2346L3.25135 15.0203L3.51372 13.9387L2.59919 13.9407C1.78952 13.9407 1.12038 13.339 1.01448 12.5584L0.999878 12.3414C0.999878 11.5317 1.60155 10.8625 2.38217 10.7566L2.59919 10.742L4.29632 10.74L5.1237 7.35804L3.62463 7.35834C2.81496 7.35834 2.14582 6.75667 2.03992 5.97605L2.02532 5.75903C2.02532 4.94936 2.62699 4.28022 3.40762 4.17432L3.62463 4.15972L5.90629 4.15942ZM11.5957 7.35805H8.41626L7.58888 10.7401H10.8216L11.5957 7.35805Z" fill="white"/>
<path d="M6.3825 2.21968L6.86808 2.33889L6.86818 2.33848L6.3825 2.21968ZM5.90629 4.15942L5.90636 4.65942L6.2984 4.65937L6.39187 4.27863L5.90629 4.15942ZM8.31601 1.04617L8.43481 0.560492L8.43481 0.560492L8.31601 1.04617ZM9.5269 2.76541L10.0195 2.85135L10.0224 2.83468L10.0241 2.81785L9.5269 2.76541ZM9.48952 2.97968L9.97499 3.09934L9.97911 3.0826L9.98208 3.06562L9.48952 2.97968ZM9.19874 4.15942L8.71327 4.03977L8.56054 4.65942H9.19874V4.15942ZM12.3291 4.15942V4.65942H12.7271L12.8164 4.27153L12.3291 4.15942ZM12.7701 2.24253L13.2574 2.35463L13.2575 2.35419L12.7701 2.24253ZM14.4714 1.00653L14.5501 0.512759L14.5334 0.510095L14.5165 0.508568L14.4714 1.00653ZM14.6862 1.04076L14.7979 0.553386L14.7815 0.549634L14.7649 0.54699L14.6862 1.04076ZM15.9222 2.74204L16.416 2.82073L16.4186 2.80401L16.4202 2.78716L15.9222 2.74204ZM15.888 2.95683L16.3752 3.06909L16.3791 3.05242L16.3817 3.03552L15.888 2.95683ZM15.6109 4.15942L15.1237 4.04717L14.9827 4.65919L15.6107 4.65942L15.6109 4.15942ZM16.4128 4.15972L16.4126 4.65972H16.4128V4.15972ZM17.9975 5.54202L18.4964 5.50846L18.4952 5.49157L18.4929 5.4748L17.9975 5.54202ZM18.0121 5.75903H18.5121V5.74223L18.511 5.72548L18.0121 5.75903ZM16.6298 7.34374L16.6634 7.84261L16.6802 7.84148L16.697 7.8392L16.6298 7.34374ZM16.4128 7.35834L16.4127 7.85834L16.4295 7.85834L16.4463 7.85721L16.4128 7.35834ZM14.8774 7.35804L14.8775 6.85804L14.4789 6.85797L14.39 7.24649L14.8774 7.35804ZM14.1033 10.74L13.6159 10.6285L13.4761 11.2391L14.1025 11.24L14.1033 10.74ZM15.3757 10.742L15.3749 11.242H15.3757V10.742ZM16.9604 12.1243L17.4592 12.0908L17.4581 12.0739L17.4558 12.0571L16.9604 12.1243ZM16.975 12.3414H17.475V12.3246L17.4738 12.3078L16.975 12.3414ZM15.5927 13.9261L15.6262 14.4249L15.6431 14.4238L15.6599 14.4215L15.5927 13.9261ZM15.3757 13.9407L15.3752 14.4407L15.3922 14.4407L15.4092 14.4395L15.3757 13.9407ZM13.3697 13.9387L13.3702 13.4387L12.9709 13.4383L12.8822 13.8276L13.3697 13.9387ZM12.9553 15.7575L13.4427 15.8691L13.4428 15.8685L12.9553 15.7575ZM11.2541 16.9935L11.1754 17.4872L11.1921 17.4899L11.2089 17.4914L11.2541 16.9935ZM11.0393 16.9592L10.9276 17.4466L10.944 17.4504L10.9606 17.453L11.0393 16.9592ZM9.80326 15.258L9.30949 15.1793L9.30682 15.196L9.3053 15.2128L9.80326 15.258ZM9.83749 15.0432L9.34987 14.9326L9.34628 14.9484L9.34372 14.9645L9.83749 15.0432ZM10.088 13.9387L10.5756 14.0492L10.714 13.4387H10.088V13.9387ZM6.80617 13.9387V13.4387H6.41318L6.32033 13.8205L6.80617 13.9387ZM6.35836 15.7803L6.84404 15.8991L6.84421 15.8985L6.35836 15.7803ZM4.63912 16.9912L4.55319 17.4838L4.56986 17.4867L4.58669 17.4885L4.63912 16.9912ZM4.42485 16.9538L4.30605 17.4395L4.32237 17.4435L4.33892 17.4464L4.42485 16.9538ZM3.21396 15.2346L2.7214 15.1487L2.71849 15.1653L2.71672 15.1822L3.21396 15.2346ZM3.25135 15.0203L2.76544 14.9025L2.76159 14.9183L2.75879 14.9344L3.25135 15.0203ZM3.51372 13.9387L3.99963 14.0565L4.14985 13.4373L3.51263 13.4387L3.51372 13.9387ZM2.59919 13.9407L2.59919 14.4407L2.60028 14.4407L2.59919 13.9407ZM1.01448 12.5584L0.515605 12.5919L0.516741 12.6088L0.519016 12.6256L1.01448 12.5584ZM0.999878 12.3414H0.499878V12.3582L0.501006 12.3749L0.999878 12.3414ZM2.38217 10.7566L2.34862 10.2578L2.33173 10.2589L2.31496 10.2612L2.38217 10.7566ZM2.59919 10.742L2.5986 10.242L2.5821 10.2421L2.56563 10.2432L2.59919 10.742ZM4.29632 10.74L4.29691 11.24L4.68886 11.2396L4.782 10.8589L4.29632 10.74ZM5.1237 7.35804L5.60937 7.47686L5.76079 6.85792L5.1236 6.85804L5.1237 7.35804ZM3.62463 7.35834L3.62463 7.85834L3.62473 7.85834L3.62463 7.35834ZM2.03992 5.97605L1.54105 6.00961L1.54219 6.0265L1.54446 6.04327L2.03992 5.97605ZM2.02532 5.75903H1.52532V5.77583L1.52645 5.79259L2.02532 5.75903ZM3.40762 4.17432L3.37405 3.67545L3.35717 3.67659L3.3404 3.67886L3.40762 4.17432ZM3.62463 4.15972L3.62457 3.65972L3.6078 3.65972L3.59107 3.66085L3.62463 4.15972ZM8.41626 7.35805V6.85805H8.02384L7.93058 7.23923L8.41626 7.35805ZM11.5957 7.35805L12.0831 7.4696L12.2231 6.85805H11.5957V7.35805ZM7.58888 10.7401L7.10321 10.6212L6.95182 11.2401H7.58888V10.7401ZM10.8216 10.7401V11.2401H11.2201L11.309 10.8516L10.8216 10.7401ZM5.89692 2.10047L5.42071 4.04021L6.39187 4.27863L6.86808 2.33889L5.89692 2.10047ZM8.43481 0.560492C7.3086 0.28501 6.1723 0.974664 5.89682 2.10088L6.86818 2.33848C7.01244 1.74874 7.60746 1.3876 8.19721 1.53185L8.43481 0.560492ZM10.0241 2.81785C10.1326 1.789 9.46757 0.813115 8.43481 0.560492L8.19721 1.53185C8.73741 1.66399 9.08639 2.17497 9.02966 2.71298L10.0241 2.81785ZM9.98208 3.06562L10.0195 2.85135L9.03434 2.67948L8.99696 2.89375L9.98208 3.06562ZM9.68421 4.27908L9.97499 3.09934L9.00405 2.86003L8.71327 4.03977L9.68421 4.27908ZM12.3291 3.65942H9.19874V4.65942H12.3291V3.65942ZM12.2829 2.13043L11.8418 4.04732L12.8164 4.27153L13.2574 2.35463L12.2829 2.13043ZM14.5165 0.508568C13.4862 0.415197 12.5202 1.09452 12.2828 2.13087L13.2575 2.35419C13.3817 1.8121 13.8875 1.45566 14.4263 1.50449L14.5165 0.508568ZM14.7649 0.54699L14.5501 0.512759L14.3927 1.5003L14.6075 1.53453L14.7649 0.54699ZM16.4202 2.78716C16.5135 1.75683 15.8342 0.790818 14.7979 0.553386L14.5745 1.52813C15.1166 1.65232 15.4731 2.15812 15.4242 2.69691L16.4202 2.78716ZM16.3817 3.03552L16.416 2.82073L15.4284 2.66335L15.3942 2.87814L16.3817 3.03552ZM16.0981 4.27168L16.3752 3.06909L15.4007 2.84458L15.1237 4.04717L16.0981 4.27168ZM16.413 3.65972L15.6111 3.65942L15.6107 4.65942L16.4126 4.65972L16.413 3.65972ZM18.4929 5.4748C18.3539 4.44963 17.476 3.65972 16.4128 3.65972V4.65972C16.9689 4.65972 17.4293 5.07314 17.502 5.60923L18.4929 5.4748ZM18.511 5.72548L18.4964 5.50846L17.4986 5.57557L17.5132 5.79259L18.511 5.72548ZM16.697 7.8392C17.7222 7.70013 18.5121 6.82224 18.5121 5.75903H17.5121C17.5121 6.31516 17.0987 6.77555 16.5626 6.84828L16.697 7.8392ZM16.4463 7.85721L16.6634 7.84261L16.5962 6.84487L16.3792 6.85947L16.4463 7.85721ZM14.8773 7.85804L16.4127 7.85834L16.4129 6.85834L14.8775 6.85804L14.8773 7.85804ZM14.5907 10.8516L15.3648 7.4696L14.39 7.24649L13.6159 10.6285L14.5907 10.8516ZM15.3764 10.242L14.1041 10.2401L14.1025 11.24L15.3749 11.242L15.3764 10.242ZM17.4558 12.0571C17.3167 11.032 16.4389 10.242 15.3757 10.242V11.242C15.9318 11.242 16.3922 11.6555 16.4649 12.1916L17.4558 12.0571ZM17.4738 12.3078L17.4592 12.0908L16.4615 12.1579L16.4761 12.3749L17.4738 12.3078ZM15.6599 14.4215C16.685 14.2825 17.475 13.4046 17.475 12.3414H16.475C16.475 12.8975 16.0615 13.3579 15.5255 13.4306L15.6599 14.4215ZM15.4092 14.4395L15.6262 14.4249L15.5591 13.4272L15.3421 13.4418L15.4092 14.4395ZM13.3692 14.4387L15.3752 14.4407L15.3761 13.4407L13.3702 13.4387L13.3692 14.4387ZM13.4428 15.8685L13.8572 14.0497L12.8822 13.8276L12.4678 15.6464L13.4428 15.8685ZM11.2089 17.4914C12.2393 17.5848 13.2053 16.9055 13.4427 15.8691L12.468 15.6458C12.3438 16.1879 11.838 16.5443 11.2992 16.4955L11.2089 17.4914ZM10.9606 17.453L11.1754 17.4872L11.3328 16.4997L11.118 16.4655L10.9606 17.453ZM9.3053 15.2128C9.21192 16.2432 9.89124 17.2092 10.9276 17.4466L11.1509 16.4719C10.6088 16.3477 10.2524 15.8419 10.3012 15.3031L9.3053 15.2128ZM9.34372 14.9645L9.30949 15.1793L10.297 15.3367L10.3313 15.1219L9.34372 14.9645ZM9.60033 13.8281L9.34987 14.9326L10.3251 15.1537L10.5756 14.0492L9.60033 13.8281ZM6.80617 14.4387H10.088V13.4387H6.80617V14.4387ZM6.84421 15.8985L7.29201 14.0568L6.32033 13.8205L5.87252 15.6622L6.84421 15.8985ZM4.58669 17.4885C5.61554 17.5969 6.59142 16.9319 6.84404 15.8991L5.87268 15.6615C5.74054 16.2017 5.22957 16.5507 4.69156 16.494L4.58669 17.4885ZM4.33892 17.4464L4.55319 17.4838L4.72506 16.4986L4.51079 16.4613L4.33892 17.4464ZM2.71672 15.1822C2.60823 16.211 3.27329 17.1869 4.30605 17.4395L4.54365 16.4681C4.00345 16.336 3.65447 15.825 3.71121 15.287L2.71672 15.1822ZM2.75879 14.9344L2.7214 15.1487L3.70652 15.3205L3.74391 15.1063L2.75879 14.9344ZM3.02782 13.8208L2.76544 14.9025L3.73725 15.1382L3.99963 14.0565L3.02782 13.8208ZM2.60028 14.4407L3.51482 14.4387L3.51263 13.4387L2.5981 13.4407L2.60028 14.4407ZM0.519016 12.6256C0.658092 13.6507 1.53598 14.4407 2.59919 14.4407V13.4407C2.04306 13.4407 1.58267 13.0272 1.50994 12.4912L0.519016 12.6256ZM0.501006 12.3749L0.515605 12.5919L1.51335 12.5248L1.49875 12.3078L0.501006 12.3749ZM2.31496 10.2612C1.28979 10.4003 0.499878 11.2781 0.499878 12.3414H1.49988C1.49988 11.7852 1.9133 11.3248 2.44939 11.2521L2.31496 10.2612ZM2.56563 10.2432L2.34862 10.2578L2.41573 11.2555L2.63274 11.2409L2.56563 10.2432ZM4.29573 10.24L2.5986 10.242L2.59978 11.242L4.29691 11.24L4.29573 10.24ZM4.63802 7.23923L3.81064 10.6212L4.782 10.8589L5.60937 7.47686L4.63802 7.23923ZM3.62473 7.85834L5.1238 7.85804L5.1236 6.85804L3.62453 6.85834L3.62473 7.85834ZM1.54446 6.04327C1.68354 7.06843 2.56143 7.85834 3.62463 7.85834V6.85834C3.0685 6.85834 2.60811 6.44492 2.53538 5.90884L1.54446 6.04327ZM1.52645 5.79259L1.54105 6.00961L2.53879 5.94249L2.52419 5.72547L1.52645 5.79259ZM3.3404 3.67886C2.31524 3.81794 1.52532 4.69582 1.52532 5.75903H2.52532C2.52532 5.2029 2.93874 4.74251 3.47483 4.66978L3.3404 3.67886ZM3.59107 3.66085L3.37405 3.67545L3.44118 4.67319L3.6582 4.65859L3.59107 3.66085ZM5.90623 3.65942L3.62457 3.65972L3.6247 4.65972L5.90636 4.65942L5.90623 3.65942ZM8.41626 7.85805H11.5957V6.85805H8.41626V7.85805ZM8.07456 10.8589L8.90194 7.47687L7.93058 7.23923L7.10321 10.6212L8.07456 10.8589ZM10.8216 10.2401H7.58888V11.2401H10.8216V10.2401ZM11.1083 7.2465L10.3342 10.6285L11.309 10.8516L12.0831 7.4696L11.1083 7.2465Z" fill="#DFE1E4"/>
</svg>
