<svg width="24" height="24" viewBox="0 0 24 24" fill="none" xmlns="http://www.w3.org/2000/svg">
<path d="M3.49251 14.4167C3.08203 14.4167 2.74927 14.7495 2.74927 15.16V17.5C2.74927 18.7426 3.75663 19.75 4.99927 19.75H9.3448C9.71761 19.75 10.0198 19.4478 10.0198 19.075C10.0198 18.7021 9.71761 18.3999 9.3448 18.3999H5.48575C4.7954 18.3999 4.23575 17.8403 4.23575 17.1499V15.16C4.23575 14.7495 3.90299 14.4167 3.49251 14.4167ZM20.506 14.4167C20.0956 14.4167 19.7628 14.7495 19.7628 15.1599V17.1499C19.7628 17.8403 19.2032 18.3999 18.5128 18.3999H14.6536C14.2809 18.3999 13.9787 18.7021 13.9787 19.0749C13.9787 19.4476 14.2809 19.7498 14.6536 19.7498H18.9993C20.2419 19.7498 21.2493 18.7424 21.2493 17.4998V15.1599C21.2493 14.7495 20.9165 14.4167 20.506 14.4167ZM10.2729 8.58328C9.86243 8.58328 9.52967 8.91604 9.52967 9.32653V13.1665C9.52967 14.133 10.3132 14.9165 11.2797 14.9165H13.8454C14.1952 14.9165 14.4787 14.633 14.4787 14.2832C14.4787 13.9334 14.1952 13.6499 13.8454 13.6499H12.2501C11.5686 13.6499 11.0162 13.0974 11.0162 12.416V9.32652C11.0162 8.91604 10.6834 8.58328 10.2729 8.58328ZM4.99927 3.75C3.75663 3.75 2.74927 4.75736 2.74927 6V8.34004C2.74927 8.75052 3.08203 9.08328 3.49251 9.08328C3.90299 9.08328 4.23575 8.75052 4.23575 8.34004V6.34991C4.23575 5.65956 4.7954 5.09991 5.48575 5.09991H9.34488C9.71765 5.09991 10.0198 4.79773 10.0198 4.42496C10.0198 4.05219 9.71765 3.75 9.34488 3.75H4.99927ZM14.6537 3.75C14.2809 3.75 13.9787 4.05219 13.9787 4.42496C13.9787 4.79773 14.2809 5.09991 14.6537 5.09991H18.5128C19.2032 5.09991 19.7628 5.65956 19.7628 6.34991V8.34006C19.7628 8.75053 20.0956 9.08328 20.506 9.08328C20.9165 9.08328 21.2493 8.75053 21.2493 8.34006V6C21.2493 4.75736 20.2419 3.75 18.9993 3.75H14.6537Z" fill="#0A2EBF" stroke="#0A2EBF" stroke-width="0.5"/>
</svg>
