<svg width="24" height="24" viewBox="0 0 24 24" fill="none" xmlns="http://www.w3.org/2000/svg">
<path d="M5.94975 10.0503C6.34027 9.65973 6.97344 9.65973 7.36396 10.0503C7.72659 10.4129 7.75249 10.9847 7.44167 11.3772L7.36396 11.4645L5.94975 12.8787C4.77817 14.0503 4.77818 15.9497 5.94975 17.1213C7.07948 18.2511 8.88607 18.2914 10.0641 17.2424L10.1924 17.1213L11.6066 15.7071C11.9971 15.3166 12.6303 15.3166 13.0208 15.7071C13.3834 16.0697 13.4093 16.6416 13.0985 17.0341L13.0208 17.1213L11.6066 18.5355C9.65398 20.4882 6.48816 20.4882 4.53553 18.5355C2.6343 16.6343 2.58426 13.5829 4.38544 11.6211L4.53553 11.4645L5.94975 10.0503ZM11.6066 4.3934C13.5592 2.44078 16.725 2.44078 18.6777 4.3934C20.5789 6.29464 20.6289 9.34606 18.8278 11.3078L18.6777 11.4645L17.2635 12.8787C16.8729 13.2692 16.2398 13.2692 15.8492 12.8787C15.4866 12.516 15.4607 11.9442 15.7715 11.5517L15.8492 11.4645L17.2635 10.0503C18.435 8.87868 18.435 6.97918 17.2635 5.80761C16.1337 4.67788 14.3271 4.63753 13.1491 5.68657L13.0208 5.80761L11.6066 7.22183C11.2161 7.61235 10.5829 7.61235 10.1924 7.22182C9.82976 6.8592 9.80386 6.28735 10.1147 5.89483L10.1924 5.80761L11.6066 4.3934ZM7.36396 14.2929L14.435 7.22183C14.8256 6.8313 15.4587 6.8313 15.8492 7.22183C16.2119 7.58445 16.2378 8.1563 15.9269 8.54882L15.8492 8.63604L8.77818 15.7071C8.38765 16.0976 7.75449 16.0976 7.36396 15.7071C7.00133 15.3445 6.97543 14.7726 7.28626 14.3801L7.36396 14.2929L14.435 7.22183L7.36396 14.2929Z" fill="#BCBDC1"/>
</svg>
