<svg width="36" height="40" viewBox="0 0 36 40" fill="none" xmlns="http://www.w3.org/2000/svg">
<path d="M32.8364 30.9187C32.3759 30.9187 31.9294 31.0768 31.5714 31.3663C31.2133 31.6559 30.9655 32.0596 30.8691 32.5099L23.2734 32.1424C23.2976 31.999 23.3102 31.8539 23.311 31.7085C23.3101 31.4467 23.2731 31.1862 23.201 30.9346L25.9581 29.3434C26.2877 29.7506 26.7609 30.016 27.2803 30.0849C27.7996 30.1537 28.3256 30.0208 28.7499 29.7135C29.1742 29.4061 29.4645 28.9478 29.561 28.4329C29.6576 27.918 29.553 27.3856 29.2688 26.9455C28.9846 26.5054 28.5425 26.1909 28.0335 26.067C27.5244 25.9431 26.9872 26.019 26.5325 26.2793C26.0778 26.5395 25.7402 26.9642 25.5892 27.4658C25.4382 27.9675 25.4854 28.508 25.7209 28.976L23.0434 30.518C22.7373 29.8691 22.1935 29.3627 21.5245 29.1036C20.8555 28.8444 20.1125 28.8523 19.4492 29.1256C18.7859 29.3989 18.253 29.9168 17.9607 30.572C17.6685 31.2272 17.6393 31.9697 17.8792 32.6458L12.9205 33.858C12.8867 33.1793 12.6051 32.5365 12.1292 32.0513L13.0232 30.8116C13.513 30.9796 14.0486 30.9536 14.5198 30.7389C14.991 30.5242 15.3621 30.1371 15.5568 29.6573C15.7514 29.1774 15.7549 28.6412 15.5664 28.1589C15.3779 27.6766 15.0118 27.2848 14.5434 27.064C14.075 26.8433 13.5398 26.8104 13.0478 26.9721C12.5559 27.1338 12.1446 27.4778 11.8984 27.9334C11.6523 28.3889 11.59 28.9215 11.7244 29.4216C11.8588 29.9217 12.1797 30.3513 12.621 30.6221L11.798 31.7634C11.2167 31.325 10.4853 31.1351 9.76414 31.2355L8.90779 26.3548C9.2974 26.269 9.66416 26.1009 9.98346 25.8617C10.3028 25.6225 10.5672 25.3178 10.7591 24.968C10.9509 24.6182 11.0657 24.2315 11.0958 23.8336C11.1259 23.4358 11.0706 23.0362 10.9335 22.6615C10.7964 22.2869 10.5808 21.9458 10.3011 21.6614C10.0214 21.3769 9.68412 21.1555 9.31184 21.0121C8.93955 20.8687 8.5409 20.8065 8.14264 20.8299C7.74437 20.8532 7.35569 20.9614 7.00269 21.1473L4.84591 16.9451C5.30484 16.7123 5.69111 16.3581 5.96263 15.921L7.75055 16.3925C7.73626 16.4883 7.72853 16.585 7.72741 16.6818C7.72518 17.1874 7.91214 17.6755 8.25154 18.0503C8.59094 18.425 9.05823 18.6592 9.56155 18.7069C10.0649 18.7546 10.5678 18.6123 10.9716 18.3079C11.3753 18.0036 11.6506 17.5593 11.7433 17.0623C11.8361 16.5653 11.7396 16.0515 11.4728 15.6221C11.206 15.1926 10.7882 14.8785 10.3016 14.7414C9.81491 14.6044 9.29459 14.6543 8.84289 14.8814C8.39118 15.1085 8.04076 15.4963 7.86049 15.9687L6.17094 15.5232C6.40021 14.9737 6.44637 14.365 6.30257 13.7873L11.2714 11.5018C11.7177 12.0624 12.3621 12.4302 13.0718 12.5295C13.7814 12.6287 14.502 12.4518 15.085 12.0351C15.6679 11.6185 16.0687 10.9939 16.2045 10.2904C16.3403 9.58686 16.2009 8.85803 15.815 8.2543L18.9974 5.14714C19.3855 5.39749 19.8301 5.54668 20.2906 5.5811V6.95242C19.7788 7.00794 19.3077 7.25754 18.9743 7.64986C18.6409 8.04218 18.4706 8.54738 18.4984 9.06147C18.5262 9.57556 18.75 10.0594 19.1237 10.4135C19.4975 10.7676 19.9927 10.965 20.5076 10.965C21.0224 10.965 21.5177 10.7676 21.8914 10.4135C22.2652 10.0594 22.489 9.57556 22.5168 9.06147C22.5446 8.54738 22.3743 8.04218 22.0409 7.64986C21.7075 7.25754 21.2364 7.00794 20.7246 6.95242V5.58254C21.1225 5.55255 21.5093 5.4371 21.8586 5.24405L25.3448 9.22637C25.0499 9.61265 24.8607 10.069 24.7956 10.5506C24.7305 11.0322 24.7918 11.5224 24.9736 11.9731C25.1553 12.4238 25.4512 12.8194 25.8322 13.1211C26.2132 13.4228 26.6661 13.6202 27.1464 13.6938C27.6268 13.7674 28.118 13.7148 28.5719 13.5411C29.0257 13.3674 29.4266 13.0786 29.735 12.7031C30.0434 12.3276 30.2488 11.8782 30.331 11.3993C30.4132 10.9203 30.3693 10.4282 30.2037 9.97134L31.2901 9.35946C31.6214 9.75274 32.0908 10.0041 32.6018 10.0619C33.1128 10.1197 33.6265 9.97953 34.0373 9.6702C34.4481 9.36086 34.7248 8.90588 34.8104 8.39882C34.896 7.89175 34.7841 7.37115 34.4977 6.94406C34.2113 6.51696 33.7721 6.21585 33.2705 6.10262C32.7689 5.9894 32.2429 6.07268 31.8008 6.33533C31.3587 6.59798 31.034 7.02005 30.8936 7.51473C30.7531 8.00942 30.8075 8.53912 31.0456 8.99493L30.0258 9.57354C29.8194 9.19729 29.5291 8.8736 29.1775 8.62755C28.8258 8.3815 28.4223 8.21968 27.9981 8.15465C27.5739 8.08961 27.1404 8.1231 26.7312 8.2525C26.322 8.38191 25.9481 8.60377 25.6384 8.9009L22.2261 5.00393C22.5646 4.73918 22.8378 4.40016 23.0246 4.01305L26.0131 4.51066C26.126 5.01123 26.4261 5.44965 26.8519 5.736C27.2777 6.02235 27.797 6.13493 28.3031 6.05065C28.8093 5.96637 29.2641 5.69162 29.5741 5.28274C29.8842 4.87387 30.026 4.36186 29.9706 3.85171C29.9152 3.34157 29.6667 2.87197 29.2761 2.5392C28.8855 2.20644 28.3823 2.03574 27.8699 2.06211C27.3574 2.08848 26.8745 2.30992 26.5201 2.68102C26.1657 3.05212 25.9667 3.54476 25.9639 4.05789L23.1866 3.59645C23.3296 3.11626 23.3411 2.60646 23.2198 2.12032C23.0985 1.63417 22.8489 1.18953 22.497 0.832844C22.1451 0.476158 21.7039 0.220522 21.2194 0.0926461C20.735 -0.0352297 20.2251 -0.0306522 19.743 0.105902C19.2609 0.242456 18.8243 0.505974 18.4789 0.868921C18.1335 1.23187 17.8919 1.68092 17.7793 2.16917C17.6668 2.65741 17.6874 3.16692 17.8391 3.64446C17.9908 4.122 18.2679 4.55004 18.6415 4.88387L15.5445 7.90424C15.0659 7.35415 14.3908 7.0135 13.664 6.95531V4.84192C14.1758 4.7864 14.6469 4.53679 14.9803 4.14447C15.3137 3.75215 15.484 3.24696 15.4562 2.73287C15.4284 2.21878 15.2046 1.7349 14.8309 1.38081C14.4571 1.02673 13.9619 0.829381 13.447 0.829381C12.9322 0.829381 12.4369 1.02673 12.0632 1.38081C11.6894 1.7349 11.4656 2.21878 11.4378 2.73287C11.41 3.24696 11.5803 3.75215 11.9137 4.14447C12.2471 4.53679 12.7182 4.7864 13.23 4.84192V6.95242C12.7592 6.98765 12.3049 7.14169 11.9097 7.40013C11.5145 7.65857 11.1913 8.01299 10.9702 8.43025C10.7491 8.84752 10.6375 9.31401 10.6456 9.78615C10.6538 10.2583 10.7815 10.7206 11.0168 11.13L6.16226 13.3635C5.98671 12.946 5.71275 12.5773 5.36377 12.2887L7.26452 8.88065C7.43119 8.92468 7.60276 8.94753 7.77515 8.94864C8.26852 8.94962 8.74514 8.76969 9.11478 8.4429C9.48442 8.11611 9.72142 7.66515 9.78092 7.17537C9.84043 6.68559 9.7183 6.191 9.43767 5.7852C9.15704 5.37941 8.73737 5.09059 8.25811 4.9734C7.77885 4.85621 7.27326 4.9188 6.83704 5.14931C6.40083 5.37983 6.06426 5.76227 5.89104 6.22424C5.71783 6.68621 5.72 7.19566 5.89714 7.65614C6.07428 8.11662 6.41409 8.49619 6.85225 8.72298L5.00213 12.0384C4.59991 11.8012 4.14469 11.6683 3.67798 11.6521C3.21127 11.6358 2.74791 11.7367 2.33016 11.9454C1.91241 12.1541 1.55356 12.4641 1.28633 12.8471C1.0191 13.2301 0.851999 13.6739 0.800253 14.138C0.748508 14.6021 0.81377 15.0718 0.990087 15.5042C1.1664 15.9367 1.44817 16.3181 1.80969 16.6137C2.1712 16.9093 2.60097 17.1098 3.0598 17.1967C3.51864 17.2836 3.99193 17.2543 4.43654 17.1115L6.62804 21.3816C6.07424 21.7906 5.69098 22.3897 5.55182 23.064L3.96062 22.5953C4.00241 22.4342 4.02379 22.2684 4.02427 22.102C4.02475 21.6089 3.84412 21.1327 3.51667 20.764C3.18922 20.3953 2.73777 20.1596 2.24803 20.1018C1.75829 20.044 1.26437 20.168 0.86006 20.4504C0.455754 20.7327 0.169215 21.1537 0.0548555 21.6334C-0.0595044 22.1131 0.00627857 22.6181 0.239712 23.0525C0.473145 23.4869 0.857974 23.8205 1.32112 23.9898C1.78427 24.1592 2.29348 24.1525 2.75207 23.9712C3.21066 23.7899 3.58668 23.4464 3.80874 23.0061L5.4954 23.5037C5.4954 23.5457 5.4954 23.5847 5.4954 23.6267C5.4954 24.0946 5.61287 24.555 5.83705 24.9657C6.06123 25.3764 6.38493 25.7242 6.77848 25.9773L5.69647 27.3978C5.31002 27.0583 4.80822 26.8797 4.29419 26.8987C3.78015 26.9177 3.2929 27.1328 2.93257 27.4999C2.57223 27.867 2.36616 28.3582 2.3567 28.8725C2.34724 29.3868 2.53512 29.8852 2.88171 30.2653C3.22831 30.6453 3.70732 30.8783 4.22031 30.9161C4.7333 30.954 5.24132 30.794 5.64 30.4689C6.03867 30.1439 6.29771 29.6785 6.3639 29.1684C6.4301 28.6583 6.29841 28.1422 5.9959 27.7262L7.17339 26.1914C7.5277 26.3468 7.91042 26.4271 8.29735 26.4272C8.35665 26.4272 8.41596 26.4272 8.47382 26.4185L9.34175 31.3295C8.91819 31.4545 8.53024 31.678 8.20964 31.9817C7.88904 32.2855 7.6449 32.6608 7.4972 33.077C7.34949 33.4932 7.30241 33.9384 7.35981 34.3763C7.41721 34.8142 7.57747 35.2322 7.82746 35.5963C8.07744 35.9603 8.41007 36.26 8.79812 36.4709C9.18617 36.6817 9.61862 36.7977 10.0601 36.8093C10.5016 36.8209 10.9395 36.7278 11.3381 36.5377C11.7367 36.3476 12.0847 36.0658 12.3534 35.7154L16.4037 37.5192C16.3689 37.6686 16.3509 37.8215 16.3502 37.9749C16.3485 38.4713 16.5297 38.9509 16.8593 39.3221C17.189 39.6932 17.6438 39.9298 18.1369 39.9867C18.6301 40.0436 19.1269 39.9167 19.5323 39.6303C19.9378 39.3439 20.2234 38.9182 20.3347 38.4344C20.446 37.9506 20.375 37.4428 20.1354 37.0081C19.8958 36.5733 19.5044 36.2422 19.036 36.0779C18.5676 35.9136 18.055 35.9277 17.5964 36.1176C17.1377 36.3074 16.7651 36.6597 16.5498 37.107L12.5965 35.3465C12.7698 35.0275 12.8789 34.6776 12.9176 34.3166L18.0658 33.0566C18.2608 33.4134 18.5314 33.7232 18.8586 33.9645C19.1858 34.2057 19.5617 34.3727 19.9602 34.4535C20.3586 34.5344 20.7698 34.5273 21.1652 34.4327C21.5606 34.338 21.9306 34.1582 22.2492 33.9058L24.176 35.5678C23.9596 36.0383 23.9316 36.5738 24.0978 37.0643C24.264 37.5547 24.6118 37.9629 25.0697 38.2048C25.5276 38.4468 26.0608 38.5041 26.5596 38.365C27.0585 38.2259 27.4851 37.9011 27.7518 37.4571C28.0185 37.0132 28.1049 36.484 27.9935 35.9783C27.882 35.4726 27.581 35.0288 27.1524 34.7381C26.7238 34.4475 26.2001 34.3321 25.689 34.4156C25.1779 34.4992 24.7183 34.7754 24.4046 35.1874L22.5718 33.6063C22.8457 33.3118 23.0524 32.9614 23.1779 32.5793L30.8315 32.9482C30.8344 33.3452 30.9547 33.7325 31.1774 34.0613C31.4001 34.39 31.7151 34.6455 32.0827 34.7954C32.4504 34.9454 32.8542 34.9832 33.2433 34.904C33.6323 34.8248 33.9893 34.6321 34.269 34.3504C34.5488 34.0686 34.7388 33.7103 34.8153 33.3207C34.8917 32.931 34.851 32.5275 34.6984 32.1609C34.5458 31.7944 34.2881 31.4812 33.9578 31.2609C33.6274 31.0406 33.2393 30.923 32.8422 30.923L32.8364 30.9187Z" fill="white"/>
</svg>
