<svg width="109" height="72" viewBox="0 0 109 72" fill="none" xmlns="http://www.w3.org/2000/svg">
<g style="mix-blend-mode:overlay" opacity="1">
<path d="M63.9398 95.1198C62.7233 94.3491 61.2794 94.0186 59.8492 94.1835C58.419 94.3484 57.0889 94.9988 56.0811 96.026L36.6313 82.339C36.9352 82.0011 37.2112 81.6391 37.4566 81.2566C37.8924 80.5642 38.2304 79.8148 38.4609 79.0298L48.4059 79.446C48.5952 81.0727 49.4012 82.5654 50.6579 83.6166C51.9146 84.6679 53.5264 85.1977 55.1613 85.0969C56.7963 84.9961 58.3299 84.2725 59.4463 83.0749C60.5628 81.8774 61.1771 80.2971 61.1627 78.6596C61.1483 77.0221 60.5064 75.452 59.3692 74.2726C58.2319 73.0933 56.6858 72.3944 55.0493 72.32C53.4129 72.2455 51.8106 72.8012 50.5725 73.8726C49.3343 74.944 48.5546 76.4494 48.3939 78.079L38.7414 77.6662C39.0183 75.4411 38.4291 73.1941 37.0955 71.39C35.7619 69.5859 33.786 68.3627 31.5766 67.9736C29.3671 67.5844 27.0931 68.059 25.2251 69.2992C23.357 70.5394 22.0378 72.4503 21.5403 74.6366L6.41365 69.534C7.45985 67.6858 7.79159 65.5178 7.34606 63.4404L11.7814 61.665C12.7943 62.9285 14.2526 63.7565 15.8565 63.9787C17.4605 64.201 19.0882 63.8006 20.4052 62.86C21.7222 61.9193 22.6283 60.5098 22.9373 58.9212C23.2463 57.3325 22.9348 55.6855 22.0667 54.3186C21.1986 52.9517 19.8399 51.9688 18.2699 51.5719C16.6999 51.175 15.0379 51.3943 13.6255 52.1848C12.2131 52.9752 11.1576 54.2766 10.676 55.8216C10.1944 57.3666 10.3233 59.0378 11.0362 60.4916L6.95261 62.126C6.15068 59.9956 4.53616 58.2698 2.46345 57.3273L8.36638 43.0112C9.53909 43.4371 10.7892 43.6073 12.0328 43.5106C13.2763 43.4138 14.4847 43.0523 15.5766 42.4503C16.6686 41.8482 17.619 41.0195 18.364 40.0199C19.1089 39.0202 19.6313 37.8727 19.8961 36.6543C20.1608 35.4359 20.1617 34.1748 19.8988 32.9556C19.636 31.7364 19.1153 30.5874 18.3718 29.5856C17.6283 28.5837 16.6792 27.7523 15.5882 27.1471C14.4971 26.5418 13.2894 26.1768 12.0459 26.0764L13.3787 11.3738C14.9804 11.5277 16.5934 11.2394 18.0419 10.5402L21.9759 14.7783C21.7779 15.0073 21.5958 15.2495 21.4308 15.5032C20.5791 16.8339 20.2563 18.4354 20.526 19.9927C20.7956 21.55 21.6381 22.9506 22.8879 23.9191C24.1377 24.8877 25.7044 25.3541 27.28 25.2268C28.8556 25.0995 30.3261 24.3876 31.4025 23.231C32.479 22.0745 33.0835 20.5569 33.0972 18.9767C33.1109 17.3965 32.5328 15.8679 31.4766 14.6914C30.4204 13.5148 28.9625 12.7755 27.3894 12.6186C25.8163 12.4617 24.2418 12.8987 22.9754 13.8437L19.2577 9.83898C20.7825 8.77261 21.9227 7.24329 22.5094 5.47764L39.4584 7.76412C39.6994 9.99095 40.7863 12.0409 42.4947 13.491C44.2032 14.941 46.4029 15.6804 48.6398 15.5567C50.8767 15.4329 52.9801 14.4554 54.5159 12.8259C56.0517 11.1964 56.9027 9.03918 56.8933 6.79954L70.4978 3.92633C71.1041 5.23687 72.0289 6.37501 73.1879 7.23691L70.8937 10.8565C69.4488 10.1461 67.7868 10.0162 66.2498 10.4935C64.7129 10.9709 63.4178 12.0192 62.6312 13.4227C61.8446 14.8262 61.6262 16.478 62.0212 18.0384C62.4161 19.5987 63.3942 20.9488 64.7541 21.8108C66.1141 22.6728 67.7525 22.981 69.3321 22.6722C70.9118 22.3634 72.3125 21.4609 73.2459 20.1505C74.1794 18.8401 74.5747 17.2215 74.3504 15.6278C74.126 14.0341 73.2992 12.5865 72.0401 11.583L74.3318 7.96729C75.4332 8.55442 76.6481 8.89731 77.8938 8.9726L80.4404 25.3206C79.0153 25.8464 77.7518 26.7341 76.7743 27.8962C75.7967 29.0584 75.1386 30.455 74.8648 31.9489C74.5909 33.4428 74.7107 34.9825 75.2123 36.4166C75.7139 37.8508 76.5801 39.13 77.7257 40.1286C78.8713 41.1272 80.257 41.8108 81.7465 42.1122C83.2359 42.4136 84.7779 42.3224 86.2209 41.8475C87.6639 41.3727 88.9582 40.5306 89.9765 39.404C90.9949 38.2774 91.7023 36.9051 92.0292 35.4219L95.9224 35.6257C96.1397 37.2185 96.9592 38.6679 98.2123 39.676C99.4654 40.6841 101.057 41.1741 102.66 41.0454C104.262 40.9167 105.754 40.179 106.829 38.984C107.903 37.789 108.478 36.2275 108.436 34.6207C108.394 33.0138 107.738 31.4838 106.602 30.3451C105.467 29.2064 103.938 28.5456 102.331 28.4987C100.724 28.4518 99.1598 29.0222 97.9612 30.0927C96.7625 31.1633 96.0201 32.6525 95.8865 34.2542L92.2247 34.0741C92.3088 32.7353 92.0836 31.395 91.5664 30.1568C91.0492 28.9187 90.2539 27.8159 89.2421 26.934C88.2304 26.0521 87.0293 25.4148 85.7319 25.0713C84.4345 24.7277 83.0757 24.6873 81.7606 24.9531L79.2661 8.95394C80.6033 8.82197 81.8921 8.38453 83.033 7.6754L90.0949 13.9924C89.5556 15.5026 89.6149 17.1623 90.2607 18.6311C90.9065 20.0998 92.0897 21.2663 93.5678 21.8913C95.0458 22.5163 96.7067 22.5524 98.2098 21.9923C99.7128 21.4322 100.944 20.3183 101.651 18.879C102.358 17.4397 102.487 15.7841 102.012 14.2518C101.537 12.7195 100.494 11.4266 99.0959 10.6382C97.6981 9.84981 96.0519 9.62572 94.4949 10.0119C92.9379 10.398 91.5881 11.3652 90.7224 12.715L84.1579 6.84704C85.3392 5.81913 86.2224 4.49275 86.7152 3.00649C87.2081 1.52024 87.2925 -0.0713526 86.9597 -1.60197C86.6269 -3.13258 85.8891 -4.54604 84.8233 -5.69467C83.7575 -6.84329 82.4029 -7.68492 80.901 -8.13161C79.3992 -8.57831 77.8051 -8.61367 76.2855 -8.234C74.7658 -7.85434 73.3763 -7.07358 72.2622 -5.97331C71.1481 -4.87304 70.3502 -3.49365 69.952 -1.97925C69.5537 -0.464855 69.5697 1.12896 69.9983 2.63565L56.7644 5.42266C56.4204 3.16943 55.207 1.14002 53.3845 -0.230441L56.9201 -5.80871C58.365 -5.0983 60.027 -4.96842 61.5639 -5.44577C63.1009 -5.92313 64.396 -6.97141 65.1826 -8.3749C65.9692 -9.77837 66.1875 -11.4303 65.7926 -12.9906C65.3977 -14.551 64.4196 -15.901 63.0597 -16.763C61.6997 -17.625 60.0613 -17.9333 58.4816 -17.6244C56.902 -17.3156 55.5013 -16.4131 54.5678 -15.1027C53.6344 -13.7923 53.2391 -12.1737 53.4634 -10.58C53.6877 -8.98631 54.5146 -7.53876 55.7737 -6.53527L52.243 -0.964638C50.9402 -1.66002 49.4825 -2.014 48.0062 -1.99351C46.5299 -1.97302 45.0832 -1.57872 43.8012 -0.847459C42.5192 -0.116203 41.4438 0.928146 40.6755 2.18799C39.9072 3.44784 39.471 4.88205 39.4078 6.35662L22.8478 4.12401C23.0824 2.72828 22.9757 1.29628 22.5366 -0.0497197L33.259 -5.86287C33.6256 -5.46759 34.0406 -5.12006 34.4941 -4.8285C35.7957 -3.99986 37.3557 -3.67682 38.8788 -3.92051C40.402 -4.1642 41.7824 -4.95771 42.759 -6.15085C43.7356 -7.34398 44.2404 -8.85392 44.178 -10.3949C44.1155 -11.9358 43.4902 -13.4008 42.4202 -14.5125C41.3503 -15.6242 39.91 -16.3055 38.3721 -16.4274C36.8342 -16.5493 35.3053 -16.1033 34.0749 -15.174C32.8445 -14.2446 31.998 -12.8963 31.6955 -11.3843C31.3931 -9.87226 31.6557 -8.30148 32.4337 -6.96927L22 -1.31572C21.3345 -2.61545 20.3542 -3.72819 19.1485 -4.55248C17.9429 -5.37677 16.5502 -5.88637 15.0975 -6.03483C13.6448 -6.18328 12.1783 -5.96587 10.8317 -5.4024C9.48507 -4.83894 8.30122 -3.94735 7.38808 -2.80895C6.47495 -1.67055 5.86158 -0.321546 5.60389 1.11505C5.34621 2.55165 5.45241 4.03013 5.91282 5.41568C6.37323 6.80123 7.17319 8.04977 8.23977 9.04745C9.30634 10.0451 10.6056 10.7602 12.0191 11.1275L10.6642 26.0677C8.51712 26.22 6.50247 27.1596 5.0069 28.7063L1.58778 24.8051C1.96768 24.4499 2.30141 24.0482 2.58112 23.6097C3.40739 22.3089 3.72679 20.7497 3.47871 19.2282C3.23062 17.7067 2.4323 16.3288 1.23535 15.3563C0.0383941 14.3838 -1.47385 13.8842 -3.0142 13.9526C-4.55456 14.021 -6.01577 14.6524 -7.12036 15.7271C-8.22495 16.8018 -8.89601 18.2449 -9.0061 19.7823C-9.1162 21.3197 -8.65765 22.8444 -7.71755 24.0668C-6.77745 25.2892 -5.42126 26.1243 -3.9065 26.4134C-2.39175 26.7026 -0.823907 26.4256 0.49929 25.6352L4.1222 29.7725C4.05203 29.8832 3.98669 29.9863 3.9165 30.0971C3.13373 31.3321 2.6738 32.744 2.57891 34.2033C2.48401 35.6627 2.75717 37.1228 3.37335 38.4497L-1.86125 40.3875C-2.31413 38.8444 -3.34086 37.5329 -4.7305 36.7224C-6.12014 35.9119 -7.76714 35.664 -9.3331 36.0297C-10.8991 36.3953 -12.2651 37.3467 -13.1505 38.6883C-14.0358 40.03 -14.3734 41.66 -14.0937 43.2436C-13.814 44.8271 -12.9383 46.2438 -11.6466 47.2027C-10.3549 48.1616 -8.74521 48.5897 -7.14832 48.3992C-5.55142 48.2088 -4.08857 47.4141 -3.06032 46.1785C-2.03208 44.9428 -1.51653 43.3601 -1.61961 41.7556L4.05834 39.6759C4.73419 40.6795 5.61083 41.5322 6.63288 42.1801C6.78954 42.2794 6.9462 42.3787 7.11357 42.4526L1.19039 56.8683C-0.137602 56.4891 -1.53631 56.4295 -2.8913 56.6944C-4.24629 56.9594 -5.51907 57.5412 -6.60551 58.3925C-7.69195 59.2437 -8.56118 60.3401 -9.1421 61.592C-9.72302 62.8439 -9.99911 64.2157 -9.94781 65.5951C-9.8965 66.9746 -9.51925 68.3226 -8.8469 69.5287C-8.17456 70.7349 -7.22622 71.765 -6.07949 72.5348C-4.93276 73.3046 -3.6202 73.7922 -2.2492 73.9577C-0.878197 74.1232 0.512289 73.962 1.80852 73.4871L9.48986 85.0295C9.14784 85.3655 8.84471 85.7389 8.58618 86.1426C7.75107 87.4499 7.42747 89.0193 7.67727 90.5508C7.92706 92.0824 8.73272 93.4685 9.9402 94.4442C11.1477 95.42 12.6722 95.9168 14.2223 95.8397C15.7725 95.7627 17.2394 95.1171 18.3426 94.0265C19.4459 92.9359 20.108 91.4768 20.2023 89.9281C20.2967 88.3795 19.8168 86.85 18.8543 85.6321C17.8918 84.4142 16.5142 83.5934 14.9851 83.3266C13.4559 83.0598 11.8824 83.3658 10.5655 84.186L3.06756 72.9204C4.0592 72.3686 4.9328 71.6277 5.63887 70.7395L21.3459 76.0334C21.2643 77.3014 21.4606 78.5722 21.9213 79.7568C22.382 80.9415 23.0959 82.0115 24.013 82.892C24.9302 83.7725 26.0285 84.4423 27.2311 84.8545C28.4338 85.2667 29.7119 85.4115 30.976 85.2786L33.2851 92.8916C31.9263 93.771 30.9565 95.1376 30.5751 96.7105C30.1937 98.2834 30.4296 99.943 31.2344 101.348C32.0392 102.753 33.3517 103.797 34.902 104.265C36.4524 104.734 38.1228 104.59 39.57 103.865C41.0171 103.14 42.1309 101.888 42.6825 100.366C43.234 98.8448 43.1814 97.1695 42.5355 95.6847C41.8895 94.2 40.6992 93.0186 39.2094 92.3835C37.7196 91.7484 36.0433 91.7078 34.5253 92.2701L32.329 85.0284C33.5452 84.7095 34.6776 84.1308 35.6483 83.3323L55.2486 97.12C54.5919 98.1727 54.2618 99.3966 54.3 100.637C54.3382 101.878 54.743 103.079 55.4632 104.091C56.1835 105.102 57.187 105.878 58.3473 106.32C59.5076 106.762 60.7727 106.852 61.983 106.576C63.1934 106.301 64.2949 105.673 65.1486 104.773C66.0023 103.872 66.57 102.739 66.7801 101.516C66.9902 100.293 66.8334 99.0351 66.3294 97.9006C65.8253 96.766 64.9967 95.8058 63.9478 95.141L63.9398 95.1198Z" fill="#ff0000" fill-opacity="0.24"/>
</g>
</svg>
