<svg width="20" height="20" viewBox="0 0 20 20" fill="none" xmlns="http://www.w3.org/2000/svg">
<path fill-rule="evenodd" clip-rule="evenodd" d="M12.2398 1.86765C10.8205 3.18477 10 5.02543 10 7C10 10.866 13.134 14 17 14C17.1452 14 17.2898 13.9956 17.4336 13.9868L19.4432 13.8643L18.3266 15.5396C16.4843 18.3039 13.3854 20 10 20C4.47715 20 -2.7141e-06 15.5228 -1.74846e-06 10C-7.8281e-07 4.47715 4.47715 7.8281e-07 10 1.74846e-06C10.5847 1.85068e-06 11.1634 0.0502871 11.7317 0.149563L13.7174 0.496477L12.2398 1.86765Z" fill="#BCBDC1"/>
</svg>
