<svg width="16" height="16" viewBox="0 0 16 16" fill="none" xmlns="http://www.w3.org/2000/svg">
<path fill-rule="evenodd" clip-rule="evenodd" d="M7.99998 3.83654C9.05941 3.83654 9.91825 2.9777 9.91825 1.91827C9.91825 0.858838 9.05941 0 7.99998 0C6.94055 0 6.08172 0.858838 6.08172 1.91827C6.08172 2.9777 6.94055 3.83654 7.99998 3.83654ZM12.2567 6.92933C12.5841 7.93691 13.6663 8.48832 14.6739 8.16094C15.6815 7.83355 16.2329 6.75135 15.9055 5.74378C15.5781 4.7362 14.4959 4.18479 13.4883 4.51217C12.4808 4.83955 11.9293 5.92175 12.2567 6.92933ZM10.2066 14.613C9.58391 13.7559 9.77391 12.5563 10.631 11.9336C11.4881 11.3109 12.6877 11.5009 13.3104 12.358C13.9332 13.2151 13.7432 14.4147 12.8861 15.0374C12.029 15.6601 10.8293 15.4701 10.2066 14.613ZM3.74317 6.9292C4.07055 5.92162 3.51914 4.83942 2.51156 4.51204C1.50399 4.18466 0.421787 4.73606 0.0944046 5.74364C-0.232977 6.75122 0.31843 7.83342 1.32601 8.1608C2.33359 8.48818 3.41578 7.93677 3.74317 6.9292ZM2.68971 12.3578C3.31243 11.5007 4.51205 11.3107 5.36915 11.9334C6.22625 12.5561 6.41625 13.7558 5.79353 14.6129C5.17081 15.47 3.97119 15.66 3.11409 15.0373C2.25699 14.4145 2.06699 13.2149 2.68971 12.3578ZM10.3424 3.47774C10.5306 3.19565 10.6692 2.87764 10.7457 2.53619C11.4621 2.87728 12.105 3.3477 12.6442 3.91727C12.3433 4.09563 12.0838 4.32574 11.8739 4.5919C11.4357 4.13581 10.9177 3.75695 10.3424 3.47774ZM13.3217 9.046C13.6481 9.13783 13.9932 9.1714 14.3416 9.13872C14.2383 9.93896 13.9872 10.6928 13.6164 11.3721C13.3538 11.1408 13.0548 10.9651 12.7368 10.8475C13.0318 10.2973 13.2338 9.68983 13.3217 9.046ZM8.94728 13.6006C8.9608 13.9394 9.03556 14.2781 9.17431 14.5993C8.79371 14.67 8.40127 14.7069 8.0002 14.7069C7.59913 14.7069 7.20668 14.6699 6.82608 14.5993C6.96484 14.2781 7.0396 13.9394 7.05313 13.6006C7.36057 13.6553 7.67705 13.6838 8.0002 13.6838C8.32336 13.6838 8.63984 13.6553 8.94728 13.6006ZM3.26361 10.8474C2.94558 10.965 2.64657 11.1408 2.38398 11.372C2.01321 10.6928 1.76206 9.93892 1.65884 9.13869C2.00716 9.17134 2.35234 9.13775 2.67869 9.0459C2.76658 9.68975 2.96857 10.2973 3.26361 10.8474ZM4.12646 4.59197C3.9165 4.32581 3.65706 4.09568 3.35615 3.9173C3.89545 3.34769 4.53841 2.87723 5.25484 2.53613C5.33134 2.87759 5.4699 3.1956 5.65808 3.47769C5.08271 3.75692 4.56469 4.13583 4.12646 4.59197Z" fill="white"/>
</svg>
