<svg width="24" height="24" viewBox="0 0 24 24" fill="none" xmlns="http://www.w3.org/2000/svg">
<path d="M12.3598 4.422L12.4852 4.41421C12.995 4.41421 13.4157 4.7957 13.4774 5.28878L13.4852 5.41421L13.4858 11.4847L19.5563 11.4853C20.1086 11.4853 20.5563 11.933 20.5563 12.4853C20.5563 13.0376 20.1086 13.4853 19.5563 13.4853L13.4858 13.4858L13.4852 19.5563C13.4852 20.0662 13.1037 20.4869 12.6107 20.5486L12.4852 20.5563C11.9754 20.5563 11.5547 20.1749 11.493 19.6818L11.4852 19.5563L11.4847 13.4858L5.41416 13.4853C4.86188 13.4853 4.41416 13.0376 4.41416 12.4853C4.41416 11.933 4.86188 11.4853 5.41416 11.4853L11.4847 11.4847L11.4852 5.41421C11.4852 4.90441 11.8667 4.48371 12.3598 4.422Z" fill="#BCBDC1"/>
</svg>
