<svg width="16" height="16" viewBox="0 0 16 16" fill="none" xmlns="http://www.w3.org/2000/svg">
<path d="M7.66696 14L2.62979 13.999L2.54919 13.9898L2.49073 13.9767L2.42147 13.9537L2.36203 13.9269L2.31953 13.9031L2.27782 13.8754L2.23515 13.8422L2.19309 13.8033L2.13015 13.7302L2.08238 13.656L2.04675 13.5809L2.02317 13.5106L2.01272 13.4672L2.00662 13.4323L1.99927 13.3333L1.99927 8.33074C1.99927 7.96255 2.29775 7.66407 2.66594 7.66407C3.00783 7.66407 3.28961 7.92143 3.32812 8.25299L3.33261 8.33074L3.33278 11.724L12.8607 2.19623C13.101 1.95592 13.4792 1.93744 13.7407 2.14079L13.8035 2.19625C14.0438 2.43658 14.0623 2.81474 13.859 3.07626L13.8035 3.13906L4.27611 12.6667L7.66696 12.6667C8.00885 12.6667 8.29063 12.924 8.32914 13.2556L8.33362 13.3333C8.33362 13.7015 8.03515 14 7.66696 14Z" fill="#BCBDC1"/>
</svg>
