<svg width="16" height="16" viewBox="0 0 16 16" fill="none" xmlns="http://www.w3.org/2000/svg">
<path d="M7.66671 14L2.62955 13.999L2.54895 13.9898L2.49049 13.9767L2.42123 13.9537L2.36179 13.9269L2.31929 13.9031L2.27757 13.8754L2.23491 13.8422L2.19284 13.8033L2.12991 13.7302L2.08214 13.656L2.04651 13.5809L2.02292 13.5106L2.01247 13.4672L2.00637 13.4323L1.99903 13.3333L1.99903 8.33074C1.99903 7.96255 2.29751 7.66407 2.6657 7.66407C3.00759 7.66407 3.28937 7.92143 3.32788 8.25299L3.33236 8.33074L3.33254 11.724L12.8605 2.19623C13.1008 1.95591 13.479 1.93743 13.7405 2.14079L13.8033 2.19625C14.0436 2.43658 14.0621 2.81473 13.8587 3.07626L13.8033 3.13906L4.27587 12.6667L7.66671 12.6667C8.0086 12.6667 8.29038 12.924 8.32889 13.2556L8.33338 13.3333C8.33338 13.7015 8.0349 14 7.66671 14Z" fill="#2DDC88"/>
</svg>
