<svg width="23" height="24" viewBox="0 0 23 24" fill="none" xmlns="http://www.w3.org/2000/svg">
<path d="M14.7074 21.708L18.7074 17.7122C19.0681 17.3519 19.0961 16.7848 18.7914 16.3923L18.7082 16.2981L14.7082 12.2928C14.318 11.9021 13.6848 11.9016 13.294 12.2919C12.9333 12.6522 12.9052 13.2194 13.21 13.6119L13.2931 13.7061L15.5837 15.9995L5 15.9995C4.48716 15.9995 4.06449 16.3855 4.00673 16.8829L4 16.9995C4 17.5123 4.38604 17.935 4.88338 17.9927L5 17.9995L15.5907 17.9995L13.2939 20.293C12.9333 20.6533 12.9052 21.2205 13.2101 21.613L13.2932 21.7072C13.6535 22.0679 14.2207 22.0959 14.6132 21.7911L14.7074 21.708L18.7074 17.7122L14.7074 21.708ZM18.9907 7.1161L18.9975 6.99948C18.9975 6.48664 18.6114 6.06397 18.1141 6.0062L17.9975 5.99948L7.41368 5.99949L9.70745 3.70692C10.0681 3.3466 10.0961 2.77938 9.79126 2.38695L9.70812 2.2927C9.3478 1.93205 8.78058 1.90405 8.38815 2.20889L8.2939 2.29204L4.2939 6.28828C3.93325 6.64859 3.90525 7.21581 4.21009 7.60824L4.29324 7.70249L8.29324 11.7063C8.68358 12.097 9.31674 12.0973 9.70745 11.7069C10.0681 11.3466 10.0961 10.7794 9.79126 10.3869L9.70812 10.2927L7.41768 7.99949L17.9975 7.99948C18.5103 7.99948 18.933 7.61344 18.9907 7.1161L18.9975 6.99948L18.9907 7.1161Z" fill="white"/>
</svg>
