<svg width="24" height="24" viewBox="0 0 24 24" fill="none" xmlns="http://www.w3.org/2000/svg">
<path d="M5.09791 3.99314V7.43709C5.09791 7.97507 5.53402 8.41119 6.072 8.41119H9.51595C10.0539 8.41119 10.4901 7.97507 10.4901 7.43709C10.4901 6.89911 10.0539 6.46299 9.51595 6.46299L8.71532 6.46199C11.3342 4.8955 14.7776 5.24023 17.0336 7.49618C19.6964 10.159 19.6964 14.4764 17.0336 17.1392C14.3707 19.8021 10.0534 19.8021 7.39049 17.1392C5.76978 15.5185 5.09135 13.2303 5.51706 11.0206C5.61883 10.4924 5.2731 9.98164 4.74483 9.87986C4.21657 9.77808 3.70582 10.1238 3.60404 10.6521C3.05729 13.49 3.93016 16.4341 6.01291 18.5168C9.43659 21.9405 14.9875 21.9405 18.4111 18.5168C21.8348 15.0932 21.8348 9.54228 18.4111 6.1186C15.3138 3.02123 10.4754 2.72602 7.04613 5.23297L7.0461 3.99314C7.0461 3.45516 6.60998 3.01904 6.072 3.01904C5.53402 3.01904 5.09791 3.45516 5.09791 3.99314Z" fill="#BCBDC1"/>
</svg>
