<svg width="24" height="24" viewBox="0 0 24 24" fill="none" xmlns="http://www.w3.org/2000/svg">
<path d="M5.09815 3.99314V7.43709C5.09815 7.97507 5.53427 8.41119 6.07225 8.41119H9.5162C10.0542 8.41119 10.4903 7.97507 10.4903 7.43709C10.4903 6.89911 10.0542 6.46299 9.5162 6.46299L8.71556 6.46199C11.3344 4.8955 14.7779 5.24023 17.0338 7.49618C19.6967 10.159 19.6967 14.4764 17.0338 17.1392C14.3709 19.8021 10.0536 19.8021 7.39074 17.1392C5.77003 15.5185 5.09159 13.2303 5.5173 11.0206C5.61908 10.4924 5.27334 9.98164 4.74508 9.87986C4.21681 9.77808 3.70606 10.1238 3.60429 10.6521C3.05753 13.49 3.93041 16.4341 6.01316 18.5168C9.43683 21.9405 14.9877 21.9405 18.4114 18.5168C21.8351 15.0932 21.8351 9.54228 18.4114 6.1186C15.314 3.02123 10.4756 2.72602 7.04637 5.23297L7.04634 3.99314C7.04634 3.45516 6.61023 3.01904 6.07225 3.01904C5.53427 3.01904 5.09815 3.45516 5.09815 3.99314Z" fill="#0A2EBF"/>
</svg>
