<svg width="24" height="24" viewBox="0 0 24 24" fill="none" xmlns="http://www.w3.org/2000/svg">
<path d="M10.5 3C14.6421 3 18 6.35786 18 10.5C18 12.2101 17.4276 13.7866 16.464 15.0483L21.2071 19.7929C21.5976 20.1834 21.5976 20.8166 21.2071 21.2071C20.8466 21.5676 20.2794 21.5953 19.8871 21.2903L19.7929 21.2071L15.0483 16.464C13.7866 17.4276 12.2101 18 10.5 18C6.35786 18 3 14.6421 3 10.5C3 6.35786 6.35786 3 10.5 3ZM10.5 5C7.46243 5 5 7.46243 5 10.5C5 13.5376 7.46243 16 10.5 16C13.5376 16 16 13.5376 16 10.5C16 7.46243 13.5376 5 10.5 5Z" fill="#BCBDC1"/>
</svg>
