<svg width="16" height="16" viewBox="0 0 16 16" fill="none" xmlns="http://www.w3.org/2000/svg">
<path d="M8.33133 2.00098L13.3685 2.00196L13.4491 2.01122L13.5076 2.02425L13.5768 2.04723L13.6363 2.07412L13.6788 2.09787L13.7205 2.12555L13.7631 2.15882L13.8052 2.1977L13.8681 2.27079L13.9159 2.34496L13.9515 2.42011L13.9751 2.49034L13.9856 2.53379L13.9917 2.56869L13.999 2.66765V7.67024C13.999 8.03843 13.7005 8.33691 13.3323 8.33691C12.9905 8.33691 12.7087 8.07955 12.6702 7.74799L12.6657 7.67024L12.6655 4.27698L3.13757 13.8048C2.89724 14.0451 2.51909 14.0635 2.25757 13.8602L2.19476 13.8047C1.95445 13.5644 1.93597 13.1862 2.13932 12.9247L2.19478 12.8619L11.7222 3.33432H8.33133C7.98944 3.33432 7.70766 3.07696 7.66915 2.7454L7.66467 2.66765C7.66467 2.29946 7.96314 2.00098 8.33133 2.00098Z" fill="#CC000F"/>
</svg>
