<svg width="24" height="24" viewBox="0 0 24 24" fill="none" xmlns="http://www.w3.org/2000/svg">
<path d="M12.0132 2.25C12.7471 2.25846 13.4782 2.34326 14.1947 2.50304C14.5074 2.57279 14.7413 2.83351 14.7768 3.15196L14.947 4.67881C15.024 5.37986 15.6159 5.91084 16.3216 5.91158C16.5113 5.91188 16.6989 5.87238 16.8742 5.79483L18.2748 5.17956C18.5661 5.05159 18.9064 5.12136 19.1239 5.35362C20.1361 6.43464 20.8899 7.73115 21.3287 9.14558C21.4233 9.45058 21.3144 9.78203 21.0573 9.9715L19.8159 10.8866C19.4617 11.1468 19.2526 11.56 19.2526 11.9995C19.2526 12.4389 19.4617 12.8521 19.8166 13.1129L21.0592 14.0283C21.3163 14.2177 21.4253 14.5492 21.3307 14.8543C20.8921 16.2685 20.1387 17.5649 19.1271 18.6461C18.9098 18.8783 18.5697 18.9483 18.2785 18.8206L16.8721 18.2045C16.4698 18.0284 16.0077 18.0542 15.6275 18.274C15.2473 18.4937 14.9942 18.8812 14.9459 19.3177L14.7769 20.8444C14.742 21.1592 14.5131 21.4182 14.205 21.4915C12.7566 21.8361 11.2475 21.8361 9.79901 21.4915C9.49088 21.4182 9.26202 21.1592 9.22716 20.8444L9.05834 19.32C9.00875 18.8843 8.75532 18.498 8.3754 18.279C7.99549 18.06 7.53418 18.0343 7.13318 18.2094L5.72655 18.8256C5.4352 18.9533 5.09501 18.8833 4.87776 18.6509C3.8656 17.5685 3.11217 16.2705 2.67418 14.8548C2.57984 14.5499 2.68884 14.2186 2.94582 14.0293L4.18915 13.1133C4.54329 12.8531 4.75245 12.4399 4.75245 12.0005C4.75245 11.561 4.54329 11.1478 4.18869 10.8873L2.94614 9.97285C2.68877 9.78345 2.57967 9.45178 2.67434 9.14658C3.1131 7.73215 3.86692 6.43564 4.8791 5.35462C5.09657 5.12236 5.43691 5.05259 5.72822 5.18056L7.1286 5.79572C7.53154 5.97256 7.99478 5.94585 8.37675 5.72269C8.75707 5.50209 9.01026 5.11422 9.05914 4.67764L9.22922 3.15196C9.26474 2.83335 9.49884 2.57254 9.81178 2.50294C10.5291 2.34342 11.2609 2.25865 12.0132 2.25ZM12.0007 8.99995C10.3438 8.99995 9.00067 10.3431 9.00067 12C9.00067 13.6568 10.3438 15 12.0007 15C13.6575 15 15.0007 13.6568 15.0007 12C15.0007 10.3431 13.6575 8.99995 12.0007 8.99995Z" fill="#BCBDC1"/>
</svg>
