<svg width="53" height="72" viewBox="0 0 53 72" fill="none" xmlns="http://www.w3.org/2000/svg">
<path d="M-16.5559 110.568C-21.1213 115.144 -28.5234 115.144 -33.0888 110.568L-70.288 73.284C-72.5707 70.9961 -72.5707 67.2866 -70.288 64.9987L-53.755 48.428C-51.4723 46.1401 -47.7713 46.1401 -45.4885 48.428L-31.0222 62.9274C-27.5981 66.3593 -22.0466 66.3593 -18.6225 62.9274L2.04369 42.214C5.46778 38.7821 5.46778 33.2179 2.04369 29.786L-18.6225 9.07263C-22.0466 5.64073 -27.5981 5.64073 -31.0222 9.07263L-45.4885 23.572C-47.7713 25.8599 -51.4723 25.8599 -53.755 23.572L-70.288 7.00129C-72.5707 4.71336 -72.5707 1.00389 -70.288 -1.28405L-33.0888 -38.5681C-28.5234 -43.144 -21.1213 -43.144 -16.5559 -38.5681L49.5759 27.7147C54.1414 32.2905 54.1414 39.7095 49.5759 44.2854L-16.5559 110.568Z" fill="#D10011"/>
</svg>
