<svg width="16" height="16" viewBox="0 0 16 16" fill="none" xmlns="http://www.w3.org/2000/svg">
<path fill-rule="evenodd" clip-rule="evenodd" d="M7.27273 13.0394C7.51026 13.0733 7.75308 13.0909 8 13.0909C8.24692 13.0909 8.48974 13.0733 8.72727 13.0394L8.72727 15.9674C8.48774 15.989 8.24516 16 8 16C7.75484 16 7.51226 15.989 7.27273 15.9674L7.27273 13.0394ZM11.6365 7.99989C11.6365 5.99158 10.0084 4.36353 8.00013 4.36353C5.99182 4.36353 4.36377 5.99158 4.36377 7.99989C4.36377 10.0082 5.99182 11.6363 8.00013 11.6363C10.0084 11.6363 11.6365 10.0082 11.6365 7.99989ZM5.81831 7.99989C5.81831 6.7949 6.79515 5.81807 8.00013 5.81807C9.20512 5.81807 10.182 6.7949 10.182 7.99989C10.182 9.20487 9.20512 10.1817 8.00013 10.1817C6.79515 10.1817 5.81831 9.20487 5.81831 7.99989ZM7.27273 0.0325497L7.27273 2.96058C7.51026 2.92661 7.75307 2.90903 8 2.90903C8.24692 2.90903 8.48974 2.92661 8.72727 2.96058L8.72727 0.0325495C8.48774 0.0109641 8.24515 -6.41719e-05 8 -6.41505e-05C7.75484 -6.4129e-05 7.51226 0.0109642 7.27273 0.0325497ZM2.96058 8.72727L0.0325483 8.72727C0.0109628 8.48774 -6.55278e-05 8.24516 -6.55492e-05 8C-6.55707e-05 7.75485 0.0109627 7.51226 0.0325481 7.27273L2.96058 7.27273C2.92661 7.51026 2.90903 7.75308 2.90903 8C2.90903 8.24693 2.92661 8.48974 2.96058 8.72727ZM13.0909 8C13.0909 8.24692 13.0733 8.48974 13.0394 8.72727L15.9674 8.72727C15.989 8.48774 16 8.24516 16 8C16 7.75484 15.989 7.51226 15.9674 7.27273L13.0394 7.27273C13.0733 7.51026 13.0909 7.75308 13.0909 8ZM4.95099 12.0774L2.88053 14.1479C2.50741 13.8369 2.16305 13.4925 1.85201 13.1194L3.92248 11.0489C4.21448 11.4388 4.56111 11.7854 4.95099 12.0774ZM14.1477 13.1194L12.0773 11.0489C11.7853 11.4388 11.4386 11.7854 11.0487 12.0774L13.1192 14.1479C13.4923 13.8369 13.8367 13.4925 14.1477 13.1194ZM3.92247 4.95117L1.85201 2.88071C2.16305 2.50759 2.50741 2.16323 2.88053 1.85219L4.95099 3.92265C4.5611 4.21466 4.21448 4.56128 3.92247 4.95117ZM13.1192 1.85219L11.0487 3.92265C11.4386 4.21466 11.7853 4.56128 12.0773 4.95117L14.1477 2.88071C13.8367 2.50759 13.4923 2.16323 13.1192 1.85219Z" fill="#BABBBF"/>
</svg>
