<svg width="24" height="24" viewBox="0 0 24 24" fill="none" xmlns="http://www.w3.org/2000/svg">
<path fill-rule="evenodd" clip-rule="evenodd" d="M13.0914 4.44092C12.7351 4.38995 12.3709 4.36358 12.0005 4.36358C11.6301 4.36358 11.2659 4.38995 10.9096 4.44092V0.048919C11.2689 0.0165408 11.6328 0 12.0005 0C12.3682 0 12.7321 0.0165408 13.0914 0.048919V4.44092ZM11.9994 17.4544C8.98697 17.4544 6.54492 15.0124 6.54492 11.9999C6.54492 8.98751 8.98697 6.54545 11.9994 6.54545C15.0118 6.54545 17.4539 8.98751 17.4539 11.9999C17.4539 15.0124 15.0118 17.4544 11.9994 17.4544ZM13.0914 23.9511L13.0914 19.5591C12.7351 19.6101 12.3709 19.6365 12.0005 19.6365C11.6301 19.6365 11.2659 19.6101 10.9096 19.5591L10.9096 23.9511C11.2689 23.9835 11.6328 24 12.0005 24C12.3682 24 12.7321 23.9835 13.0914 23.9511ZM19.5591 10.9096L23.9511 10.9096C23.9835 11.2689 24 11.6328 24 12.0005C24 12.3682 23.9835 12.7321 23.9511 13.0914L19.5591 13.0914C19.6101 12.7351 19.6365 12.3709 19.6365 12.0005C19.6365 11.6301 19.6101 11.2659 19.5591 10.9096ZM4.36358 12.0005C4.36358 11.6301 4.38995 11.2659 4.44092 10.9096H0.048919C0.0165408 11.2689 0 11.6328 0 12.0005C0 12.3682 0.0165408 12.7321 0.048919 13.0914H4.44092C4.38995 12.7351 4.36358 12.3709 4.36358 12.0005ZM16.573 5.88353L19.6786 2.77788C20.2383 3.24442 20.7548 3.76096 21.2214 4.32064L18.1157 7.42629C17.6777 6.84146 17.1578 6.32154 16.573 5.88353ZM2.77788 4.32064L5.88353 7.42629C6.32154 6.84146 6.84146 6.32154 7.42629 5.88353L4.32064 2.77788C3.76096 3.24442 3.24442 3.76096 2.77788 4.32064ZM18.1157 16.573L21.2214 19.6786C20.7548 20.2383 20.2383 20.7548 19.6786 21.2214L16.573 18.1157C17.1578 17.6777 17.6777 17.1578 18.1157 16.573ZM4.32064 21.2214L7.42629 18.1157C6.84146 17.6777 6.32154 17.1578 5.88353 16.573L2.77788 19.6786C3.24442 20.2383 3.76096 20.7548 4.32064 21.2214Z" fill="#BCBDC1"/>
</svg>
