<svg width="24" height="24" viewBox="0 0 24 24" fill="none" xmlns="http://www.w3.org/2000/svg">
<path d="M3.5 13L13.5 13.001C14.2793 13.001 14.9204 13.5963 14.9931 14.3566L15 14.501V16.5C14.999 20 11.284 21 8.5 21C5.77787 21 2.1647 20.044 2.00545 16.7296L2 16.5V14.5C2 13.7207 2.59527 13.0796 3.35561 13.0069L3.5 13ZM15.488 13H20.5C21.2793 13 21.9204 13.5944 21.9931 14.3555L22 14.5V16C21.999 19.062 19.142 20 17 20C16.32 20 15.569 19.904 14.86 19.678C15.5128 18.9277 15.9362 17.9748 15.9934 16.78L16 16.5V14.5C16 14.0056 15.8507 13.5488 15.601 13.1616L15.488 13H20.5H15.488ZM8.5 2C10.985 2 13 4.015 13 6.5C13 8.985 10.985 11 8.5 11C6.015 11 4 8.985 4 6.5C4 4.015 6.015 2 8.5 2ZM17.5 4C19.433 4 21 5.567 21 7.5C21 9.433 19.433 11 17.5 11C15.567 11 14 9.433 14 7.5C14 5.567 15.567 4 17.5 4Z" fill="#BCBDC1"/>
</svg>
