<svg width="24" height="24" viewBox="0 0 24 24" fill="none" xmlns="http://www.w3.org/2000/svg">
<path d="M2 14.992C2 16.0156 2.19346 16.9478 2.58038 17.7886C2.9673 18.6233 3.4924 19.2874 4.15569 19.7809C4.82512 20.2745 5.5836 20.5212 6.43114 20.5212H7.99724C7.15584 19.8327 6.52633 19.0072 6.10871 18.0445C5.69108 17.0818 5.48841 16.0308 5.50069 14.8915C5.50683 14.1177 5.5836 13.4049 5.731 12.7529C5.88454 12.101 6.09028 11.5039 6.34823 10.9617C6.61231 10.4133 6.91325 9.90457 7.25104 9.43543H6.06264C5.29495 9.43543 4.60402 9.67914 3.98987 10.1666C3.37571 10.654 2.89053 11.3181 2.53432 12.1589C2.17811 12.9997 2 13.9441 2 14.992ZM6.97467 14.9098C6.96852 15.8481 7.14356 16.7163 7.49977 17.5144C7.86212 18.3065 8.37801 18.995 9.04744 19.5799C9.71687 20.1709 10.5214 20.6278 11.4611 20.9508C12.4069 21.2798 13.4571 21.4473 14.6117 21.4534H15.9475C16.5616 21.4595 17.1082 21.4412 17.5873 21.3986C18.0725 21.3559 18.4625 21.3011 18.7573 21.2341C19.2302 21.1183 19.6263 20.9081 19.9456 20.6035C20.265 20.3049 20.4247 19.915 20.4247 19.4337C20.4247 19.2631 20.4063 19.1077 20.3694 18.9676C20.3387 18.8335 20.2957 18.7117 20.2404 18.602C20.1852 18.5106 20.1975 18.4466 20.2773 18.4101C20.6089 18.2395 20.8761 18.0079 21.0788 17.7155C21.2814 17.423 21.3828 17.0879 21.3828 16.7102C21.3828 16.2776 21.2784 15.9059 21.0696 15.5952C20.9959 15.4916 21.0143 15.4094 21.1248 15.3485C21.3521 15.19 21.5332 14.9738 21.6684 14.6996C21.8096 14.4254 21.8802 14.1238 21.8802 13.7948C21.8802 13.5511 21.8434 13.3196 21.7697 13.1002C21.7021 12.8748 21.61 12.692 21.4933 12.5519C21.4135 12.4727 21.4196 12.3904 21.5117 12.3051C21.6714 12.1589 21.7912 11.97 21.871 11.7385C21.957 11.507 22 11.2541 22 10.9799C22 10.6266 21.914 10.3036 21.7421 10.0112C21.5762 9.71874 21.349 9.48722 21.0603 9.31662C20.7717 9.14602 20.4462 9.06073 20.0838 9.06073H16.6108C16.2239 9.06073 15.9168 8.97543 15.6895 8.80483C15.4623 8.62814 15.3487 8.39052 15.3487 8.09198C15.3487 7.78124 15.4316 7.40959 15.5974 6.977C15.7632 6.53832 15.9536 6.07222 16.1686 5.57871C16.3897 5.0791 16.5831 4.57645 16.749 4.07075C16.9209 3.56505 17.0069 3.08982 17.0069 2.64505C17.0069 2.14544 16.8564 1.74636 16.5555 1.44782C16.2607 1.14927 15.8861 1 15.4316 1C15.057 1 14.7499 1.11272 14.5104 1.33815C14.2708 1.56358 14.0344 1.89564 13.801 2.33432C13.0763 3.72956 12.2687 5.00904 11.3782 6.17276C10.4876 7.33647 9.66774 8.4088 8.91847 9.38973C8.47014 9.97464 8.10164 10.5474 7.81299 11.1079C7.53048 11.6623 7.32166 12.2472 7.18655 12.8626C7.05144 13.4719 6.98081 14.1543 6.97467 14.9098Z" fill="#BCBDC1"/>
</svg>
