<svg width="16" height="16" viewBox="0 0 16 16" fill="none" xmlns="http://www.w3.org/2000/svg">
<path d="M8 1C11.866 1 15 4.13401 15 8C15 11.866 11.866 15 8 15C4.13401 15 1 11.866 1 8C1 4.13401 4.13401 1 8 1ZM10.2538 5.87877L7.125 9.00754L5.74623 7.62877C5.54121 7.42374 5.20879 7.42374 5.00377 7.62877C4.79874 7.83379 4.79874 8.16621 5.00377 8.37123L6.75377 10.1212C6.95879 10.3263 7.29121 10.3263 7.49623 10.1212L10.9962 6.62123C11.2013 6.41621 11.2013 6.08379 10.9962 5.87877C10.7912 5.67374 10.4588 5.67374 10.2538 5.87877Z" fill="#2DDC88"/>
</svg>
