<svg width="24" height="24" viewBox="0 0 24 24" fill="none" xmlns="http://www.w3.org/2000/svg">
<path fill-rule="evenodd" clip-rule="evenodd" d="M3.5 5.09534C3.5 3.99077 4.39543 3.09534 5.5 3.09534H12.0238C13.1283 3.09534 14.0238 3.99077 14.0238 5.09534L14.0238 18.9048C14.0238 20.0093 13.1283 20.9048 12.0238 20.9048H10.3571C9.25255 20.9048 8.35712 20.0093 8.35712 18.9048L8.35712 8.76198H5.5C4.39543 8.76198 3.5 7.86654 3.5 6.76198V5.09534ZM17.6666 8.76197C19.2314 8.76197 20.4999 7.49345 20.4999 5.92866C20.4999 4.36386 19.2314 3.09534 17.6666 3.09534C16.1018 3.09534 14.8333 4.36386 14.8333 5.92866C14.8333 7.49345 16.1018 8.76197 17.6666 8.76197Z" fill="#0A2EBF"/>
</svg>
