<svg width="16" height="16" viewBox="0 0 16 16" fill="none" xmlns="http://www.w3.org/2000/svg">
<path d="M8.33121 2.00098L13.3684 2.00195L13.449 2.01121L13.5074 2.02424L13.5767 2.04723L13.6361 2.07412L13.6786 2.09786L13.7204 2.12554L13.763 2.15881L13.8051 2.19769L13.868 2.27078L13.9158 2.34495L13.9514 2.4201L13.975 2.49033L13.9855 2.53378L13.9916 2.56868L13.9989 2.66764V7.67024C13.9989 8.03843 13.7004 8.3369 13.3322 8.3369C12.9903 8.3369 12.7086 8.07954 12.67 7.74798L12.6656 7.67024L12.6654 4.27698L3.13745 13.8047C2.89712 14.0451 2.51897 14.0635 2.25744 13.8602L2.19464 13.8047C1.95432 13.5644 1.93585 13.1862 2.1392 12.9247L2.19466 12.8619L11.7221 3.33431H8.33121C7.98932 3.33431 7.70754 3.07695 7.66903 2.74539L7.66454 2.66764C7.66454 2.29945 7.96302 2.00098 8.33121 2.00098Z" fill="#BCBDC1"/>
</svg>
