<svg width="24" height="24" viewBox="0 0 24 24" fill="none" xmlns="http://www.w3.org/2000/svg">
<path d="M12.4968 3.00146L20.0525 3.00293L20.1734 3.01682L20.2611 3.03636L20.365 3.07084L20.4541 3.11117L20.5179 3.14679L20.5805 3.18832L20.6445 3.23821L20.7076 3.29654L20.802 3.40618L20.8736 3.51742L20.9271 3.63015L20.9624 3.73549L20.9781 3.80067L20.9873 3.85302L20.9983 4.00147V11.5054C20.9983 12.0576 20.5506 12.5054 19.9983 12.5054C19.4854 12.5054 19.0628 12.1193 19.005 11.622L18.9983 11.5054L18.998 6.41547L4.70611 20.7071C4.34562 21.0676 3.77839 21.0953 3.38611 20.7903L3.2919 20.7071C2.93142 20.3466 2.90371 19.7794 3.20874 19.3871L3.29193 19.2929L17.583 5.00147H12.4968C11.9839 5.00147 11.5612 4.61542 11.5035 4.11809L11.4968 4.00147C11.4968 3.44918 11.9445 3.00146 12.4968 3.00146Z" fill="white"/>
</svg>
