<svg width="24" height="24" viewBox="0 0 24 24" fill="none" xmlns="http://www.w3.org/2000/svg">
<path d="M6.90735 7.6796L9.64108 4.95091C12.2423 2.3497 16.4597 2.3497 19.0609 4.95091C21.6621 7.55213 21.6621 11.7695 19.0609 14.3708L10.7225 22.7078C10.3319 23.0982 9.69877 23.098 9.30825 22.7075C8.91772 22.317 8.91789 21.6838 9.30848 21.2933L17.6467 12.9565C19.4669 11.1364 19.4669 8.1853 17.6467 6.36513C15.8834 4.60184 13.0588 4.54674 11.2286 6.20041L11.0546 6.36578L7.414 9.999L12 9.99954C12.5128 9.99954 12.9355 10.3856 12.9933 10.8829L13 10.9995C13 11.5124 12.614 11.935 12.1166 11.9928L12 11.9995L4.94043 11.9978L4.84501 11.9876L4.73315 11.9635L4.60163 11.9171L4.51971 11.8769L4.41781 11.8127C4.37406 11.7814 4.33212 11.7459 4.29267 11.7064L4.20096 11.601L4.12658 11.487L4.08093 11.3943L4.0425 11.2886L4.027 11.2313L4.01127 11.1497L4.00394 11.0885L4 10.9995V4.00235C4 3.45007 4.44772 3.00235 5 3.00235C5.51284 3.00235 5.93551 3.38839 5.99327 3.88573L6 4.00235V8.586L9.64108 4.95091L6.90735 7.6796Z" fill="white"/>
</svg>
