<svg width="24" height="24" viewBox="0 0 24 24" fill="none" xmlns="http://www.w3.org/2000/svg">
<path fill-rule="evenodd" clip-rule="evenodd" d="M7.36394 10.0503C6.97341 9.65975 6.34025 9.65975 5.94972 10.0503L4.53551 11.4645L4.38541 11.6211C2.58424 13.5829 2.63427 16.6343 4.53551 18.5356C6.48813 20.4882 9.65396 20.4882 11.6066 18.5356L13.0208 17.1213L13.0985 17.0341C13.4093 16.6416 13.3834 16.0698 13.0208 15.7071C12.6303 15.3166 11.9971 15.3166 11.6066 15.7071L10.1924 17.1213L10.0641 17.2424C8.88604 18.2914 7.07946 18.2511 5.94972 17.1213C4.77815 15.9498 4.77815 14.0503 5.94972 12.8787L7.36394 11.4645L7.44164 11.3773C7.75247 10.9847 7.72657 10.4129 7.36394 10.0503ZM18.6776 4.39342C16.725 2.4408 13.5592 2.4408 11.6066 4.39342L10.1924 5.80763L10.1147 5.89486C9.80383 6.28737 9.82974 6.85922 10.1924 7.22185C10.5829 7.61237 11.2161 7.61237 11.6066 7.22185L13.0208 5.80763L13.149 5.68659C14.3271 4.63756 16.1337 4.6779 17.2634 5.80763C18.435 6.97921 18.435 8.8787 17.2634 10.0503L15.8492 11.4645L15.7715 11.5517C15.4607 11.9442 15.4866 12.5161 15.8492 12.8787C16.2397 13.2692 16.8729 13.2692 17.2634 12.8787L18.6776 11.4645L18.8277 11.3079C20.6289 9.34608 20.5789 6.29466 18.6776 4.39342ZM5.70719 5.70707C5.31667 6.0976 5.31667 6.73076 5.70719 7.12129L15.6067 17.0208C15.9972 17.4113 16.6304 17.4113 17.0209 17.0208C17.4114 16.6303 17.4114 15.9971 17.0209 15.6066L7.1214 5.70707C6.73088 5.31655 6.09771 5.31655 5.70719 5.70707Z" fill="#BCBDC1"/>
</svg>
