<svg width="24" height="24" viewBox="0 0 24 24" fill="none" xmlns="http://www.w3.org/2000/svg">
<path d="M2.99927 17.2542L3.00096 6.74786C3.00186 4.744 4.574 3.1075 6.5523 3.00345L6.75144 2.9982L11.244 2.9982C11.6582 2.9982 11.994 3.33399 11.994 3.7482C11.994 4.1279 11.7118 4.44169 11.3458 4.49135L11.244 4.4982L6.75166 4.4982C5.56076 4.49855 4.58588 5.42368 4.50621 6.5943L4.50096 6.74832L4.49927 17.2549C4.49836 18.4326 5.40327 19.3992 6.55614 19.4967L6.71482 19.5045L17.251 19.5019C18.4419 19.5014 19.4166 18.5761 19.4961 17.4054L19.5014 17.2514L19.5014 12.7551C19.5014 12.3409 19.8371 12.0051 20.2514 12.0051C20.6311 12.0051 20.9449 12.2872 20.9945 12.6533L21.0014 12.7551L21.0014 17.2517C21.0007 19.2555 19.4289 20.8922 17.4506 20.9967L17.2515 21.0019L6.7519 21.0038L6.54848 20.9996C4.63573 20.8992 3.10298 19.3656 3.00432 17.4533L2.99927 17.2542ZM9.00104 14.0606L9.00047 8.00505C9.00047 7.45277 9.44819 7.00505 10.0005 7.00505C10.5133 7.00505 10.936 7.39109 10.9937 7.88843L11.0005 8.00505L11.0003 11.5848L17.542 5.04094C17.9024 4.68038 18.4697 4.65253 18.862 4.95747L18.9562 5.04064C19.3168 5.40105 19.3447 5.96827 19.0397 6.36063L18.9565 6.45485L12.4113 13.0028L16.0017 13.0026C16.5145 13.0026 16.9372 13.3886 16.9949 13.886L17.0017 14.0026C17.0017 14.5154 16.6156 14.9381 16.1183 14.9958L16.0017 15.0026L10.0005 15.0026L9.91651 14.9991L9.81091 14.9836L9.76521 14.9746L9.69952 14.9556L9.6005 14.9193L9.47876 14.8555C9.41072 14.814 9.34831 14.7647 9.29257 14.7089L9.19775 14.5995L9.11974 14.4778L9.07179 14.3759L9.04091 14.2873L9.01467 14.176L9.00104 14.0606Z" fill="#BCBDC1"/>
</svg>
