<svg width="113" height="28" viewBox="0 0 113 28" fill="none" xmlns="http://www.w3.org/2000/svg">
<path fill-rule="evenodd" clip-rule="evenodd" d="M59.6534 2.67445H60.6868C60.6099 1.37676 59.7217 0.777832 58.4833 0.777832C57.3816 0.777832 56.2884 1.34349 56.3054 2.48312C56.3225 3.64771 57.3559 3.99708 58.3637 4.26327C58.4234 4.27923 58.4824 4.2947 58.5407 4.30995L58.5408 4.30996L58.5411 4.31005L58.5412 4.31008C59.242 4.49354 59.8242 4.64594 59.8242 5.24486C59.8242 5.86042 59.2263 6.15989 58.5431 6.15989C57.7488 6.15989 57.168 5.72733 57.1424 4.92875H56.0834C56.1517 6.34289 57.1937 7.00005 58.5431 7.00005C59.6619 7.00005 60.8491 6.45103 60.8491 5.23654C60.8491 4.00611 59.8114 3.73198 58.8086 3.46707L58.7054 3.43975C57.9111 3.23178 57.3389 3.00718 57.3389 2.4748C57.3389 1.86755 57.8684 1.618 58.4662 1.618C59.2007 1.618 59.5765 1.96737 59.6534 2.67445ZM48.4493 5.03689H49.4742C49.1924 6.14325 48.1846 6.96678 46.6558 6.96678C44.7512 6.96678 43.5555 5.65246 43.5555 3.88894C43.5555 2.14206 44.7598 0.811106 46.6643 0.811106C48.2017 0.811106 49.0984 1.58472 49.4742 2.74099H48.4493C48.1248 2.0256 47.5953 1.65959 46.6643 1.65959C45.3662 1.65959 44.589 2.64949 44.589 3.88894C44.589 5.1284 45.3662 6.1183 46.6643 6.1183C47.6636 6.1183 48.2017 5.68573 48.4493 5.03689ZM55.7421 6.85864H54.6574L54.051 5.24486H51.4974L50.891 6.85864H49.8149L52.1379 0.919246H53.4276L55.7421 6.85864ZM52.787 1.80932H52.7614L51.7963 4.43796H53.7521L52.787 1.80932ZM61.8034 0.919246H63.9813C65.3051 0.919246 66.1421 1.70118 66.1421 2.74931C66.1421 3.8224 65.2368 4.62929 63.9813 4.62929H62.8369V6.85864H61.8034V0.919246ZM62.8369 3.78912H63.8959C64.6646 3.78912 65.1087 3.42311 65.1087 2.75763C65.1087 2.09215 64.6646 1.75941 63.8959 1.75941H62.8369V3.78912ZM67.8995 6.01016V4.27159H70.6155V3.43143H67.8995V1.76773H70.7948V0.919246H66.8661V6.85864H70.8205V6.01016H67.8995ZM72.8788 6.85864H71.8454V0.919246H74.1685C75.5606 0.919246 76.3207 1.63464 76.3207 2.6079C76.3207 3.3732 75.8168 3.99708 75.0994 4.17177C75.6204 4.33814 75.8168 4.77902 76.0303 5.46945C76.0525 5.53632 76.0734 5.60051 76.0935 5.66242C76.2362 6.10118 76.3417 6.42554 76.6111 6.77546V6.85864H75.5008C75.3009 6.60493 75.1998 6.25914 75.097 5.90736C75.0548 5.7632 75.0124 5.61802 74.9627 5.47777C74.7663 4.92875 74.5272 4.52947 73.7841 4.52947H72.8788V6.85864ZM72.8788 1.74278V3.69762H74.1172C74.8859 3.69762 75.2958 3.29833 75.2958 2.68276C75.2958 2.1587 74.9542 1.74278 74.0831 1.74278H72.8788ZM79.0311 8.9445V26.8708H81.9643V8.9445H79.0311ZM75.7475 18.8868V23.8831C75.7475 24.8622 75.7981 26.1929 76.0004 26.8708H73.0165C72.9153 26.3435 72.8901 25.741 72.8901 25.1384V24.7618H72.8648C72.4096 25.9418 71.2211 27.1972 68.7177 27.1972C65.7844 27.1972 64.1155 25.3895 64.1155 23.3307C64.1155 19.9858 67.6263 19.5326 69.7226 19.2619C69.9865 19.2279 70.228 19.1967 70.4372 19.163C72.1567 18.8868 72.8648 18.6357 72.8648 17.5561C72.8648 16.4766 71.9292 15.7736 70.3361 15.7736C68.92 15.7736 67.9085 16.5519 67.8327 17.8574H64.9752C65.1017 15.7233 66.7959 13.5139 70.2855 13.5139C74.6349 13.5139 75.7475 16.0999 75.7475 18.8868ZM69.451 25.0631C71.2464 25.0631 72.9406 23.7826 72.9406 20.8954V19.5396C72.6372 20.3179 71.9039 20.9205 69.7545 21.2971C67.9591 21.6235 67.0235 22.1256 67.0235 23.2805C67.0235 24.3099 67.9338 25.0631 69.451 25.0631ZM50.7118 26.8708H47.298L43.5555 13.8905H46.5647L48.2842 20.6945C48.468 21.4245 48.5962 22.0625 48.7305 22.731C48.8179 23.1661 48.9079 23.6141 49.0175 24.109H49.0428C49.1915 23.5185 49.3038 22.9762 49.4183 22.4231L49.4183 22.4231C49.5375 21.8474 49.6591 21.2599 49.8267 20.5941L51.521 13.8905H54.9853L56.6795 20.6192C56.8317 21.2238 56.9764 21.881 57.1218 22.5415L57.1218 22.5415L57.1218 22.5415L57.1218 22.5416L57.1218 22.5416L57.1218 22.5417L57.1218 22.5417C57.2421 23.088 57.3628 23.6365 57.4887 24.1592H57.514C57.6352 23.6416 57.7565 23.0777 57.8805 22.5009C58.0152 21.8748 58.1531 21.2334 58.2979 20.6192L59.9415 13.8905H62.9507L59.1829 26.8708H55.7692L53.9991 20.0919C53.7209 19.0123 53.4428 17.8574 53.2658 16.9034H53.1899C52.9623 17.983 52.76 18.937 52.4819 20.0668L50.7118 26.8708ZM85.4575 26.8708V8.9445H88.3908V26.8708H85.4575ZM103.971 20.6192C103.946 16.9536 102.125 13.5391 97.6747 13.5391C93.8564 13.5391 91.0748 16.4012 91.0748 20.343C91.0748 24.4354 93.7552 27.2223 97.6747 27.2223C100.76 27.2223 103.01 25.6657 103.794 23.0294H100.886C100.406 24.335 99.1666 24.8873 97.6747 24.8873C95.6264 24.8873 94.1092 23.5316 93.9069 21.1715H103.971V20.6192ZM93.9575 19.0626C94.2609 17.0791 95.6264 15.7987 97.6494 15.7987C99.6724 15.7987 100.861 17.0289 101.063 19.0626H93.9575ZM112.778 13.8905V16.1502H110.224V22.4018C110.224 23.7073 110.603 24.6363 111.716 24.6363H112.5V26.8708H111.109C108.251 26.8708 107.316 25.038 107.316 22.7533V16.1502H105.293V13.8905H107.316V10.9782L110.123 9.57217H110.224V13.8905H112.778Z" fill="white"/>
<g clip-path="url(#clip0_8126_20929)">
<path fill-rule="evenodd" clip-rule="evenodd" d="M3.11111 0.777832C1.39289 0.777832 0 2.17072 0 3.88894V24.1112C0 25.8294 1.39289 27.2223 3.11111 27.2223H32.6667C34.3849 27.2223 35.7778 25.8294 35.7778 24.1112V3.88894C35.7778 2.17072 34.3849 0.777832 32.6667 0.777832H3.11111ZM23.6296 4.33382C23.0364 3.74065 22.0747 3.74065 21.4815 4.33382L12.8893 12.926C12.2962 13.5192 12.2962 14.4809 12.8893 15.0741L21.4815 23.6663C22.0747 24.2595 23.0364 24.2595 23.6296 23.6663L28.4627 18.8332C28.7593 18.5366 28.7593 18.0557 28.4627 17.7591L26.3146 15.6111C26.0181 15.3145 25.5372 15.3145 25.2406 15.6111L23.3611 17.4906C22.9162 17.9355 22.1949 17.9355 21.75 17.4906L19.065 14.8056C18.6201 14.3607 18.6201 13.6394 19.065 13.1945L21.75 10.5095C22.1949 10.0646 22.9162 10.0646 23.3611 10.5095L25.2406 12.389C25.5372 12.6856 26.0181 12.6856 26.3146 12.389L28.4627 10.241C28.7593 9.94438 28.7593 9.46352 28.4627 9.16694L23.6296 4.33382Z" fill="white"/>
</g>
<defs>
<clipPath id="clip0_8126_20929">
<rect width="35.7778" height="28" fill="white"/>
</clipPath>
</defs>
</svg>
