<svg width="24" height="24" viewBox="0 0 24 24" fill="none" xmlns="http://www.w3.org/2000/svg">
<path d="M12.4287 7.2002C12.4288 8.52559 13.4844 9.59961 14.7861 9.59961H21.8574V21.5996C21.8574 22.9251 20.8018 24 19.5 24H5.35742C4.05561 24 3 22.9251 3 21.5996V2.40039C3 1.07491 4.05561 0 5.35742 0H12.4287V7.2002ZM6.375 14.25C5.75368 14.25 5.25 14.7537 5.25 15.375V20.625C5.25 21.2463 5.75368 21.75 6.375 21.75H10.875C11.4963 21.75 12 21.2463 12 20.625V15.375C12 14.7537 11.4963 14.25 10.875 14.25H6.375ZM14.625 14.25C14.0037 14.25 13.5 14.7537 13.5 15.375C13.5 15.9963 14.0037 16.5 14.625 16.5H15.75V19.5H14.625C14.0037 19.5 13.5 20.0037 13.5 20.625C13.5 21.2463 14.0037 21.75 14.625 21.75H19.125C19.7463 21.75 20.25 21.2463 20.25 20.625C20.25 20.0037 19.7463 19.5 19.125 19.5H18V15.375C18 14.7731 17.527 14.2821 16.9326 14.252L16.875 14.25H14.625ZM9.75 16.5V19.5H7.5V16.5H9.75ZM21.2676 7.7998H14.7861C14.4607 7.7998 14.1964 7.53148 14.1963 7.2002V0.599609L21.2676 7.7998Z" fill="#BCBDC1"/>
</svg>
