<svg width="120" height="120" viewBox="0 0 120 120" fill="none" xmlns="http://www.w3.org/2000/svg">
<path d="M0 8C0 3.58172 3.58172 0 8 0H68C72.4183 0 76 3.58172 76 8V96C76 100.418 72.4183 104 68 104H8C3.58172 104 0 100.418 0 96V8Z" fill="url(#paint0_linear_1761_5349)"/>
<path d="M38 58C50.7025 58 61 47.7025 61 35C61 22.2974 50.7025 12 38 12C25.2974 12 15 22.2974 15 35C15 47.7025 25.2974 58 38 58Z" fill="#F5F6F6"/>
<path opacity="0.82" fill-rule="evenodd" clip-rule="evenodd" d="M43.25 27C43.25 30.1066 40.7316 32.625 37.625 32.625C34.5184 32.625 32 30.1066 32 27C32 23.8934 34.5184 21.375 37.625 21.375C40.7316 21.375 43.25 23.8934 43.25 27ZM31.7816 47.625H44.2188C45.2217 47.6249 46.1835 47.2159 46.8925 46.488C47.6016 45.76 48 44.7728 48 43.7435V43.2725C48 38.7728 44.4461 35.125 40.0623 35.125H35.9377C31.5539 35.125 28 38.7728 28 43.2725V43.7435C28 44.7729 28.3984 45.7602 29.1076 46.4881C29.8168 47.2161 30.7787 47.625 31.7816 47.625Z" fill="url(#paint1_linear_1761_5349)"/>
<path opacity="0.66" d="M12 72C12 70.3431 13.3431 69 15 69H63C64.6569 69 66 70.3431 66 72C66 73.6569 64.6569 75 63 75H15C13.3431 75 12 73.6569 12 72Z" fill="white"/>
<path opacity="0.66" d="M12 85C12 83.3431 13.3431 82 15 82H42C43.6569 82 45 83.3431 45 85C45 86.6569 43.6569 88 42 88H15C13.3431 88 12 86.6569 12 85Z" fill="white"/>
<path opacity="0.16" d="M104.999 83.9997C104.999 98.357 93.3611 109.999 79.0075 109.999C78.8805 110.002 78.7535 109.997 78.627 109.986C75.492 109.954 72.3895 109.347 69.4741 108.193C67.0394 107.241 64.7671 105.916 62.7381 104.267C58.7091 101.049 55.7303 96.7027 54.1819 91.7834C53.4002 89.2628 53.0018 86.6388 53 83.9997C53 69.6414 64.6384 58 79.0065 58C81.645 58.0018 84.2682 58.4003 86.7883 59.1822C92.0122 60.812 96.5863 64.054 99.8553 68.4436C103.124 72.8331 104.92 78.145 104.986 83.6182C104.997 83.745 105.002 83.8723 104.999 83.9997Z" fill="url(#paint2_linear_1761_5349)"/>
<path d="M109.999 89.9997C109.999 104.357 98.3611 115.999 84.0075 115.999C83.8805 116.002 83.7535 115.997 83.627 115.986C80.492 115.954 77.3895 115.347 74.4741 114.193C72.0394 113.241 69.7671 111.916 67.7381 110.267C63.7091 107.049 60.7303 102.703 59.1819 97.7834C58.4002 95.2628 58.0018 92.6388 58 89.9997C58 75.6414 69.6384 64 84.0065 64C86.645 64.0018 89.2682 64.4003 91.7883 65.1822C97.0122 66.812 101.586 70.054 104.855 74.4436C108.124 78.8331 109.92 84.145 109.986 89.6182C109.997 89.745 110.002 89.8723 109.999 89.9997Z" fill="url(#paint3_linear_1761_5349)"/>
<mask id="mask0_1761_5349" style="mask-type:alpha" maskUnits="userSpaceOnUse" x="58" y="64" width="52" height="52">
<path d="M109.999 89.9997C109.999 104.357 98.3611 115.999 84.0075 115.999C83.8805 116.002 83.7535 115.997 83.627 115.986C80.492 115.954 77.3895 115.347 74.4741 114.193C72.0394 113.241 69.7671 111.916 67.7381 110.267C63.7091 107.049 60.7303 102.703 59.1819 97.7834C58.4002 95.2628 58.0018 92.6388 58 89.9997C58 75.6414 69.6384 64 84.0065 64C86.645 64.0018 89.2682 64.4003 91.7883 65.1822C97.0122 66.812 101.586 70.054 104.855 74.4436C108.124 78.8331 109.92 84.145 109.986 89.6182C109.997 89.745 110.002 89.8723 109.999 89.9997Z" fill="url(#paint4_linear_1761_5349)"/>
</mask>
<g mask="url(#mask0_1761_5349)">
<g style="mix-blend-mode:soft-light" opacity="0.4">
<path d="M105 63.2981L63.3431 101C61.1369 97.7162 59.6568 94.0067 59 90.1154L94.4631 58H94.4817C98.3239 59.0147 101.908 60.8199 105 63.2981Z" fill="url(#paint5_linear_1761_5349)"/>
</g>
<g style="mix-blend-mode:soft-light" opacity="0.4">
<path d="M117 77.2981L75.3431 115C73.1369 111.716 69.6568 108.891 69 105L106.463 72H106.482C110.324 73.0147 113.908 74.8199 117 77.2981Z" fill="url(#paint6_linear_1761_5349)"/>
</g>
</g>
<path d="M89.7239 84.4055L81.7778 92.6572L78.2761 89.0209C77.7554 88.4802 76.9112 88.4802 76.3905 89.0209C75.8698 89.5617 75.8698 90.4383 76.3905 90.9791L80.835 95.5945C81.3557 96.1352 82.1999 96.1352 82.7206 95.5945L91.6095 86.3637C92.1302 85.823 92.1302 84.9463 91.6095 84.4055C91.0888 83.8648 90.2446 83.8648 89.7239 84.4055Z" fill="white" stroke="white"/>
<defs>
<linearGradient id="paint0_linear_1761_5349" x1="38.0004" y1="98.5824" x2="38.0004" y2="1.75123" gradientUnits="userSpaceOnUse">
<stop stop-color="#DEE0E2"/>
<stop offset="1" stop-color="#EFEFEF"/>
</linearGradient>
<linearGradient id="paint1_linear_1761_5349" x1="38" y1="16.2838" x2="38" y2="46.6343" gradientUnits="userSpaceOnUse">
<stop stop-color="#DEE0E2"/>
<stop offset="1" stop-color="#B4B9BE"/>
</linearGradient>
<linearGradient id="paint2_linear_1761_5349" x1="78.9962" y1="57.3268" x2="78.9993" y2="110" gradientUnits="userSpaceOnUse">
<stop offset="0.00702659" stop-color="#21FF94"/>
<stop offset="1" stop-color="#2EDD89"/>
</linearGradient>
<linearGradient id="paint3_linear_1761_5349" x1="83.9962" y1="63.3268" x2="83.9993" y2="116" gradientUnits="userSpaceOnUse">
<stop stop-color="#39F89C"/>
<stop offset="1" stop-color="#2EDD89"/>
</linearGradient>
<linearGradient id="paint4_linear_1761_5349" x1="74.5" y1="114" x2="96" y2="66.5" gradientUnits="userSpaceOnUse">
<stop stop-color="#E02D3A"/>
<stop offset="1" stop-color="#FF4D59"/>
</linearGradient>
<linearGradient id="paint5_linear_1761_5349" x1="107.549" y1="51.0734" x2="65.2113" y2="94.2997" gradientUnits="userSpaceOnUse">
<stop stop-color="#FEFEFC"/>
<stop offset="1" stop-color="white" stop-opacity="0"/>
</linearGradient>
<linearGradient id="paint6_linear_1761_5349" x1="119.549" y1="65.0734" x2="77.2113" y2="108.3" gradientUnits="userSpaceOnUse">
<stop stop-color="#FEFEFC"/>
<stop offset="1" stop-color="white" stop-opacity="0.1"/>
</linearGradient>
</defs>
</svg>
