<svg width="76" height="24" viewBox="0 0 76 24" fill="none" xmlns="http://www.w3.org/2000/svg">
<path d="M38 2C40.2091 2 42 3.79086 42 6V8H44.5C45.3284 8 46 8.67157 46 9.5V20.5C46 21.3284 45.3284 22 44.5 22H31.5C30.6716 22 30 21.3284 30 20.5V9.5C30 8.67157 30.6716 8 31.5 8H34V6C34 3.79086 35.7909 2 38 2ZM38.0001 13.5C37.1717 13.5 36.5001 14.1716 36.5001 15C36.5001 15.8284 37.1717 16.5 38.0001 16.5C38.8286 16.5 39.5001 15.8284 39.5001 15C39.5001 14.1716 38.8286 13.5 38.0001 13.5ZM38 4C36.8954 4 36 4.89543 36 6V8H40V6C40 4.89543 39.1046 4 38 4Z" fill="#BCBDC1"/>
<circle cx="15" cy="12" r="3" fill="#BCBDC1"/>
<circle cx="61" cy="12" r="3" fill="#BCBDC1"/>
<circle cx="2" cy="12" r="2" fill="#BCBDC1"/>
<circle cx="74" cy="12" r="2" fill="#BCBDC1"/>
</svg>
