<svg width="120" height="120" viewBox="0 0 120 120" fill="none" xmlns="http://www.w3.org/2000/svg">
<path d="M0 8C0 3.58172 3.58172 0 8 0H68C72.4183 0 76 3.58172 76 8V96C76 100.418 72.4183 104 68 104H8C3.58172 104 0 100.418 0 96V8Z" fill="url(#paint0_linear_1760_10033)"/>
<path d="M38 58C50.7025 58 61 47.7025 61 35C61 22.2974 50.7025 12 38 12C25.2974 12 15 22.2974 15 35C15 47.7025 25.2974 58 38 58Z" fill="#F5F6F6"/>
<path opacity="0.82" fill-rule="evenodd" clip-rule="evenodd" d="M43.25 27C43.25 30.1066 40.7316 32.625 37.625 32.625C34.5184 32.625 32 30.1066 32 27C32 23.8934 34.5184 21.375 37.625 21.375C40.7316 21.375 43.25 23.8934 43.25 27ZM31.7816 47.625H44.2188C45.2217 47.6249 46.1835 47.2159 46.8925 46.488C47.6016 45.76 48 44.7728 48 43.7435V43.2725C48 38.7728 44.4461 35.125 40.0623 35.125H35.9377C31.5539 35.125 28 38.7728 28 43.2725V43.7435C28 44.7729 28.3984 45.7602 29.1076 46.4881C29.8168 47.2161 30.7787 47.625 31.7816 47.625Z" fill="url(#paint1_linear_1760_10033)"/>
<path opacity="0.66" d="M12 72C12 70.3431 13.3431 69 15 69H63C64.6569 69 66 70.3431 66 72C66 73.6569 64.6569 75 63 75H15C13.3431 75 12 73.6569 12 72Z" fill="white"/>
<path opacity="0.66" d="M12 85C12 83.3431 13.3431 82 15 82H42C43.6569 82 45 83.3431 45 85C45 86.6569 43.6569 88 42 88H15C13.3431 88 12 86.6569 12 85Z" fill="white"/>
<path opacity="0.16" d="M104.985 72.1754C104.659 75.473 103.83 81.3778 101.744 87.8446C100.968 90.2645 100.042 92.6353 98.9709 94.9437C95.4848 102.408 90.0488 109.647 81.5843 113.717C81.4078 113.807 81.2327 113.891 81.05 113.975C81.0331 113.984 81.0154 113.993 80.9971 114C80.9802 113.99 80.9625 113.982 80.9441 113.975C79.7804 113.442 78.6509 112.839 77.5619 112.17C76.7952 111.7 76.0563 111.202 75.3453 110.678C73.9474 109.647 72.6325 108.511 71.4124 107.281C70.7856 106.65 70.1852 105.999 69.6113 105.33C68.1333 103.601 66.8005 101.756 65.6262 99.8145C63.5623 96.4261 61.9812 92.8458 60.768 89.3778C59.0028 84.3225 58.0178 79.5084 57.4753 75.8774C57.2615 74.4384 57.1155 73.186 57.0164 72.1774C56.9395 71.4066 57.1351 70.6332 57.5702 69.9879C58.0053 69.3426 58.6533 68.8648 59.4048 68.6353L63.8427 67.2685L78.68 62.7004L80.9435 62.006L80.9693 62L102.587 68.6359C103.339 68.8647 103.988 69.3416 104.425 69.9863C104.862 70.631 105.059 71.4041 104.985 72.1754Z" fill="url(#paint2_linear_1760_10033)"/>
<path d="M112.985 77.1754C112.659 80.473 111.83 86.3778 109.744 92.8446C108.968 95.2645 108.042 97.6353 106.971 99.9437C103.485 107.408 98.0488 114.647 89.5843 118.717C89.4078 118.807 89.2327 118.891 89.05 118.975C89.0331 118.984 89.0154 118.993 88.9971 119C88.9802 118.99 88.9625 118.982 88.9441 118.975C87.7804 118.442 86.6509 117.839 85.5619 117.17C84.7952 116.7 84.0563 116.202 83.3453 115.678C81.9474 114.647 80.6325 113.511 79.4124 112.281C78.7856 111.65 78.1852 110.999 77.6113 110.33C76.1333 108.601 74.8005 106.756 73.6262 104.815C71.5623 101.426 69.9812 97.8458 68.768 94.3778C67.0028 89.3225 66.0178 84.5084 65.4753 80.8774C65.2615 79.4384 65.1155 78.186 65.0164 77.1774C64.9395 76.4066 65.1351 75.6332 65.5702 74.9879C66.0053 74.3426 66.6533 73.8648 67.4048 73.6353L71.8427 72.2685L86.68 67.7004L88.9435 67.006L88.9693 67L110.587 73.6359C111.339 73.8647 111.988 74.3416 112.425 74.9863C112.862 75.631 113.059 76.4041 112.985 77.1754Z" fill="url(#paint3_linear_1760_10033)"/>
<mask id="mask0_1760_10033" style="mask-type:alpha" maskUnits="userSpaceOnUse" x="65" y="67" width="48" height="52">
<path d="M112.985 77.1754C112.659 80.473 111.83 86.3778 109.744 92.8446C108.968 95.2645 108.042 97.6353 106.971 99.9437C103.485 107.408 98.0488 114.647 89.5843 118.717C89.4078 118.807 89.2327 118.891 89.05 118.975C89.0331 118.984 89.0154 118.993 88.9971 119C88.9802 118.99 88.9625 118.982 88.9441 118.975C87.7804 118.442 86.6509 117.839 85.5619 117.17C84.7952 116.7 84.0563 116.202 83.3453 115.678C81.9474 114.647 80.6325 113.511 79.4124 112.281C78.7856 111.65 78.1852 110.999 77.6113 110.33C76.1333 108.601 74.8005 106.756 73.6262 104.815C71.5623 101.426 69.9812 97.8458 68.768 94.3778C67.0028 89.3225 66.0178 84.5084 65.4753 80.8774C65.2615 79.4384 65.1155 78.186 65.0164 77.1774C64.9395 76.4066 65.1351 75.6332 65.5702 74.9879C66.0053 74.3426 66.6533 73.8648 67.4048 73.6353L71.8427 72.2685L86.68 67.7004L88.9435 67.006L88.9693 67L110.587 73.6359C111.339 73.8647 111.988 74.3416 112.425 74.9863C112.862 75.631 113.059 76.4041 112.985 77.1754Z" fill="url(#paint4_linear_1760_10033)"/>
</mask>
<g mask="url(#mask0_1760_10033)">
<g style="mix-blend-mode:soft-light" opacity="0.4">
<path d="M104.321 66.6336L62.6644 104.335C60.4582 101.052 58.9781 97.3422 58.3213 93.4508L93.7844 61.3354H93.803C97.6452 62.3502 101.229 64.1554 104.321 66.6336Z" fill="url(#paint5_linear_1760_10033)"/>
</g>
<g style="mix-blend-mode:soft-light" opacity="0.4">
<path d="M121.321 79.6336L79.6644 117.335C77.4582 114.052 73.9781 111.227 73.3213 107.335L110.784 74.3354H110.803C114.645 75.3502 118.229 77.1554 121.321 79.6336Z" fill="url(#paint6_linear_1760_10033)"/>
</g>
</g>
<path d="M89 77C91.2091 77 93 78.8307 93 81.0889V83.1333H95.5C96.3284 83.1333 97 83.8198 97 84.6667V95.9111C97 96.7579 96.3284 97.4444 95.5 97.4444H82.5C81.6716 97.4444 81 96.7579 81 95.9111V84.6667C81 83.8198 81.6716 83.1333 82.5 83.1333H85V81.0889C85 78.8307 86.7909 77 89 77ZM89.0001 88.7556C88.1717 88.7556 87.5001 89.4421 87.5001 90.2889C87.5001 91.1357 88.1717 91.8222 89.0001 91.8222C89.8286 91.8222 90.5001 91.1357 90.5001 90.2889C90.5001 89.4421 89.8286 88.7556 89.0001 88.7556ZM89 79.0444C87.8954 79.0444 87 79.9598 87 81.0889V83.1333H91V81.0889C91 79.9598 90.1046 79.0444 89 79.0444Z" fill="#F7F7F8"/>
<defs>
<linearGradient id="paint0_linear_1760_10033" x1="38.0004" y1="98.5824" x2="38.0004" y2="1.75123" gradientUnits="userSpaceOnUse">
<stop stop-color="#DEE0E2"/>
<stop offset="1" stop-color="#EFEFEF"/>
</linearGradient>
<linearGradient id="paint1_linear_1760_10033" x1="38" y1="16.2838" x2="38" y2="46.6343" gradientUnits="userSpaceOnUse">
<stop stop-color="#DEE0E2"/>
<stop offset="1" stop-color="#B4B9BE"/>
</linearGradient>
<linearGradient id="paint2_linear_1760_10033" x1="80.9965" y1="61.3268" x2="80.9999" y2="114" gradientUnits="userSpaceOnUse">
<stop stop-color="#39F89C"/>
<stop offset="1" stop-color="#2EDD89"/>
</linearGradient>
<linearGradient id="paint3_linear_1760_10033" x1="88.9965" y1="66.3268" x2="88.9999" y2="119" gradientUnits="userSpaceOnUse">
<stop stop-color="#39F89C"/>
<stop offset="1" stop-color="#2EDD89"/>
</linearGradient>
<linearGradient id="paint4_linear_1760_10033" x1="88.9965" y1="66.3268" x2="88.9999" y2="119" gradientUnits="userSpaceOnUse">
<stop stop-color="#39F89C"/>
<stop offset="1" stop-color="#2EDD89"/>
</linearGradient>
<linearGradient id="paint5_linear_1760_10033" x1="106.871" y1="54.4089" x2="64.5326" y2="97.6352" gradientUnits="userSpaceOnUse">
<stop stop-color="#FEFEFC"/>
<stop offset="1" stop-color="white" stop-opacity="0"/>
</linearGradient>
<linearGradient id="paint6_linear_1760_10033" x1="123.871" y1="67.4089" x2="81.5326" y2="110.635" gradientUnits="userSpaceOnUse">
<stop stop-color="#FEFEFC"/>
<stop offset="1" stop-color="white" stop-opacity="0.1"/>
</linearGradient>
</defs>
</svg>
