<svg width="120" height="120" viewBox="0 0 120 120" fill="none" xmlns="http://www.w3.org/2000/svg">
<path d="M95.9991 59.9994C95.9991 84.2965 76.3034 103.999 52.0126 103.999C51.7978 104.003 51.5828 103.995 51.3688 103.976C46.0634 103.922 40.813 102.894 35.8792 100.942C31.759 99.3301 27.9136 97.0887 24.4798 94.2981C17.6615 88.8519 12.6205 81.4969 10.0001 73.172C8.67723 68.9062 8.00299 64.4657 8 59.9994C8 35.7008 27.6957 16 52.011 16C56.4761 16.0031 60.9155 16.6775 65.1802 18.0006C74.0206 20.7588 81.7615 26.2452 87.2935 33.6737C92.8256 41.1022 95.865 50.0915 95.9763 59.3538C95.9951 59.5685 96.0028 59.784 95.9991 59.9994V59.9994Z" fill="url(#paint0_linear_1825_5413)" fill-opacity="0.12"/>
<path d="M87.9991 54.9994C87.9991 79.2965 68.3034 98.9989 44.0126 98.9989C43.7978 99.0031 43.5828 98.9954 43.3688 98.976C38.0634 98.9225 32.813 97.8942 27.8792 95.9424C23.759 94.3301 19.9136 92.0887 16.4798 89.2981C9.66153 83.8519 4.62048 76.4969 2.00013 68.172C0.677232 63.9062 0.00298898 59.4657 0 54.9994C0 30.7008 19.6957 11 44.011 11C48.4761 11.0031 52.9155 11.6775 57.1802 13.0006C66.0206 15.7588 73.7615 21.2452 79.2935 28.6737C84.8256 36.1022 87.865 45.0915 87.9763 54.3538C87.9951 54.5685 88.0028 54.784 87.9991 54.9994V54.9994Z" fill="url(#paint1_linear_1825_5413)"/>
<mask id="mask0_1825_5413" style="mask-type:alpha" maskUnits="userSpaceOnUse" x="0" y="11" width="88" height="88">
<path d="M87.9991 54.9994C87.9991 79.2965 68.3034 98.9989 44.0126 98.9989C43.7978 99.0031 43.5828 98.9954 43.3688 98.976C38.0634 98.9225 32.813 97.8942 27.8792 95.9424C23.759 94.3301 19.9136 92.0887 16.4798 89.2981C9.66153 83.8519 4.62048 76.4969 2.00013 68.172C0.677232 63.9062 0.00298898 59.4657 0 54.9994C0 30.7008 19.6957 11 44.011 11C48.4761 11.0031 52.9155 11.6775 57.1802 13.0006C66.0206 15.7588 73.7615 21.2452 79.2935 28.6737C84.8256 36.1022 87.865 45.0915 87.9763 54.3538C87.9951 54.5685 88.0028 54.784 87.9991 54.9994V54.9994Z" fill="url(#paint2_linear_1825_5413)"/>
</mask>
<g mask="url(#mask0_1825_5413)">
<path opacity="0.2" d="M82.8421 9.15396L-4.85671 88.5263C-9.50116 81.6131 -12.6172 73.8036 -14 65.6113L60.6592 -2H60.6983C68.7872 0.136282 76.3321 3.93665 82.8421 9.15396Z" fill="url(#paint3_linear_1825_5413)"/>
<path opacity="0.2" d="M108.053 38.154L20.3538 117.526C15.7094 110.613 8.3828 104.666 7 96.4737L85.8698 27H85.9088C93.9978 29.1363 101.543 32.9366 108.053 38.154Z" fill="url(#paint4_linear_1825_5413)"/>
</g>
<path d="M30.367 41.6774L30.5126 41.5126C31.1434 40.8817 32.1361 40.8332 32.8226 41.367L32.9874 41.5126L44 52.5237L55.0126 41.5126C55.696 40.8291 56.804 40.8291 57.4874 41.5126C58.1709 42.196 58.1709 43.304 57.4874 43.9874L46.4762 55L57.4874 66.0126C58.1183 66.6434 58.1668 67.6361 57.633 68.3226L57.4874 68.4874C56.8566 69.1183 55.8639 69.1668 55.1774 68.633L55.0126 68.4874L44 57.4762L32.9874 68.4874C32.304 69.1709 31.196 69.1709 30.5126 68.4874C29.8291 67.804 29.8291 66.696 30.5126 66.0126L41.5237 55L30.5126 43.9874C29.8817 43.3566 29.8332 42.3639 30.367 41.6774Z" fill="white"/>
<defs>
<linearGradient id="paint0_linear_1825_5413" x1="35.9231" y1="100.615" x2="72.3077" y2="20.2308" gradientUnits="userSpaceOnUse">
<stop stop-color="#D62B37"/>
<stop offset="1" stop-color="#FF5F6A"/>
</linearGradient>
<linearGradient id="paint1_linear_1825_5413" x1="27.9231" y1="95.6154" x2="64.3077" y2="15.2308" gradientUnits="userSpaceOnUse">
<stop stop-color="#D62B37"/>
<stop offset="1" stop-color="#FF5F6A"/>
</linearGradient>
<linearGradient id="paint2_linear_1825_5413" x1="27.9231" y1="95.6154" x2="64.3077" y2="15.2308" gradientUnits="userSpaceOnUse">
<stop stop-color="#D62B37"/>
<stop offset="1" stop-color="#FF5F6A"/>
</linearGradient>
<linearGradient id="paint3_linear_1825_5413" x1="87.9856" y1="-16.5823" x2="-1.14528" y2="70.6268" gradientUnits="userSpaceOnUse">
<stop stop-color="#FEFEFC"/>
<stop offset="1" stop-color="white" stop-opacity="0.1"/>
</linearGradient>
<linearGradient id="paint4_linear_1825_5413" x1="113.42" y1="12.4177" x2="24.2869" y2="103.421" gradientUnits="userSpaceOnUse">
<stop stop-color="#FEFEFC"/>
<stop offset="1" stop-color="white" stop-opacity="0.1"/>
</linearGradient>
</defs>
</svg>
