<svg width="140" height="140" viewBox="0 0 140 140" fill="none" xmlns="http://www.w3.org/2000/svg">
<path d="M0 8.00001C0 3.58173 3.58172 0 8 0H62.0196C64.1414 0 66.1762 0.842855 67.6765 2.34315L88.6667 23.3333V113.333C88.6667 117.752 85.0849 121.333 80.6667 121.333H7.99999C3.58171 121.333 0 117.752 0 113.333V8.00001Z" fill="url(#paint0_linear_1838_11309)"/>
<path opacity="0.66" d="M46.667 35C46.667 33.067 48.234 31.5 50.167 31.5H72.3337C74.2667 31.5 75.8337 33.067 75.8337 35C75.8337 36.933 74.2667 38.5 72.3337 38.5H50.167C48.234 38.5 46.667 36.933 46.667 35Z" fill="white"/>
<path opacity="0.66" d="M12.833 35C12.833 33.067 14.4 31.5 16.333 31.5H38.4997C40.4327 31.5 41.9997 33.067 41.9997 35C41.9997 36.933 40.4327 38.5 38.4997 38.5H16.333C14.4 38.5 12.833 36.933 12.833 35Z" fill="white"/>
<path opacity="0.66" d="M12.833 51.3334C12.833 49.4004 14.4 47.8334 16.333 47.8334H25.6663C27.5993 47.8334 29.1663 49.4004 29.1663 51.3334C29.1663 53.2664 27.5993 54.8334 25.6663 54.8334H16.333C14.4 54.8334 12.833 53.2664 12.833 51.3334Z" fill="white"/>
<path opacity="0.66" d="M33.833 51.3334C33.833 49.4004 35.4 47.8334 37.333 47.8334H72.333C74.266 47.8334 75.833 49.4004 75.833 51.3334C75.833 53.2664 74.266 54.8334 72.333 54.8334H37.333C35.4 54.8334 33.833 53.2664 33.833 51.3334Z" fill="white"/>
<path opacity="0.66" d="M12.833 67.6666C12.833 65.7336 14.4 64.1666 16.333 64.1666H45.4997C47.4327 64.1666 48.9997 65.7336 48.9997 67.6666C48.9997 69.5996 47.4327 71.1666 45.4997 71.1666H16.333C14.4 71.1666 12.833 69.5996 12.833 67.6666Z" fill="white"/>
<path opacity="0.66" d="M53.667 67.6666C53.667 65.7336 55.234 64.1666 57.167 64.1666H72.3337C74.2667 64.1666 75.8337 65.7336 75.8337 67.6666C75.8337 69.5996 74.2667 71.1666 72.3337 71.1666H57.167C55.234 71.1666 53.667 69.5996 53.667 67.6666Z" fill="white"/>
<path opacity="0.66" d="M12.833 84C12.833 82.067 14.4 80.5 16.333 80.5H29.1663C31.0993 80.5 32.6663 82.067 32.6663 84C32.6663 85.933 31.0993 87.5 29.1663 87.5H16.333C14.4 87.5 12.833 85.933 12.833 84Z" fill="white"/>
<path opacity="0.45" d="M0 8C0 3.58172 3.58172 0 8 0H65.3333L79.3333 14H0V8Z" fill="url(#paint1_linear_1838_11309)"/>
<path opacity="0.45" d="M0 107.333H88.6667V113.333C88.6667 117.752 85.0849 121.333 80.6667 121.333H7.99999C3.58171 121.333 0 117.752 0 113.333V107.333Z" fill="url(#paint2_linear_1838_11309)"/>
<path opacity="0.82" d="M88.6663 23.3331H71.775C70.3183 23.3446 68.9025 22.8567 67.7677 21.9521L67.6662 21.8748C66.9364 21.274 66.349 20.5216 65.9458 19.6709C65.5426 18.8202 65.3334 17.892 65.333 16.9522V0L88.6663 23.3331Z" fill="url(#paint3_linear_1838_11309)"/>
<path d="M123.666 101.5C123.666 118.25 110.088 131.833 93.342 131.833C93.1939 131.835 93.0457 131.83 92.8982 131.817C89.2407 131.78 85.6211 131.071 82.2198 129.725C79.3793 128.614 76.7283 127.069 74.3611 125.145C69.6606 121.39 66.1853 116.32 64.3789 110.581C63.4669 107.64 63.0021 104.579 63 101.5C63 84.7482 76.5781 71.1666 93.3409 71.1666C96.4192 71.1688 99.4796 71.6337 102.42 72.5459C108.514 74.4473 113.851 78.2296 117.664 83.3508C121.478 88.4719 123.574 94.6691 123.65 101.054C123.663 101.202 123.669 101.351 123.666 101.5Z" fill="url(#paint4_linear_1838_11309)" fill-opacity="0.12"/>
<path d="M129.499 108.5C129.499 125.25 115.921 138.833 99.175 138.833C99.0269 138.835 98.8788 138.83 98.7312 138.817C95.0737 138.78 91.4541 138.071 88.0528 136.725C85.2123 135.614 82.5613 134.069 80.1941 132.145C75.4936 128.39 72.0183 123.32 70.2119 117.581C69.2999 114.64 68.8351 111.579 68.833 108.5C68.833 91.7482 82.4111 78.1666 99.1739 78.1666C102.252 78.1688 105.313 78.6337 108.253 79.5459C114.347 81.4473 119.684 85.2296 123.497 90.3508C127.311 95.4719 129.407 101.669 129.483 108.054C129.496 108.202 129.502 108.351 129.499 108.5Z" fill="url(#paint5_linear_1838_11309)"/>
<mask id="mask0_1838_11309" style="mask-type:alpha" maskUnits="userSpaceOnUse" x="68" y="78" width="62" height="61">
<path d="M129.499 108.5C129.499 125.25 115.921 138.833 99.175 138.833C99.0269 138.835 98.8788 138.83 98.7312 138.817C95.0737 138.78 91.4541 138.071 88.0528 136.725C85.2123 135.614 82.5613 134.069 80.1941 132.145C75.4936 128.39 72.0183 123.32 70.2119 117.581C69.2999 114.64 68.8351 111.579 68.833 108.5C68.833 91.7482 82.4111 78.1666 99.1739 78.1666C102.252 78.1688 105.313 78.6337 108.253 79.5459C114.347 81.4473 119.684 85.2296 123.497 90.3508C127.311 95.4719 129.407 101.669 129.483 108.054C129.496 108.202 129.502 108.351 129.499 108.5Z" fill="url(#paint6_linear_1838_11309)"/>
</mask>
<g mask="url(#mask0_1838_11309)">
<g style="mix-blend-mode:soft-light" opacity="0.4">
<path d="M123.667 77.3478L75.0669 121.333C72.4931 117.502 70.7663 113.174 70 108.635L111.374 71.1666H111.395C115.878 72.3505 120.059 74.4565 123.667 77.3478Z" fill="url(#paint7_linear_1838_11309)"/>
</g>
<g style="mix-blend-mode:soft-light" opacity="0.4">
<path d="M137.666 93.6812L89.0663 137.667C86.4925 133.836 82.4323 130.54 81.666 126L125.373 87.5H125.395C129.877 88.6839 134.058 90.7899 137.666 93.6812Z" fill="url(#paint8_linear_1838_11309)"/>
</g>
</g>
<path d="M90.0777 99.6182L90.1747 99.5083C90.5953 99.0878 91.2571 99.0554 91.7147 99.4113L91.8246 99.5083L99.1663 106.849L106.508 99.5083C106.964 99.0527 107.702 99.0527 108.158 99.5083C108.614 99.9639 108.614 100.703 108.158 101.158L100.817 108.5L108.158 115.842C108.579 116.262 108.611 116.924 108.255 117.382L108.158 117.492C107.737 117.912 107.076 117.945 106.618 117.589L106.508 117.492L99.1663 110.151L91.8246 117.492C91.369 117.947 90.6303 117.947 90.1747 117.492C89.7191 117.036 89.7191 116.297 90.1747 115.842L97.5155 108.5L90.1747 101.158C89.7542 100.738 89.7218 100.076 90.0777 99.6182L90.1747 99.5083L90.0777 99.6182Z" fill="#FBFDFE"/>
<path d="M90.0777 99.6182L90.1747 99.5083C90.5953 99.0878 91.2571 99.0554 91.7147 99.4113L91.8246 99.5083L99.1663 106.849L106.508 99.5083C106.964 99.0527 107.702 99.0527 108.158 99.5083C108.614 99.9639 108.614 100.703 108.158 101.158L100.817 108.5L108.158 115.842C108.579 116.262 108.611 116.924 108.255 117.382L108.158 117.492C107.737 117.912 107.076 117.945 106.618 117.589L106.508 117.492L99.1663 110.151L91.8246 117.492C91.369 117.947 90.6303 117.947 90.1747 117.492C89.7191 117.036 89.7191 116.297 90.1747 115.842L97.5155 108.5L90.1747 101.158C89.7542 100.738 89.7218 100.076 90.0777 99.6182ZM90.0777 99.6182L90.1747 99.5083L90.0777 99.6182Z" stroke="white"/>
<defs>
<linearGradient id="paint0_linear_1838_11309" x1="44.3339" y1="115.013" x2="44.3339" y2="2.0431" gradientUnits="userSpaceOnUse">
<stop stop-color="#DEE0E2"/>
<stop offset="1" stop-color="#EFEFEF"/>
</linearGradient>
<linearGradient id="paint1_linear_1838_11309" x1="86.144" y1="5.70138" x2="-85.2397" y2="5.70138" gradientUnits="userSpaceOnUse">
<stop stop-color="#DEE1E2"/>
<stop offset="1" stop-color="#B4BCBE"/>
</linearGradient>
<linearGradient id="paint2_linear_1838_11309" x1="86.144" y1="113.035" x2="-85.2397" y2="113.035" gradientUnits="userSpaceOnUse">
<stop stop-color="#DEE1E2"/>
<stop offset="1" stop-color="#B4BCBE"/>
</linearGradient>
<linearGradient id="paint3_linear_1838_11309" x1="76.9997" y1="-4.5255" x2="76.9997" y2="22.4527" gradientUnits="userSpaceOnUse">
<stop stop-color="#DEE0E2"/>
<stop offset="1" stop-color="#B4B9BE"/>
</linearGradient>
<linearGradient id="paint4_linear_1838_11309" x1="82.25" y1="129.5" x2="107.333" y2="74.0833" gradientUnits="userSpaceOnUse">
<stop stop-color="#D62B37"/>
<stop offset="1" stop-color="#FF5F6A"/>
</linearGradient>
<linearGradient id="paint5_linear_1838_11309" x1="88.083" y1="136.5" x2="113.166" y2="81.0833" gradientUnits="userSpaceOnUse">
<stop stop-color="#D62B37"/>
<stop offset="1" stop-color="#FF5F6A"/>
</linearGradient>
<linearGradient id="paint6_linear_1838_11309" x1="88.083" y1="136.5" x2="113.166" y2="81.0833" gradientUnits="userSpaceOnUse">
<stop stop-color="#E02D3A"/>
<stop offset="1" stop-color="#FF4D59"/>
</linearGradient>
<linearGradient id="paint7_linear_1838_11309" x1="126.641" y1="63.0856" x2="77.2465" y2="113.516" gradientUnits="userSpaceOnUse">
<stop stop-color="#FEFEFC"/>
<stop offset="1" stop-color="white" stop-opacity="0"/>
</linearGradient>
<linearGradient id="paint8_linear_1838_11309" x1="140.64" y1="79.419" x2="91.2459" y2="129.85" gradientUnits="userSpaceOnUse">
<stop stop-color="#FEFEFC"/>
<stop offset="1" stop-color="white" stop-opacity="0.1"/>
</linearGradient>
</defs>
</svg>
