<svg width="120" height="120" viewBox="0 0 120 120" fill="none" xmlns="http://www.w3.org/2000/svg">
<path d="M0 24.233L23.3846 0H68C72.4183 0 76 3.58172 76 8V96C76 100.418 72.4183 104 68 104H8C3.58172 104 0 100.418 0 96V24.233Z" fill="url(#paint0_linear_1761_5380)"/>
<path opacity="0.82" d="M0 24L24 0V16C24 20.4183 20.4183 24 16 24H0Z" fill="url(#paint1_linear_1761_5380)"/>
<path opacity="0.16" d="M104.999 83.9997C104.999 98.357 93.3611 109.999 79.0075 109.999C78.8805 110.002 78.7535 109.997 78.627 109.986C75.492 109.954 72.3895 109.347 69.4741 108.193C67.0394 107.241 64.7671 105.916 62.7381 104.267C58.7091 101.049 55.7303 96.7027 54.1819 91.7834C53.4002 89.2628 53.0018 86.6388 53 83.9997C53 69.6414 64.6384 58 79.0065 58C81.645 58.0018 84.2682 58.4003 86.7883 59.1822C92.0122 60.812 96.5863 64.054 99.8553 68.4436C103.124 72.8331 104.92 78.145 104.986 83.6182C104.997 83.745 105.002 83.8723 104.999 83.9997Z" fill="url(#paint2_linear_1761_5380)"/>
<path d="M109.999 89.9997C109.999 104.357 98.3611 115.999 84.0075 115.999C83.8805 116.002 83.7535 115.997 83.627 115.986C80.492 115.954 77.3895 115.347 74.4741 114.193C72.0394 113.241 69.7671 111.916 67.7381 110.267C63.7091 107.049 60.7303 102.703 59.1819 97.7834C58.4002 95.2628 58.0018 92.6388 58 89.9997C58 75.6414 69.6384 64 84.0065 64C86.645 64.0018 89.2682 64.4003 91.7883 65.1822C97.0122 66.812 101.586 70.054 104.855 74.4436C108.124 78.8331 109.92 84.145 109.986 89.6182C109.997 89.745 110.002 89.8723 109.999 89.9997Z" fill="url(#paint3_linear_1761_5380)"/>
<mask id="mask0_1761_5380" style="mask-type:alpha" maskUnits="userSpaceOnUse" x="58" y="64" width="52" height="52">
<path d="M109.999 89.9997C109.999 104.357 98.3611 115.999 84.0075 115.999C83.8805 116.002 83.7535 115.997 83.627 115.986C80.492 115.954 77.3895 115.347 74.4741 114.193C72.0394 113.241 69.7671 111.916 67.7381 110.267C63.7091 107.049 60.7303 102.703 59.1819 97.7834C58.4002 95.2628 58.0018 92.6388 58 89.9997C58 75.6414 69.6384 64 84.0065 64C86.645 64.0018 89.2682 64.4003 91.7883 65.1822C97.0122 66.812 101.586 70.054 104.855 74.4436C108.124 78.8331 109.92 84.145 109.986 89.6182C109.997 89.745 110.002 89.8723 109.999 89.9997Z" fill="url(#paint4_linear_1761_5380)"/>
</mask>
<g mask="url(#mask0_1761_5380)">
<path opacity="0.2" d="M105 63.2981L63.3431 101C61.1369 97.7162 59.6568 94.0067 59 90.1154L94.4631 58H94.4817C98.3239 59.0147 101.908 60.8199 105 63.2981Z" fill="url(#paint5_linear_1761_5380)"/>
<path opacity="0.2" d="M117 77.2981L75.3431 115C73.1369 111.716 69.6568 108.891 69 105L106.463 72H106.482C110.324 73.0147 113.908 74.8199 117 77.2981Z" fill="url(#paint6_linear_1761_5380)"/>
<path d="M91.6301 91.2482L91.7524 91.1137C92.0785 90.6962 92.0825 90.1231 91.7644 89.7017L91.6301 89.5514L91.4884 89.4353C91.0489 89.1255 90.4456 89.1217 90.0021 89.4238L89.8438 89.5514L85.2637 93.9022L85.2637 83.1998L85.2522 83.037C85.1762 82.5046 84.7325 82.0832 84.1721 82.011L84.0007 82L83.8293 82.011C83.2689 82.0832 82.8252 82.5046 82.7492 83.037L82.7376 83.1998L82.7376 93.9022L78.1563 89.5505L78.0147 89.4343C77.5203 89.0857 76.8186 89.1243 76.3701 89.5502C75.9216 89.976 75.8807 90.6426 76.2475 91.1124L76.3698 91.247L83.106 97.6484L83.2477 97.7646C83.6872 98.0745 84.2906 98.0784 84.7342 97.7762L84.8924 97.6486L91.6301 91.2482Z" fill="white" stroke="white"/>
</g>
<path opacity="0.66" d="M51.5175 29.078C49.7286 28.0453 47.8585 27.4068 45.9069 27.1628C43.9554 26.9187 42.0413 27.0436 40.1645 27.5375C38.2878 28.0315 36.5601 28.865 34.9816 30.0382C33.4113 31.1973 32.1018 32.6667 31.0532 34.4462C30.0046 36.2258 29.3447 38.0984 29.0737 40.064C28.8167 42.0377 28.9459 43.9808 29.4612 45.8934C29.9847 47.7919 30.8876 49.5432 32.1699 51.1474L20.7132 70.5894C20.5481 70.8697 20.4417 71.1463 20.3941 71.4193C20.3606 71.7004 20.3805 72.003 20.4538 72.327L21.8861 77.6328C21.9677 77.9428 22.1663 78.1984 22.482 78.3994C22.7977 78.6005 23.1525 78.6551 23.5464 78.5633L33.5334 75.9348C33.9438 75.815 34.237 75.5898 34.4128 75.2594C34.5944 74.9511 34.6357 74.6088 34.5366 74.2323L32.9681 68.3408L41.2795 66.1534C41.6146 66.0652 41.8771 65.8599 42.067 65.5376C42.2569 65.2154 42.2994 64.8549 42.1945 64.4563L40.0949 56.3427C43.864 56.8661 47.2053 56.5135 50.1191 55.285C53.0328 54.0564 55.2906 52.0829 56.8924 49.3645C57.9328 47.599 58.5803 45.7474 58.8348 43.8098C59.0893 41.8723 58.9677 39.9804 58.4699 38.1343C57.9803 36.2742 57.1479 34.5635 55.9725 33.0023C54.8054 31.427 53.3204 30.119 51.5175 29.078ZM44.3834 41.1846C43.4256 40.6317 42.7927 39.8156 42.4848 38.7364C42.1992 37.6513 42.3454 36.6183 42.9234 35.6375C43.5014 34.6566 44.3337 34.0291 45.4202 33.755C46.5149 33.4669 47.5483 33.6034 48.5201 34.1645C49.5061 34.7337 50.1419 35.5609 50.4275 36.646C50.713 37.7311 50.571 38.757 50.0012 39.7239C49.4232 40.7047 48.5868 41.3392 47.4921 41.6273C46.4056 41.9015 45.3693 41.7539 44.3834 41.1846Z" fill="white"/>
<defs>
<linearGradient id="paint0_linear_1761_5380" x1="38.0004" y1="98.5824" x2="38.0004" y2="1.75123" gradientUnits="userSpaceOnUse">
<stop stop-color="#DEE0E2"/>
<stop offset="1" stop-color="#EFEFEF"/>
</linearGradient>
<linearGradient id="paint1_linear_1761_5380" x1="12" y1="-4.6548" x2="12" y2="23.0942" gradientUnits="userSpaceOnUse">
<stop stop-color="#DEE0E2"/>
<stop offset="1" stop-color="#B4B9BE"/>
</linearGradient>
<linearGradient id="paint2_linear_1761_5380" x1="78.9962" y1="57.3268" x2="78.9993" y2="110" gradientUnits="userSpaceOnUse">
<stop offset="0.00702659" stop-color="#21FF94"/>
<stop offset="1" stop-color="#2EDD89"/>
</linearGradient>
<linearGradient id="paint3_linear_1761_5380" x1="83.9962" y1="63.3268" x2="83.9993" y2="116" gradientUnits="userSpaceOnUse">
<stop stop-color="#39F89C"/>
<stop offset="1" stop-color="#2EDD89"/>
</linearGradient>
<linearGradient id="paint4_linear_1761_5380" x1="74.5" y1="114" x2="96" y2="66.5" gradientUnits="userSpaceOnUse">
<stop stop-color="#E02D3A"/>
<stop offset="1" stop-color="#FF4D59"/>
</linearGradient>
<linearGradient id="paint5_linear_1761_5380" x1="107.443" y1="51.0734" x2="65.106" y2="92.4977" gradientUnits="userSpaceOnUse">
<stop stop-color="#FEFEFC"/>
<stop offset="1" stop-color="white" stop-opacity="0.1"/>
</linearGradient>
<linearGradient id="paint6_linear_1761_5380" x1="119.549" y1="65.0734" x2="77.2113" y2="108.3" gradientUnits="userSpaceOnUse">
<stop stop-color="#FEFEFC"/>
<stop offset="1" stop-color="white" stop-opacity="0.1"/>
</linearGradient>
</defs>
</svg>
