<svg width="955" height="601" viewBox="0 0 955 601" fill="none" xmlns="http://www.w3.org/2000/svg">
<path d="M950.4 380.1C945.7 402.6 934.8 423 918.7 441.4C837.4 534.2 624.6 573.1 423.9 540.8C375 532.9 326.8 520.8 281.4 504.2C280.8 504 280.1 503.7 279.5 503.5C232 486 187.6 463.6 148.8 435.9C119.1 414.8 92.6999 390.7 70.4999 363.4C44.3999 331.3 24.2999 294.9 11.7999 253.9C-31.1001 113.5 120.1 -39.1002 308.3 23.5998C438.4 66.9998 527.1 208.7 637.8 195.5C890.9 165.5 973.2 270.5 950.4 380.1Z" fill="url(#paint0_linear_6852_30947)"/>
<path opacity="0.1" d="M532.2 291.2L423.9 540.8C375 532.9 326.8 520.8 281.4 504.2C280.8 504 280.1 503.7 279.5 503.5L381 324L532.2 291.2Z" fill="#0C00FF"/>
<path opacity="0.1" d="M364.1 301.9L148.8 435.9C119.1 414.8 92.7 390.7 70.5 363.4L268.8 244.5L364.1 301.9Z" fill="#0C00FF"/>
<path d="M350.7 228.1H42.2002C50.7002 208.8 70.1002 195.3 92.6002 195.3C103.7 195.3 114 198.6 122.6 204.2C136.4 177.4 164.3 159 196.5 159C228.7 159 256.7 177.4 270.4 204.2C279 198.6 289.3 195.3 300.4 195.3C322.8 195.3 342.2 208.8 350.7 228.1Z" fill="white"/>
<path d="M797 460.9H488.5C497 441.6 516.4 428.1 538.9 428.1C550 428.1 560.3 431.4 568.9 437C582.7 410.2 610.6 391.8 642.8 391.8C675 391.8 703 410.2 716.7 437C725.3 431.4 735.6 428.1 746.7 428.1C769.1 428 788.5 441.5 797 460.9Z" fill="white"/>
<path d="M870.6 131.1C850.9 62.4001 787.6 12.1001 712.6 12.1001C621.8 12.1001 548.2 85.7001 548.2 176.5C548.2 188.2 549.4 199.6 551.7 210.6C567.4 285 633.4 340.9 712.5 340.9C803.3 340.9 876.9 267.3 876.9 176.5C877 160.8 874.7 145.5 870.6 131.1ZM575.9 185.2C575.5 185.2 575.1 185.2 574.7 185.1C568.9 184.5 564.3 179.6 564.3 173.6C564.3 167.2 569.5 162 575.9 162C582.3 162 587.5 167.2 587.5 173.6C587.5 179.6 582.9 184.5 577.1 185.1C576.7 185.1 576.3 185.2 575.9 185.2Z" fill="#2DDC88"/>
<path d="M566.5 84C565.5 85.7 564.6 87.4 563.7 89.2C575.1 111.1 579 136.9 573.1 162.3C574 162.1 574.9 162 575.9 162C576.7 162 577.5 162.1 578.2 162.2C584.2 134.9 579.5 107.2 566.5 84Z" fill="url(#paint1_radial_6852_30947)"/>
<path d="M874.1 164.9C874.1 255.7 800.5 329.3 709.7 329.3C635.6 329.3 573 280.3 552.4 212.9C552.2 212.1 551.9 211.4 551.7 210.6C551.4 209.5 551.1 208.4 550.8 207.3C547.2 193.8 545.3 179.6 545.3 165C545.3 137.7 552 111.9 563.8 89.3C575.2 111.2 579.1 137 573.2 162.4C568.1 163.6 564.4 168.2 564.4 173.6C564.4 176.4 565.4 179 567.1 181C568.2 182.3 569.6 183.4 571.1 184.1C572.2 184.6 573.5 185 574.8 185.1C575.2 185.1 575.6 185.2 576 185.2C576.4 185.2 576.8 185.2 577.2 185.1C583.1 184.5 587.6 179.6 587.6 173.6C587.6 168 583.6 163.3 578.3 162.2C584.2 134.9 579.5 107.2 566.6 84C594.8 34.1 648.3 0.5 709.7 0.5C788.9 0.5 855 56.5 870.6 131.1C872.9 142 874.1 153.3 874.1 164.9Z" fill="url(#paint2_radial_6852_30947)"/>
<g opacity="0.16">
<mask id="mask0_6852_30947" style="mask-type:luminance" maskUnits="userSpaceOnUse" x="545" y="0" width="330" height="330">
<path d="M874.1 164.9C874.1 255.7 800.5 329.3 709.7 329.3C635.6 329.3 573 280.3 552.4 212.9C552.2 212.1 551.9 211.4 551.7 210.6C551.4 209.5 551.1 208.4 550.8 207.3C547.2 193.8 545.3 179.6 545.3 165C545.3 137.7 552 111.9 563.8 89.3C575.2 111.2 579.1 137 573.2 162.4C568.1 163.6 564.4 168.2 564.4 173.6C564.4 176.4 565.4 179 567.1 181C568.2 182.3 569.6 183.4 571.1 184.1C572.2 184.6 573.5 185 574.8 185.1C575.2 185.1 575.6 185.2 576 185.2C576.4 185.2 576.8 185.2 577.2 185.1C583.1 184.5 587.6 179.6 587.6 173.6C587.6 168 583.6 163.3 578.3 162.2C584.2 134.9 579.5 107.2 566.6 84C594.8 34.1 648.3 0.5 709.7 0.5C788.9 0.5 855 56.5 870.6 131.1C872.9 142 874.1 153.3 874.1 164.9Z" fill="white"/>
</mask>
<g mask="url(#mask0_6852_30947)">
<path d="M555.4 20.8003H551.9C550.3 20.8003 549 19.5003 549 17.9003V14.4003C549 12.8003 550.3 11.5002 551.9 11.5002H555.4C557 11.5002 558.3 12.8003 558.3 14.4003V17.9003C558.3 19.5003 557 20.8003 555.4 20.8003Z" fill="#EEFF71"/>
<path d="M555.4 44.4001H551.9C550.3 44.4001 549 43.1001 549 41.5001V38.0001C549 36.4001 550.3 35.1001 551.9 35.1001H555.4C557 35.1001 558.3 36.4001 558.3 38.0001V41.5001C558.3 43.1001 557 44.4001 555.4 44.4001Z" fill="#EEFF71"/>
<path d="M555.4 67.9001H551.9C550.3 67.9001 549 66.6001 549 65.0001V61.5001C549 59.9001 550.3 58.6001 551.9 58.6001H555.4C557 58.6001 558.3 59.9001 558.3 61.5001V65.0001C558.3 66.6001 557 67.9001 555.4 67.9001Z" fill="#EEFF71"/>
<path d="M555.4 91.5002H551.9C550.3 91.5002 549 90.2002 549 88.6002V85.1002C549 83.5002 550.3 82.2002 551.9 82.2002H555.4C557 82.2002 558.3 83.5002 558.3 85.1002V88.6002C558.3 90.1002 557 91.5002 555.4 91.5002Z" fill="#EEFF71"/>
<path d="M555.4 115H551.9C550.3 115 549 113.7 549 112.1V108.6C549 107 550.3 105.7 551.9 105.7H555.4C557 105.7 558.3 107 558.3 108.6V112.1C558.3 113.7 557 115 555.4 115Z" fill="#EEFF71"/>
<path d="M555.4 138.5H551.9C550.3 138.5 549 137.2 549 135.6V132.1C549 130.5 550.3 129.2 551.9 129.2H555.4C557 129.2 558.3 130.5 558.3 132.1V135.6C558.3 137.2 557 138.5 555.4 138.5Z" fill="#EEFF71"/>
<path d="M555.4 162.1H551.9C550.3 162.1 549 160.8 549 159.2V155.7C549 154.1 550.3 152.8 551.9 152.8H555.4C557 152.8 558.3 154.1 558.3 155.7V159.2C558.3 160.8 557 162.1 555.4 162.1Z" fill="#EEFF71"/>
<path d="M555.4 185.6H551.9C550.3 185.6 549 184.3 549 182.7V179.2C549 177.6 550.3 176.3 551.9 176.3H555.4C557 176.3 558.3 177.6 558.3 179.2V182.7C558.3 184.3 557 185.6 555.4 185.6Z" fill="#EEFF71"/>
<path d="M555.4 209.2H551.9C550.3 209.2 549 207.9 549 206.3V202.8C549 201.2 550.3 199.9 551.9 199.9H555.4C557 199.9 558.3 201.2 558.3 202.8V206.3C558.3 207.8 557 209.2 555.4 209.2Z" fill="#EEFF71"/>
<path d="M555.4 232.7H551.9C550.3 232.7 549 231.4 549 229.8V226.3C549 224.7 550.3 223.4 551.9 223.4H555.4C557 223.4 558.3 224.7 558.3 226.3V229.8C558.3 231.4 557 232.7 555.4 232.7Z" fill="#EEFF71"/>
<path d="M555.4 256.2H551.9C550.3 256.2 549 254.9 549 253.3V249.8C549 248.2 550.3 246.9 551.9 246.9H555.4C557 246.9 558.3 248.2 558.3 249.8V253.3C558.3 254.9 557 256.2 555.4 256.2Z" fill="#EEFF71"/>
<path d="M555.4 279.8H551.9C550.3 279.8 549 278.5 549 276.9V273.4C549 271.8 550.3 270.5 551.9 270.5H555.4C557 270.5 558.3 271.8 558.3 273.4V276.9C558.3 278.5 557 279.8 555.4 279.8Z" fill="#EEFF71"/>
<path d="M555.4 303.3H551.9C550.3 303.3 549 302 549 300.4V296.9C549 295.3 550.3 294 551.9 294H555.4C557 294 558.3 295.3 558.3 296.9V300.4C558.3 302 557 303.3 555.4 303.3Z" fill="#EEFF71"/>
<path d="M555.4 326.9H551.9C550.3 326.9 549 325.6 549 324V320.5C549 318.9 550.3 317.6 551.9 317.6H555.4C557 317.6 558.3 318.9 558.3 320.5V324C558.3 325.5 557 326.9 555.4 326.9Z" fill="#EEFF71"/>
<path d="M572.801 8.90015H569.301C567.701 8.90015 566.4 7.60012 566.4 6.00012V2.50012C566.4 0.900122 567.701 -0.399902 569.301 -0.399902H572.801C574.401 -0.399902 575.7 0.900122 575.7 2.50012V6.00012C575.7 7.60012 574.401 8.90015 572.801 8.90015Z" fill="#EEFF71"/>
<path d="M572.801 32.4001H569.301C567.701 32.4001 566.4 31.1001 566.4 29.5001V26.0001C566.4 24.4001 567.701 23.1001 569.301 23.1001H572.801C574.401 23.1001 575.7 24.4001 575.7 26.0001V29.5001C575.7 31.1001 574.401 32.4001 572.801 32.4001Z" fill="#EEFF71"/>
<path d="M572.801 56.0002H569.301C567.701 56.0002 566.4 54.7002 566.4 53.1002V49.6002C566.4 48.0002 567.701 46.7002 569.301 46.7002H572.801C574.401 46.7002 575.7 48.0002 575.7 49.6002V53.1002C575.7 54.6002 574.401 56.0002 572.801 56.0002Z" fill="#EEFF71"/>
<path d="M572.801 79.5002H569.301C567.701 79.5002 566.4 78.2002 566.4 76.6002V73.1002C566.4 71.5002 567.701 70.2002 569.301 70.2002H572.801C574.401 70.2002 575.7 71.5002 575.7 73.1002V76.6002C575.7 78.2002 574.401 79.5002 572.801 79.5002Z" fill="#EEFF71"/>
<path d="M572.801 103H569.301C567.701 103 566.4 101.7 566.4 100.1V96.6002C566.4 95.0002 567.701 93.7002 569.301 93.7002H572.801C574.401 93.7002 575.7 95.0002 575.7 96.6002V100.1C575.7 101.7 574.401 103 572.801 103Z" fill="#EEFF71"/>
<path d="M572.801 126.6H569.301C567.701 126.6 566.4 125.3 566.4 123.7V120.2C566.4 118.6 567.701 117.3 569.301 117.3H572.801C574.401 117.3 575.7 118.6 575.7 120.2V123.7C575.7 125.3 574.401 126.6 572.801 126.6Z" fill="#EEFF71"/>
<path d="M572.801 150.1H569.301C567.701 150.1 566.4 148.8 566.4 147.2V143.7C566.4 142.1 567.701 140.8 569.301 140.8H572.801C574.401 140.8 575.7 142.1 575.7 143.7V147.2C575.7 148.8 574.401 150.1 572.801 150.1Z" fill="#EEFF71"/>
<path d="M572.801 173.7H569.301C567.701 173.7 566.4 172.4 566.4 170.8V167.3C566.4 165.7 567.701 164.4 569.301 164.4H572.801C574.401 164.4 575.7 165.7 575.7 167.3V170.8C575.7 172.3 574.401 173.7 572.801 173.7Z" fill="#EEFF71"/>
<path d="M572.801 197.2H569.301C567.701 197.2 566.4 195.9 566.4 194.3V190.8C566.4 189.2 567.701 187.9 569.301 187.9H572.801C574.401 187.9 575.7 189.2 575.7 190.8V194.3C575.7 195.9 574.401 197.2 572.801 197.2Z" fill="#EEFF71"/>
<path d="M572.801 220.7H569.301C567.701 220.7 566.4 219.4 566.4 217.8V214.3C566.4 212.7 567.701 211.4 569.301 211.4H572.801C574.401 211.4 575.7 212.7 575.7 214.3V217.8C575.7 219.4 574.401 220.7 572.801 220.7Z" fill="#EEFF71"/>
<path d="M572.801 244.3H569.301C567.701 244.3 566.4 243 566.4 241.4V237.9C566.4 236.3 567.701 235 569.301 235H572.801C574.401 235 575.7 236.3 575.7 237.9V241.4C575.7 243 574.401 244.3 572.801 244.3Z" fill="#EEFF71"/>
<path d="M572.801 267.8H569.301C567.701 267.8 566.4 266.5 566.4 264.9V261.4C566.4 259.8 567.701 258.5 569.301 258.5H572.801C574.401 258.5 575.7 259.8 575.7 261.4V264.9C575.7 266.5 574.401 267.8 572.801 267.8Z" fill="#EEFF71"/>
<path d="M572.801 291.4H569.301C567.701 291.4 566.4 290.1 566.4 288.5V285C566.4 283.4 567.701 282.1 569.301 282.1H572.801C574.401 282.1 575.7 283.4 575.7 285V288.5C575.7 290 574.401 291.4 572.801 291.4Z" fill="#EEFF71"/>
<path d="M572.801 314.9H569.301C567.701 314.9 566.4 313.6 566.4 312V308.5C566.4 306.9 567.701 305.6 569.301 305.6H572.801C574.401 305.6 575.7 306.9 575.7 308.5V312C575.7 313.6 574.401 314.9 572.801 314.9Z" fill="#EEFF71"/>
<path d="M572.801 338.4H569.301C567.701 338.4 566.4 337.1 566.4 335.5V332C566.4 330.4 567.701 329.1 569.301 329.1H572.801C574.401 329.1 575.7 330.4 575.7 332V335.5C575.7 337.1 574.401 338.4 572.801 338.4Z" fill="#EEFF71"/>
<path d="M589.5 20.8003H586C584.4 20.8003 583.101 19.5003 583.101 17.9003V14.4003C583.101 12.8003 584.4 11.5002 586 11.5002H589.5C591.1 11.5002 592.4 12.8003 592.4 14.4003V17.9003C592.4 19.5003 591.1 20.8003 589.5 20.8003Z" fill="#EEFF71"/>
<path d="M589.5 44.4001H586C584.4 44.4001 583.101 43.1001 583.101 41.5001V38.0001C583.101 36.4001 584.4 35.1001 586 35.1001H589.5C591.1 35.1001 592.4 36.4001 592.4 38.0001V41.5001C592.4 43.1001 591.1 44.4001 589.5 44.4001Z" fill="#EEFF71"/>
<path d="M589.5 67.9001H586C584.4 67.9001 583.101 66.6001 583.101 65.0001V61.5001C583.101 59.9001 584.4 58.6001 586 58.6001H589.5C591.1 58.6001 592.4 59.9001 592.4 61.5001V65.0001C592.4 66.6001 591.1 67.9001 589.5 67.9001Z" fill="#EEFF71"/>
<path d="M589.5 91.5002H586C584.4 91.5002 583.101 90.2002 583.101 88.6002V85.1002C583.101 83.5002 584.4 82.2002 586 82.2002H589.5C591.1 82.2002 592.4 83.5002 592.4 85.1002V88.6002C592.4 90.1002 591.1 91.5002 589.5 91.5002Z" fill="#EEFF71"/>
<path d="M589.5 115H586C584.4 115 583.101 113.7 583.101 112.1V108.6C583.101 107 584.4 105.7 586 105.7H589.5C591.1 105.7 592.4 107 592.4 108.6V112.1C592.4 113.7 591.1 115 589.5 115Z" fill="#EEFF71"/>
<path d="M589.5 138.5H586C584.4 138.5 583.101 137.2 583.101 135.6V132.1C583.101 130.5 584.4 129.2 586 129.2H589.5C591.1 129.2 592.4 130.5 592.4 132.1V135.6C592.4 137.2 591.1 138.5 589.5 138.5Z" fill="#EEFF71"/>
<path d="M589.5 162.1H586C584.4 162.1 583.101 160.8 583.101 159.2V155.7C583.101 154.1 584.4 152.8 586 152.8H589.5C591.1 152.8 592.4 154.1 592.4 155.7V159.2C592.4 160.8 591.1 162.1 589.5 162.1Z" fill="#EEFF71"/>
<path d="M589.5 185.6H586C584.4 185.6 583.101 184.3 583.101 182.7V179.2C583.101 177.6 584.4 176.3 586 176.3H589.5C591.1 176.3 592.4 177.6 592.4 179.2V182.7C592.4 184.3 591.1 185.6 589.5 185.6Z" fill="#EEFF71"/>
<path d="M589.5 209.2H586C584.4 209.2 583.101 207.9 583.101 206.3V202.8C583.101 201.2 584.4 199.9 586 199.9H589.5C591.1 199.9 592.4 201.2 592.4 202.8V206.3C592.4 207.8 591.1 209.2 589.5 209.2Z" fill="#EEFF71"/>
<path d="M589.5 232.7H586C584.4 232.7 583.101 231.4 583.101 229.8V226.3C583.101 224.7 584.4 223.4 586 223.4H589.5C591.1 223.4 592.4 224.7 592.4 226.3V229.8C592.4 231.4 591.1 232.7 589.5 232.7Z" fill="#EEFF71"/>
<path d="M589.5 256.2H586C584.4 256.2 583.101 254.9 583.101 253.3V249.8C583.101 248.2 584.4 246.9 586 246.9H589.5C591.1 246.9 592.4 248.2 592.4 249.8V253.3C592.4 254.9 591.1 256.2 589.5 256.2Z" fill="#EEFF71"/>
<path d="M589.5 279.8H586C584.4 279.8 583.101 278.5 583.101 276.9V273.4C583.101 271.8 584.4 270.5 586 270.5H589.5C591.1 270.5 592.4 271.8 592.4 273.4V276.9C592.4 278.5 591.1 279.8 589.5 279.8Z" fill="#EEFF71"/>
<path d="M589.5 303.3H586C584.4 303.3 583.101 302 583.101 300.4V296.9C583.101 295.3 584.4 294 586 294H589.5C591.1 294 592.4 295.3 592.4 296.9V300.4C592.4 302 591.1 303.3 589.5 303.3Z" fill="#EEFF71"/>
<path d="M589.5 326.9H586C584.4 326.9 583.101 325.6 583.101 324V320.5C583.101 318.9 584.4 317.6 586 317.6H589.5C591.1 317.6 592.4 318.9 592.4 320.5V324C592.4 325.5 591.1 326.9 589.5 326.9Z" fill="#EEFF71"/>
<path d="M606.801 8.90015H603.301C601.701 8.90015 600.4 7.60012 600.4 6.00012V2.50012C600.4 0.900122 601.701 -0.399902 603.301 -0.399902H606.801C608.401 -0.399902 609.7 0.900122 609.7 2.50012V6.00012C609.8 7.60012 608.501 8.90015 606.801 8.90015Z" fill="#EEFF71"/>
<path d="M606.801 32.4001H603.301C601.701 32.4001 600.4 31.1001 600.4 29.5001V26.0001C600.4 24.4001 601.701 23.1001 603.301 23.1001H606.801C608.401 23.1001 609.7 24.4001 609.7 26.0001V29.5001C609.8 31.1001 608.501 32.4001 606.801 32.4001Z" fill="#EEFF71"/>
<path d="M606.801 56.0002H603.301C601.701 56.0002 600.4 54.7002 600.4 53.1002V49.6002C600.4 48.0002 601.701 46.7002 603.301 46.7002H606.801C608.401 46.7002 609.7 48.0002 609.7 49.6002V53.1002C609.8 54.6002 608.501 56.0002 606.801 56.0002Z" fill="#EEFF71"/>
<path d="M606.801 79.5002H603.301C601.701 79.5002 600.4 78.2002 600.4 76.6002V73.1002C600.4 71.5002 601.701 70.2002 603.301 70.2002H606.801C608.401 70.2002 609.7 71.5002 609.7 73.1002V76.6002C609.8 78.2002 608.501 79.5002 606.801 79.5002Z" fill="#EEFF71"/>
<path d="M606.801 103H603.301C601.701 103 600.4 101.7 600.4 100.1V96.6002C600.4 95.0002 601.701 93.7002 603.301 93.7002H606.801C608.401 93.7002 609.7 95.0002 609.7 96.6002V100.1C609.8 101.7 608.501 103 606.801 103Z" fill="#EEFF71"/>
<path d="M606.801 126.6H603.301C601.701 126.6 600.4 125.3 600.4 123.7V120.2C600.4 118.6 601.701 117.3 603.301 117.3H606.801C608.401 117.3 609.7 118.6 609.7 120.2V123.7C609.8 125.3 608.501 126.6 606.801 126.6Z" fill="#EEFF71"/>
<path d="M606.801 150.1H603.301C601.701 150.1 600.4 148.8 600.4 147.2V143.7C600.4 142.1 601.701 140.8 603.301 140.8H606.801C608.401 140.8 609.7 142.1 609.7 143.7V147.2C609.8 148.8 608.501 150.1 606.801 150.1Z" fill="#EEFF71"/>
<path d="M606.801 173.7H603.301C601.701 173.7 600.4 172.4 600.4 170.8V167.3C600.4 165.7 601.701 164.4 603.301 164.4H606.801C608.401 164.4 609.7 165.7 609.7 167.3V170.8C609.8 172.3 608.501 173.7 606.801 173.7Z" fill="#EEFF71"/>
<path d="M606.801 197.2H603.301C601.701 197.2 600.4 195.9 600.4 194.3V190.8C600.4 189.2 601.701 187.9 603.301 187.9H606.801C608.401 187.9 609.7 189.2 609.7 190.8V194.3C609.8 195.9 608.501 197.2 606.801 197.2Z" fill="#EEFF71"/>
<path d="M606.801 220.7H603.301C601.701 220.7 600.4 219.4 600.4 217.8V214.3C600.4 212.7 601.701 211.4 603.301 211.4H606.801C608.401 211.4 609.7 212.7 609.7 214.3V217.8C609.8 219.4 608.501 220.7 606.801 220.7Z" fill="#EEFF71"/>
<path d="M606.801 244.3H603.301C601.701 244.3 600.4 243 600.4 241.4V237.9C600.4 236.3 601.701 235 603.301 235H606.801C608.401 235 609.7 236.3 609.7 237.9V241.4C609.8 243 608.501 244.3 606.801 244.3Z" fill="#EEFF71"/>
<path d="M606.801 267.8H603.301C601.701 267.8 600.4 266.5 600.4 264.9V261.4C600.4 259.8 601.701 258.5 603.301 258.5H606.801C608.401 258.5 609.7 259.8 609.7 261.4V264.9C609.8 266.5 608.501 267.8 606.801 267.8Z" fill="#EEFF71"/>
<path d="M606.801 291.4H603.301C601.701 291.4 600.4 290.1 600.4 288.5V285C600.4 283.4 601.701 282.1 603.301 282.1H606.801C608.401 282.1 609.7 283.4 609.7 285V288.5C609.8 290 608.501 291.4 606.801 291.4Z" fill="#EEFF71"/>
<path d="M606.801 314.9H603.301C601.701 314.9 600.4 313.6 600.4 312V308.5C600.4 306.9 601.701 305.6 603.301 305.6H606.801C608.401 305.6 609.7 306.9 609.7 308.5V312C609.8 313.6 608.501 314.9 606.801 314.9Z" fill="#EEFF71"/>
<path d="M606.801 338.4H603.301C601.701 338.4 600.4 337.1 600.4 335.5V332C600.4 330.4 601.701 329.1 603.301 329.1H606.801C608.401 329.1 609.7 330.4 609.7 332V335.5C609.8 337.1 608.501 338.4 606.801 338.4Z" fill="#EEFF71"/>
<path d="M623.6 20.8003H620.1C618.5 20.8003 617.2 19.5003 617.2 17.9003V14.4003C617.2 12.8003 618.5 11.5002 620.1 11.5002H623.6C625.2 11.5002 626.5 12.8003 626.5 14.4003V17.9003C626.5 19.5003 625.2 20.8003 623.6 20.8003Z" fill="#EEFF71"/>
<path d="M623.6 44.4001H620.1C618.5 44.4001 617.2 43.1001 617.2 41.5001V38.0001C617.2 36.4001 618.5 35.1001 620.1 35.1001H623.6C625.2 35.1001 626.5 36.4001 626.5 38.0001V41.5001C626.5 43.1001 625.2 44.4001 623.6 44.4001Z" fill="#EEFF71"/>
<path d="M623.6 67.9001H620.1C618.5 67.9001 617.2 66.6001 617.2 65.0001V61.5001C617.2 59.9001 618.5 58.6001 620.1 58.6001H623.6C625.2 58.6001 626.5 59.9001 626.5 61.5001V65.0001C626.5 66.6001 625.2 67.9001 623.6 67.9001Z" fill="#EEFF71"/>
<path d="M623.6 91.5002H620.1C618.5 91.5002 617.2 90.2002 617.2 88.6002V85.1002C617.2 83.5002 618.5 82.2002 620.1 82.2002H623.6C625.2 82.2002 626.5 83.5002 626.5 85.1002V88.6002C626.5 90.1002 625.2 91.5002 623.6 91.5002Z" fill="#EEFF71"/>
<path d="M623.6 115H620.1C618.5 115 617.2 113.7 617.2 112.1V108.6C617.2 107 618.5 105.7 620.1 105.7H623.6C625.2 105.7 626.5 107 626.5 108.6V112.1C626.5 113.7 625.2 115 623.6 115Z" fill="#EEFF71"/>
<path d="M623.6 138.5H620.1C618.5 138.5 617.2 137.2 617.2 135.6V132.1C617.2 130.5 618.5 129.2 620.1 129.2H623.6C625.2 129.2 626.5 130.5 626.5 132.1V135.6C626.5 137.2 625.2 138.5 623.6 138.5Z" fill="#EEFF71"/>
<path d="M623.6 162.1H620.1C618.5 162.1 617.2 160.8 617.2 159.2V155.7C617.2 154.1 618.5 152.8 620.1 152.8H623.6C625.2 152.8 626.5 154.1 626.5 155.7V159.2C626.5 160.8 625.2 162.1 623.6 162.1Z" fill="#EEFF71"/>
<path d="M623.6 185.6H620.1C618.5 185.6 617.2 184.3 617.2 182.7V179.2C617.2 177.6 618.5 176.3 620.1 176.3H623.6C625.2 176.3 626.5 177.6 626.5 179.2V182.7C626.5 184.3 625.2 185.6 623.6 185.6Z" fill="#EEFF71"/>
<path d="M623.6 209.2H620.1C618.5 209.2 617.2 207.9 617.2 206.3V202.8C617.2 201.2 618.5 199.9 620.1 199.9H623.6C625.2 199.9 626.5 201.2 626.5 202.8V206.3C626.5 207.8 625.2 209.2 623.6 209.2Z" fill="#EEFF71"/>
<path d="M623.6 232.7H620.1C618.5 232.7 617.2 231.4 617.2 229.8V226.3C617.2 224.7 618.5 223.4 620.1 223.4H623.6C625.2 223.4 626.5 224.7 626.5 226.3V229.8C626.5 231.4 625.2 232.7 623.6 232.7Z" fill="#EEFF71"/>
<path d="M623.6 256.2H620.1C618.5 256.2 617.2 254.9 617.2 253.3V249.8C617.2 248.2 618.5 246.9 620.1 246.9H623.6C625.2 246.9 626.5 248.2 626.5 249.8V253.3C626.5 254.9 625.2 256.2 623.6 256.2Z" fill="#EEFF71"/>
<path d="M623.6 279.8H620.1C618.5 279.8 617.2 278.5 617.2 276.9V273.4C617.2 271.8 618.5 270.5 620.1 270.5H623.6C625.2 270.5 626.5 271.8 626.5 273.4V276.9C626.5 278.5 625.2 279.8 623.6 279.8Z" fill="#EEFF71"/>
<path d="M623.6 303.3H620.1C618.5 303.3 617.2 302 617.2 300.4V296.9C617.2 295.3 618.5 294 620.1 294H623.6C625.2 294 626.5 295.3 626.5 296.9V300.4C626.5 302 625.2 303.3 623.6 303.3Z" fill="#EEFF71"/>
<path d="M623.6 326.9H620.1C618.5 326.9 617.2 325.6 617.2 324V320.5C617.2 318.9 618.5 317.6 620.1 317.6H623.6C625.2 317.6 626.5 318.9 626.5 320.5V324C626.5 325.5 625.2 326.9 623.6 326.9Z" fill="#EEFF71"/>
<path d="M640.9 8.90015H637.4C635.8 8.90015 634.5 7.60012 634.5 6.00012V2.50012C634.5 0.900122 635.8 -0.399902 637.4 -0.399902H640.9C642.5 -0.399902 643.8 0.900122 643.8 2.50012V6.00012C643.9 7.60012 642.6 8.90015 640.9 8.90015Z" fill="#EEFF71"/>
<path d="M640.9 32.4001H637.4C635.8 32.4001 634.5 31.1001 634.5 29.5001V26.0001C634.5 24.4001 635.8 23.1001 637.4 23.1001H640.9C642.5 23.1001 643.8 24.4001 643.8 26.0001V29.5001C643.9 31.1001 642.6 32.4001 640.9 32.4001Z" fill="#EEFF71"/>
<path d="M640.9 56.0002H637.4C635.8 56.0002 634.5 54.7002 634.5 53.1002V49.6002C634.5 48.0002 635.8 46.7002 637.4 46.7002H640.9C642.5 46.7002 643.8 48.0002 643.8 49.6002V53.1002C643.9 54.6002 642.6 56.0002 640.9 56.0002Z" fill="#EEFF71"/>
<path d="M640.9 79.5002H637.4C635.8 79.5002 634.5 78.2002 634.5 76.6002V73.1002C634.5 71.5002 635.8 70.2002 637.4 70.2002H640.9C642.5 70.2002 643.8 71.5002 643.8 73.1002V76.6002C643.9 78.2002 642.6 79.5002 640.9 79.5002Z" fill="#EEFF71"/>
<path d="M640.9 103H637.4C635.8 103 634.5 101.7 634.5 100.1V96.6002C634.5 95.0002 635.8 93.7002 637.4 93.7002H640.9C642.5 93.7002 643.8 95.0002 643.8 96.6002V100.1C643.9 101.7 642.6 103 640.9 103Z" fill="#EEFF71"/>
<path d="M640.9 126.6H637.4C635.8 126.6 634.5 125.3 634.5 123.7V120.2C634.5 118.6 635.8 117.3 637.4 117.3H640.9C642.5 117.3 643.8 118.6 643.8 120.2V123.7C643.9 125.3 642.6 126.6 640.9 126.6Z" fill="#EEFF71"/>
<path d="M640.9 150.1H637.4C635.8 150.1 634.5 148.8 634.5 147.2V143.7C634.5 142.1 635.8 140.8 637.4 140.8H640.9C642.5 140.8 643.8 142.1 643.8 143.7V147.2C643.9 148.8 642.6 150.1 640.9 150.1Z" fill="#EEFF71"/>
<path d="M640.9 173.7H637.4C635.8 173.7 634.5 172.4 634.5 170.8V167.3C634.5 165.7 635.8 164.4 637.4 164.4H640.9C642.5 164.4 643.8 165.7 643.8 167.3V170.8C643.9 172.3 642.6 173.7 640.9 173.7Z" fill="#EEFF71"/>
<path d="M640.9 197.2H637.4C635.8 197.2 634.5 195.9 634.5 194.3V190.8C634.5 189.2 635.8 187.9 637.4 187.9H640.9C642.5 187.9 643.8 189.2 643.8 190.8V194.3C643.9 195.9 642.6 197.2 640.9 197.2Z" fill="#EEFF71"/>
<path d="M640.9 220.7H637.4C635.8 220.7 634.5 219.4 634.5 217.8V214.3C634.5 212.7 635.8 211.4 637.4 211.4H640.9C642.5 211.4 643.8 212.7 643.8 214.3V217.8C643.9 219.4 642.6 220.7 640.9 220.7Z" fill="#EEFF71"/>
<path d="M640.9 244.3H637.4C635.8 244.3 634.5 243 634.5 241.4V237.9C634.5 236.3 635.8 235 637.4 235H640.9C642.5 235 643.8 236.3 643.8 237.9V241.4C643.9 243 642.6 244.3 640.9 244.3Z" fill="#EEFF71"/>
<path d="M640.9 267.8H637.4C635.8 267.8 634.5 266.5 634.5 264.9V261.4C634.5 259.8 635.8 258.5 637.4 258.5H640.9C642.5 258.5 643.8 259.8 643.8 261.4V264.9C643.9 266.5 642.6 267.8 640.9 267.8Z" fill="#EEFF71"/>
<path d="M640.9 291.4H637.4C635.8 291.4 634.5 290.1 634.5 288.5V285C634.5 283.4 635.8 282.1 637.4 282.1H640.9C642.5 282.1 643.8 283.4 643.8 285V288.5C643.9 290 642.6 291.4 640.9 291.4Z" fill="#EEFF71"/>
<path d="M640.9 314.9H637.4C635.8 314.9 634.5 313.6 634.5 312V308.5C634.5 306.9 635.8 305.6 637.4 305.6H640.9C642.5 305.6 643.8 306.9 643.8 308.5V312C643.9 313.6 642.6 314.9 640.9 314.9Z" fill="#EEFF71"/>
<path d="M640.9 338.4H637.4C635.8 338.4 634.5 337.1 634.5 335.5V332C634.5 330.4 635.8 329.1 637.4 329.1H640.9C642.5 329.1 643.8 330.4 643.8 332V335.5C643.9 337.1 642.6 338.4 640.9 338.4Z" fill="#EEFF71"/>
<path d="M657.6 20.8003H654.1C652.5 20.8003 651.2 19.5003 651.2 17.9003V14.4003C651.2 12.8003 652.5 11.5002 654.1 11.5002H657.6C659.2 11.5002 660.5 12.8003 660.5 14.4003V17.9003C660.6 19.5003 659.3 20.8003 657.6 20.8003Z" fill="#EEFF71"/>
<path d="M657.6 44.4001H654.1C652.5 44.4001 651.2 43.1001 651.2 41.5001V38.0001C651.2 36.4001 652.5 35.1001 654.1 35.1001H657.6C659.2 35.1001 660.5 36.4001 660.5 38.0001V41.5001C660.6 43.1001 659.3 44.4001 657.6 44.4001Z" fill="#EEFF71"/>
<path d="M657.6 67.9001H654.1C652.5 67.9001 651.2 66.6001 651.2 65.0001V61.5001C651.2 59.9001 652.5 58.6001 654.1 58.6001H657.6C659.2 58.6001 660.5 59.9001 660.5 61.5001V65.0001C660.6 66.6001 659.3 67.9001 657.6 67.9001Z" fill="#EEFF71"/>
<path d="M657.6 91.5002H654.1C652.5 91.5002 651.2 90.2002 651.2 88.6002V85.1002C651.2 83.5002 652.5 82.2002 654.1 82.2002H657.6C659.2 82.2002 660.5 83.5002 660.5 85.1002V88.6002C660.6 90.1002 659.3 91.5002 657.6 91.5002Z" fill="#EEFF71"/>
<path d="M657.6 115H654.1C652.5 115 651.2 113.7 651.2 112.1V108.6C651.2 107 652.5 105.7 654.1 105.7H657.6C659.2 105.7 660.5 107 660.5 108.6V112.1C660.6 113.7 659.3 115 657.6 115Z" fill="#EEFF71"/>
<path d="M657.6 138.5H654.1C652.5 138.5 651.2 137.2 651.2 135.6V132.1C651.2 130.5 652.5 129.2 654.1 129.2H657.6C659.2 129.2 660.5 130.5 660.5 132.1V135.6C660.6 137.2 659.3 138.5 657.6 138.5Z" fill="#EEFF71"/>
<path d="M657.6 162.1H654.1C652.5 162.1 651.2 160.8 651.2 159.2V155.7C651.2 154.1 652.5 152.8 654.1 152.8H657.6C659.2 152.8 660.5 154.1 660.5 155.7V159.2C660.6 160.8 659.3 162.1 657.6 162.1Z" fill="#EEFF71"/>
<path d="M657.6 185.6H654.1C652.5 185.6 651.2 184.3 651.2 182.7V179.2C651.2 177.6 652.5 176.3 654.1 176.3H657.6C659.2 176.3 660.5 177.6 660.5 179.2V182.7C660.6 184.3 659.3 185.6 657.6 185.6Z" fill="#EEFF71"/>
<path d="M657.6 209.2H654.1C652.5 209.2 651.2 207.9 651.2 206.3V202.8C651.2 201.2 652.5 199.9 654.1 199.9H657.6C659.2 199.9 660.5 201.2 660.5 202.8V206.3C660.6 207.8 659.3 209.2 657.6 209.2Z" fill="#EEFF71"/>
<path d="M657.6 232.7H654.1C652.5 232.7 651.2 231.4 651.2 229.8V226.3C651.2 224.7 652.5 223.4 654.1 223.4H657.6C659.2 223.4 660.5 224.7 660.5 226.3V229.8C660.6 231.4 659.3 232.7 657.6 232.7Z" fill="#EEFF71"/>
<path d="M657.6 256.2H654.1C652.5 256.2 651.2 254.9 651.2 253.3V249.8C651.2 248.2 652.5 246.9 654.1 246.9H657.6C659.2 246.9 660.5 248.2 660.5 249.8V253.3C660.6 254.9 659.3 256.2 657.6 256.2Z" fill="#EEFF71"/>
<path d="M657.6 279.8H654.1C652.5 279.8 651.2 278.5 651.2 276.9V273.4C651.2 271.8 652.5 270.5 654.1 270.5H657.6C659.2 270.5 660.5 271.8 660.5 273.4V276.9C660.6 278.5 659.3 279.8 657.6 279.8Z" fill="#EEFF71"/>
<path d="M657.6 303.3H654.1C652.5 303.3 651.2 302 651.2 300.4V296.9C651.2 295.3 652.5 294 654.1 294H657.6C659.2 294 660.5 295.3 660.5 296.9V300.4C660.6 302 659.3 303.3 657.6 303.3Z" fill="#EEFF71"/>
<path d="M657.6 326.9H654.1C652.5 326.9 651.2 325.6 651.2 324V320.5C651.2 318.9 652.5 317.6 654.1 317.6H657.6C659.2 317.6 660.5 318.9 660.5 320.5V324C660.6 325.5 659.3 326.9 657.6 326.9Z" fill="#EEFF71"/>
<path d="M675 8.90015H671.5C669.9 8.90015 668.601 7.60012 668.601 6.00012V2.50012C668.601 0.900122 669.9 -0.399902 671.5 -0.399902H675C676.6 -0.399902 677.9 0.900122 677.9 2.50012V6.00012C678 7.60012 676.6 8.90015 675 8.90015Z" fill="#EEFF71"/>
<path d="M675 32.4001H671.5C669.9 32.4001 668.601 31.1001 668.601 29.5001V26.0001C668.601 24.4001 669.9 23.1001 671.5 23.1001H675C676.6 23.1001 677.9 24.4001 677.9 26.0001V29.5001C678 31.1001 676.6 32.4001 675 32.4001Z" fill="#EEFF71"/>
<path d="M675 56.0002H671.5C669.9 56.0002 668.601 54.7002 668.601 53.1002V49.6002C668.601 48.0002 669.9 46.7002 671.5 46.7002H675C676.6 46.7002 677.9 48.0002 677.9 49.6002V53.1002C678 54.6002 676.6 56.0002 675 56.0002Z" fill="#EEFF71"/>
<path d="M675 79.5002H671.5C669.9 79.5002 668.601 78.2002 668.601 76.6002V73.1002C668.601 71.5002 669.9 70.2002 671.5 70.2002H675C676.6 70.2002 677.9 71.5002 677.9 73.1002V76.6002C678 78.2002 676.6 79.5002 675 79.5002Z" fill="#EEFF71"/>
<path d="M675 103H671.5C669.9 103 668.601 101.7 668.601 100.1V96.6002C668.601 95.0002 669.9 93.7002 671.5 93.7002H675C676.6 93.7002 677.9 95.0002 677.9 96.6002V100.1C678 101.7 676.6 103 675 103Z" fill="#EEFF71"/>
<path d="M675 126.6H671.5C669.9 126.6 668.601 125.3 668.601 123.7V120.2C668.601 118.6 669.9 117.3 671.5 117.3H675C676.6 117.3 677.9 118.6 677.9 120.2V123.7C678 125.3 676.6 126.6 675 126.6Z" fill="#EEFF71"/>
<path d="M675 150.1H671.5C669.9 150.1 668.601 148.8 668.601 147.2V143.7C668.601 142.1 669.9 140.8 671.5 140.8H675C676.6 140.8 677.9 142.1 677.9 143.7V147.2C678 148.8 676.6 150.1 675 150.1Z" fill="#EEFF71"/>
<path d="M675 173.7H671.5C669.9 173.7 668.601 172.4 668.601 170.8V167.3C668.601 165.7 669.9 164.4 671.5 164.4H675C676.6 164.4 677.9 165.7 677.9 167.3V170.8C678 172.3 676.6 173.7 675 173.7Z" fill="#EEFF71"/>
<path d="M675 197.2H671.5C669.9 197.2 668.601 195.9 668.601 194.3V190.8C668.601 189.2 669.9 187.9 671.5 187.9H675C676.6 187.9 677.9 189.2 677.9 190.8V194.3C678 195.9 676.6 197.2 675 197.2Z" fill="#EEFF71"/>
<path d="M675 220.7H671.5C669.9 220.7 668.601 219.4 668.601 217.8V214.3C668.601 212.7 669.9 211.4 671.5 211.4H675C676.6 211.4 677.9 212.7 677.9 214.3V217.8C678 219.4 676.6 220.7 675 220.7Z" fill="#EEFF71"/>
<path d="M675 244.3H671.5C669.9 244.3 668.601 243 668.601 241.4V237.9C668.601 236.3 669.9 235 671.5 235H675C676.6 235 677.9 236.3 677.9 237.9V241.4C678 243 676.6 244.3 675 244.3Z" fill="#EEFF71"/>
<path d="M675 267.8H671.5C669.9 267.8 668.601 266.5 668.601 264.9V261.4C668.601 259.8 669.9 258.5 671.5 258.5H675C676.6 258.5 677.9 259.8 677.9 261.4V264.9C678 266.5 676.6 267.8 675 267.8Z" fill="#EEFF71"/>
<path d="M675 291.4H671.5C669.9 291.4 668.601 290.1 668.601 288.5V285C668.601 283.4 669.9 282.1 671.5 282.1H675C676.6 282.1 677.9 283.4 677.9 285V288.5C678 290 676.6 291.4 675 291.4Z" fill="#EEFF71"/>
<path d="M675 314.9H671.5C669.9 314.9 668.601 313.6 668.601 312V308.5C668.601 306.9 669.9 305.6 671.5 305.6H675C676.6 305.6 677.9 306.9 677.9 308.5V312C678 313.6 676.6 314.9 675 314.9Z" fill="#EEFF71"/>
<path d="M675 338.4H671.5C669.9 338.4 668.601 337.1 668.601 335.5V332C668.601 330.4 669.9 329.1 671.5 329.1H675C676.6 329.1 677.9 330.4 677.9 332V335.5C678 337.1 676.6 338.4 675 338.4Z" fill="#EEFF71"/>
<path d="M691.7 20.8003H688.2C686.6 20.8003 685.3 19.5003 685.3 17.9003V14.4003C685.3 12.8003 686.6 11.5002 688.2 11.5002H691.7C693.3 11.5002 694.6 12.8003 694.6 14.4003V17.9003C694.7 19.5003 693.4 20.8003 691.7 20.8003Z" fill="#EEFF71"/>
<path d="M691.7 44.4001H688.2C686.6 44.4001 685.3 43.1001 685.3 41.5001V38.0001C685.3 36.4001 686.6 35.1001 688.2 35.1001H691.7C693.3 35.1001 694.6 36.4001 694.6 38.0001V41.5001C694.7 43.1001 693.4 44.4001 691.7 44.4001Z" fill="#EEFF71"/>
<path d="M691.7 67.9001H688.2C686.6 67.9001 685.3 66.6001 685.3 65.0001V61.5001C685.3 59.9001 686.6 58.6001 688.2 58.6001H691.7C693.3 58.6001 694.6 59.9001 694.6 61.5001V65.0001C694.7 66.6001 693.4 67.9001 691.7 67.9001Z" fill="#EEFF71"/>
<path d="M691.7 91.5002H688.2C686.6 91.5002 685.3 90.2002 685.3 88.6002V85.1002C685.3 83.5002 686.6 82.2002 688.2 82.2002H691.7C693.3 82.2002 694.6 83.5002 694.6 85.1002V88.6002C694.7 90.1002 693.4 91.5002 691.7 91.5002Z" fill="#EEFF71"/>
<path d="M691.7 115H688.2C686.6 115 685.3 113.7 685.3 112.1V108.6C685.3 107 686.6 105.7 688.2 105.7H691.7C693.3 105.7 694.6 107 694.6 108.6V112.1C694.7 113.7 693.4 115 691.7 115Z" fill="#EEFF71"/>
<path d="M691.7 138.5H688.2C686.6 138.5 685.3 137.2 685.3 135.6V132.1C685.3 130.5 686.6 129.2 688.2 129.2H691.7C693.3 129.2 694.6 130.5 694.6 132.1V135.6C694.7 137.2 693.4 138.5 691.7 138.5Z" fill="#EEFF71"/>
<path d="M691.7 162.1H688.2C686.6 162.1 685.3 160.8 685.3 159.2V155.7C685.3 154.1 686.6 152.8 688.2 152.8H691.7C693.3 152.8 694.6 154.1 694.6 155.7V159.2C694.7 160.8 693.4 162.1 691.7 162.1Z" fill="#EEFF71"/>
<path d="M691.7 185.6H688.2C686.6 185.6 685.3 184.3 685.3 182.7V179.2C685.3 177.6 686.6 176.3 688.2 176.3H691.7C693.3 176.3 694.6 177.6 694.6 179.2V182.7C694.7 184.3 693.4 185.6 691.7 185.6Z" fill="#EEFF71"/>
<path d="M691.7 209.2H688.2C686.6 209.2 685.3 207.9 685.3 206.3V202.8C685.3 201.2 686.6 199.9 688.2 199.9H691.7C693.3 199.9 694.6 201.2 694.6 202.8V206.3C694.7 207.8 693.4 209.2 691.7 209.2Z" fill="#EEFF71"/>
<path d="M691.7 232.7H688.2C686.6 232.7 685.3 231.4 685.3 229.8V226.3C685.3 224.7 686.6 223.4 688.2 223.4H691.7C693.3 223.4 694.6 224.7 694.6 226.3V229.8C694.7 231.4 693.4 232.7 691.7 232.7Z" fill="#EEFF71"/>
<path d="M691.7 256.2H688.2C686.6 256.2 685.3 254.9 685.3 253.3V249.8C685.3 248.2 686.6 246.9 688.2 246.9H691.7C693.3 246.9 694.6 248.2 694.6 249.8V253.3C694.7 254.9 693.4 256.2 691.7 256.2Z" fill="#EEFF71"/>
<path d="M691.7 279.8H688.2C686.6 279.8 685.3 278.5 685.3 276.9V273.4C685.3 271.8 686.6 270.5 688.2 270.5H691.7C693.3 270.5 694.6 271.8 694.6 273.4V276.9C694.7 278.5 693.4 279.8 691.7 279.8Z" fill="#EEFF71"/>
<path d="M691.7 303.3H688.2C686.6 303.3 685.3 302 685.3 300.4V296.9C685.3 295.3 686.6 294 688.2 294H691.7C693.3 294 694.6 295.3 694.6 296.9V300.4C694.7 302 693.4 303.3 691.7 303.3Z" fill="#EEFF71"/>
<path d="M691.7 326.9H688.2C686.6 326.9 685.3 325.6 685.3 324V320.5C685.3 318.9 686.6 317.6 688.2 317.6H691.7C693.3 317.6 694.6 318.9 694.6 320.5V324C694.7 325.5 693.4 326.9 691.7 326.9Z" fill="#EEFF71"/>
<path d="M709.1 8.90015H705.6C704 8.90015 702.7 7.60012 702.7 6.00012V2.50012C702.7 0.900122 704 -0.399902 705.6 -0.399902H709.1C710.7 -0.399902 712 0.900122 712 2.50012V6.00012C712 7.60012 710.7 8.90015 709.1 8.90015Z" fill="#EEFF71"/>
<path d="M709.1 32.4001H705.6C704 32.4001 702.7 31.1001 702.7 29.5001V26.0001C702.7 24.4001 704 23.1001 705.6 23.1001H709.1C710.7 23.1001 712 24.4001 712 26.0001V29.5001C712 31.1001 710.7 32.4001 709.1 32.4001Z" fill="#EEFF71"/>
<path d="M709.1 56.0002H705.6C704 56.0002 702.7 54.7002 702.7 53.1002V49.6002C702.7 48.0002 704 46.7002 705.6 46.7002H709.1C710.7 46.7002 712 48.0002 712 49.6002V53.1002C712 54.6002 710.7 56.0002 709.1 56.0002Z" fill="#EEFF71"/>
<path d="M709.1 79.5002H705.6C704 79.5002 702.7 78.2002 702.7 76.6002V73.1002C702.7 71.5002 704 70.2002 705.6 70.2002H709.1C710.7 70.2002 712 71.5002 712 73.1002V76.6002C712 78.2002 710.7 79.5002 709.1 79.5002Z" fill="#EEFF71"/>
<path d="M709.1 103H705.6C704 103 702.7 101.7 702.7 100.1V96.6002C702.7 95.0002 704 93.7002 705.6 93.7002H709.1C710.7 93.7002 712 95.0002 712 96.6002V100.1C712 101.7 710.7 103 709.1 103Z" fill="#EEFF71"/>
<path d="M709.1 126.6H705.6C704 126.6 702.7 125.3 702.7 123.7V120.2C702.7 118.6 704 117.3 705.6 117.3H709.1C710.7 117.3 712 118.6 712 120.2V123.7C712 125.3 710.7 126.6 709.1 126.6Z" fill="#EEFF71"/>
<path d="M709.1 150.1H705.6C704 150.1 702.7 148.8 702.7 147.2V143.7C702.7 142.1 704 140.8 705.6 140.8H709.1C710.7 140.8 712 142.1 712 143.7V147.2C712 148.8 710.7 150.1 709.1 150.1Z" fill="#EEFF71"/>
<path d="M709.1 173.7H705.6C704 173.7 702.7 172.4 702.7 170.8V167.3C702.7 165.7 704 164.4 705.6 164.4H709.1C710.7 164.4 712 165.7 712 167.3V170.8C712 172.3 710.7 173.7 709.1 173.7Z" fill="#EEFF71"/>
<path d="M709.1 197.2H705.6C704 197.2 702.7 195.9 702.7 194.3V190.8C702.7 189.2 704 187.9 705.6 187.9H709.1C710.7 187.9 712 189.2 712 190.8V194.3C712 195.9 710.7 197.2 709.1 197.2Z" fill="#EEFF71"/>
<path d="M709.1 220.7H705.6C704 220.7 702.7 219.4 702.7 217.8V214.3C702.7 212.7 704 211.4 705.6 211.4H709.1C710.7 211.4 712 212.7 712 214.3V217.8C712 219.4 710.7 220.7 709.1 220.7Z" fill="#EEFF71"/>
<path d="M709.1 244.3H705.6C704 244.3 702.7 243 702.7 241.4V237.9C702.7 236.3 704 235 705.6 235H709.1C710.7 235 712 236.3 712 237.9V241.4C712 243 710.7 244.3 709.1 244.3Z" fill="#EEFF71"/>
<path d="M709.1 267.8H705.6C704 267.8 702.7 266.5 702.7 264.9V261.4C702.7 259.8 704 258.5 705.6 258.5H709.1C710.7 258.5 712 259.8 712 261.4V264.9C712 266.5 710.7 267.8 709.1 267.8Z" fill="#EEFF71"/>
<path d="M709.1 291.4H705.6C704 291.4 702.7 290.1 702.7 288.5V285C702.7 283.4 704 282.1 705.6 282.1H709.1C710.7 282.1 712 283.4 712 285V288.5C712 290 710.7 291.4 709.1 291.4Z" fill="#EEFF71"/>
<path d="M709.1 314.9H705.6C704 314.9 702.7 313.6 702.7 312V308.5C702.7 306.9 704 305.6 705.6 305.6H709.1C710.7 305.6 712 306.9 712 308.5V312C712 313.6 710.7 314.9 709.1 314.9Z" fill="#EEFF71"/>
<path d="M709.1 338.4H705.6C704 338.4 702.7 337.1 702.7 335.5V332C702.7 330.4 704 329.1 705.6 329.1H709.1C710.7 329.1 712 330.4 712 332V335.5C712 337.1 710.7 338.4 709.1 338.4Z" fill="#EEFF71"/>
<path d="M725.801 20.8003H722.301C720.701 20.8003 719.4 19.5003 719.4 17.9003V14.4003C719.4 12.8003 720.701 11.5002 722.301 11.5002H725.801C727.401 11.5002 728.7 12.8003 728.7 14.4003V17.9003C728.8 19.5003 727.401 20.8003 725.801 20.8003Z" fill="#EEFF71"/>
<path d="M725.801 44.4001H722.301C720.701 44.4001 719.4 43.1001 719.4 41.5001V38.0001C719.4 36.4001 720.701 35.1001 722.301 35.1001H725.801C727.401 35.1001 728.7 36.4001 728.7 38.0001V41.5001C728.8 43.1001 727.401 44.4001 725.801 44.4001Z" fill="#EEFF71"/>
<path d="M725.801 67.9001H722.301C720.701 67.9001 719.4 66.6001 719.4 65.0001V61.5001C719.4 59.9001 720.701 58.6001 722.301 58.6001H725.801C727.401 58.6001 728.7 59.9001 728.7 61.5001V65.0001C728.8 66.6001 727.401 67.9001 725.801 67.9001Z" fill="#EEFF71"/>
<path d="M725.801 91.5002H722.301C720.701 91.5002 719.4 90.2002 719.4 88.6002V85.1002C719.4 83.5002 720.701 82.2002 722.301 82.2002H725.801C727.401 82.2002 728.7 83.5002 728.7 85.1002V88.6002C728.8 90.1002 727.401 91.5002 725.801 91.5002Z" fill="#EEFF71"/>
<path d="M725.801 115H722.301C720.701 115 719.4 113.7 719.4 112.1V108.6C719.4 107 720.701 105.7 722.301 105.7H725.801C727.401 105.7 728.7 107 728.7 108.6V112.1C728.8 113.7 727.401 115 725.801 115Z" fill="#EEFF71"/>
<path d="M725.801 138.5H722.301C720.701 138.5 719.4 137.2 719.4 135.6V132.1C719.4 130.5 720.701 129.2 722.301 129.2H725.801C727.401 129.2 728.7 130.5 728.7 132.1V135.6C728.8 137.2 727.401 138.5 725.801 138.5Z" fill="#EEFF71"/>
<path d="M725.801 162.1H722.301C720.701 162.1 719.4 160.8 719.4 159.2V155.7C719.4 154.1 720.701 152.8 722.301 152.8H725.801C727.401 152.8 728.7 154.1 728.7 155.7V159.2C728.8 160.8 727.401 162.1 725.801 162.1Z" fill="#EEFF71"/>
<path d="M725.801 185.6H722.301C720.701 185.6 719.4 184.3 719.4 182.7V179.2C719.4 177.6 720.701 176.3 722.301 176.3H725.801C727.401 176.3 728.7 177.6 728.7 179.2V182.7C728.8 184.3 727.401 185.6 725.801 185.6Z" fill="#EEFF71"/>
<path d="M725.801 209.2H722.301C720.701 209.2 719.4 207.9 719.4 206.3V202.8C719.4 201.2 720.701 199.9 722.301 199.9H725.801C727.401 199.9 728.7 201.2 728.7 202.8V206.3C728.8 207.8 727.401 209.2 725.801 209.2Z" fill="#EEFF71"/>
<path d="M725.801 232.7H722.301C720.701 232.7 719.4 231.4 719.4 229.8V226.3C719.4 224.7 720.701 223.4 722.301 223.4H725.801C727.401 223.4 728.7 224.7 728.7 226.3V229.8C728.8 231.4 727.401 232.7 725.801 232.7Z" fill="#EEFF71"/>
<path d="M725.801 256.2H722.301C720.701 256.2 719.4 254.9 719.4 253.3V249.8C719.4 248.2 720.701 246.9 722.301 246.9H725.801C727.401 246.9 728.7 248.2 728.7 249.8V253.3C728.8 254.9 727.401 256.2 725.801 256.2Z" fill="#EEFF71"/>
<path d="M725.801 279.8H722.301C720.701 279.8 719.4 278.5 719.4 276.9V273.4C719.4 271.8 720.701 270.5 722.301 270.5H725.801C727.401 270.5 728.7 271.8 728.7 273.4V276.9C728.8 278.5 727.401 279.8 725.801 279.8Z" fill="#EEFF71"/>
<path d="M725.801 303.3H722.301C720.701 303.3 719.4 302 719.4 300.4V296.9C719.4 295.3 720.701 294 722.301 294H725.801C727.401 294 728.7 295.3 728.7 296.9V300.4C728.8 302 727.401 303.3 725.801 303.3Z" fill="#EEFF71"/>
<path d="M725.801 326.9H722.301C720.701 326.9 719.4 325.6 719.4 324V320.5C719.4 318.9 720.701 317.6 722.301 317.6H725.801C727.401 317.6 728.7 318.9 728.7 320.5V324C728.8 325.5 727.401 326.9 725.801 326.9Z" fill="#EEFF71"/>
<path d="M743.2 8.90015H739.7C738.1 8.90015 736.8 7.60012 736.8 6.00012V2.50012C736.8 0.900122 738.1 -0.399902 739.7 -0.399902H743.2C744.8 -0.399902 746.1 0.900122 746.1 2.50012V6.00012C746.1 7.60012 744.8 8.90015 743.2 8.90015Z" fill="#EEFF71"/>
<path d="M743.2 32.4001H739.7C738.1 32.4001 736.8 31.1001 736.8 29.5001V26.0001C736.8 24.4001 738.1 23.1001 739.7 23.1001H743.2C744.8 23.1001 746.1 24.4001 746.1 26.0001V29.5001C746.1 31.1001 744.8 32.4001 743.2 32.4001Z" fill="#EEFF71"/>
<path d="M743.2 56.0002H739.7C738.1 56.0002 736.8 54.7002 736.8 53.1002V49.6002C736.8 48.0002 738.1 46.7002 739.7 46.7002H743.2C744.8 46.7002 746.1 48.0002 746.1 49.6002V53.1002C746.1 54.6002 744.8 56.0002 743.2 56.0002Z" fill="#EEFF71"/>
<path d="M743.2 79.5002H739.7C738.1 79.5002 736.8 78.2002 736.8 76.6002V73.1002C736.8 71.5002 738.1 70.2002 739.7 70.2002H743.2C744.8 70.2002 746.1 71.5002 746.1 73.1002V76.6002C746.1 78.2002 744.8 79.5002 743.2 79.5002Z" fill="#EEFF71"/>
<path d="M743.2 103H739.7C738.1 103 736.8 101.7 736.8 100.1V96.6002C736.8 95.0002 738.1 93.7002 739.7 93.7002H743.2C744.8 93.7002 746.1 95.0002 746.1 96.6002V100.1C746.1 101.7 744.8 103 743.2 103Z" fill="#EEFF71"/>
<path d="M743.2 126.6H739.7C738.1 126.6 736.8 125.3 736.8 123.7V120.2C736.8 118.6 738.1 117.3 739.7 117.3H743.2C744.8 117.3 746.1 118.6 746.1 120.2V123.7C746.1 125.3 744.8 126.6 743.2 126.6Z" fill="#EEFF71"/>
<path d="M743.2 150.1H739.7C738.1 150.1 736.8 148.8 736.8 147.2V143.7C736.8 142.1 738.1 140.8 739.7 140.8H743.2C744.8 140.8 746.1 142.1 746.1 143.7V147.2C746.1 148.8 744.8 150.1 743.2 150.1Z" fill="#EEFF71"/>
<path d="M743.2 173.7H739.7C738.1 173.7 736.8 172.4 736.8 170.8V167.3C736.8 165.7 738.1 164.4 739.7 164.4H743.2C744.8 164.4 746.1 165.7 746.1 167.3V170.8C746.1 172.3 744.8 173.7 743.2 173.7Z" fill="#EEFF71"/>
<path d="M743.2 197.2H739.7C738.1 197.2 736.8 195.9 736.8 194.3V190.8C736.8 189.2 738.1 187.9 739.7 187.9H743.2C744.8 187.9 746.1 189.2 746.1 190.8V194.3C746.1 195.9 744.8 197.2 743.2 197.2Z" fill="#EEFF71"/>
<path d="M743.2 220.7H739.7C738.1 220.7 736.8 219.4 736.8 217.8V214.3C736.8 212.7 738.1 211.4 739.7 211.4H743.2C744.8 211.4 746.1 212.7 746.1 214.3V217.8C746.1 219.4 744.8 220.7 743.2 220.7Z" fill="#EEFF71"/>
<path d="M743.2 244.3H739.7C738.1 244.3 736.8 243 736.8 241.4V237.9C736.8 236.3 738.1 235 739.7 235H743.2C744.8 235 746.1 236.3 746.1 237.9V241.4C746.1 243 744.8 244.3 743.2 244.3Z" fill="#EEFF71"/>
<path d="M743.2 267.8H739.7C738.1 267.8 736.8 266.5 736.8 264.9V261.4C736.8 259.8 738.1 258.5 739.7 258.5H743.2C744.8 258.5 746.1 259.8 746.1 261.4V264.9C746.1 266.5 744.8 267.8 743.2 267.8Z" fill="#EEFF71"/>
<path d="M743.2 291.4H739.7C738.1 291.4 736.8 290.1 736.8 288.5V285C736.8 283.4 738.1 282.1 739.7 282.1H743.2C744.8 282.1 746.1 283.4 746.1 285V288.5C746.1 290 744.8 291.4 743.2 291.4Z" fill="#EEFF71"/>
<path d="M743.2 314.9H739.7C738.1 314.9 736.8 313.6 736.8 312V308.5C736.8 306.9 738.1 305.6 739.7 305.6H743.2C744.8 305.6 746.1 306.9 746.1 308.5V312C746.1 313.6 744.8 314.9 743.2 314.9Z" fill="#EEFF71"/>
<path d="M743.2 338.4H739.7C738.1 338.4 736.8 337.1 736.8 335.5V332C736.8 330.4 738.1 329.1 739.7 329.1H743.2C744.8 329.1 746.1 330.4 746.1 332V335.5C746.1 337.1 744.8 338.4 743.2 338.4Z" fill="#EEFF71"/>
<path d="M759.9 20.8003H756.4C754.8 20.8003 753.5 19.5003 753.5 17.9003V14.4003C753.5 12.8003 754.8 11.5002 756.4 11.5002H759.9C761.5 11.5002 762.8 12.8003 762.8 14.4003V17.9003C762.8 19.5003 761.5 20.8003 759.9 20.8003Z" fill="#EEFF71"/>
<path d="M759.9 44.4001H756.4C754.8 44.4001 753.5 43.1001 753.5 41.5001V38.0001C753.5 36.4001 754.8 35.1001 756.4 35.1001H759.9C761.5 35.1001 762.8 36.4001 762.8 38.0001V41.5001C762.8 43.1001 761.5 44.4001 759.9 44.4001Z" fill="#EEFF71"/>
<path d="M759.9 67.9001H756.4C754.8 67.9001 753.5 66.6001 753.5 65.0001V61.5001C753.5 59.9001 754.8 58.6001 756.4 58.6001H759.9C761.5 58.6001 762.8 59.9001 762.8 61.5001V65.0001C762.8 66.6001 761.5 67.9001 759.9 67.9001Z" fill="#EEFF71"/>
<path d="M759.9 91.5002H756.4C754.8 91.5002 753.5 90.2002 753.5 88.6002V85.1002C753.5 83.5002 754.8 82.2002 756.4 82.2002H759.9C761.5 82.2002 762.8 83.5002 762.8 85.1002V88.6002C762.8 90.1002 761.5 91.5002 759.9 91.5002Z" fill="#EEFF71"/>
<path d="M759.9 115H756.4C754.8 115 753.5 113.7 753.5 112.1V108.6C753.5 107 754.8 105.7 756.4 105.7H759.9C761.5 105.7 762.8 107 762.8 108.6V112.1C762.8 113.7 761.5 115 759.9 115Z" fill="#EEFF71"/>
<path d="M759.9 138.5H756.4C754.8 138.5 753.5 137.2 753.5 135.6V132.1C753.5 130.5 754.8 129.2 756.4 129.2H759.9C761.5 129.2 762.8 130.5 762.8 132.1V135.6C762.8 137.2 761.5 138.5 759.9 138.5Z" fill="#EEFF71"/>
<path d="M759.9 162.1H756.4C754.8 162.1 753.5 160.8 753.5 159.2V155.7C753.5 154.1 754.8 152.8 756.4 152.8H759.9C761.5 152.8 762.8 154.1 762.8 155.7V159.2C762.8 160.8 761.5 162.1 759.9 162.1Z" fill="#EEFF71"/>
<path d="M759.9 185.6H756.4C754.8 185.6 753.5 184.3 753.5 182.7V179.2C753.5 177.6 754.8 176.3 756.4 176.3H759.9C761.5 176.3 762.8 177.6 762.8 179.2V182.7C762.8 184.3 761.5 185.6 759.9 185.6Z" fill="#EEFF71"/>
<path d="M759.9 209.2H756.4C754.8 209.2 753.5 207.9 753.5 206.3V202.8C753.5 201.2 754.8 199.9 756.4 199.9H759.9C761.5 199.9 762.8 201.2 762.8 202.8V206.3C762.8 207.8 761.5 209.2 759.9 209.2Z" fill="#EEFF71"/>
<path d="M759.9 232.7H756.4C754.8 232.7 753.5 231.4 753.5 229.8V226.3C753.5 224.7 754.8 223.4 756.4 223.4H759.9C761.5 223.4 762.8 224.7 762.8 226.3V229.8C762.8 231.4 761.5 232.7 759.9 232.7Z" fill="#EEFF71"/>
<path d="M759.9 256.2H756.4C754.8 256.2 753.5 254.9 753.5 253.3V249.8C753.5 248.2 754.8 246.9 756.4 246.9H759.9C761.5 246.9 762.8 248.2 762.8 249.8V253.3C762.8 254.9 761.5 256.2 759.9 256.2Z" fill="#EEFF71"/>
<path d="M759.9 279.8H756.4C754.8 279.8 753.5 278.5 753.5 276.9V273.4C753.5 271.8 754.8 270.5 756.4 270.5H759.9C761.5 270.5 762.8 271.8 762.8 273.4V276.9C762.8 278.5 761.5 279.8 759.9 279.8Z" fill="#EEFF71"/>
<path d="M759.9 303.3H756.4C754.8 303.3 753.5 302 753.5 300.4V296.9C753.5 295.3 754.8 294 756.4 294H759.9C761.5 294 762.8 295.3 762.8 296.9V300.4C762.8 302 761.5 303.3 759.9 303.3Z" fill="#EEFF71"/>
<path d="M759.9 326.9H756.4C754.8 326.9 753.5 325.6 753.5 324V320.5C753.5 318.9 754.8 317.6 756.4 317.6H759.9C761.5 317.6 762.8 318.9 762.8 320.5V324C762.8 325.5 761.5 326.9 759.9 326.9Z" fill="#EEFF71"/>
<path d="M777.301 8.90015H773.801C772.201 8.90015 770.9 7.60012 770.9 6.00012V2.50012C770.9 0.900122 772.201 -0.399902 773.801 -0.399902H777.301C778.901 -0.399902 780.2 0.900122 780.2 2.50012V6.00012C780.2 7.60012 778.901 8.90015 777.301 8.90015Z" fill="#EEFF71"/>
<path d="M777.301 32.4001H773.801C772.201 32.4001 770.9 31.1001 770.9 29.5001V26.0001C770.9 24.4001 772.201 23.1001 773.801 23.1001H777.301C778.901 23.1001 780.2 24.4001 780.2 26.0001V29.5001C780.2 31.1001 778.901 32.4001 777.301 32.4001Z" fill="#EEFF71"/>
<path d="M777.301 56.0002H773.801C772.201 56.0002 770.9 54.7002 770.9 53.1002V49.6002C770.9 48.0002 772.201 46.7002 773.801 46.7002H777.301C778.901 46.7002 780.2 48.0002 780.2 49.6002V53.1002C780.2 54.6002 778.901 56.0002 777.301 56.0002Z" fill="#EEFF71"/>
<path d="M777.301 79.5002H773.801C772.201 79.5002 770.9 78.2002 770.9 76.6002V73.1002C770.9 71.5002 772.201 70.2002 773.801 70.2002H777.301C778.901 70.2002 780.2 71.5002 780.2 73.1002V76.6002C780.2 78.2002 778.901 79.5002 777.301 79.5002Z" fill="#EEFF71"/>
<path d="M777.301 103H773.801C772.201 103 770.9 101.7 770.9 100.1V96.6002C770.9 95.0002 772.201 93.7002 773.801 93.7002H777.301C778.901 93.7002 780.2 95.0002 780.2 96.6002V100.1C780.2 101.7 778.901 103 777.301 103Z" fill="#EEFF71"/>
<path d="M777.301 126.6H773.801C772.201 126.6 770.9 125.3 770.9 123.7V120.2C770.9 118.6 772.201 117.3 773.801 117.3H777.301C778.901 117.3 780.2 118.6 780.2 120.2V123.7C780.2 125.3 778.901 126.6 777.301 126.6Z" fill="#EEFF71"/>
<path d="M777.301 150.1H773.801C772.201 150.1 770.9 148.8 770.9 147.2V143.7C770.9 142.1 772.201 140.8 773.801 140.8H777.301C778.901 140.8 780.2 142.1 780.2 143.7V147.2C780.2 148.8 778.901 150.1 777.301 150.1Z" fill="#EEFF71"/>
<path d="M777.301 173.7H773.801C772.201 173.7 770.9 172.4 770.9 170.8V167.3C770.9 165.7 772.201 164.4 773.801 164.4H777.301C778.901 164.4 780.2 165.7 780.2 167.3V170.8C780.2 172.3 778.901 173.7 777.301 173.7Z" fill="#EEFF71"/>
<path d="M777.301 197.2H773.801C772.201 197.2 770.9 195.9 770.9 194.3V190.8C770.9 189.2 772.201 187.9 773.801 187.9H777.301C778.901 187.9 780.2 189.2 780.2 190.8V194.3C780.2 195.9 778.901 197.2 777.301 197.2Z" fill="#EEFF71"/>
<path d="M777.301 220.7H773.801C772.201 220.7 770.9 219.4 770.9 217.8V214.3C770.9 212.7 772.201 211.4 773.801 211.4H777.301C778.901 211.4 780.2 212.7 780.2 214.3V217.8C780.2 219.4 778.901 220.7 777.301 220.7Z" fill="#EEFF71"/>
<path d="M777.301 244.3H773.801C772.201 244.3 770.9 243 770.9 241.4V237.9C770.9 236.3 772.201 235 773.801 235H777.301C778.901 235 780.2 236.3 780.2 237.9V241.4C780.2 243 778.901 244.3 777.301 244.3Z" fill="#EEFF71"/>
<path d="M777.301 267.8H773.801C772.201 267.8 770.9 266.5 770.9 264.9V261.4C770.9 259.8 772.201 258.5 773.801 258.5H777.301C778.901 258.5 780.2 259.8 780.2 261.4V264.9C780.2 266.5 778.901 267.8 777.301 267.8Z" fill="#EEFF71"/>
<path d="M777.301 291.4H773.801C772.201 291.4 770.9 290.1 770.9 288.5V285C770.9 283.4 772.201 282.1 773.801 282.1H777.301C778.901 282.1 780.2 283.4 780.2 285V288.5C780.2 290 778.901 291.4 777.301 291.4Z" fill="#EEFF71"/>
<path d="M777.301 314.9H773.801C772.201 314.9 770.9 313.6 770.9 312V308.5C770.9 306.9 772.201 305.6 773.801 305.6H777.301C778.901 305.6 780.2 306.9 780.2 308.5V312C780.2 313.6 778.901 314.9 777.301 314.9Z" fill="#EEFF71"/>
<path d="M777.301 338.4H773.801C772.201 338.4 770.9 337.1 770.9 335.5V332C770.9 330.4 772.201 329.1 773.801 329.1H777.301C778.901 329.1 780.2 330.4 780.2 332V335.5C780.2 337.1 778.901 338.4 777.301 338.4Z" fill="#EEFF71"/>
<path d="M794 20.8003H790.5C788.9 20.8003 787.601 19.5003 787.601 17.9003V14.4003C787.601 12.8003 788.9 11.5002 790.5 11.5002H794C795.6 11.5002 796.9 12.8003 796.9 14.4003V17.9003C796.9 19.5003 795.6 20.8003 794 20.8003Z" fill="#EEFF71"/>
<path d="M794 44.4001H790.5C788.9 44.4001 787.601 43.1001 787.601 41.5001V38.0001C787.601 36.4001 788.9 35.1001 790.5 35.1001H794C795.6 35.1001 796.9 36.4001 796.9 38.0001V41.5001C796.9 43.1001 795.6 44.4001 794 44.4001Z" fill="#EEFF71"/>
<path d="M794 67.9001H790.5C788.9 67.9001 787.601 66.6001 787.601 65.0001V61.5001C787.601 59.9001 788.9 58.6001 790.5 58.6001H794C795.6 58.6001 796.9 59.9001 796.9 61.5001V65.0001C796.9 66.6001 795.6 67.9001 794 67.9001Z" fill="#EEFF71"/>
<path d="M794 91.5002H790.5C788.9 91.5002 787.601 90.2002 787.601 88.6002V85.1002C787.601 83.5002 788.9 82.2002 790.5 82.2002H794C795.6 82.2002 796.9 83.5002 796.9 85.1002V88.6002C796.9 90.1002 795.6 91.5002 794 91.5002Z" fill="#EEFF71"/>
<path d="M794 115H790.5C788.9 115 787.601 113.7 787.601 112.1V108.6C787.601 107 788.9 105.7 790.5 105.7H794C795.6 105.7 796.9 107 796.9 108.6V112.1C796.9 113.7 795.6 115 794 115Z" fill="#EEFF71"/>
<path d="M794 138.5H790.5C788.9 138.5 787.601 137.2 787.601 135.6V132.1C787.601 130.5 788.9 129.2 790.5 129.2H794C795.6 129.2 796.9 130.5 796.9 132.1V135.6C796.9 137.2 795.6 138.5 794 138.5Z" fill="#EEFF71"/>
<path d="M794 162.1H790.5C788.9 162.1 787.601 160.8 787.601 159.2V155.7C787.601 154.1 788.9 152.8 790.5 152.8H794C795.6 152.8 796.9 154.1 796.9 155.7V159.2C796.9 160.8 795.6 162.1 794 162.1Z" fill="#EEFF71"/>
<path d="M794 185.6H790.5C788.9 185.6 787.601 184.3 787.601 182.7V179.2C787.601 177.6 788.9 176.3 790.5 176.3H794C795.6 176.3 796.9 177.6 796.9 179.2V182.7C796.9 184.3 795.6 185.6 794 185.6Z" fill="#EEFF71"/>
<path d="M794 209.2H790.5C788.9 209.2 787.601 207.9 787.601 206.3V202.8C787.601 201.2 788.9 199.9 790.5 199.9H794C795.6 199.9 796.9 201.2 796.9 202.8V206.3C796.9 207.8 795.6 209.2 794 209.2Z" fill="#EEFF71"/>
<path d="M794 232.7H790.5C788.9 232.7 787.601 231.4 787.601 229.8V226.3C787.601 224.7 788.9 223.4 790.5 223.4H794C795.6 223.4 796.9 224.7 796.9 226.3V229.8C796.9 231.4 795.6 232.7 794 232.7Z" fill="#EEFF71"/>
<path d="M794 256.2H790.5C788.9 256.2 787.601 254.9 787.601 253.3V249.8C787.601 248.2 788.9 246.9 790.5 246.9H794C795.6 246.9 796.9 248.2 796.9 249.8V253.3C796.9 254.9 795.6 256.2 794 256.2Z" fill="#EEFF71"/>
<path d="M794 279.8H790.5C788.9 279.8 787.601 278.5 787.601 276.9V273.4C787.601 271.8 788.9 270.5 790.5 270.5H794C795.6 270.5 796.9 271.8 796.9 273.4V276.9C796.9 278.5 795.6 279.8 794 279.8Z" fill="#EEFF71"/>
<path d="M794 303.3H790.5C788.9 303.3 787.601 302 787.601 300.4V296.9C787.601 295.3 788.9 294 790.5 294H794C795.6 294 796.9 295.3 796.9 296.9V300.4C796.9 302 795.6 303.3 794 303.3Z" fill="#EEFF71"/>
<path d="M794 326.9H790.5C788.9 326.9 787.601 325.6 787.601 324V320.5C787.601 318.9 788.9 317.6 790.5 317.6H794C795.6 317.6 796.9 318.9 796.9 320.5V324C796.9 325.5 795.6 326.9 794 326.9Z" fill="#EEFF71"/>
<path d="M811.4 8.90015H807.9C806.3 8.90015 805 7.60012 805 6.00012V2.50012C805 0.900122 806.3 -0.399902 807.9 -0.399902H811.4C813 -0.399902 814.3 0.900122 814.3 2.50012V6.00012C814.3 7.60012 813 8.90015 811.4 8.90015Z" fill="#EEFF71"/>
<path d="M811.4 32.4001H807.9C806.3 32.4001 805 31.1001 805 29.5001V26.0001C805 24.4001 806.3 23.1001 807.9 23.1001H811.4C813 23.1001 814.3 24.4001 814.3 26.0001V29.5001C814.3 31.1001 813 32.4001 811.4 32.4001Z" fill="#EEFF71"/>
<path d="M811.4 56.0002H807.9C806.3 56.0002 805 54.7002 805 53.1002V49.6002C805 48.0002 806.3 46.7002 807.9 46.7002H811.4C813 46.7002 814.3 48.0002 814.3 49.6002V53.1002C814.3 54.6002 813 56.0002 811.4 56.0002Z" fill="#EEFF71"/>
<path d="M811.4 79.5002H807.9C806.3 79.5002 805 78.2002 805 76.6002V73.1002C805 71.5002 806.3 70.2002 807.9 70.2002H811.4C813 70.2002 814.3 71.5002 814.3 73.1002V76.6002C814.3 78.2002 813 79.5002 811.4 79.5002Z" fill="#EEFF71"/>
<path d="M811.4 103H807.9C806.3 103 805 101.7 805 100.1V96.6002C805 95.0002 806.3 93.7002 807.9 93.7002H811.4C813 93.7002 814.3 95.0002 814.3 96.6002V100.1C814.3 101.7 813 103 811.4 103Z" fill="#EEFF71"/>
<path d="M811.4 126.6H807.9C806.3 126.6 805 125.3 805 123.7V120.2C805 118.6 806.3 117.3 807.9 117.3H811.4C813 117.3 814.3 118.6 814.3 120.2V123.7C814.3 125.3 813 126.6 811.4 126.6Z" fill="#EEFF71"/>
<path d="M811.4 150.1H807.9C806.3 150.1 805 148.8 805 147.2V143.7C805 142.1 806.3 140.8 807.9 140.8H811.4C813 140.8 814.3 142.1 814.3 143.7V147.2C814.3 148.8 813 150.1 811.4 150.1Z" fill="#EEFF71"/>
<path d="M811.4 173.7H807.9C806.3 173.7 805 172.4 805 170.8V167.3C805 165.7 806.3 164.4 807.9 164.4H811.4C813 164.4 814.3 165.7 814.3 167.3V170.8C814.3 172.3 813 173.7 811.4 173.7Z" fill="#EEFF71"/>
<path d="M811.4 197.2H807.9C806.3 197.2 805 195.9 805 194.3V190.8C805 189.2 806.3 187.9 807.9 187.9H811.4C813 187.9 814.3 189.2 814.3 190.8V194.3C814.3 195.9 813 197.2 811.4 197.2Z" fill="#EEFF71"/>
<path d="M811.4 220.7H807.9C806.3 220.7 805 219.4 805 217.8V214.3C805 212.7 806.3 211.4 807.9 211.4H811.4C813 211.4 814.3 212.7 814.3 214.3V217.8C814.3 219.4 813 220.7 811.4 220.7Z" fill="#EEFF71"/>
<path d="M811.4 244.3H807.9C806.3 244.3 805 243 805 241.4V237.9C805 236.3 806.3 235 807.9 235H811.4C813 235 814.3 236.3 814.3 237.9V241.4C814.3 243 813 244.3 811.4 244.3Z" fill="#EEFF71"/>
<path d="M811.4 267.8H807.9C806.3 267.8 805 266.5 805 264.9V261.4C805 259.8 806.3 258.5 807.9 258.5H811.4C813 258.5 814.3 259.8 814.3 261.4V264.9C814.3 266.5 813 267.8 811.4 267.8Z" fill="#EEFF71"/>
<path d="M811.4 291.4H807.9C806.3 291.4 805 290.1 805 288.5V285C805 283.4 806.3 282.1 807.9 282.1H811.4C813 282.1 814.3 283.4 814.3 285V288.5C814.3 290 813 291.4 811.4 291.4Z" fill="#EEFF71"/>
<path d="M811.4 314.9H807.9C806.3 314.9 805 313.6 805 312V308.5C805 306.9 806.3 305.6 807.9 305.6H811.4C813 305.6 814.3 306.9 814.3 308.5V312C814.3 313.6 813 314.9 811.4 314.9Z" fill="#EEFF71"/>
<path d="M811.4 338.4H807.9C806.3 338.4 805 337.1 805 335.5V332C805 330.4 806.3 329.1 807.9 329.1H811.4C813 329.1 814.3 330.4 814.3 332V335.5C814.3 337.1 813 338.4 811.4 338.4Z" fill="#EEFF71"/>
<path d="M828.1 20.8003H824.6C823 20.8003 821.7 19.5003 821.7 17.9003V14.4003C821.7 12.8003 823 11.5002 824.6 11.5002H828.1C829.7 11.5002 831 12.8003 831 14.4003V17.9003C831 19.5003 829.7 20.8003 828.1 20.8003Z" fill="#EEFF71"/>
<path d="M828.1 44.4001H824.6C823 44.4001 821.7 43.1001 821.7 41.5001V38.0001C821.7 36.4001 823 35.1001 824.6 35.1001H828.1C829.7 35.1001 831 36.4001 831 38.0001V41.5001C831 43.1001 829.7 44.4001 828.1 44.4001Z" fill="#EEFF71"/>
<path d="M828.1 67.9001H824.6C823 67.9001 821.7 66.6001 821.7 65.0001V61.5001C821.7 59.9001 823 58.6001 824.6 58.6001H828.1C829.7 58.6001 831 59.9001 831 61.5001V65.0001C831 66.6001 829.7 67.9001 828.1 67.9001Z" fill="#EEFF71"/>
<path d="M828.1 91.5002H824.6C823 91.5002 821.7 90.2002 821.7 88.6002V85.1002C821.7 83.5002 823 82.2002 824.6 82.2002H828.1C829.7 82.2002 831 83.5002 831 85.1002V88.6002C831 90.1002 829.7 91.5002 828.1 91.5002Z" fill="#EEFF71"/>
<path d="M828.1 115H824.6C823 115 821.7 113.7 821.7 112.1V108.6C821.7 107 823 105.7 824.6 105.7H828.1C829.7 105.7 831 107 831 108.6V112.1C831 113.7 829.7 115 828.1 115Z" fill="#EEFF71"/>
<path d="M828.1 138.5H824.6C823 138.5 821.7 137.2 821.7 135.6V132.1C821.7 130.5 823 129.2 824.6 129.2H828.1C829.7 129.2 831 130.5 831 132.1V135.6C831 137.2 829.7 138.5 828.1 138.5Z" fill="#EEFF71"/>
<path d="M828.1 162.1H824.6C823 162.1 821.7 160.8 821.7 159.2V155.7C821.7 154.1 823 152.8 824.6 152.8H828.1C829.7 152.8 831 154.1 831 155.7V159.2C831 160.8 829.7 162.1 828.1 162.1Z" fill="#EEFF71"/>
<path d="M828.1 185.6H824.6C823 185.6 821.7 184.3 821.7 182.7V179.2C821.7 177.6 823 176.3 824.6 176.3H828.1C829.7 176.3 831 177.6 831 179.2V182.7C831 184.3 829.7 185.6 828.1 185.6Z" fill="#EEFF71"/>
<path d="M828.1 209.2H824.6C823 209.2 821.7 207.9 821.7 206.3V202.8C821.7 201.2 823 199.9 824.6 199.9H828.1C829.7 199.9 831 201.2 831 202.8V206.3C831 207.8 829.7 209.2 828.1 209.2Z" fill="#EEFF71"/>
<path d="M828.1 232.7H824.6C823 232.7 821.7 231.4 821.7 229.8V226.3C821.7 224.7 823 223.4 824.6 223.4H828.1C829.7 223.4 831 224.7 831 226.3V229.8C831 231.4 829.7 232.7 828.1 232.7Z" fill="#EEFF71"/>
<path d="M828.1 256.2H824.6C823 256.2 821.7 254.9 821.7 253.3V249.8C821.7 248.2 823 246.9 824.6 246.9H828.1C829.7 246.9 831 248.2 831 249.8V253.3C831 254.9 829.7 256.2 828.1 256.2Z" fill="#EEFF71"/>
<path d="M828.1 279.8H824.6C823 279.8 821.7 278.5 821.7 276.9V273.4C821.7 271.8 823 270.5 824.6 270.5H828.1C829.7 270.5 831 271.8 831 273.4V276.9C831 278.5 829.7 279.8 828.1 279.8Z" fill="#EEFF71"/>
<path d="M828.1 303.3H824.6C823 303.3 821.7 302 821.7 300.4V296.9C821.7 295.3 823 294 824.6 294H828.1C829.7 294 831 295.3 831 296.9V300.4C831 302 829.7 303.3 828.1 303.3Z" fill="#EEFF71"/>
<path d="M828.1 326.9H824.6C823 326.9 821.7 325.6 821.7 324V320.5C821.7 318.9 823 317.6 824.6 317.6H828.1C829.7 317.6 831 318.9 831 320.5V324C831 325.5 829.7 326.9 828.1 326.9Z" fill="#EEFF71"/>
<path d="M845.4 8.90015H841.9C840.3 8.90015 839 7.60012 839 6.00012V2.50012C839 0.900122 840.3 -0.399902 841.9 -0.399902H845.4C847 -0.399902 848.3 0.900122 848.3 2.50012V6.00012C848.4 7.60012 847.1 8.90015 845.4 8.90015Z" fill="#EEFF71"/>
<path d="M845.4 32.4001H841.9C840.3 32.4001 839 31.1001 839 29.5001V26.0001C839 24.4001 840.3 23.1001 841.9 23.1001H845.4C847 23.1001 848.3 24.4001 848.3 26.0001V29.5001C848.4 31.1001 847.1 32.4001 845.4 32.4001Z" fill="#EEFF71"/>
<path d="M845.4 56.0002H841.9C840.3 56.0002 839 54.7002 839 53.1002V49.6002C839 48.0002 840.3 46.7002 841.9 46.7002H845.4C847 46.7002 848.3 48.0002 848.3 49.6002V53.1002C848.4 54.6002 847.1 56.0002 845.4 56.0002Z" fill="#EEFF71"/>
<path d="M845.4 79.5002H841.9C840.3 79.5002 839 78.2002 839 76.6002V73.1002C839 71.5002 840.3 70.2002 841.9 70.2002H845.4C847 70.2002 848.3 71.5002 848.3 73.1002V76.6002C848.4 78.2002 847.1 79.5002 845.4 79.5002Z" fill="#EEFF71"/>
<path d="M845.4 103H841.9C840.3 103 839 101.7 839 100.1V96.6002C839 95.0002 840.3 93.7002 841.9 93.7002H845.4C847 93.7002 848.3 95.0002 848.3 96.6002V100.1C848.4 101.7 847.1 103 845.4 103Z" fill="#EEFF71"/>
<path d="M845.4 126.6H841.9C840.3 126.6 839 125.3 839 123.7V120.2C839 118.6 840.3 117.3 841.9 117.3H845.4C847 117.3 848.3 118.6 848.3 120.2V123.7C848.4 125.3 847.1 126.6 845.4 126.6Z" fill="#EEFF71"/>
<path d="M845.4 150.1H841.9C840.3 150.1 839 148.8 839 147.2V143.7C839 142.1 840.3 140.8 841.9 140.8H845.4C847 140.8 848.3 142.1 848.3 143.7V147.2C848.4 148.8 847.1 150.1 845.4 150.1Z" fill="#EEFF71"/>
<path d="M845.4 173.7H841.9C840.3 173.7 839 172.4 839 170.8V167.3C839 165.7 840.3 164.4 841.9 164.4H845.4C847 164.4 848.3 165.7 848.3 167.3V170.8C848.4 172.3 847.1 173.7 845.4 173.7Z" fill="#EEFF71"/>
<path d="M845.4 197.2H841.9C840.3 197.2 839 195.9 839 194.3V190.8C839 189.2 840.3 187.9 841.9 187.9H845.4C847 187.9 848.3 189.2 848.3 190.8V194.3C848.4 195.9 847.1 197.2 845.4 197.2Z" fill="#EEFF71"/>
<path d="M845.4 220.7H841.9C840.3 220.7 839 219.4 839 217.8V214.3C839 212.7 840.3 211.4 841.9 211.4H845.4C847 211.4 848.3 212.7 848.3 214.3V217.8C848.4 219.4 847.1 220.7 845.4 220.7Z" fill="#EEFF71"/>
<path d="M845.4 244.3H841.9C840.3 244.3 839 243 839 241.4V237.9C839 236.3 840.3 235 841.9 235H845.4C847 235 848.3 236.3 848.3 237.9V241.4C848.4 243 847.1 244.3 845.4 244.3Z" fill="#EEFF71"/>
<path d="M845.4 267.8H841.9C840.3 267.8 839 266.5 839 264.9V261.4C839 259.8 840.3 258.5 841.9 258.5H845.4C847 258.5 848.3 259.8 848.3 261.4V264.9C848.4 266.5 847.1 267.8 845.4 267.8Z" fill="#EEFF71"/>
<path d="M845.4 291.4H841.9C840.3 291.4 839 290.1 839 288.5V285C839 283.4 840.3 282.1 841.9 282.1H845.4C847 282.1 848.3 283.4 848.3 285V288.5C848.4 290 847.1 291.4 845.4 291.4Z" fill="#EEFF71"/>
<path d="M845.4 314.9H841.9C840.3 314.9 839 313.6 839 312V308.5C839 306.9 840.3 305.6 841.9 305.6H845.4C847 305.6 848.3 306.9 848.3 308.5V312C848.4 313.6 847.1 314.9 845.4 314.9Z" fill="#EEFF71"/>
<path d="M845.4 338.4H841.9C840.3 338.4 839 337.1 839 335.5V332C839 330.4 840.3 329.1 841.9 329.1H845.4C847 329.1 848.3 330.4 848.3 332V335.5C848.4 337.1 847.1 338.4 845.4 338.4Z" fill="#EEFF71"/>
<path d="M862.1 20.8003H858.6C857 20.8003 855.7 19.5003 855.7 17.9003V14.4003C855.7 12.8003 857 11.5002 858.6 11.5002H862.1C863.7 11.5002 865 12.8003 865 14.4003V17.9003C865.1 19.5003 863.8 20.8003 862.1 20.8003Z" fill="#EEFF71"/>
<path d="M862.1 44.4001H858.6C857 44.4001 855.7 43.1001 855.7 41.5001V38.0001C855.7 36.4001 857 35.1001 858.6 35.1001H862.1C863.7 35.1001 865 36.4001 865 38.0001V41.5001C865.1 43.1001 863.8 44.4001 862.1 44.4001Z" fill="#EEFF71"/>
<path d="M862.1 67.9001H858.6C857 67.9001 855.7 66.6001 855.7 65.0001V61.5001C855.7 59.9001 857 58.6001 858.6 58.6001H862.1C863.7 58.6001 865 59.9001 865 61.5001V65.0001C865.1 66.6001 863.8 67.9001 862.1 67.9001Z" fill="#EEFF71"/>
<path d="M862.1 91.5002H858.6C857 91.5002 855.7 90.2002 855.7 88.6002V85.1002C855.7 83.5002 857 82.2002 858.6 82.2002H862.1C863.7 82.2002 865 83.5002 865 85.1002V88.6002C865.1 90.1002 863.8 91.5002 862.1 91.5002Z" fill="#EEFF71"/>
<path d="M862.1 115H858.6C857 115 855.7 113.7 855.7 112.1V108.6C855.7 107 857 105.7 858.6 105.7H862.1C863.7 105.7 865 107 865 108.6V112.1C865.1 113.7 863.8 115 862.1 115Z" fill="#EEFF71"/>
<path d="M862.1 138.5H858.6C857 138.5 855.7 137.2 855.7 135.6V132.1C855.7 130.5 857 129.2 858.6 129.2H862.1C863.7 129.2 865 130.5 865 132.1V135.6C865.1 137.2 863.8 138.5 862.1 138.5Z" fill="#EEFF71"/>
<path d="M862.1 162.1H858.6C857 162.1 855.7 160.8 855.7 159.2V155.7C855.7 154.1 857 152.8 858.6 152.8H862.1C863.7 152.8 865 154.1 865 155.7V159.2C865.1 160.8 863.8 162.1 862.1 162.1Z" fill="#EEFF71"/>
<path d="M862.1 185.6H858.6C857 185.6 855.7 184.3 855.7 182.7V179.2C855.7 177.6 857 176.3 858.6 176.3H862.1C863.7 176.3 865 177.6 865 179.2V182.7C865.1 184.3 863.8 185.6 862.1 185.6Z" fill="#EEFF71"/>
<path d="M862.1 209.2H858.6C857 209.2 855.7 207.9 855.7 206.3V202.8C855.7 201.2 857 199.9 858.6 199.9H862.1C863.7 199.9 865 201.2 865 202.8V206.3C865.1 207.8 863.8 209.2 862.1 209.2Z" fill="#EEFF71"/>
<path d="M862.1 232.7H858.6C857 232.7 855.7 231.4 855.7 229.8V226.3C855.7 224.7 857 223.4 858.6 223.4H862.1C863.7 223.4 865 224.7 865 226.3V229.8C865.1 231.4 863.8 232.7 862.1 232.7Z" fill="#EEFF71"/>
<path d="M862.1 256.2H858.6C857 256.2 855.7 254.9 855.7 253.3V249.8C855.7 248.2 857 246.9 858.6 246.9H862.1C863.7 246.9 865 248.2 865 249.8V253.3C865.1 254.9 863.8 256.2 862.1 256.2Z" fill="#EEFF71"/>
<path d="M862.1 279.8H858.6C857 279.8 855.7 278.5 855.7 276.9V273.4C855.7 271.8 857 270.5 858.6 270.5H862.1C863.7 270.5 865 271.8 865 273.4V276.9C865.1 278.5 863.8 279.8 862.1 279.8Z" fill="#EEFF71"/>
<path d="M862.1 303.3H858.6C857 303.3 855.7 302 855.7 300.4V296.9C855.7 295.3 857 294 858.6 294H862.1C863.7 294 865 295.3 865 296.9V300.4C865.1 302 863.8 303.3 862.1 303.3Z" fill="#EEFF71"/>
<path d="M862.1 326.9H858.6C857 326.9 855.7 325.6 855.7 324V320.5C855.7 318.9 857 317.6 858.6 317.6H862.1C863.7 317.6 865 318.9 865 320.5V324C865.1 325.5 863.8 326.9 862.1 326.9Z" fill="#EEFF71"/>
<path d="M879.5 8.90015H876C874.4 8.90015 873.101 7.60012 873.101 6.00012V2.50012C873.101 0.900122 874.4 -0.399902 876 -0.399902H879.5C881.1 -0.399902 882.4 0.900122 882.4 2.50012V6.00012C882.5 7.60012 881.1 8.90015 879.5 8.90015Z" fill="#EEFF71"/>
<path d="M879.5 32.4001H876C874.4 32.4001 873.101 31.1001 873.101 29.5001V26.0001C873.101 24.4001 874.4 23.1001 876 23.1001H879.5C881.1 23.1001 882.4 24.4001 882.4 26.0001V29.5001C882.5 31.1001 881.1 32.4001 879.5 32.4001Z" fill="#EEFF71"/>
<path d="M879.5 56.0002H876C874.4 56.0002 873.101 54.7002 873.101 53.1002V49.6002C873.101 48.0002 874.4 46.7002 876 46.7002H879.5C881.1 46.7002 882.4 48.0002 882.4 49.6002V53.1002C882.5 54.6002 881.1 56.0002 879.5 56.0002Z" fill="#EEFF71"/>
<path d="M879.5 79.5002H876C874.4 79.5002 873.101 78.2002 873.101 76.6002V73.1002C873.101 71.5002 874.4 70.2002 876 70.2002H879.5C881.1 70.2002 882.4 71.5002 882.4 73.1002V76.6002C882.5 78.2002 881.1 79.5002 879.5 79.5002Z" fill="#EEFF71"/>
<path d="M879.5 103H876C874.4 103 873.101 101.7 873.101 100.1V96.6002C873.101 95.0002 874.4 93.7002 876 93.7002H879.5C881.1 93.7002 882.4 95.0002 882.4 96.6002V100.1C882.5 101.7 881.1 103 879.5 103Z" fill="#EEFF71"/>
<path d="M879.5 126.6H876C874.4 126.6 873.101 125.3 873.101 123.7V120.2C873.101 118.6 874.4 117.3 876 117.3H879.5C881.1 117.3 882.4 118.6 882.4 120.2V123.7C882.5 125.3 881.1 126.6 879.5 126.6Z" fill="#EEFF71"/>
<path d="M879.5 150.1H876C874.4 150.1 873.101 148.8 873.101 147.2V143.7C873.101 142.1 874.4 140.8 876 140.8H879.5C881.1 140.8 882.4 142.1 882.4 143.7V147.2C882.5 148.8 881.1 150.1 879.5 150.1Z" fill="#EEFF71"/>
<path d="M879.5 173.7H876C874.4 173.7 873.101 172.4 873.101 170.8V167.3C873.101 165.7 874.4 164.4 876 164.4H879.5C881.1 164.4 882.4 165.7 882.4 167.3V170.8C882.5 172.3 881.1 173.7 879.5 173.7Z" fill="#EEFF71"/>
<path d="M879.5 197.2H876C874.4 197.2 873.101 195.9 873.101 194.3V190.8C873.101 189.2 874.4 187.9 876 187.9H879.5C881.1 187.9 882.4 189.2 882.4 190.8V194.3C882.5 195.9 881.1 197.2 879.5 197.2Z" fill="#EEFF71"/>
<path d="M879.5 220.7H876C874.4 220.7 873.101 219.4 873.101 217.8V214.3C873.101 212.7 874.4 211.4 876 211.4H879.5C881.1 211.4 882.4 212.7 882.4 214.3V217.8C882.5 219.4 881.1 220.7 879.5 220.7Z" fill="#EEFF71"/>
<path d="M879.5 244.3H876C874.4 244.3 873.101 243 873.101 241.4V237.9C873.101 236.3 874.4 235 876 235H879.5C881.1 235 882.4 236.3 882.4 237.9V241.4C882.5 243 881.1 244.3 879.5 244.3Z" fill="#EEFF71"/>
<path d="M879.5 267.8H876C874.4 267.8 873.101 266.5 873.101 264.9V261.4C873.101 259.8 874.4 258.5 876 258.5H879.5C881.1 258.5 882.4 259.8 882.4 261.4V264.9C882.5 266.5 881.1 267.8 879.5 267.8Z" fill="#EEFF71"/>
<path d="M879.5 291.4H876C874.4 291.4 873.101 290.1 873.101 288.5V285C873.101 283.4 874.4 282.1 876 282.1H879.5C881.1 282.1 882.4 283.4 882.4 285V288.5C882.5 290 881.1 291.4 879.5 291.4Z" fill="#EEFF71"/>
<path d="M879.5 314.9H876C874.4 314.9 873.101 313.6 873.101 312V308.5C873.101 306.9 874.4 305.6 876 305.6H879.5C881.1 305.6 882.4 306.9 882.4 308.5V312C882.5 313.6 881.1 314.9 879.5 314.9Z" fill="#EEFF71"/>
<path d="M879.5 338.4H876C874.4 338.4 873.101 337.1 873.101 335.5V332C873.101 330.4 874.4 329.1 876 329.1H879.5C881.1 329.1 882.4 330.4 882.4 332V335.5C882.5 337.1 881.1 338.4 879.5 338.4Z" fill="#EEFF71"/>
<path d="M1257.4 -200.4H480.8V456.2H1257.4V-200.4Z" fill="url(#paint3_radial_6852_30947)"/>
</g>
</g>
<path d="M792.8 122.6C792.8 124 792.6 125.3 792.3 126.7C791.8 128.5 791 130.3 789.8 131.9L717.3 228.8C713.1 234.4 704.6 234.4 700.4 228.7L645.8 154.8C644.6 153.2 643.8 151.5 643.3 149.7C642.5 146.9 642.6 144 643.4 141.3C643.8 140 644.3 138.9 645 137.7C645 137.7 645 137.7 645 137.6C645.2 137.3 645.4 136.9 645.6 136.6C645.6 136.6 645.6 136.5 645.7 136.5C646 136.1 646.4 135.7 646.7 135.3C646.9 135.1 647 134.9 647.2 134.7C647.8 134.1 648.5 133.5 649.2 133C652 131 655.1 130.1 658.3 130.1C663 130.1 667.7 132.2 670.8 136.3L709 187.2C709.2 187.5 709.5 187.5 709.7 187.2L765 113.3C770.1 106.4 779.8 105 786.7 110.2C787.4 110.7 788 111.2 788.5 111.8C788.7 112 788.8 112.2 789 112.4C789.3 112.7 789.6 113 789.8 113.3C789.9 113.4 789.9 113.5 790 113.6C791 115 791.8 116.6 792.3 118.3C792.6 119.6 792.8 121.1 792.8 122.6Z" fill="url(#paint4_radial_6852_30947)"/>
<path d="M792.3 126.6C791.8 128.4 791 130.2 789.8 131.8L717.3 228.7C713.1 234.3 704.6 234.3 700.4 228.6L645.8 154.7C644.6 153.1 643.8 151.4 643.3 149.6C643.3 149.5 643.4 149.4 643.4 149.3C643.8 148 644.3 146.9 645 145.7C645 145.7 645 145.7 645 145.6C645.2 145.3 645.4 144.9 645.6 144.7C645.6 144.7 645.6 144.6 645.7 144.6C646 144.2 646.4 143.8 646.7 143.4C646.9 143.2 647 142.9 647.2 142.7C647.8 142.1 648.5 141.5 649.2 141C652 139 655.1 138.1 658.3 138.1C663 138.1 667.7 140.2 670.8 144.3L709 195.2C709.2 195.5 709.5 195.5 709.7 195.2L765 121.3C770.1 114.4 779.8 113 786.7 118.2C787.4 118.7 788 119.2 788.5 119.8C788.7 120 788.8 120.2 789 120.4C789.3 120.7 789.6 121 789.8 121.3C789.9 121.4 789.9 121.5 790 121.6C791 123 791.8 124.6 792.3 126.3C792.2 126.5 792.3 126.6 792.3 126.6Z" fill="white"/>
<path d="M575.9 185.2C576.3 185.2 576.7 185.2 577.1 185.1C576.7 185.1 576.3 185.2 575.9 185.2Z" fill="#2DDC88"/>
<path d="M577.1 185.1C583 184.5 587.5 179.6 587.5 173.6C587.5 167.2 582.3 162 575.9 162C569.5 162 564.3 167.2 564.3 173.6C564.3 179.6 568.9 184.5 574.7 185.1C566.9 184.5 560.7 178 560.7 170C560.7 161.6 567.5 154.9 575.8 154.9C584.2 154.9 591 161.7 591 170C591.1 178 584.9 184.5 577.1 185.1Z" fill="#2DDC88"/>
<path d="M195.2 339L192.3 340.8C186.1 344.7 182.4 351.5 182.7 358.8C183 366.1 179.3 373 173.1 376.8L163 383.1C156.8 387 149 387.2 142.6 383.8C136.2 380.4 128.4 380.6 122.2 384.5L119.3 386.3C113.1 390.2 109.4 397 109.7 404.3C110 411.6 106.3 418.5 100.1 422.3L85.6999 431.3C79.4999 435.2 71.5999 435.4 65.1999 431.9L17.5999 406.1C3.59988 398.5 2.9999 378.7 16.4999 370.2L239.1 231.3L293 301.9L236.2 337.3C230 341.2 222.2 341.4 215.8 338C209.2 334.8 201.4 335.1 195.2 339Z" fill="#FFD200"/>
<path d="M437.201 200.2C434.301 189.4 429.701 178.8 423.401 168.7C422.401 167.1 421.401 165.5 420.301 164V163.9C384.601 112.3 314.401 97.4001 260.601 130.9C222.201 154.8 202.401 197.2 205.201 239.3C205.501 243.5 206.001 247.6 206.701 251.7C207.601 256.9 208.901 262.1 210.501 267.2C212.401 273 214.701 278.7 217.601 284.3C218.301 285.8 219.101 287.2 219.901 288.7C219.901 288.7 219.901 288.8 220.001 288.8C220.901 290.4 221.901 292 222.901 293.7C223.301 294.3 223.701 294.9 224.101 295.5C225.801 298.1 227.501 300.6 229.401 303C233.901 308.9 238.901 314.3 244.301 319.1C247.301 321.8 250.401 324.3 253.601 326.6C254.701 327.4 255.701 328.1 256.801 328.9C294.301 354.4 344.901 356.9 385.801 331.4C431.001 303.2 450.601 249.2 437.201 200.2ZM388.901 186.8C391.301 194.2 390.901 202.1 388.201 209.2C388.101 209.4 388.001 209.6 388.001 209.8C387.801 210.3 387.601 210.8 387.401 211.2C387.101 211.8 386.901 212.4 386.501 212.9C386.201 213.4 385.901 213.9 385.601 214.5C385.601 214.6 385.501 214.6 385.501 214.7C385.201 215.2 384.901 215.7 384.501 216.2C383.401 217.8 382.201 219.3 380.801 220.7C380.801 220.7 380.801 220.7 380.701 220.8C380.401 221.1 380.101 221.4 379.801 221.7C379.501 222 379.201 222.3 378.901 222.5L378.801 222.6C378.601 222.8 378.401 223 378.201 223.2C378.101 223.3 378.001 223.4 377.901 223.5C377.801 223.6 377.801 223.6 377.701 223.7C377.501 223.9 377.301 224 377.101 224.2C376.801 224.4 376.401 224.7 376.101 224.9C375.901 225.1 375.601 225.2 375.401 225.4C375.201 225.6 374.901 225.7 374.601 225.9C374.201 226.1 373.901 226.3 373.501 226.5C373.201 226.7 372.801 226.9 372.501 227.1C372.101 227.3 371.601 227.5 371.201 227.8C371.101 227.8 371.101 227.9 371.001 227.9C370.901 227.9 370.801 228 370.701 228C370.401 228.1 370.101 228.3 369.801 228.4C369.601 228.5 369.401 228.6 369.201 228.7C369.001 228.8 368.801 228.9 368.601 228.9C368.501 228.9 368.501 229 368.401 229C368.001 229.2 367.601 229.3 367.201 229.4C366.701 229.6 366.301 229.7 365.801 229.8C364.901 230.1 363.901 230.3 363.001 230.5C362.601 230.6 362.201 230.7 361.801 230.7C361.601 230.7 361.501 230.7 361.301 230.8C360.901 230.8 360.601 230.9 360.201 230.9C359.201 231 358.301 231.1 357.301 231.1C356.801 231.1 356.401 231.1 355.901 231.1C355.401 231.1 355.001 231.1 354.501 231C353.001 230.9 351.601 230.7 350.201 230.4C349.801 230.3 349.501 230.3 349.101 230.2C342.401 228.7 336.201 225.1 331.401 219.7C331.201 219.2 331.001 218.7 330.801 218.3C330.301 217 329.901 215.6 329.601 214.3C329.501 214 329.501 213.7 329.401 213.4C329.301 213.1 329.301 212.9 329.301 212.6C329.301 212.5 329.301 212.5 329.301 212.4C328.501 207.3 328.801 202.2 330.201 197.3C332.401 189.6 337.401 182.7 344.701 178.1C358.401 169.6 375.701 172 386.601 182.9C387.101 183.4 387.501 183.8 388.001 184.4C388.301 185 388.601 185.9 388.901 186.8Z" fill="url(#paint5_linear_6852_30947)"/>
<path d="M286.9 292.6L230.1 328C223.9 331.9 216.1 332.1 209.7 328.7C203.3 325.3 195.5 325.5 189.3 329.4L186.4 331.2C180.2 335.1 176.5 341.9 176.8 349.2C176.9 352.8 176.1 356.4 174.4 359.5C172.7 362.6 170.3 365.3 167.2 367.2L157.1 373.5C150.9 377.4 143.1 377.6 136.7 374.2C130.3 370.8 122.5 371 116.3 374.9L113.4 376.7C107.2 380.6 103.5 387.4 103.8 394.7C104.1 402 100.4 408.9 94.2001 412.7L79.8002 421.7C73.6002 425.6 65.7002 425.8 59.3002 422.3L36.5001 409.9L27.3002 404.9L14.3002 397.9L11.8002 396.5C6.60017 393.7 3.20017 389.2 1.80017 384.2C-0.699826 375.8 2.20008 366 10.7001 360.7L233.3 221.8L286.9 292.6Z" fill="url(#paint6_linear_6852_30947)"/>
<path d="M211.6 274.9L14 398.1L11.5 396.7C6.3 393.9 2.9 389.4 1.5 384.4L204.5 257.8C206.4 263.5 208.7 269.3 211.6 274.9Z" fill="#FFD200"/>
<path d="M223.3 293.5L36.2997 410.1L27.0996 405.1L218 286C219.7 288.6 221.4 291.1 223.3 293.5Z" fill="#FFD200"/>
<path d="M264.9 263.7L233 222L205.1 239.4L200.6 242.2L200.3 242.4C200.4 246.7 200.7 250.9 201.2 255.2C201.4 256.6 201.6 258 201.8 259.4C201.8 259.7 201.9 260.1 202 260.4C202.9 265.6 204.2 270.8 205.8 275.9C206 276.6 206.2 277.3 206.5 277.9C207.9 282 209.5 286 211.4 290C211.9 291 212.4 292 212.9 293C213.8 294.7 214.7 296.4 215.7 298.1C216.5 299.5 217.3 300.9 218.2 302.3C218.6 302.9 219 303.5 219.4 304.1C221.1 306.7 222.8 309.2 224.7 311.6C228.2 316.1 231.9 320.4 235.9 324.3L244.1 319.2L247.4 317.1L255.4 312.1L286 293L286.9 292.4L264.9 263.7Z" fill="#262730"/>
<path d="M431.1 253C431.2 252.8 431.2 252.5 431.3 252.3C431.6 251.4 431.8 250.5 432 249.6C432.3 248.4 432.6 247.1 432.8 245.9C433 245.1 433.1 244.3 433.3 243.4C433.5 242.5 433.6 241.6 433.8 240.7C433.9 240.3 433.9 239.9 434 239.5C434.1 238.7 434.2 237.9 434.3 237.1C434.3 237.1 434.3 237.1 434.3 237C434.4 236.2 434.5 235.3 434.6 234.5C434.7 233.5 434.8 232.5 434.9 231.6C434.9 231.2 435 230.7 435 230.2C435.1 229.3 435.1 228.4 435.2 227.5C435.2 226.6 435.3 225.6 435.3 224.7C435.3 223.9 435.3 223.2 435.3 222.4C435.3 221.7 435.3 221 435.3 220.3C435.3 218.4 435.2 216.6 435.1 214.7C435 213.6 435 212.6 434.9 211.5C434.8 210.4 434.7 209.4 434.6 208.3C434.2 204.8 433.7 201.4 433 197.9C432.6 195.7 432.1 193.6 431.5 191.5C431.3 190.8 431.1 190 430.9 189.3V189.2C430.6 188.3 430.4 187.4 430.1 186.5C430 186.2 429.9 185.9 429.8 185.6C429.6 184.9 429.3 184.1 429.1 183.4C428.7 182.1 428.2 180.9 427.7 179.6C427.4 178.8 427.1 178 426.8 177.2C426.7 177 426.6 176.8 426.6 176.6C426.3 175.9 426.1 175.3 425.8 174.6C425.6 174 425.3 173.5 425 172.9C424.7 172.2 424.3 171.4 424 170.7C423.7 170 423.3 169.3 422.9 168.6C422.6 168 422.4 167.5 422.1 167C422 166.8 421.9 166.6 421.8 166.4C421.4 165.7 421.1 165 420.7 164.3C420.6 164.2 420.6 164.1 420.5 164V163.9C419.6 162.3 418.6 160.7 417.7 159.1C385 106.6 317.8 88.6999 263.7 116.3C260.7 117.8 257.7 119.5 254.8 121.3C249.5 124.6 244.5 128.3 239.9 132.3C237.3 134.6 234.7 137 232.4 139.4C231.2 140.6 230 141.9 228.9 143.2C226.1 146.4 223.4 149.7 221 153.2C209.2 169.9 202 189.3 199.8 209.3C198.9 217.7 198.9 226.3 199.9 234.8C200.2 237.2 200.5 239.7 200.9 242.1C201.6 246 202.5 249.9 203.6 253.8C204 255.1 204.3 256.4 204.8 257.7C205.3 259.2 205.8 260.6 206.3 262C206.6 262.7 206.8 263.4 207.1 264.2C207.7 265.6 208.3 267.1 208.9 268.5C209.5 269.9 210.2 271.3 210.8 272.7C211.1 273.4 211.5 274.1 211.8 274.8C213.4 278 215.1 281.1 217.1 284.1C217.5 284.7 217.9 285.3 218.3 285.9C218.8 286.7 219.4 287.5 219.9 288.3C220 288.5 220.1 288.6 220.2 288.8C220.4 289.1 220.6 289.4 220.8 289.7C221.7 291 222.6 292.2 223.5 293.4C230.5 302.6 238.7 310.5 247.7 317.1C250.5 319.1 253.3 321 256.2 322.7C256.9 323.1 257.5 323.5 258.2 323.9C294.8 345 341.6 345.8 380 321.8C404.4 306.6 421.3 284 429.6 258.7C430 256.9 430.5 255 431.1 253ZM388.2 209.2C388.1 209.4 388 209.6 388 209.8C387.8 210.3 387.6 210.8 387.4 211.2C387.1 211.8 386.9 212.3 386.5 212.9C386.2 213.4 385.9 214 385.6 214.5C385.6 214.6 385.5 214.6 385.5 214.7C385.2 215.2 384.8 215.7 384.5 216.2C383.4 217.8 382.2 219.3 380.8 220.7C380.8 220.7 380.8 220.7 380.7 220.8C380.4 221.1 380.1 221.4 379.8 221.7C379.5 222 379.2 222.3 378.9 222.5L378.8 222.6C378.6 222.8 378.4 223 378.2 223.2C378.1 223.3 378 223.4 377.9 223.5C377.8 223.6 377.8 223.6 377.7 223.7C377.5 223.9 377.3 224 377.1 224.2C376.8 224.4 376.4 224.7 376.1 224.9C375.9 225.1 375.6 225.2 375.4 225.4C375.2 225.6 374.9 225.7 374.6 225.9C374.2 226.1 373.9 226.3 373.5 226.5C373.1 226.7 372.8 226.9 372.5 227.1C372.1 227.3 371.6 227.5 371.2 227.8C371.1 227.8 371.1 227.9 371 227.9C370.9 227.9 370.8 228 370.7 228C370.4 228.1 370.1 228.3 369.8 228.4C369.6 228.5 369.4 228.6 369.2 228.7C369 228.8 368.8 228.9 368.6 228.9C368.5 228.9 368.5 229 368.4 229C368 229.2 367.6 229.3 367.2 229.4C366.7 229.6 366.3 229.7 365.8 229.8C364.9 230.1 363.9 230.3 363 230.5C362.6 230.6 362.2 230.7 361.8 230.7C361.6 230.7 361.5 230.7 361.3 230.8C360.9 230.8 360.6 230.9 360.2 230.9C359.2 231 358.3 231.1 357.3 231.1C356.8 231.1 356.4 231.1 355.9 231.1C355.4 231.1 355 231.1 354.5 231C353 230.9 351.6 230.7 350.2 230.4C349.8 230.3 349.5 230.3 349.1 230.2C342.4 228.7 336.2 225.1 331.4 219.7C330.2 218.3 329 216.8 328 215.2C325.2 210.7 323.5 205.7 323 200.8C321.7 188.3 327.4 175.6 338.7 168.5C354.6 158.6 375.5 163.5 385.4 179.3C386.4 180.9 387.3 182.6 388 184.4C388.4 185.3 388.7 186.1 388.9 187C391.3 194.2 390.9 202.1 388.2 209.2Z" fill="url(#paint7_linear_6852_30947)"/>
<path d="M377.6 223.6C378 223.3 378.4 223 378.8 222.6C378.5 222.8 378.2 223.1 377.9 223.3C377.8 223.4 377.7 223.5 377.6 223.6Z" fill="url(#paint8_linear_6852_30947)"/>
<path d="M387.9 184.1C382.5 178 375.3 174.8 367.7 174.2C360.1 173.6 352.1 175.7 345 180.1C339 183.8 334.5 188.8 331.8 194.3C328 201.9 327.6 210.7 331.2 219.4C330 218 328.8 216.5 327.8 214.9C317.9 199 322.7 178.1 338.6 168.2C354.5 158.3 375.4 163.1 385.3 179C386.4 180.7 387.2 182.4 387.9 184.1Z" fill="#FFD200"/>
<path d="M247.5 317.2L253.5 326.8L239.4 335.6L236 324.4L247.5 317.2Z" fill="#262730"/>
<path d="M279.301 336.2C271.601 333.6 264 330.3 256.7 326.1C256 325.7 255.3 325.3 254.7 324.9C251.9 323.2 249.101 321.3 246.401 319.4L246.101 319.2C236.801 312.4 228.501 304.3 221.401 295C220.501 293.8 219.501 292.5 218.601 291.3C218.401 290.9 218.101 290.6 217.901 290.3C217.801 290.2 217.7 290.1 217.7 290C217.1 289.1 216.501 288.3 216.001 287.4C215.601 286.8 215.201 286.1 214.801 285.5C212.801 282.4 211.001 279.2 209.401 276C209.101 275.4 208.801 274.8 208.501 274.1L208.401 273.8C207.701 272.4 207.001 270.9 206.401 269.5C205.801 268.1 205.201 266.6 204.601 265.1C204.301 264.4 204.001 263.6 203.801 262.9C203.301 261.4 202.801 260 202.301 258.5C201.901 257.2 201.501 255.9 201.101 254.5C200.001 250.8 199.101 246.9 198.401 243L198.301 242.6C197.801 240.1 197.5 237.5 197.2 235.1C196.2 226.4 196.201 217.7 197.101 209C199.301 188.3 206.7 168.5 218.7 151.7C221.2 148.1 223.901 144.7 226.801 141.5C228.001 140.2 229.101 138.9 230.401 137.7C232.801 135.2 235.401 132.7 238.101 130.4C242.801 126.3 248.001 122.5 253.301 119.2C256.101 117.4 259.201 115.7 262.301 114.1C289.101 100.4 319.901 97.2 349.101 105.2C378.401 113.3 403.401 131.9 419.501 157.7C420.401 159.2 421.2 160.5 421.9 161.8H422.001L422.4 162.7C422.5 162.8 422.601 163 422.601 163.1C423.001 163.7 423.3 164.4 423.7 165.2C423.8 165.4 423.901 165.6 424.001 165.8C424.301 166.3 424.601 166.9 424.801 167.5C425.101 168.2 425.5 168.9 425.9 169.7C426.2 170.4 426.6 171.2 426.9 171.9C427.2 172.5 427.4 173.1 427.7 173.6C428 174.3 428.301 175 428.601 175.6C428.701 175.8 428.8 176 428.9 176.3C429.2 177.1 429.501 177.9 429.801 178.7C430.301 179.9 430.8 181.3 431.2 182.5C431.5 183.4 431.7 184.1 431.9 184.8C431.9 184.9 432.001 185.1 432.101 185.4L432.2 185.7C432.5 186.6 432.701 187.5 433.001 188.3L433.101 188.7L433.301 189.3C433.501 189.9 433.6 190.4 433.7 191C434.2 193 434.7 195.2 435.2 197.5C435.9 200.8 436.4 204.4 436.9 208.1C437 209.2 437.1 210.3 437.2 211.4C437.3 212.5 437.4 213.5 437.4 214.6C437.5 216.6 437.601 218.5 437.601 220.3C437.601 221 437.601 221.8 437.601 222.5V222.7C437.601 223.4 437.601 224.1 437.601 224.8C437.601 225.8 437.501 226.7 437.501 227.7C437.501 228.6 437.401 229.5 437.301 230.4C437.301 230.8 437.2 231.3 437.2 231.8C437.1 232.8 437 233.8 436.9 234.8C436.8 235.5 436.701 236.3 436.601 237V237.2L436.501 237.6C436.401 238.4 436.3 239.1 436.2 239.9C436.1 240.4 436.101 240.8 436.001 241.2C435.901 242 435.701 242.9 435.501 243.8C435.401 244.6 435.201 245.5 435.001 246.3C434.701 247.5 434.501 248.8 434.101 250.1C433.901 251 433.6 252 433.4 252.9L433.2 253.6C432.7 255.6 432.1 257.5 431.4 259.5C422.6 286.2 404.6 309 380.7 323.9C350.2 343.2 312.901 347.4 279.301 336.2ZM248.601 315L248.901 315.2C251.601 317.2 254.4 319 257.2 320.7C257.8 321.1 258.501 321.5 259.101 321.8C296.301 343.2 342.001 342.5 378.301 319.8C401.201 305.5 418.5 283.6 426.9 258C427.5 256.1 428.101 254.3 428.601 252.4L428.801 251.7C429.101 250.8 429.301 249.9 429.501 249.1C429.801 247.9 430.101 246.7 430.301 245.4C430.501 244.6 430.601 243.8 430.801 243C431.001 242.1 431.101 241.3 431.301 240.4C431.401 240 431.401 239.7 431.501 239.3C431.601 238.5 431.701 237.8 431.801 237.1V237L431.9 236.6V236.5C432 235.7 432.1 235 432.2 234.2C432.3 233.2 432.401 232.3 432.501 231.3C432.501 230.8 432.601 230.4 432.601 230C432.701 229.1 432.701 228.2 432.801 227.4C432.801 226.5 432.9 225.5 432.9 224.6C432.9 223.9 432.9 223.3 432.9 222.6V222.4C432.9 221.7 432.9 221 432.9 220.3C432.9 218.6 432.8 216.7 432.7 214.9C432.6 213.9 432.601 212.8 432.501 211.8C432.401 210.7 432.3 209.7 432.2 208.6C431.8 205 431.301 201.6 430.601 198.4C430.101 196.1 429.701 194.1 429.101 192.1C429.001 191.5 428.8 191 428.7 190.5L428.501 189.8C428.301 188.9 428 188 427.7 187.1L427.601 186.8C427.501 186.6 427.5 186.5 427.4 186.3C427.2 185.5 426.9 184.8 426.7 184.2L426.601 184C426.201 182.8 425.701 181.5 425.301 180.3C425.001 179.5 424.7 178.7 424.4 177.9C424.3 177.6 424.2 177.5 424.2 177.3C423.9 176.6 423.7 176 423.4 175.3C423.2 174.8 422.9 174.2 422.7 173.7C422.3 172.9 422 172.2 421.7 171.5C421.3 170.7 421 170.1 420.7 169.4C420.4 168.8 420.2 168.3 419.9 167.8L419.801 167.6C419.701 167.5 419.701 167.3 419.601 167.2C419.301 166.6 419 166 418.7 165.5L418.2 164.7C417.4 163.2 416.5 161.7 415.4 160C400 135.2 376.001 117.3 347.801 109.6C319.801 101.9 290.301 104.9 264.601 118.1C261.501 119.7 258.701 121.3 255.901 123C250.801 126.2 245.801 129.8 241.301 133.8C238.701 136 236.201 138.4 233.901 140.8C232.701 142 231.601 143.3 230.501 144.5C227.801 147.6 225.201 150.8 222.801 154.3C211.301 170.4 204.201 189.4 202.101 209.3C201.201 217.6 201.2 226 202.2 234.3C202.4 236.5 202.8 238.8 203.2 241.1L203.301 241.4C204.001 245.3 204.901 249.1 205.901 252.8C206.301 254.1 206.701 255.3 207.101 256.6C207.601 258 208.001 259.4 208.601 260.8C208.901 261.5 209.101 262.2 209.401 262.9C209.901 264.3 210.501 265.7 211.101 267.1C211.701 268.5 212.301 269.9 213.001 271.3L213.101 271.6C213.401 272.2 213.701 272.8 214.001 273.4C215.501 276.4 217.301 279.5 219.101 282.5C219.501 283.1 219.8 283.7 220.2 284.3C220.7 285.1 221.301 285.9 221.801 286.7L222.101 287.1C222.301 287.4 222.5 287.7 222.7 288C223.6 289.3 224.501 290.5 225.401 291.7C231.901 300.8 239.801 308.5 248.601 315Z" fill="#FFD200"/>
<path d="M385.7 331.5C344.7 357.1 294.2 354.5 256.7 329C256.5 327.7 256.3 326.4 256.2 325C256.1 324.2 256 323.5 256 322.7C255.7 319.2 255.5 315.6 255.5 312.1C255.4 298.9 257.501 285.4 261.801 272.1C262.601 269.6 263.5 267.2 264.5 264.8C264.6 264.4 264.8 264 265 263.6C276.6 235.5 297.5 213.6 323 200.4C325.4 199.1 327.8 198 330.2 197C330.4 196.9 330.701 196.8 330.901 196.7C348.901 188.9 368.8 185.3 389 186.7C399.2 187.4 409.5 189.4 419.7 192.7C424.3 194.2 428.801 196 433.101 198C434.501 198.6 435.901 199.3 437.301 200C450.601 249.2 431 303.2 385.7 331.5Z" fill="#262730"/>
<path d="M358.901 452L357.301 455C353.901 461.5 354.301 469.3 358.201 475.4C362.101 481.6 362.501 489.3 359.101 495.8L353.601 506.4C350.201 512.9 343.701 517.1 336.401 517.4C329.101 517.7 322.501 521.9 319.201 528.4L317.601 531.4C314.201 537.9 314.601 545.7 318.501 551.8C322.401 557.9 322.801 565.7 319.401 572.2L311.601 587.3C308.201 593.8 301.601 598 294.301 598.3L240.201 600.4C224.301 601 213.601 584.2 221.001 570.1L341.801 337.2L424.101 370.5L393.301 429.9C389.901 436.4 383.401 440.6 376.101 440.9C368.801 441.3 362.201 445.5 358.901 452Z" fill="#FFD200"/>
<path d="M468.4 189.2C466.7 188.3 465.001 187.5 463.301 186.7C406.301 160.4 338.201 183.4 309.001 239.7C286.101 283.8 293.8 335.6 324.2 371.1C327.6 375.1 331.401 378.9 335.401 382.5C340.001 386.6 344.9 390.3 350.2 393.7C351.6 394.6 353.001 395.5 354.501 396.3C356.101 397.2 357.801 398.1 359.501 399C360.101 399.3 360.8 399.7 361.4 400C364.1 401.4 366.901 402.6 369.801 403.7C380.501 408 391.6 410.7 402.7 411.7C449.3 416.1 496 392.5 518.9 348.4C549 290.6 526.4 219.3 468.4 189.2ZM455.4 263.2C447.7 278.1 430.401 284.9 415.001 279.9C402.001 270.1 397.601 252.2 405.301 237.3C413.001 222.4 430.3 215.7 445.7 220.7C458.7 230.3 463.2 248.3 455.4 263.2Z" fill="url(#paint9_linear_6852_30947)"/>
<path d="M414.101 365.3L383.301 424.7C379.901 431.2 373.401 435.4 366.101 435.7C358.801 436 352.2 440.2 348.9 446.7L347.301 449.7C343.901 456.2 344.301 464 348.201 470.1C350.201 473.2 351.3 476.7 351.4 480.2C351.6 483.7 350.801 487.3 349.101 490.5L343.601 501.1C340.201 507.6 333.701 511.8 326.401 512.1C319.101 512.4 312.501 516.6 309.201 523.1L307.601 526.1C304.201 532.6 304.601 540.4 308.501 546.5C312.401 552.7 312.801 560.4 309.401 566.9L301.601 582C298.201 588.5 291.601 592.7 284.301 593L258.401 594L247.901 594.4L233.101 595L230.201 595.1C224.301 595.3 219.101 593.1 215.301 589.6C208.901 583.6 206.401 573.7 211.001 564.8L331.801 331.9L414.101 365.3Z" fill="url(#paint10_linear_6852_30947)"/>
<path d="M340.2 388.5L233 595.2L230.1 595.3C224.2 595.5 219 593.3 215.2 589.8L325.4 377.4C330 381.4 335 385.2 340.2 388.5Z" fill="#FFD200"/>
<path d="M359.801 398.6L258.301 594.2L247.801 594.6L351.401 394.8C354.201 396.2 357.001 397.5 359.801 398.6Z" fill="#FFD200"/>
<path d="M331.801 332.1L314.101 366.3C317.201 371.4 320.801 376.3 324.801 380.9C328.301 384.9 332.001 388.7 336.001 392.3C340.601 396.4 345.501 400.1 350.801 403.5C353.801 405.4 356.901 407.2 360.101 408.9C360.701 409.2 361.401 409.6 362.001 409.9C364.801 411.3 367.501 412.5 370.401 413.6C375.701 415.7 381.101 417.5 386.501 418.8L414.201 365.5L331.801 332.1Z" fill="#262730"/>
<path d="M463.301 186.7C461.701 185.8 460.001 184.9 458.301 184C400.301 153.9 329.001 176.6 298.901 234.5C276.001 278.6 283.701 330.4 314.101 365.9C317.601 369.9 321.301 373.7 325.301 377.3C329.901 381.4 334.801 385.1 340.101 388.5C343.101 390.4 346.201 392.2 349.401 393.9C350.001 394.2 350.701 394.6 351.301 394.9C352.401 395.4 353.401 395.9 354.501 396.4C356.201 397.2 357.901 397.9 359.701 398.6C370.401 402.9 381.501 405.6 392.601 406.6C439.201 411 485.901 387.4 508.801 343.3C538.001 287.1 517.601 218.2 463.301 186.7ZM458.201 255.7C458.001 256.6 457.801 257.4 457.501 258.2C457.501 258.2 457.501 258.3 457.401 258.3C457.201 258.8 457.101 259.3 456.901 259.7C456.801 260 456.701 260.2 456.601 260.4C456.401 260.8 456.301 261.1 456.101 261.5C455.901 262 455.601 262.6 455.301 263.1C454.901 263.8 454.501 264.5 454.101 265.2C453.901 265.6 453.601 266 453.301 266.4C453.301 266.5 453.201 266.5 453.201 266.6C453.101 266.7 453.101 266.8 453.001 266.8C452.801 267.1 452.701 267.3 452.501 267.6C452.201 268 452.001 268.3 451.701 268.7C443.001 279.6 428.301 284 414.901 279.7C413.101 279.1 411.401 278.4 409.701 277.5C393.101 268.9 386.601 248.5 395.201 231.8C403.801 215.2 424.301 208.7 440.901 217.3C442.601 218.2 444.201 219.2 445.701 220.3C456.601 228.7 461.501 242.6 458.201 255.7Z" fill="url(#paint11_linear_6852_30947)"/>
<path d="M457 259.8C457.2 259.3 457.3 258.9 457.5 258.4C457.4 258.8 457.301 259.1 457.101 259.5C457.101 259.5 457 259.6 457 259.8Z" fill="url(#paint12_linear_6852_30947)"/>
<path d="M445.801 220.6C438.101 218.1 430.201 219 423.401 222.4C416.601 225.8 410.801 231.6 406.901 239C403.601 245.3 402.301 251.8 402.801 257.9C403.401 266.4 407.601 274.2 415.101 279.8C413.301 279.2 411.601 278.5 409.901 277.6C393.301 269 386.801 248.6 395.401 231.9C404.001 215.3 424.501 208.8 441.101 217.4C442.701 218.4 444.301 219.5 445.801 220.6Z" fill="#FFD200"/>
<path d="M392.7 406.6L402.7 411.9L395.101 426.6L386.4 418.7L392.7 406.6Z" fill="#262730"/>
<path d="M458.4 184C400.4 153.9 329.101 176.6 299.001 234.5C276.101 278.6 283.8 330.4 314.2 365.9C317.7 369.9 321.401 373.7 325.401 377.3C330.001 381.4 334.9 385.1 340.2 388.5C343.2 390.4 346.301 392.2 349.501 393.9C350.101 394.2 350.8 394.6 351.4 394.9C354.2 396.3 356.901 397.5 359.801 398.6C370.501 402.9 381.6 405.6 392.7 406.6C439.3 411 486 387.4 508.9 343.3C538.9 285.4 516.3 214.1 458.4 184Z" stroke="#FFD200" stroke-width="4.7368" stroke-miterlimit="10"/>
<path d="M551.7 210.6C551.9 211.4 552.1 212.1 552.4 212.9C523.6 245 477.5 258.9 434 244.6C425 241.6 416.6 237.6 408.9 232.7C410.7 232.5 412.1 231.1 412.8 229.3C419.8 233.6 427.4 237.3 435.5 239.9C478.1 254 523.4 239.7 550.7 207.3C551.1 208.4 551.4 209.5 551.7 210.6Z" fill="#FFD200"/>
<path d="M551.7 210.6C551.4 209.5 551.1 208.4 550.8 207.3C545.3 213.8 539 219.6 532.2 224.6C532.4 226.5 532.5 228.4 532.7 230.2C539.9 225.2 546.5 219.4 552.4 212.9C552.2 212.1 551.9 211.4 551.7 210.6Z" fill="#262730"/>
<path d="M578.3 162.2C577.5 166 576.4 169.8 575.2 173.6C574 177.2 572.6 180.7 571.1 184.1C569.5 183.4 568.2 182.3 567.1 181C568.4 178.1 569.5 175.1 570.5 172C571.6 168.8 572.5 165.6 573.2 162.3C579.1 136.9 575.2 111.1 563.8 89.2C551.4 65.4 530.1 46.2 502.7 37.2C446.8 18.7 386.3 49.2001 367.8 105C367.1 107 366.5 109.3 366 111.3C364.4 110.6 363 110 361.5 109.4C362 107.3 362.6 105.5 363.2 103.5C382.5 45.0001 445.8 13.2001 504.3 32.5001C531.9 41.6001 553.5 60.5001 566.7 84.1001C579.5 107.2 584.2 134.9 578.3 162.2Z" fill="#FFD200"/>
<path d="M378.8 81.5C376.6 81.8 374.4 82.1 372.4 82.7C368.7 89.2 365.5 96.1 363.1 103.4C362.4 105.5 361.9 107.2 361.4 109.3C363 110 364.4 110.5 366 111.2C366.5 109.2 367.2 106.9 367.8 104.9C370.5 96.6 374.3 88.7 378.8 81.5Z" fill="#262730"/>
<path d="M338.9 237.4C347.8 210.5 333.2 181.4 306.3 172.5C333.2 181.4 362.3 166.8 371.2 139.9C362.3 166.8 376.9 195.9 403.8 204.8C376.9 195.9 347.8 210.5 338.9 237.4Z" fill="white"/>
<defs>
<linearGradient id="paint0_linear_6852_30947" x1="4.43453" y1="280.595" x2="954.019" y2="280.595" gradientUnits="userSpaceOnUse">
<stop offset="1.61469e-07" stop-color="#B9E1FE"/>
<stop offset="0.5147" stop-color="#81C4F8"/>
<stop offset="0.9993" stop-color="#B1CBFF"/>
</linearGradient>
<radialGradient id="paint1_radial_6852_30947" cx="0" cy="0" r="1" gradientUnits="userSpaceOnUse" gradientTransform="translate(572.802 128.214) scale(39.6222 39.6222)">
<stop stop-color="#2DDC88"/>
<stop offset="0.1659" stop-color="#41E183"/>
<stop offset="0.503" stop-color="#73EE76"/>
<stop offset="0.5386" stop-color="#79F075"/>
<stop offset="0.5496" stop-color="#84F075"/>
<stop offset="0.5819" stop-color="#9FEF74"/>
<stop offset="0.619" stop-color="#B5EE74"/>
<stop offset="0.6624" stop-color="#C6EE73"/>
<stop offset="0.716" stop-color="#D1ED73"/>
<stop offset="0.7912" stop-color="#D8ED73"/>
<stop offset="1" stop-color="#DAED73"/>
</radialGradient>
<radialGradient id="paint2_radial_6852_30947" cx="0" cy="0" r="1" gradientUnits="userSpaceOnUse" gradientTransform="translate(718.989 179.324) scale(254.781)">
<stop stop-color="#2DDC88"/>
<stop offset="0.1711" stop-color="#41E183"/>
<stop offset="0.519" stop-color="#73EE76"/>
<stop offset="0.5556" stop-color="#79F075"/>
<stop offset="0.5663" stop-color="#84F075"/>
<stop offset="0.5974" stop-color="#9FEF74"/>
<stop offset="0.6331" stop-color="#B5EE74"/>
<stop offset="0.6749" stop-color="#C6EE73"/>
<stop offset="0.7265" stop-color="#D1ED73"/>
<stop offset="0.7989" stop-color="#D8ED73"/>
<stop offset="1" stop-color="#DAED73"/>
</radialGradient>
<radialGradient id="paint3_radial_6852_30947" cx="0" cy="0" r="1" gradientUnits="userSpaceOnUse" gradientTransform="translate(514.02 -11.101) scale(442.733 382.389)">
<stop offset="0.00164577" stop-color="#EEFF71"/>
<stop offset="0.3295" stop-color="#EEFF73" stop-opacity="0.6696"/>
<stop offset="0.489" stop-color="#EFFF7B" stop-opacity="0.5088"/>
<stop offset="0.6122" stop-color="#F1FF88" stop-opacity="0.3847"/>
<stop offset="0.7168" stop-color="#F3FF9A" stop-opacity="0.2793"/>
<stop offset="0.8096" stop-color="#F6FFB3" stop-opacity="0.1858"/>
<stop offset="0.894" stop-color="#F9FFD0" stop-opacity="0.1007"/>
<stop offset="0.9704" stop-color="#FEFFF3" stop-opacity="0.0236334"/>
<stop offset="0.9939" stop-color="white" stop-opacity="0"/>
</radialGradient>
<radialGradient id="paint4_radial_6852_30947" cx="0" cy="0" r="1" gradientUnits="userSpaceOnUse" gradientTransform="translate(721.452 248.932) scale(69.2615 69.2615)">
<stop stop-color="#2DDC88"/>
<stop offset="0.1659" stop-color="#41E183"/>
<stop offset="0.503" stop-color="#73EE76"/>
<stop offset="0.5386" stop-color="#79F075"/>
<stop offset="0.5496" stop-color="#84F075"/>
<stop offset="0.5819" stop-color="#9FEF74"/>
<stop offset="0.619" stop-color="#B5EE74"/>
<stop offset="0.6624" stop-color="#C6EE73"/>
<stop offset="0.716" stop-color="#D1ED73"/>
<stop offset="0.7912" stop-color="#D8ED73"/>
<stop offset="1" stop-color="#DAED73"/>
</radialGradient>
<linearGradient id="paint5_linear_6852_30947" x1="210.887" y1="193.872" x2="435.333" y2="268.081" gradientUnits="userSpaceOnUse">
<stop stop-color="#FFD200"/>
<stop offset="0.9996" stop-color="#FF9F0A"/>
</linearGradient>
<linearGradient id="paint6_linear_6852_30947" x1="75.8087" y1="229.662" x2="184.586" y2="404.071" gradientUnits="userSpaceOnUse">
<stop stop-color="#FFD200"/>
<stop offset="0.9996" stop-color="#FF9F0A"/>
</linearGradient>
<linearGradient id="paint7_linear_6852_30947" x1="116.851" y1="155.164" x2="341.301" y2="229.374" gradientUnits="userSpaceOnUse">
<stop stop-color="#FFD200"/>
<stop offset="0.9996" stop-color="#FF9F0A"/>
</linearGradient>
<linearGradient id="paint8_linear_6852_30947" x1="378.01" y1="223.02" x2="378.923" y2="223.216" gradientUnits="userSpaceOnUse">
<stop stop-color="#FFD200"/>
<stop offset="0.9996" stop-color="#FF9F0A"/>
</linearGradient>
<linearGradient id="paint9_linear_6852_30947" x1="304.96" y1="339.471" x2="523.31" y2="248.807" gradientUnits="userSpaceOnUse">
<stop stop-color="#FFD200"/>
<stop offset="0.9996" stop-color="#FF9F0A"/>
</linearGradient>
<linearGradient id="paint10_linear_6852_30947" x1="268.335" y1="453.934" x2="346.815" y2="494.637" gradientUnits="userSpaceOnUse">
<stop stop-color="#FFD200"/>
<stop offset="0.9996" stop-color="#FF9F0A"/>
</linearGradient>
<linearGradient id="paint11_linear_6852_30947" x1="294.905" y1="334.26" x2="513.255" y2="243.596" gradientUnits="userSpaceOnUse">
<stop stop-color="#FFD200"/>
<stop offset="0.9996" stop-color="#FF9F0A"/>
</linearGradient>
<linearGradient id="paint12_linear_6852_30947" x1="456.827" y1="259.175" x2="457.712" y2="258.879" gradientUnits="userSpaceOnUse">
<stop stop-color="#FFD200"/>
<stop offset="0.9996" stop-color="#FF9F0A"/>
</linearGradient>
</defs>
</svg>
