<svg width="296" height="120" viewBox="0 0 296 120" fill="none" xmlns="http://www.w3.org/2000/svg">
<path d="M211.985 70.1009C211.965 71.4209 211.885 72.7009 211.745 73.9609C209.325 96.1409 188.965 108.461 162.145 113.361C146.485 116.221 128.625 116.561 110.845 114.881C83.1651 112.261 55.6651 104.741 36.9851 94.1609C31.4851 91.0409 26.7451 87.6809 23.0051 84.0809C7.72509 69.4609 6.84508 47.8209 16.0451 32.7609C24.9851 18.1009 43.4851 9.6809 67.5251 20.0609C93.9451 31.4609 119.965 49.5209 142.325 42.3409C184.525 28.8009 211.485 44.6809 212.005 68.8809C212.005 69.3009 212.005 69.7009 211.985 70.1009Z" fill="url(#paint0_linear_9423_95620)"/>
<path d="M44.5119 107.18H42.9919C42.0919 107.18 41.3519 106.44 41.3519 105.54V103.1H46.1719V105.54C46.1519 106.44 45.4119 107.18 44.5119 107.18Z" fill="url(#paint1_linear_9423_95620)"/>
<path d="M71.3521 117.28H49.6721C46.0721 117.28 43.1321 114.34 43.1321 110.74V107.18H44.0921V110.74C44.0921 113.82 46.5921 116.32 49.6721 116.32H71.3521V117.28Z" fill="url(#paint2_linear_9423_95620)"/>
<path d="M46.1519 104.22L41.3519 103.1H46.1519V104.22Z" fill="#262730"/>
<path d="M54.2924 30.9577C53.8124 29.2977 52.8724 27.7777 51.5324 26.6177C51.0724 26.2377 50.5924 25.8777 50.0324 25.5777C49.7924 25.4377 49.5524 25.3177 49.3124 25.2177C49.2524 25.1977 49.1924 25.1577 49.1324 25.1377C48.8724 25.0377 48.6124 24.9377 48.3524 24.8577C48.0924 24.7777 47.8324 24.6977 47.5724 24.6377C47.3524 24.5977 47.1524 24.5577 46.9324 24.5177C46.5524 24.4577 46.1924 24.4377 45.8124 24.4377C44.9324 24.4177 44.0524 24.5377 43.1924 24.7777C41.0924 25.3777 39.2124 26.7377 37.9924 28.7377C37.9324 28.8377 37.8724 28.9377 37.8124 29.0377L37.2324 30.0777L33.5724 36.6177L30.8524 41.4977L4.2724 89.0977C3.8124 89.8977 3.87239 90.8577 4.33239 91.5777C4.41239 91.7177 4.51239 91.8377 4.61239 91.9577C4.77239 92.1377 4.99239 92.2977 5.21239 92.4377L16.5724 98.7777H16.5924L17.7524 99.4377C18.2924 99.7377 18.9724 99.5377 19.2724 99.0177L33.5724 73.4177L35.7924 69.4577L36.1124 68.8977L36.4324 68.3377L40.0524 61.8577L40.2324 61.5377L40.4124 61.2177L42.9324 56.6977L46.9524 49.4977L47.6324 48.2777L51.5124 41.3177L53.4724 37.7977C54.7124 35.5977 54.9124 33.1577 54.2924 30.9577ZM49.0524 35.7977C49.0524 35.8177 49.0524 35.8177 49.0524 35.7977C48.5524 36.6977 47.8124 37.3577 46.9524 37.7577C45.6524 38.3577 44.0924 38.3577 42.7324 37.5977C42.3324 37.3777 41.9924 37.0977 41.6924 36.7977C41.5724 36.6777 41.4724 36.5577 41.3724 36.4377C41.3724 36.4377 41.3724 36.4177 41.3524 36.4177C41.2724 36.2977 41.1724 36.1777 41.0924 36.0577C40.1924 34.6577 40.0724 32.8177 40.9324 31.2777C41.7924 29.7377 43.4124 28.8777 45.0724 28.8977C45.2124 28.8977 45.3524 28.8977 45.4924 28.9177C45.4924 28.9177 45.4924 28.9177 45.5124 28.9177C45.6524 28.9377 45.8124 28.9577 45.9524 28.9977C46.2924 29.0577 46.6124 29.1777 46.9324 29.3177C47.0324 29.3577 47.1324 29.4177 47.2324 29.4777H47.2524C49.4924 30.7777 50.2924 33.5777 49.0524 35.7977Z" fill="url(#paint3_linear_9423_95620)"/>
<path d="M54.5922 30.8784C54.0722 29.0184 52.9922 27.3984 51.5322 26.2184C51.1122 25.8784 50.6722 25.5784 50.1922 25.3184C49.6722 25.0184 49.1122 24.7784 48.5322 24.5984C48.4722 24.5784 48.4122 24.5584 48.3522 24.5384C48.1522 24.4784 47.9322 24.4184 47.7322 24.3784C47.4722 24.3184 47.2122 24.2784 46.9522 24.2384C46.9322 24.2384 46.9122 24.2384 46.9122 24.2384C46.5522 24.1984 46.1922 24.1584 45.8522 24.1584C44.9322 24.1384 44.0322 24.2584 43.1522 24.5184C40.7722 25.1984 38.7922 26.7584 37.5922 28.9184L33.6322 36.0184L4.0522 88.9784C3.6922 89.6184 3.59221 90.3784 3.79221 91.0784C3.81221 91.1584 3.85222 91.2584 3.87222 91.3384C3.91222 91.4384 3.95221 91.5384 4.01221 91.6384C4.05221 91.7184 4.0922 91.7784 4.1522 91.8584C4.3922 92.2184 4.71221 92.5184 5.11221 92.7384L16.4922 99.0784L17.6522 99.7384C17.8722 99.8584 18.1122 99.9184 18.3522 99.9184C18.4922 99.9184 18.6122 99.8984 18.7522 99.8584C19.1122 99.7584 19.4322 99.5184 19.6122 99.1784L33.6322 74.0584L35.8522 70.0984L36.1722 69.5384L36.4922 68.9784L40.4722 61.8584L40.6522 61.5384L40.8322 61.2184L47.0122 50.1584L51.5922 41.9784L53.8322 37.9584C54.9922 35.7584 55.2722 33.2584 54.5922 30.8784ZM51.5322 40.6384L47.3522 48.1184L46.9522 48.8184L40.0522 61.1784L39.6922 61.8184L36.4322 67.6384L36.1122 68.1984L35.7922 68.7584L33.5722 72.7184L18.9922 98.8184C18.8922 98.9984 18.7122 99.1384 18.5122 99.1984C18.3122 99.2584 18.0922 99.2384 17.9122 99.1384L16.9522 98.5984L16.7522 98.4784C16.7522 98.4784 16.7522 98.4784 16.7322 98.4784L16.0722 98.0984L15.7122 97.8984L5.37222 92.1384C4.87222 91.8584 4.5122 91.3984 4.3522 90.8584C4.1922 90.3184 4.2722 89.7384 4.5522 89.2384L31.1522 41.6184L33.5722 37.2784L36.9522 31.2384L37.4922 30.2784L37.5122 30.2384L38.1122 29.1784C38.1722 29.0784 38.2122 28.9984 38.2722 28.8984C38.2722 28.8984 38.2722 28.8784 38.2922 28.8784C38.5722 28.4184 38.8722 27.9984 39.2322 27.6184C40.3122 26.3984 41.7122 25.5184 43.3122 25.0784C44.0922 24.8584 44.8722 24.7584 45.6522 24.7584C45.7122 24.7584 45.7722 24.7584 45.8322 24.7584C46.2122 24.7584 46.5922 24.7984 46.9522 24.8584C47.3722 24.9184 47.8122 25.0184 48.2122 25.1584C48.4722 25.2384 48.7122 25.3184 48.9522 25.4384C49.2122 25.5384 49.4522 25.6584 49.6922 25.7784C49.7522 25.7984 49.8122 25.8384 49.8722 25.8784C49.9722 25.9384 50.0522 25.9784 50.1322 26.0384C50.6322 26.3384 51.0922 26.6784 51.5122 27.0784C52.6722 28.1384 53.5322 29.5184 53.9722 31.0784C54.5922 33.2984 54.3322 35.6384 53.1922 37.6584L51.5322 40.6384Z" fill="url(#paint4_linear_9423_95620)"/>
<path d="M47.4123 29.2391C47.2723 29.1591 47.1123 29.0791 46.9523 29.0191C46.5523 28.8391 46.1123 28.7191 45.6923 28.6591C45.5323 28.6391 45.3923 28.6191 45.2323 28.6191C45.2323 28.6191 45.2323 28.6191 45.2123 28.6191C45.0723 28.6191 44.9123 28.6191 44.7723 28.6191C44.3923 28.6391 44.0123 28.6991 43.6523 28.7991C42.3723 29.1591 41.3323 29.9991 40.6723 31.1591C40.0323 32.3191 39.8723 33.6591 40.2323 34.9191C40.3323 35.2991 40.4923 35.6391 40.6723 35.9791C40.7323 36.1191 40.8323 36.2391 40.9123 36.3791C40.9923 36.5191 41.0923 36.6391 41.1923 36.7591C41.5723 37.2191 42.0323 37.5991 42.5723 37.8991C43.3323 38.3191 44.1523 38.5191 44.9723 38.5191C45.6523 38.5191 46.3123 38.3791 46.9323 38.1191C47.8923 37.6991 48.7323 36.9791 49.2923 35.9991L49.3123 35.9591C50.6523 33.5791 49.7923 30.5791 47.4123 29.2391ZM48.7723 35.6591C48.3323 36.4391 47.6923 37.0191 46.9523 37.3991C45.7123 38.0391 44.1923 38.0591 42.8923 37.3191C42.6323 37.1791 42.3723 36.9991 42.1523 36.7991C42.0323 36.6991 41.9323 36.5991 41.8323 36.4791C41.8123 36.4791 41.8123 36.4591 41.8123 36.4391C41.7123 36.3391 41.6323 36.2391 41.5523 36.1391C41.2323 35.7191 40.9923 35.2391 40.8523 34.7191C40.5323 33.6191 40.6723 32.4391 41.2323 31.4391C41.7923 30.4391 42.7123 29.6991 43.8323 29.3791C44.2323 29.2591 44.6123 29.2191 45.0123 29.2191C45.1323 29.2191 45.2523 29.2191 45.3723 29.2391C45.5123 29.2391 45.6523 29.2591 45.7723 29.2991C45.7723 29.2991 45.7723 29.2991 45.7923 29.2991C45.9323 29.3191 46.0723 29.3591 46.2123 29.3991C46.4723 29.4791 46.7123 29.5791 46.9523 29.6991C47.0123 29.7191 47.0723 29.7591 47.1123 29.7791C49.1923 30.9591 49.9323 33.5791 48.7723 35.6591Z" fill="url(#paint5_linear_9423_95620)"/>
<path d="M54.2919 30.9596C53.8119 29.2996 52.8719 27.7797 51.5319 26.6197C51.0719 26.2397 50.5919 25.8796 50.0319 25.5796C49.7919 25.4396 49.5519 25.3196 49.3119 25.2196C49.2519 25.1996 49.1919 25.1597 49.1319 25.1397C48.8719 25.0397 48.6119 24.9396 48.3519 24.8596C48.0919 24.7796 47.8319 24.6997 47.5719 24.6397C47.3519 24.5997 47.1519 24.5596 46.9319 24.5196C46.5519 24.4596 46.1919 24.4397 45.8119 24.4397C44.9319 24.4197 44.0519 24.5396 43.1919 24.7796C41.0919 25.3796 39.2119 26.7396 37.9919 28.7396C37.9319 28.8396 37.8719 28.9396 37.8119 29.0396L37.2319 30.0796L33.5719 36.6197L30.8519 41.4996L31.1519 41.6196L33.5719 42.5996L43.9919 46.7796L44.2919 46.8996L44.5919 47.0196L45.3119 47.3197L46.9519 47.9796L47.3519 48.1396L47.6519 48.2596L51.5319 41.2997L53.4919 37.7796C54.7119 35.5996 54.9119 33.1596 54.2919 30.9596ZM41.3719 36.4596C41.2719 36.3196 41.1719 36.1996 41.1119 36.0796C40.2119 34.6796 40.0919 32.8397 40.9519 31.2997C41.8119 29.7597 43.4319 28.8997 45.0919 28.9197C45.2319 28.9197 45.3719 28.9196 45.5119 28.9396C45.5119 28.9396 45.5119 28.9396 45.5319 28.9396C45.6719 28.9596 45.8319 28.9797 45.9719 29.0197C46.3119 29.0797 46.6319 29.1996 46.9519 29.3396C47.0519 29.3796 47.1519 29.4397 47.2519 29.4997H47.2719C49.4919 30.7397 50.2719 33.5596 49.0519 35.7796C49.0519 35.7796 49.0519 35.7796 49.0519 35.7997C48.5519 36.6797 47.8119 37.3396 46.9519 37.7396C45.6519 38.3396 44.0919 38.3396 42.7319 37.5796C42.3319 37.3596 41.9919 37.0796 41.6919 36.7796C41.5719 36.6996 41.4719 36.5796 41.3719 36.4596Z" fill="url(#paint6_linear_9423_95620)"/>
<path d="M46.9521 103.099H52.7521C54.1121 103.099 55.2122 101.999 55.2122 100.639V25.3389C55.2122 23.9789 54.1121 22.8789 52.7521 22.8789H46.9521V103.099Z" fill="url(#paint7_linear_9423_95620)"/>
<path d="M49.0723 22.8984H36.0523C34.6923 22.8984 33.5923 23.9984 33.5923 25.3584V100.658C33.5923 102.018 34.6923 103.118 36.0523 103.118H49.0723C50.4323 103.118 51.5323 102.018 51.5323 100.658V25.3384C51.5323 23.9784 50.4323 22.8984 49.0723 22.8984ZM38.2923 28.8784C38.3323 28.8184 38.3723 28.7784 38.4323 28.7184C38.4923 28.6584 38.5323 28.5984 38.5923 28.5384C40.4123 26.7184 43.3323 26.7184 45.1523 28.5384C45.1523 28.5384 45.1523 28.5384 45.1723 28.5584C45.1923 28.5784 45.2123 28.5984 45.2123 28.5984C45.3123 28.6984 45.4123 28.8184 45.5123 28.9384C45.6123 29.0584 45.6923 29.1784 45.7723 29.2984C46.9323 31.0984 46.7323 33.4984 45.1723 35.0784L45.1523 35.0984C44.2323 36.0184 43.0123 36.4784 41.7923 36.4584C41.6523 36.4584 41.4923 36.4584 41.3523 36.4384C41.2123 36.4184 41.0523 36.3984 40.9123 36.3584C40.8723 36.3584 40.8123 36.3384 40.7723 36.3184C40.7323 36.3184 40.7123 36.2984 40.6723 36.2984C40.6123 36.2784 40.5523 36.2584 40.4923 36.2384C39.7923 36.0184 39.1523 35.6384 38.5923 35.0984C37.2923 33.7984 36.9123 31.8984 37.4923 30.2584C37.6923 29.7784 37.9523 29.3184 38.2923 28.8784Z" fill="url(#paint8_linear_9423_95620)"/>
<g opacity="0.16">
<mask id="mask0_9423_95620" style="mask-type:luminance" maskUnits="userSpaceOnUse" x="33" y="22" width="19" height="82">
<path d="M49.0723 22.8984H36.0523C34.6923 22.8984 33.5923 23.9984 33.5923 25.3584V100.658C33.5923 102.018 34.6923 103.118 36.0523 103.118H49.0723C50.4323 103.118 51.5323 102.018 51.5323 100.658V25.3384C51.5323 23.9784 50.4323 22.8984 49.0723 22.8984ZM38.2923 28.8784C38.3323 28.8184 38.3723 28.7784 38.4323 28.7184C38.4923 28.6584 38.5323 28.5984 38.5923 28.5384C40.4123 26.7184 43.3323 26.7184 45.1523 28.5384C45.1523 28.5384 45.1523 28.5384 45.1723 28.5584C45.1923 28.5784 45.2123 28.5984 45.2123 28.5984C45.3123 28.6984 45.4123 28.8184 45.5123 28.9384C45.6123 29.0584 45.6923 29.1784 45.7723 29.2984C46.9323 31.0984 46.7323 33.4984 45.1723 35.0784L45.1523 35.0984C44.2323 36.0184 43.0123 36.4784 41.7923 36.4584C41.6523 36.4584 41.4923 36.4584 41.3523 36.4384C41.2123 36.4184 41.0523 36.3984 40.9123 36.3584C40.8723 36.3584 40.8123 36.3384 40.7723 36.3184C40.7323 36.3184 40.7123 36.2984 40.6723 36.2984C40.6123 36.2784 40.5523 36.2584 40.4923 36.2384C39.7923 36.0184 39.1523 35.6384 38.5923 35.0984C37.2923 33.7984 36.9123 31.8984 37.4923 30.2584C37.6923 29.7784 37.9523 29.3184 38.2923 28.8784Z" fill="white"/>
</mask>
<g mask="url(#mask0_9423_95620)">
<path d="M35.0124 23.6578H34.3124C33.9924 23.6578 33.7124 23.3978 33.7124 23.0578V22.3578C33.7124 22.0378 33.9724 21.7578 34.3124 21.7578H35.0124C35.3324 21.7578 35.6124 22.0178 35.6124 22.3578V23.0578C35.5924 23.3978 35.3324 23.6578 35.0124 23.6578Z" fill="#FF8B6C"/>
<path d="M35.0124 28.3785H34.3124C33.9924 28.3785 33.7124 28.1185 33.7124 27.7785V27.0785C33.7124 26.7585 33.9724 26.4785 34.3124 26.4785H35.0124C35.3324 26.4785 35.6124 26.7385 35.6124 27.0785V27.7785C35.5924 28.1185 35.3324 28.3785 35.0124 28.3785Z" fill="#FF8B6C"/>
<path d="M35.0124 33.1187H34.3124C33.9924 33.1187 33.7124 32.8587 33.7124 32.5188V31.8188C33.7124 31.4988 33.9724 31.2188 34.3124 31.2188H35.0124C35.3324 31.2188 35.6124 31.4787 35.6124 31.8188V32.5188C35.5924 32.8388 35.3324 33.1187 35.0124 33.1187Z" fill="#FF8B6C"/>
<path d="M35.0124 37.8395H34.3124C33.9924 37.8395 33.7124 37.5795 33.7124 37.2395V36.5395C33.7124 36.2195 33.9724 35.9395 34.3124 35.9395H35.0124C35.3324 35.9395 35.6124 36.1995 35.6124 36.5395V37.2395C35.5924 37.5795 35.3324 37.8395 35.0124 37.8395Z" fill="#FF8B6C"/>
<path d="M35.0124 42.5777H34.3124C33.9924 42.5777 33.7124 42.3177 33.7124 41.9777V41.2777C33.7124 40.9577 33.9724 40.6777 34.3124 40.6777H35.0124C35.3324 40.6777 35.6124 40.9377 35.6124 41.2777V41.9777C35.5924 42.2977 35.3324 42.5777 35.0124 42.5777Z" fill="#FF8B6C"/>
<path d="M35.0124 47.2984H34.3124C33.9924 47.2984 33.7124 47.0384 33.7124 46.6984V45.9984C33.7124 45.6784 33.9724 45.3984 34.3124 45.3984H35.0124C35.3324 45.3984 35.6124 45.6584 35.6124 45.9984V46.6984C35.5924 47.0384 35.3324 47.2984 35.0124 47.2984Z" fill="#FF8B6C"/>
<path d="M35.0124 52.0191H34.3124C33.9924 52.0191 33.7124 51.7591 33.7124 51.4191V50.7191C33.7124 50.3991 33.9724 50.1191 34.3124 50.1191H35.0124C35.3324 50.1191 35.6124 50.3791 35.6124 50.7191V51.4191C35.5924 51.7591 35.3324 52.0191 35.0124 52.0191Z" fill="#FF8B6C"/>
<path d="M35.0124 56.7594H34.3124C33.9924 56.7594 33.7124 56.4994 33.7124 56.1594V55.4594C33.7124 55.1394 33.9724 54.8594 34.3124 54.8594H35.0124C35.3324 54.8594 35.6124 55.1194 35.6124 55.4594V56.1594C35.5924 56.4794 35.3324 56.7594 35.0124 56.7594Z" fill="#FF8B6C"/>
<path d="M35.0124 61.4781H34.3124C33.9924 61.4781 33.7124 61.2181 33.7124 60.8781V60.1781C33.7124 59.8581 33.9724 59.5781 34.3124 59.5781H35.0124C35.3324 59.5781 35.6124 59.8381 35.6124 60.1781V60.8781C35.5924 61.2181 35.3324 61.4781 35.0124 61.4781Z" fill="#FF8B6C"/>
<path d="M35.0124 66.2184H34.3124C33.9924 66.2184 33.7124 65.9584 33.7124 65.6184V64.9184C33.7124 64.5984 33.9724 64.3184 34.3124 64.3184H35.0124C35.3324 64.3184 35.6124 64.5784 35.6124 64.9184V65.6184C35.5924 65.9384 35.3324 66.2184 35.0124 66.2184Z" fill="#FF8B6C"/>
<path d="M35.0124 70.9391H34.3124C33.9924 70.9391 33.7124 70.6791 33.7124 70.3391V69.6391C33.7124 69.3191 33.9724 69.0391 34.3124 69.0391H35.0124C35.3324 69.0391 35.6124 69.2991 35.6124 69.6391V70.3391C35.5924 70.6791 35.3324 70.9391 35.0124 70.9391Z" fill="#FF8B6C"/>
<path d="M35.0124 75.6578H34.3124C33.9924 75.6578 33.7124 75.3978 33.7124 75.0578V74.3578C33.7124 74.0378 33.9724 73.7578 34.3124 73.7578H35.0124C35.3324 73.7578 35.6124 74.0178 35.6124 74.3578V75.0578C35.5924 75.3978 35.3324 75.6578 35.0124 75.6578Z" fill="#FF8B6C"/>
<path d="M35.0124 80.398H34.3124C33.9924 80.398 33.7124 80.138 33.7124 79.798V79.098C33.7124 78.778 33.9724 78.498 34.3124 78.498H35.0124C35.3324 78.498 35.6124 78.758 35.6124 79.098V79.798C35.5924 80.118 35.3324 80.398 35.0124 80.398Z" fill="#FF8B6C"/>
<path d="M35.0124 85.1187H34.3124C33.9924 85.1187 33.7124 84.8587 33.7124 84.5188V83.8188C33.7124 83.4988 33.9724 83.2188 34.3124 83.2188H35.0124C35.3324 83.2188 35.6124 83.4787 35.6124 83.8188V84.5188C35.5924 84.8587 35.3324 85.1187 35.0124 85.1187Z" fill="#FF8B6C"/>
<path d="M35.0124 89.859H34.3124C33.9924 89.859 33.7124 89.599 33.7124 89.259V88.559C33.7124 88.239 33.9724 87.959 34.3124 87.959H35.0124C35.3324 87.959 35.6124 88.219 35.6124 88.559V89.259C35.5924 89.579 35.3324 89.859 35.0124 89.859Z" fill="#FF8B6C"/>
<path d="M35.0124 94.5777H34.3124C33.9924 94.5777 33.7124 94.3177 33.7124 93.9777V93.2777C33.7124 92.9577 33.9724 92.6777 34.3124 92.6777H35.0124C35.3324 92.6777 35.6124 92.9377 35.6124 93.2777V93.9777C35.5924 94.3177 35.3324 94.5777 35.0124 94.5777Z" fill="#FF8B6C"/>
<path d="M35.0124 99.2984H34.3124C33.9924 99.2984 33.7124 99.0384 33.7124 98.6984V97.9984C33.7124 97.6784 33.9724 97.3984 34.3124 97.3984H35.0124C35.3324 97.3984 35.6124 97.6584 35.6124 97.9984V98.6984C35.5924 99.0384 35.3324 99.2984 35.0124 99.2984Z" fill="#FF8B6C"/>
<path d="M35.0124 104.039H34.3124C33.9924 104.039 33.7124 103.779 33.7124 103.439V102.739C33.7124 102.419 33.9724 102.139 34.3124 102.139H35.0124C35.3324 102.139 35.6124 102.399 35.6124 102.739V103.439C35.5924 103.759 35.3324 104.039 35.0124 104.039Z" fill="#FF8B6C"/>
<path d="M38.4925 25.9781H37.7925C37.4725 25.9781 37.1925 25.7181 37.1925 25.3781V24.6781C37.1925 24.3581 37.4525 24.0781 37.7925 24.0781H38.4925C38.8125 24.0781 39.0925 24.3381 39.0925 24.6781V25.3781C39.0925 25.7181 38.8125 25.9781 38.4925 25.9781Z" fill="#FF8B6C"/>
<path d="M38.4925 30.7184H37.7925C37.4725 30.7184 37.1925 30.4584 37.1925 30.1184V29.4184C37.1925 29.0984 37.4525 28.8184 37.7925 28.8184H38.4925C38.8125 28.8184 39.0925 29.0784 39.0925 29.4184V30.1184C39.0925 30.4384 38.8125 30.7184 38.4925 30.7184Z" fill="#FF8B6C"/>
<path d="M38.4925 35.4391H37.7925C37.4725 35.4391 37.1925 35.1791 37.1925 34.8391V34.1391C37.1925 33.8191 37.4525 33.5391 37.7925 33.5391H38.4925C38.8125 33.5391 39.0925 33.7991 39.0925 34.1391V34.8391C39.0925 35.1791 38.8125 35.4391 38.4925 35.4391Z" fill="#FF8B6C"/>
<path d="M38.4925 40.1578H37.7925C37.4725 40.1578 37.1925 39.8978 37.1925 39.5578V38.8578C37.1925 38.5378 37.4525 38.2578 37.7925 38.2578H38.4925C38.8125 38.2578 39.0925 38.5178 39.0925 38.8578V39.5578C39.0925 39.8978 38.8125 40.1578 38.4925 40.1578Z" fill="#FF8B6C"/>
<path d="M38.4925 44.898H37.7925C37.4725 44.898 37.1925 44.638 37.1925 44.298V43.598C37.1925 43.278 37.4525 42.998 37.7925 42.998H38.4925C38.8125 42.998 39.0925 43.258 39.0925 43.598V44.298C39.0925 44.638 38.8125 44.898 38.4925 44.898Z" fill="#FF8B6C"/>
<path d="M38.4925 49.6187H37.7925C37.4725 49.6187 37.1925 49.3587 37.1925 49.0188V48.3188C37.1925 47.9988 37.4525 47.7188 37.7925 47.7188H38.4925C38.8125 47.7188 39.0925 47.9787 39.0925 48.3188V49.0188C39.0925 49.3587 38.8125 49.6187 38.4925 49.6187Z" fill="#FF8B6C"/>
<path d="M38.4925 54.359H37.7925C37.4725 54.359 37.1925 54.099 37.1925 53.759V53.059C37.1925 52.739 37.4525 52.459 37.7925 52.459H38.4925C38.8125 52.459 39.0925 52.719 39.0925 53.059V53.759C39.0925 54.079 38.8125 54.359 38.4925 54.359Z" fill="#FF8B6C"/>
<path d="M38.4925 59.0777H37.7925C37.4725 59.0777 37.1925 58.8177 37.1925 58.4777V57.7777C37.1925 57.4577 37.4525 57.1777 37.7925 57.1777H38.4925C38.8125 57.1777 39.0925 57.4377 39.0925 57.7777V58.4777C39.0925 58.8177 38.8125 59.0777 38.4925 59.0777Z" fill="#FF8B6C"/>
<path d="M38.4925 63.7984H37.7925C37.4725 63.7984 37.1925 63.5384 37.1925 63.1984V62.4984C37.1925 62.1784 37.4525 61.8984 37.7925 61.8984H38.4925C38.8125 61.8984 39.0925 62.1584 39.0925 62.4984V63.1984C39.0925 63.5384 38.8125 63.7984 38.4925 63.7984Z" fill="#FF8B6C"/>
<path d="M38.4925 68.5387H37.7925C37.4725 68.5387 37.1925 68.2787 37.1925 67.9387V67.2387C37.1925 66.9187 37.4525 66.6387 37.7925 66.6387H38.4925C38.8125 66.6387 39.0925 66.8987 39.0925 67.2387V67.9387C39.0925 68.2787 38.8125 68.5387 38.4925 68.5387Z" fill="#FF8B6C"/>
<path d="M38.4925 73.2594H37.7925C37.4725 73.2594 37.1925 72.9994 37.1925 72.6594V71.9594C37.1925 71.6394 37.4525 71.3594 37.7925 71.3594H38.4925C38.8125 71.3594 39.0925 71.6194 39.0925 71.9594V72.6594C39.0925 72.9994 38.8125 73.2594 38.4925 73.2594Z" fill="#FF8B6C"/>
<path d="M38.4925 77.9977H37.7925C37.4725 77.9977 37.1925 77.7377 37.1925 77.3977V76.6977C37.1925 76.3777 37.4525 76.0977 37.7925 76.0977H38.4925C38.8125 76.0977 39.0925 76.3577 39.0925 76.6977V77.3977C39.0925 77.7177 38.8125 77.9977 38.4925 77.9977Z" fill="#FF8B6C"/>
<path d="M38.4925 82.7184H37.7925C37.4725 82.7184 37.1925 82.4584 37.1925 82.1184V81.4184C37.1925 81.0984 37.4525 80.8184 37.7925 80.8184H38.4925C38.8125 80.8184 39.0925 81.0784 39.0925 81.4184V82.1184C39.0925 82.4584 38.8125 82.7184 38.4925 82.7184Z" fill="#FF8B6C"/>
<path d="M38.4925 87.4391H37.7925C37.4725 87.4391 37.1925 87.1791 37.1925 86.8391V86.1391C37.1925 85.8191 37.4525 85.5391 37.7925 85.5391H38.4925C38.8125 85.5391 39.0925 85.7991 39.0925 86.1391V86.8391C39.0925 87.1791 38.8125 87.4391 38.4925 87.4391Z" fill="#FF8B6C"/>
<path d="M38.4925 92.1793H37.7925C37.4725 92.1793 37.1925 91.9193 37.1925 91.5793V90.8793C37.1925 90.5593 37.4525 90.2793 37.7925 90.2793H38.4925C38.8125 90.2793 39.0925 90.5393 39.0925 90.8793V91.5793C39.0925 91.9193 38.8125 92.1793 38.4925 92.1793Z" fill="#FF8B6C"/>
<path d="M38.4925 96.898H37.7925C37.4725 96.898 37.1925 96.638 37.1925 96.298V95.598C37.1925 95.278 37.4525 94.998 37.7925 94.998H38.4925C38.8125 94.998 39.0925 95.258 39.0925 95.598V96.298C39.0925 96.638 38.8125 96.898 38.4925 96.898Z" fill="#FF8B6C"/>
<path d="M38.4925 101.638H37.7925C37.4725 101.638 37.1925 101.378 37.1925 101.038V100.338C37.1925 100.018 37.4525 99.7383 37.7925 99.7383H38.4925C38.8125 99.7383 39.0925 99.9983 39.0925 100.338V101.038C39.0925 101.358 38.8125 101.638 38.4925 101.638Z" fill="#FF8B6C"/>
<path d="M41.8525 23.6578H41.1525C40.8325 23.6578 40.5525 23.3978 40.5525 23.0578V22.3578C40.5525 22.0378 40.8125 21.7578 41.1525 21.7578H41.8525C42.1725 21.7578 42.4525 22.0178 42.4525 22.3578V23.0578C42.4525 23.3978 42.1725 23.6578 41.8525 23.6578Z" fill="#FF8B6C"/>
<path d="M41.8525 28.3785H41.1525C40.8325 28.3785 40.5525 28.1185 40.5525 27.7785V27.0785C40.5525 26.7585 40.8125 26.4785 41.1525 26.4785H41.8525C42.1725 26.4785 42.4525 26.7385 42.4525 27.0785V27.7785C42.4525 28.1185 42.1725 28.3785 41.8525 28.3785Z" fill="#FF8B6C"/>
<path d="M41.8525 33.1187H41.1525C40.8325 33.1187 40.5525 32.8587 40.5525 32.5188V31.8188C40.5525 31.4988 40.8125 31.2188 41.1525 31.2188H41.8525C42.1725 31.2188 42.4525 31.4787 42.4525 31.8188V32.5188C42.4525 32.8388 42.1725 33.1187 41.8525 33.1187Z" fill="#FF8B6C"/>
<path d="M41.8525 37.8395H41.1525C40.8325 37.8395 40.5525 37.5795 40.5525 37.2395V36.5395C40.5525 36.2195 40.8125 35.9395 41.1525 35.9395H41.8525C42.1725 35.9395 42.4525 36.1995 42.4525 36.5395V37.2395C42.4525 37.5795 42.1725 37.8395 41.8525 37.8395Z" fill="#FF8B6C"/>
<path d="M41.8525 42.5777H41.1525C40.8325 42.5777 40.5525 42.3177 40.5525 41.9777V41.2777C40.5525 40.9577 40.8125 40.6777 41.1525 40.6777H41.8525C42.1725 40.6777 42.4525 40.9377 42.4525 41.2777V41.9777C42.4525 42.2977 42.1725 42.5777 41.8525 42.5777Z" fill="#FF8B6C"/>
<path d="M41.8525 47.2984H41.1525C40.8325 47.2984 40.5525 47.0384 40.5525 46.6984V45.9984C40.5525 45.6784 40.8125 45.3984 41.1525 45.3984H41.8525C42.1725 45.3984 42.4525 45.6584 42.4525 45.9984V46.6984C42.4525 47.0384 42.1725 47.2984 41.8525 47.2984Z" fill="#FF8B6C"/>
<path d="M41.8525 52.0191H41.1525C40.8325 52.0191 40.5525 51.7591 40.5525 51.4191V50.7191C40.5525 50.3991 40.8125 50.1191 41.1525 50.1191H41.8525C42.1725 50.1191 42.4525 50.3791 42.4525 50.7191V51.4191C42.4525 51.7591 42.1725 52.0191 41.8525 52.0191Z" fill="#FF8B6C"/>
<path d="M41.8525 56.7594H41.1525C40.8325 56.7594 40.5525 56.4994 40.5525 56.1594V55.4594C40.5525 55.1394 40.8125 54.8594 41.1525 54.8594H41.8525C42.1725 54.8594 42.4525 55.1194 42.4525 55.4594V56.1594C42.4525 56.4794 42.1725 56.7594 41.8525 56.7594Z" fill="#FF8B6C"/>
<path d="M41.8525 61.4781H41.1525C40.8325 61.4781 40.5525 61.2181 40.5525 60.8781V60.1781C40.5525 59.8581 40.8125 59.5781 41.1525 59.5781H41.8525C42.1725 59.5781 42.4525 59.8381 42.4525 60.1781V60.8781C42.4525 61.2181 42.1725 61.4781 41.8525 61.4781Z" fill="#FF8B6C"/>
<path d="M41.8525 66.2184H41.1525C40.8325 66.2184 40.5525 65.9584 40.5525 65.6184V64.9184C40.5525 64.5984 40.8125 64.3184 41.1525 64.3184H41.8525C42.1725 64.3184 42.4525 64.5784 42.4525 64.9184V65.6184C42.4525 65.9384 42.1725 66.2184 41.8525 66.2184Z" fill="#FF8B6C"/>
<path d="M41.8525 70.9391H41.1525C40.8325 70.9391 40.5525 70.6791 40.5525 70.3391V69.6391C40.5525 69.3191 40.8125 69.0391 41.1525 69.0391H41.8525C42.1725 69.0391 42.4525 69.2991 42.4525 69.6391V70.3391C42.4525 70.6791 42.1725 70.9391 41.8525 70.9391Z" fill="#FF8B6C"/>
<path d="M41.8525 75.6578H41.1525C40.8325 75.6578 40.5525 75.3978 40.5525 75.0578V74.3578C40.5525 74.0378 40.8125 73.7578 41.1525 73.7578H41.8525C42.1725 73.7578 42.4525 74.0178 42.4525 74.3578V75.0578C42.4525 75.3978 42.1725 75.6578 41.8525 75.6578Z" fill="#FF8B6C"/>
<path d="M41.8525 80.398H41.1525C40.8325 80.398 40.5525 80.138 40.5525 79.798V79.098C40.5525 78.778 40.8125 78.498 41.1525 78.498H41.8525C42.1725 78.498 42.4525 78.758 42.4525 79.098V79.798C42.4525 80.118 42.1725 80.398 41.8525 80.398Z" fill="#FF8B6C"/>
<path d="M41.8525 85.1187H41.1525C40.8325 85.1187 40.5525 84.8587 40.5525 84.5188V83.8188C40.5525 83.4988 40.8125 83.2188 41.1525 83.2188H41.8525C42.1725 83.2188 42.4525 83.4787 42.4525 83.8188V84.5188C42.4525 84.8587 42.1725 85.1187 41.8525 85.1187Z" fill="#FF8B6C"/>
<path d="M41.8525 89.859H41.1525C40.8325 89.859 40.5525 89.599 40.5525 89.259V88.559C40.5525 88.239 40.8125 87.959 41.1525 87.959H41.8525C42.1725 87.959 42.4525 88.219 42.4525 88.559V89.259C42.4525 89.579 42.1725 89.859 41.8525 89.859Z" fill="#FF8B6C"/>
<path d="M41.8525 94.5777H41.1525C40.8325 94.5777 40.5525 94.3177 40.5525 93.9777V93.2777C40.5525 92.9577 40.8125 92.6777 41.1525 92.6777H41.8525C42.1725 92.6777 42.4525 92.9377 42.4525 93.2777V93.9777C42.4525 94.3177 42.1725 94.5777 41.8525 94.5777Z" fill="#FF8B6C"/>
<path d="M41.8525 99.2984H41.1525C40.8325 99.2984 40.5525 99.0384 40.5525 98.6984V97.9984C40.5525 97.6784 40.8125 97.3984 41.1525 97.3984H41.8525C42.1725 97.3984 42.4525 97.6584 42.4525 97.9984V98.6984C42.4525 99.0384 42.1725 99.2984 41.8525 99.2984Z" fill="#FF8B6C"/>
<path d="M41.8525 104.039H41.1525C40.8325 104.039 40.5525 103.779 40.5525 103.439V102.739C40.5525 102.419 40.8125 102.139 41.1525 102.139H41.8525C42.1725 102.139 42.4525 102.399 42.4525 102.739V103.439C42.4525 103.759 42.1725 104.039 41.8525 104.039Z" fill="#FF8B6C"/>
<path d="M45.3323 25.9781H44.6323C44.3123 25.9781 44.0323 25.7181 44.0323 25.3781V24.6781C44.0323 24.3581 44.2923 24.0781 44.6323 24.0781H45.3323C45.6523 24.0781 45.9323 24.3381 45.9323 24.6781V25.3781C45.9323 25.7181 45.6723 25.9781 45.3323 25.9781Z" fill="#FF8B6C"/>
<path d="M45.3323 30.7184H44.6323C44.3123 30.7184 44.0323 30.4584 44.0323 30.1184V29.4184C44.0323 29.0984 44.2923 28.8184 44.6323 28.8184H45.3323C45.6523 28.8184 45.9323 29.0784 45.9323 29.4184V30.1184C45.9323 30.4384 45.6723 30.7184 45.3323 30.7184Z" fill="#FF8B6C"/>
<path d="M45.3323 35.4391H44.6323C44.3123 35.4391 44.0323 35.1791 44.0323 34.8391V34.1391C44.0323 33.8191 44.2923 33.5391 44.6323 33.5391H45.3323C45.6523 33.5391 45.9323 33.7991 45.9323 34.1391V34.8391C45.9323 35.1791 45.6723 35.4391 45.3323 35.4391Z" fill="#FF8B6C"/>
<path d="M45.3323 40.1578H44.6323C44.3123 40.1578 44.0323 39.8978 44.0323 39.5578V38.8578C44.0323 38.5378 44.2923 38.2578 44.6323 38.2578H45.3323C45.6523 38.2578 45.9323 38.5178 45.9323 38.8578V39.5578C45.9323 39.8978 45.6723 40.1578 45.3323 40.1578Z" fill="#FF8B6C"/>
<path d="M45.3323 44.898H44.6323C44.3123 44.898 44.0323 44.638 44.0323 44.298V43.598C44.0323 43.278 44.2923 42.998 44.6323 42.998H45.3323C45.6523 42.998 45.9323 43.258 45.9323 43.598V44.298C45.9323 44.638 45.6723 44.898 45.3323 44.898Z" fill="#FF8B6C"/>
<path d="M45.3323 49.6187H44.6323C44.3123 49.6187 44.0323 49.3587 44.0323 49.0188V48.3188C44.0323 47.9988 44.2923 47.7188 44.6323 47.7188H45.3323C45.6523 47.7188 45.9323 47.9787 45.9323 48.3188V49.0188C45.9323 49.3587 45.6723 49.6187 45.3323 49.6187Z" fill="#FF8B6C"/>
<path d="M45.3323 54.359H44.6323C44.3123 54.359 44.0323 54.099 44.0323 53.759V53.059C44.0323 52.739 44.2923 52.459 44.6323 52.459H45.3323C45.6523 52.459 45.9323 52.719 45.9323 53.059V53.759C45.9323 54.079 45.6723 54.359 45.3323 54.359Z" fill="#FF8B6C"/>
<path d="M45.3323 59.0777H44.6323C44.3123 59.0777 44.0323 58.8177 44.0323 58.4777V57.7777C44.0323 57.4577 44.2923 57.1777 44.6323 57.1777H45.3323C45.6523 57.1777 45.9323 57.4377 45.9323 57.7777V58.4777C45.9323 58.8177 45.6723 59.0777 45.3323 59.0777Z" fill="#FF8B6C"/>
<path d="M45.3323 63.7984H44.6323C44.3123 63.7984 44.0323 63.5384 44.0323 63.1984V62.4984C44.0323 62.1784 44.2923 61.8984 44.6323 61.8984H45.3323C45.6523 61.8984 45.9323 62.1584 45.9323 62.4984V63.1984C45.9323 63.5384 45.6723 63.7984 45.3323 63.7984Z" fill="#FF8B6C"/>
<path d="M45.3323 68.5387H44.6323C44.3123 68.5387 44.0323 68.2787 44.0323 67.9387V67.2387C44.0323 66.9187 44.2923 66.6387 44.6323 66.6387H45.3323C45.6523 66.6387 45.9323 66.8987 45.9323 67.2387V67.9387C45.9323 68.2787 45.6723 68.5387 45.3323 68.5387Z" fill="#FF8B6C"/>
<path d="M45.3323 73.2594H44.6323C44.3123 73.2594 44.0323 72.9994 44.0323 72.6594V71.9594C44.0323 71.6394 44.2923 71.3594 44.6323 71.3594H45.3323C45.6523 71.3594 45.9323 71.6194 45.9323 71.9594V72.6594C45.9323 72.9994 45.6723 73.2594 45.3323 73.2594Z" fill="#FF8B6C"/>
<path d="M45.3323 77.9977H44.6323C44.3123 77.9977 44.0323 77.7377 44.0323 77.3977V76.6977C44.0323 76.3777 44.2923 76.0977 44.6323 76.0977H45.3323C45.6523 76.0977 45.9323 76.3577 45.9323 76.6977V77.3977C45.9323 77.7177 45.6723 77.9977 45.3323 77.9977Z" fill="#FF8B6C"/>
<path d="M45.3323 82.7184H44.6323C44.3123 82.7184 44.0323 82.4584 44.0323 82.1184V81.4184C44.0323 81.0984 44.2923 80.8184 44.6323 80.8184H45.3323C45.6523 80.8184 45.9323 81.0784 45.9323 81.4184V82.1184C45.9323 82.4584 45.6723 82.7184 45.3323 82.7184Z" fill="#FF8B6C"/>
<path d="M45.3323 87.4391H44.6323C44.3123 87.4391 44.0323 87.1791 44.0323 86.8391V86.1391C44.0323 85.8191 44.2923 85.5391 44.6323 85.5391H45.3323C45.6523 85.5391 45.9323 85.7991 45.9323 86.1391V86.8391C45.9323 87.1791 45.6723 87.4391 45.3323 87.4391Z" fill="#FF8B6C"/>
<path d="M45.3323 92.1793H44.6323C44.3123 92.1793 44.0323 91.9193 44.0323 91.5793V90.8793C44.0323 90.5593 44.2923 90.2793 44.6323 90.2793H45.3323C45.6523 90.2793 45.9323 90.5393 45.9323 90.8793V91.5793C45.9323 91.9193 45.6723 92.1793 45.3323 92.1793Z" fill="#FF8B6C"/>
<path d="M45.3323 96.898H44.6323C44.3123 96.898 44.0323 96.638 44.0323 96.298V95.598C44.0323 95.278 44.2923 94.998 44.6323 94.998H45.3323C45.6523 94.998 45.9323 95.258 45.9323 95.598V96.298C45.9323 96.638 45.6723 96.898 45.3323 96.898Z" fill="#FF8B6C"/>
<path d="M45.3323 101.638H44.6323C44.3123 101.638 44.0323 101.378 44.0323 101.038V100.338C44.0323 100.018 44.2923 99.7383 44.6323 99.7383H45.3323C45.6523 99.7383 45.9323 99.9983 45.9323 100.338V101.038C45.9323 101.358 45.6723 101.638 45.3323 101.638Z" fill="#FF8B6C"/>
<path d="M48.6925 23.6578H47.9925C47.6725 23.6578 47.3925 23.3978 47.3925 23.0578V22.3578C47.3925 22.0378 47.6525 21.7578 47.9925 21.7578H48.6925C49.0125 21.7578 49.2925 22.0178 49.2925 22.3578V23.0578C49.2925 23.3978 49.0325 23.6578 48.6925 23.6578Z" fill="#FF8B6C"/>
<path d="M48.6925 28.3785H47.9925C47.6725 28.3785 47.3925 28.1185 47.3925 27.7785V27.0785C47.3925 26.7585 47.6525 26.4785 47.9925 26.4785H48.6925C49.0125 26.4785 49.2925 26.7385 49.2925 27.0785V27.7785C49.2925 28.1185 49.0325 28.3785 48.6925 28.3785Z" fill="#FF8B6C"/>
<path d="M48.6925 33.1187H47.9925C47.6725 33.1187 47.3925 32.8587 47.3925 32.5188V31.8188C47.3925 31.4988 47.6525 31.2188 47.9925 31.2188H48.6925C49.0125 31.2188 49.2925 31.4787 49.2925 31.8188V32.5188C49.2925 32.8388 49.0325 33.1187 48.6925 33.1187Z" fill="#FF8B6C"/>
<path d="M48.6925 37.8395H47.9925C47.6725 37.8395 47.3925 37.5795 47.3925 37.2395V36.5395C47.3925 36.2195 47.6525 35.9395 47.9925 35.9395H48.6925C49.0125 35.9395 49.2925 36.1995 49.2925 36.5395V37.2395C49.2925 37.5795 49.0325 37.8395 48.6925 37.8395Z" fill="#FF8B6C"/>
<path d="M48.6925 42.5777H47.9925C47.6725 42.5777 47.3925 42.3177 47.3925 41.9777V41.2777C47.3925 40.9577 47.6525 40.6777 47.9925 40.6777H48.6925C49.0125 40.6777 49.2925 40.9377 49.2925 41.2777V41.9777C49.2925 42.2977 49.0325 42.5777 48.6925 42.5777Z" fill="#FF8B6C"/>
<path d="M48.6925 47.2984H47.9925C47.6725 47.2984 47.3925 47.0384 47.3925 46.6984V45.9984C47.3925 45.6784 47.6525 45.3984 47.9925 45.3984H48.6925C49.0125 45.3984 49.2925 45.6584 49.2925 45.9984V46.6984C49.2925 47.0384 49.0325 47.2984 48.6925 47.2984Z" fill="#FF8B6C"/>
<path d="M48.6925 52.0191H47.9925C47.6725 52.0191 47.3925 51.7591 47.3925 51.4191V50.7191C47.3925 50.3991 47.6525 50.1191 47.9925 50.1191H48.6925C49.0125 50.1191 49.2925 50.3791 49.2925 50.7191V51.4191C49.2925 51.7591 49.0325 52.0191 48.6925 52.0191Z" fill="#FF8B6C"/>
<path d="M48.6925 56.7594H47.9925C47.6725 56.7594 47.3925 56.4994 47.3925 56.1594V55.4594C47.3925 55.1394 47.6525 54.8594 47.9925 54.8594H48.6925C49.0125 54.8594 49.2925 55.1194 49.2925 55.4594V56.1594C49.2925 56.4794 49.0325 56.7594 48.6925 56.7594Z" fill="#FF8B6C"/>
<path d="M48.6925 61.4781H47.9925C47.6725 61.4781 47.3925 61.2181 47.3925 60.8781V60.1781C47.3925 59.8581 47.6525 59.5781 47.9925 59.5781H48.6925C49.0125 59.5781 49.2925 59.8381 49.2925 60.1781V60.8781C49.2925 61.2181 49.0325 61.4781 48.6925 61.4781Z" fill="#FF8B6C"/>
<path d="M48.6925 66.2184H47.9925C47.6725 66.2184 47.3925 65.9584 47.3925 65.6184V64.9184C47.3925 64.5984 47.6525 64.3184 47.9925 64.3184H48.6925C49.0125 64.3184 49.2925 64.5784 49.2925 64.9184V65.6184C49.2925 65.9384 49.0325 66.2184 48.6925 66.2184Z" fill="#FF8B6C"/>
<path d="M48.6925 70.9391H47.9925C47.6725 70.9391 47.3925 70.6791 47.3925 70.3391V69.6391C47.3925 69.3191 47.6525 69.0391 47.9925 69.0391H48.6925C49.0125 69.0391 49.2925 69.2991 49.2925 69.6391V70.3391C49.2925 70.6791 49.0325 70.9391 48.6925 70.9391Z" fill="#FF8B6C"/>
<path d="M48.6925 75.6578H47.9925C47.6725 75.6578 47.3925 75.3978 47.3925 75.0578V74.3578C47.3925 74.0378 47.6525 73.7578 47.9925 73.7578H48.6925C49.0125 73.7578 49.2925 74.0178 49.2925 74.3578V75.0578C49.2925 75.3978 49.0325 75.6578 48.6925 75.6578Z" fill="#FF8B6C"/>
<path d="M48.6925 80.398H47.9925C47.6725 80.398 47.3925 80.138 47.3925 79.798V79.098C47.3925 78.778 47.6525 78.498 47.9925 78.498H48.6925C49.0125 78.498 49.2925 78.758 49.2925 79.098V79.798C49.2925 80.118 49.0325 80.398 48.6925 80.398Z" fill="#FF8B6C"/>
<path d="M48.6925 85.1187H47.9925C47.6725 85.1187 47.3925 84.8587 47.3925 84.5188V83.8188C47.3925 83.4988 47.6525 83.2188 47.9925 83.2188H48.6925C49.0125 83.2188 49.2925 83.4787 49.2925 83.8188V84.5188C49.2925 84.8587 49.0325 85.1187 48.6925 85.1187Z" fill="#FF8B6C"/>
<path d="M48.6925 89.859H47.9925C47.6725 89.859 47.3925 89.599 47.3925 89.259V88.559C47.3925 88.239 47.6525 87.959 47.9925 87.959H48.6925C49.0125 87.959 49.2925 88.219 49.2925 88.559V89.259C49.2925 89.579 49.0325 89.859 48.6925 89.859Z" fill="#FF8B6C"/>
<path d="M48.6925 94.5777H47.9925C47.6725 94.5777 47.3925 94.3177 47.3925 93.9777V93.2777C47.3925 92.9577 47.6525 92.6777 47.9925 92.6777H48.6925C49.0125 92.6777 49.2925 92.9377 49.2925 93.2777V93.9777C49.2925 94.3177 49.0325 94.5777 48.6925 94.5777Z" fill="#FF8B6C"/>
<path d="M48.6925 99.2984H47.9925C47.6725 99.2984 47.3925 99.0384 47.3925 98.6984V97.9984C47.3925 97.6784 47.6525 97.3984 47.9925 97.3984H48.6925C49.0125 97.3984 49.2925 97.6584 49.2925 97.9984V98.6984C49.2925 99.0384 49.0325 99.2984 48.6925 99.2984Z" fill="#FF8B6C"/>
<path d="M48.6925 104.039H47.9925C47.6725 104.039 47.3925 103.779 47.3925 103.439V102.739C47.3925 102.419 47.6525 102.139 47.9925 102.139H48.6925C49.0125 102.139 49.2925 102.399 49.2925 102.739V103.439C49.2925 103.759 49.0325 104.039 48.6925 104.039Z" fill="#FF8B6C"/>
<path d="M52.1925 25.9781H51.4925C51.1725 25.9781 50.8925 25.7181 50.8925 25.3781V24.6781C50.8925 24.3581 51.1525 24.0781 51.4925 24.0781H52.1925C52.5125 24.0781 52.7925 24.3381 52.7925 24.6781V25.3781C52.7725 25.7181 52.5125 25.9781 52.1925 25.9781Z" fill="#FF8B6C"/>
<path d="M52.1925 30.7184H51.4925C51.1725 30.7184 50.8925 30.4584 50.8925 30.1184V29.4184C50.8925 29.0984 51.1525 28.8184 51.4925 28.8184H52.1925C52.5125 28.8184 52.7925 29.0784 52.7925 29.4184V30.1184C52.7725 30.4384 52.5125 30.7184 52.1925 30.7184Z" fill="#FF8B6C"/>
<path d="M52.1925 35.4391H51.4925C51.1725 35.4391 50.8925 35.1791 50.8925 34.8391V34.1391C50.8925 33.8191 51.1525 33.5391 51.4925 33.5391H52.1925C52.5125 33.5391 52.7925 33.7991 52.7925 34.1391V34.8391C52.7725 35.1791 52.5125 35.4391 52.1925 35.4391Z" fill="#FF8B6C"/>
<path d="M52.1925 40.1578H51.4925C51.1725 40.1578 50.8925 39.8978 50.8925 39.5578V38.8578C50.8925 38.5378 51.1525 38.2578 51.4925 38.2578H52.1925C52.5125 38.2578 52.7925 38.5178 52.7925 38.8578V39.5578C52.7725 39.8978 52.5125 40.1578 52.1925 40.1578Z" fill="#FF8B6C"/>
<path d="M52.1925 44.898H51.4925C51.1725 44.898 50.8925 44.638 50.8925 44.298V43.598C50.8925 43.278 51.1525 42.998 51.4925 42.998H52.1925C52.5125 42.998 52.7925 43.258 52.7925 43.598V44.298C52.7725 44.638 52.5125 44.898 52.1925 44.898Z" fill="#FF8B6C"/>
<path d="M52.1925 49.6187H51.4925C51.1725 49.6187 50.8925 49.3587 50.8925 49.0188V48.3188C50.8925 47.9988 51.1525 47.7188 51.4925 47.7188H52.1925C52.5125 47.7188 52.7925 47.9787 52.7925 48.3188V49.0188C52.7725 49.3587 52.5125 49.6187 52.1925 49.6187Z" fill="#FF8B6C"/>
<path d="M52.1925 54.359H51.4925C51.1725 54.359 50.8925 54.099 50.8925 53.759V53.059C50.8925 52.739 51.1525 52.459 51.4925 52.459H52.1925C52.5125 52.459 52.7925 52.719 52.7925 53.059V53.759C52.7725 54.079 52.5125 54.359 52.1925 54.359Z" fill="#FF8B6C"/>
<path d="M52.1925 59.0777H51.4925C51.1725 59.0777 50.8925 58.8177 50.8925 58.4777V57.7777C50.8925 57.4577 51.1525 57.1777 51.4925 57.1777H52.1925C52.5125 57.1777 52.7925 57.4377 52.7925 57.7777V58.4777C52.7725 58.8177 52.5125 59.0777 52.1925 59.0777Z" fill="#FF8B6C"/>
<path d="M52.1925 63.7984H51.4925C51.1725 63.7984 50.8925 63.5384 50.8925 63.1984V62.4984C50.8925 62.1784 51.1525 61.8984 51.4925 61.8984H52.1925C52.5125 61.8984 52.7925 62.1584 52.7925 62.4984V63.1984C52.7725 63.5384 52.5125 63.7984 52.1925 63.7984Z" fill="#FF8B6C"/>
<path d="M52.1925 68.5387H51.4925C51.1725 68.5387 50.8925 68.2787 50.8925 67.9387V67.2387C50.8925 66.9187 51.1525 66.6387 51.4925 66.6387H52.1925C52.5125 66.6387 52.7925 66.8987 52.7925 67.2387V67.9387C52.7725 68.2787 52.5125 68.5387 52.1925 68.5387Z" fill="#FF8B6C"/>
<path d="M52.1925 73.2594H51.4925C51.1725 73.2594 50.8925 72.9994 50.8925 72.6594V71.9594C50.8925 71.6394 51.1525 71.3594 51.4925 71.3594H52.1925C52.5125 71.3594 52.7925 71.6194 52.7925 71.9594V72.6594C52.7725 72.9994 52.5125 73.2594 52.1925 73.2594Z" fill="#FF8B6C"/>
<path d="M52.1925 77.9977H51.4925C51.1725 77.9977 50.8925 77.7377 50.8925 77.3977V76.6977C50.8925 76.3777 51.1525 76.0977 51.4925 76.0977H52.1925C52.5125 76.0977 52.7925 76.3577 52.7925 76.6977V77.3977C52.7725 77.7177 52.5125 77.9977 52.1925 77.9977Z" fill="#FF8B6C"/>
<path d="M52.1925 82.7184H51.4925C51.1725 82.7184 50.8925 82.4584 50.8925 82.1184V81.4184C50.8925 81.0984 51.1525 80.8184 51.4925 80.8184H52.1925C52.5125 80.8184 52.7925 81.0784 52.7925 81.4184V82.1184C52.7725 82.4584 52.5125 82.7184 52.1925 82.7184Z" fill="#FF8B6C"/>
<path d="M52.1925 87.4391H51.4925C51.1725 87.4391 50.8925 87.1791 50.8925 86.8391V86.1391C50.8925 85.8191 51.1525 85.5391 51.4925 85.5391H52.1925C52.5125 85.5391 52.7925 85.7991 52.7925 86.1391V86.8391C52.7725 87.1791 52.5125 87.4391 52.1925 87.4391Z" fill="#FF8B6C"/>
<path d="M52.1925 92.1793H51.4925C51.1725 92.1793 50.8925 91.9193 50.8925 91.5793V90.8793C50.8925 90.5593 51.1525 90.2793 51.4925 90.2793H52.1925C52.5125 90.2793 52.7925 90.5393 52.7925 90.8793V91.5793C52.7725 91.9193 52.5125 92.1793 52.1925 92.1793Z" fill="#FF8B6C"/>
<path d="M52.1925 96.898H51.4925C51.1725 96.898 50.8925 96.638 50.8925 96.298V95.598C50.8925 95.278 51.1525 94.998 51.4925 94.998H52.1925C52.5125 94.998 52.7925 95.258 52.7925 95.598V96.298C52.7725 96.638 52.5125 96.898 52.1925 96.898Z" fill="#FF8B6C"/>
<path d="M52.1925 101.638H51.4925C51.1725 101.638 50.8925 101.378 50.8925 101.038V100.338C50.8925 100.018 51.1525 99.7383 51.4925 99.7383H52.1925C52.5125 99.7383 52.7925 99.9983 52.7925 100.338V101.038C52.7725 101.358 52.5125 101.638 52.1925 101.638Z" fill="#FF8B6C"/>
<path d="M100.712 -25.5215H-55.2876V106.359H100.712V-25.5215Z" fill="url(#paint9_radial_9423_95620)"/>
</g>
</g>
<path d="M37.7523 97.138H47.3923C48.2923 97.138 49.0123 96.418 49.0123 95.518V63.118C49.0123 62.218 48.2923 61.498 47.3923 61.498H37.7523C36.8523 61.498 36.1323 62.218 36.1323 63.118V95.518C36.1323 96.418 36.8523 97.138 37.7523 97.138Z" fill="#262730"/>
<path d="M47.3921 61.1992H37.7521C37.6921 61.1992 37.6321 61.1992 37.5921 61.1992C37.1321 61.2392 36.7121 61.4392 36.3921 61.7592C36.1521 62.0192 35.9721 62.3192 35.8721 62.6792C35.8321 62.8192 35.8121 62.9792 35.8121 63.1192V95.5192C35.8121 96.5792 36.6721 97.4392 37.7321 97.4392H47.3721C48.4321 97.4392 49.2921 96.5792 49.2921 95.5192V63.1192C49.3121 62.0592 48.4521 61.1992 47.3921 61.1992ZM48.6721 95.5192C48.6721 96.2392 48.0921 96.8192 47.3721 96.8192H37.7321C37.0121 96.8192 36.4321 96.2392 36.4321 95.5192V63.1192C36.4321 62.6192 36.7121 62.1992 37.1321 61.9792C37.3121 61.8792 37.5121 61.8192 37.7321 61.8192H47.3721C48.0921 61.8192 48.6721 62.3992 48.6721 63.1192V95.5192Z" fill="url(#paint10_linear_9423_95620)"/>
<path d="M43.4723 69.4587V69.9387H44.2123V70.6787H44.7123V69.9387H45.4523V69.4587H44.7123V68.7188H44.2123V69.4587H43.4723Z" fill="white"/>
<path d="M40.3522 68.7188V69.9387H39.8722V69.6987H39.6122H39.3722V68.9587H39.1322V69.4587H38.8722V69.1987H38.3922V69.6987H38.8722V69.9387H39.1322H39.3722V70.4387H39.6122V70.1987H39.8722V70.4387H40.3522V70.6787H40.8522V68.7188H40.3522Z" fill="white"/>
<path d="M40.1122 75.3396V75.0996H39.1322V75.3396H38.8922V75.5796H38.6522V76.8196H39.3922V77.0596H39.8922V76.8196H40.6322V75.3396H40.1122ZM40.1122 76.3196H39.8722V76.0796H39.3722V76.3196H39.1322V75.5796H40.1122V76.3196Z" fill="white"/>
<path d="M43.7323 75.3379V75.5779H43.9723V75.8179H44.2123V76.0779V76.3179H43.9723V76.5579H43.7323V76.7979H43.4723V77.2979H45.4523V76.7979H44.2123V76.5579H44.4723V76.3179H44.7123V76.0779V75.8179H44.4723V75.5779H44.2123V75.3379H45.4523V74.8379H43.4723V75.3379H43.7323Z" fill="white"/>
<path d="M43.7319 81.7578V81.9978H43.9719V82.4978H43.7319V82.7378H43.2319V83.2378H43.7319V82.9778H44.2119V82.4978V81.9978V81.5178H43.7319V81.2578H43.2319V81.7578H43.7319Z" fill="white"/>
<path d="M44.712 81.5178V81.9978V82.4978V82.9778H45.192V83.2378H45.692V82.7378H45.192V82.4978H44.952V81.9978H45.192V81.7578H45.692V81.2578H45.192V81.5178H44.712Z" fill="white"/>
<path d="M39.6126 81.7595V81.5195H39.3726V81.7595H38.8726V81.9995H38.3926V82.4995H38.8726V82.7395H39.3726V82.9795H39.6126V82.7395H39.8726V81.7595H39.6126Z" fill="white"/>
<path d="M40.5927 82.7395V82.4995H40.8527V81.9995H40.5927V81.7595H40.1127V81.5195H39.8727V81.7595H40.1127V82.7395H39.8727V82.9795H40.1127V82.7395H40.5927Z" fill="white"/>
<path d="M44.0926 88.6191H43.8525V88.8591H44.0926V88.6191Z" fill="white"/>
<path d="M45.3326 88.1397V87.8997H45.0926V87.6597H44.8526V87.4197H44.6126V87.1797H43.8726V87.4197H43.6326V87.6597H43.3926V89.3797H44.6326V89.1397H45.1326V88.8997H45.6326V88.1597H45.3326V88.1397ZM44.3526 87.6397H44.5926V87.8797H44.8326V88.1197H44.3326V87.6397H44.3526ZM43.6126 87.8797H43.8526V87.6397H44.0926V88.1397H43.5926V87.8797H43.6126ZM45.3326 88.6197H44.8326V88.8597H44.3326V89.0997H43.8326V88.8597H43.5926V88.3797H44.0926V88.6197H44.3326V88.3797H45.3126V88.6197H45.3326Z" fill="white"/>
<path d="M40.6323 87.6189V87.3789H39.6323V87.6389H38.6323V87.8989H38.3723V89.1589H40.8923V87.6589H40.6323V87.6189ZM39.3723 88.6189H38.8723V88.1189H39.3723V88.6189ZM40.3723 88.6189H39.8723V87.8589H40.3723V88.6189Z" fill="white"/>
<path d="M40.9762 64.5125V64.8125H41.2762V64.5125H40.9762Z" fill="white"/>
<path d="M41.2733 64.2137V64.5137H41.5733V64.2137H41.2733Z" fill="white"/>
<path d="M41.5703 63.9129V64.2129H41.8703V63.9129H41.5703Z" fill="white"/>
<path d="M42.1672 63.9109V64.2109H42.4672V63.9109H42.1672Z" fill="white"/>
<path d="M42.4672 64.2078V64.5078H42.7672V64.2078H42.4672Z" fill="white"/>
<path d="M42.7672 64.5047V64.8047H43.0672V64.5047H42.7672Z" fill="white"/>
<path d="M41.8873 63.6141V63.9141H42.1873V63.6141H41.8873Z" fill="white"/>
<path d="M41.2717 93.5617L41.2717 93.2617L40.9717 93.2617L40.9717 93.5617L41.2717 93.5617Z" fill="white"/>
<path d="M41.5687 93.8625L41.5687 93.5625L41.2687 93.5625L41.2687 93.8625L41.5687 93.8625Z" fill="white"/>
<path d="M41.8857 94.1613L41.8857 93.8613L41.5857 93.8613L41.5857 94.1613L41.8857 94.1613Z" fill="white"/>
<path d="M42.4828 94.1652L42.4828 93.8652L42.1828 93.8652L42.1828 94.1652L42.4828 94.1652Z" fill="white"/>
<path d="M42.7627 93.8684L42.7627 93.5684L42.4627 93.5684L42.4627 93.8684L42.7627 93.8684Z" fill="white"/>
<path d="M43.0627 93.5715L43.0627 93.2715L42.7627 93.2715L42.7627 93.5715L43.0627 93.5715Z" fill="white"/>
<path d="M42.1829 94.4621L42.1829 94.1621L41.8829 94.1621L41.8829 94.4621L42.1829 94.4621Z" fill="white"/>
<path d="M52.1921 29.6384C52.0321 29.0584 51.8121 28.4984 51.5321 27.9784C51.1721 27.2784 50.7121 26.5984 50.1521 26.0184C49.8921 25.7384 49.6321 25.4784 49.3321 25.2384C49.1921 25.1184 49.0321 24.9984 48.8721 24.8784C48.7121 24.7584 48.5321 24.6384 48.3721 24.5384C48.2321 24.4584 48.0921 24.3584 47.9521 24.2784C47.6321 24.0984 47.3121 23.9384 46.9721 23.8184C46.8121 23.7584 46.6521 23.6984 46.5121 23.6384C45.6721 23.3384 44.8121 23.1784 43.9521 23.1584C43.8921 23.1584 43.8121 23.1584 43.7521 23.1584C42.8721 23.1384 41.9921 23.2584 41.1321 23.4984C38.9321 24.1184 36.9521 25.5784 35.7521 27.7584L33.6121 31.5984L1.11208 89.8184L1.01208 89.9784L4.01208 91.6584L4.65208 92.0184L16.2521 98.4784L16.7121 98.7384L17.3521 99.0984C17.1921 98.9984 17.0721 98.8584 17.0121 98.6984C16.9321 98.4984 16.9521 98.2784 17.0721 98.0784L33.6521 68.3984L35.8721 64.4384L36.1921 63.8784L36.5121 63.3184L37.2121 62.0784L37.4521 61.6584L37.6521 61.3184L40.9121 55.4584L45.3921 47.4184L47.0321 44.4984L51.4721 36.5584C51.5121 36.4784 51.5721 36.3984 51.6121 36.2984C52.6121 34.0984 52.7921 31.7584 52.1921 29.6384ZM46.2121 31.8384C46.2121 32.5584 46.0121 33.2984 45.6721 33.9184L45.6321 33.9984C44.7921 35.4784 43.1721 36.3384 41.5521 36.1584C41.2321 35.7384 40.9921 35.2584 40.8521 34.7384C40.5321 33.6384 40.6721 32.4584 41.2321 31.4584C41.7921 30.4584 42.7121 29.7184 43.8321 29.3984C44.2321 29.2784 44.6121 29.2384 45.0121 29.2384C45.1321 29.2384 45.2521 29.2384 45.3721 29.2584C45.9121 29.9984 46.2121 30.8984 46.2121 31.8384Z" fill="#B8BBBC"/>
<path d="M51.1721 29.2184C50.7721 27.7984 50.0321 26.4784 48.9721 25.4184C48.7921 25.2184 48.5921 25.0384 48.3921 24.8584C48.1921 24.6784 47.972 24.5184 47.7521 24.3584C47.5121 24.1784 47.2521 24.0184 46.9721 23.8584C46.9521 23.8584 46.9521 23.8384 46.9321 23.8384C46.7921 23.7584 46.6521 23.6784 46.5121 23.6184C45.8321 23.2784 45.1321 23.0384 44.4121 22.8984C43.8521 22.7784 43.2921 22.7184 42.7321 22.6984C42.0521 22.6784 41.3721 22.7584 40.7121 22.8984C40.5121 22.9384 40.3121 22.9984 40.1121 23.0384C37.9121 23.6584 35.9321 25.1384 34.7321 27.2984L33.6121 29.3184L0.432056 88.7383C0.192056 89.1583 0.352071 89.6983 0.772071 89.9383L4.15205 91.8184L16.6121 98.7584C16.4521 98.6784 16.3321 98.5583 16.2321 98.3983C16.1721 98.2983 16.1321 98.1983 16.0921 98.0984C16.0121 97.8183 16.0321 97.5183 16.1921 97.2383L33.6121 66.0584L39.8321 54.8984L44.3121 46.8784L46.9521 42.1383L50.3721 36.0184C51.5921 33.8784 51.7921 31.4184 51.1721 29.2184ZM41.3721 36.4584C41.2121 36.4384 41.0721 36.3984 40.9121 36.3784C40.8521 36.3584 40.8121 36.3583 40.7721 36.3384C40.7321 36.3384 40.7121 36.3184 40.6721 36.3184C40.6121 36.2984 40.5521 36.2784 40.4921 36.2584C39.8321 36.0384 39.2721 35.7184 38.8121 35.2984L38.7921 35.2784C37.3921 34.0184 36.8721 32.0183 37.5321 30.2383C37.7121 29.7783 37.9521 29.3184 38.2921 28.8984C38.3321 28.8384 38.3921 28.7784 38.4321 28.7184C38.4921 28.6584 38.5521 28.5984 38.5921 28.5384C40.0321 27.0384 42.3321 26.7784 44.1521 27.7784C44.5521 27.9984 44.9121 28.2784 45.2121 28.5984C45.3121 28.7184 45.4121 28.8183 45.5121 28.9384C45.6121 29.0584 45.6921 29.1784 45.7721 29.2984C46.2521 30.0384 46.5121 30.9184 46.5121 31.8184C46.5121 32.5784 46.3121 33.3584 45.9321 34.0584L45.8921 34.1384C45.0721 35.6184 43.4921 36.5384 41.8321 36.4784C41.6921 36.4784 41.5721 36.4584 41.4321 36.4383C41.4121 36.4584 41.3921 36.4584 41.3721 36.4584Z" fill="url(#paint11_linear_9423_95620)"/>
<path d="M51.5321 29.3191C51.5121 29.2591 51.4921 29.1991 51.4921 29.1391C51.1321 27.8791 50.5321 26.7391 49.7321 25.7591C49.5521 25.5391 49.3721 25.3391 49.1721 25.1391C49.0721 25.0391 48.9921 24.9591 48.8921 24.8591C48.7921 24.7591 48.6721 24.6591 48.5721 24.5591C48.1121 24.1791 47.6321 23.8391 47.1121 23.5391C47.0721 23.5191 47.0321 23.4991 46.9921 23.4791C46.5521 23.2391 46.0921 23.0391 45.6121 22.8791C44.6921 22.5591 43.732 22.3791 42.752 22.3791C41.832 22.3591 40.932 22.4791 40.052 22.7391C39.892 22.7791 39.732 22.8391 39.552 22.8991C37.392 23.6391 35.5921 25.1391 34.4721 27.1391L33.632 28.6591L0.152045 88.5791C-0.167955 89.1591 0.0320546 89.8991 0.612055 90.2191L16.4721 99.0591L16.632 98.7791L16.6921 98.6591L16.7921 98.4991C16.7921 98.4991 16.7921 98.4991 16.7721 98.4991C16.3921 98.2791 16.2721 97.7991 16.4721 97.4191L33.6121 66.7391L35.8721 62.6791L36.3921 61.7591L40.1121 55.0991L44.6121 47.0391L46.9721 42.8191L50.6721 36.1991C51.0521 35.4991 51.352 34.7791 51.552 34.0391C51.932 32.4991 51.932 30.8791 51.5321 29.3191ZM46.952 41.5191L44.0121 46.7991L39.552 54.7991L33.5921 65.4591L15.9121 97.1191C15.7721 97.3791 15.712 97.6591 15.732 97.9391L4.35205 91.5991L3.85205 91.3191L1.07206 89.7791L0.89206 89.6791C0.61206 89.5191 0.512064 89.1791 0.672064 88.8991L33.5721 29.9791L34.9721 27.4591C36.0921 25.4391 37.932 23.9791 40.152 23.3591C40.932 23.1391 41.7121 23.0391 42.4921 23.0391C42.5521 23.0391 42.6121 23.0391 42.6721 23.0391C43.0721 23.0391 43.4921 23.0791 43.8921 23.1591C44.8721 23.3191 45.8321 23.6591 46.7121 24.1391C46.7721 24.1591 46.812 24.1991 46.852 24.2191C46.872 24.2191 46.8921 24.2391 46.8921 24.2391C47.1121 24.3591 47.3321 24.4991 47.5321 24.6591C47.752 24.8191 47.952 24.9791 48.152 25.1591C49.412 26.2391 50.3321 27.6791 50.7921 29.3191C51.4121 31.5391 51.1521 33.8791 50.0121 35.8991L46.952 41.5191Z" fill="url(#paint12_linear_9423_95620)"/>
<path d="M46.2121 29.42C46.1521 29.28 46.0721 29.16 45.9721 29.04C45.8921 28.9 45.7921 28.78 45.6921 28.66C45.3121 28.2 44.8521 27.82 44.3121 27.52C42.6721 26.6 40.7121 26.68 39.2321 27.64C38.9121 27.84 38.6321 28.06 38.3721 28.34C38.2521 28.48 38.1321 28.6 38.0321 28.74C37.7121 29.16 37.4521 29.62 37.2721 30.1C37.1321 30.48 37.0321 30.86 36.9921 31.26C36.8921 32 36.9721 32.76 37.2321 33.48C37.8521 35.24 39.3321 36.46 41.2321 36.78C41.2921 36.78 41.3521 36.8 41.4121 36.8C41.5121 36.82 41.6121 36.82 41.7121 36.84C41.8121 36.84 41.9121 36.84 41.9921 36.84C42.0521 36.84 42.1121 36.84 42.1721 36.84C43.7921 36.78 45.3521 35.84 46.1921 34.34L46.2321 34.26C46.6521 33.52 46.8521 32.7 46.8521 31.86C46.8521 30.98 46.6321 30.14 46.2121 29.42ZM37.8121 33.24C37.2721 31.66 37.6521 29.98 38.8321 28.76C39.6321 27.94 40.7321 27.5 41.8521 27.5C42.5921 27.5 43.3321 27.68 44.0121 28.06C44.2921 28.22 44.5521 28.4 44.7721 28.62C44.8921 28.72 44.9921 28.82 45.0921 28.94C45.1921 29.04 45.2921 29.16 45.3721 29.28C45.9121 30 46.2121 30.92 46.2121 31.86C46.2121 32.58 46.0121 33.32 45.6721 33.94L45.6321 34.02C44.7921 35.5 43.1721 36.36 41.5521 36.18C41.5321 36.18 41.4921 36.18 41.4721 36.18C41.3521 36.16 41.2321 36.14 41.1121 36.12C40.9721 36.1 40.8121 36.06 40.6721 36C39.3121 35.56 38.2721 34.58 37.8121 33.24Z" fill="url(#paint13_linear_9423_95620)"/>
<path d="M20.5711 67.6591C20.4911 67.7991 20.4311 67.9591 20.3311 68.1391C19.8111 67.8391 19.2911 67.5591 18.7711 67.2591C18.2711 68.1391 17.7911 68.9991 17.3111 69.8591C17.1511 69.7791 16.9911 69.7191 16.8511 69.6391C17.4311 68.5991 18.0111 67.5791 18.5911 66.5391C19.2511 66.9191 19.9111 67.2991 20.5711 67.6591Z" fill="#668CF5"/>
<path d="M25.6511 70.4984C25.0911 71.5184 24.5111 72.5384 23.9311 73.5784C23.7911 73.4984 23.6511 73.4184 23.4911 73.3384C23.9711 72.4784 24.4511 71.6184 24.9511 70.7384C24.4311 70.4384 23.9311 70.1584 23.3911 69.8584C23.4911 69.6984 23.5911 69.5384 23.6711 69.3984C24.3311 69.7584 24.9911 70.1384 25.6511 70.4984Z" fill="#668CF5"/>
<path d="M8.4512 84.7383C8.5912 84.8183 8.73121 84.8983 8.89121 84.9783C8.41121 85.8583 7.9312 86.6983 7.4312 87.5983C7.9512 87.8983 8.47121 88.1783 8.99121 88.4783C8.89121 88.6383 8.8312 88.7783 8.7312 88.9383C8.0512 88.5583 7.3912 88.1983 6.7312 87.8183C7.3112 86.7783 7.8712 85.7583 8.4512 84.7383Z" fill="#668CF5"/>
<path d="M20.9711 72.5194C21.2111 72.6394 21.4311 72.7794 21.6711 72.8994C21.7511 72.7394 21.8311 72.5994 21.9111 72.4594C21.5911 72.2794 21.3111 72.0994 20.9911 71.9594C20.7711 71.8594 20.5511 71.8794 20.3711 72.0594C20.3511 72.0794 20.3111 72.0994 20.2711 72.1194C20.2511 71.9394 20.2511 71.7594 20.2111 71.6194C19.9911 70.9994 19.2111 70.8394 18.6711 71.3194C18.2311 71.6994 18.0511 72.2594 17.7511 72.7394C18.7711 73.3194 19.7711 73.8794 20.7911 74.4394C20.8711 74.2994 20.9511 74.1594 21.0311 73.9994C20.6311 73.7794 20.2311 73.5594 19.8111 73.3194C19.9311 73.0994 20.0311 72.8994 20.1511 72.6994C20.3911 72.3594 20.5711 72.3194 20.9711 72.5194ZM19.8911 72.2594C19.7511 72.5394 19.5711 72.8194 19.4111 73.1194C19.0711 72.9194 18.7511 72.7394 18.3711 72.5394C18.5511 72.2394 18.7111 71.8994 18.9311 71.6594C19.1911 71.3594 19.4511 71.6594 19.6911 71.7794C19.9311 71.8994 19.9911 72.0594 19.8911 72.2594Z" fill="#668CF5"/>
<path d="M16.9112 76.479C16.8312 76.639 16.7312 76.779 16.6512 76.939C16.5912 76.919 16.5512 76.899 16.4912 76.879C16.1912 76.759 16.0112 76.819 15.8312 77.119C15.4712 77.719 15.5312 77.959 16.1512 78.299C16.4712 78.479 16.7912 78.659 17.1312 78.839C17.5512 79.059 17.7912 78.979 18.0312 78.559C18.0712 78.499 18.0912 78.439 18.1312 78.399C18.2912 78.079 18.2312 77.839 17.9312 77.639C17.8312 77.579 17.7312 77.539 17.6112 77.459C17.4912 77.659 17.3912 77.839 17.2912 78.019C17.2112 78.199 17.1313 78.219 16.9713 78.099C16.9113 78.059 16.8512 78.019 16.7912 77.979C17.0112 77.579 17.2312 77.199 17.4512 76.799C17.7112 76.939 17.9712 77.079 18.2112 77.219C18.4712 77.359 18.7312 77.499 18.9912 77.659C18.9112 77.799 18.8513 77.919 18.7713 78.039C18.6713 77.999 18.5912 77.959 18.5112 77.939C18.5112 78.159 18.5512 78.359 18.5112 78.559C18.4112 79.019 17.9912 79.339 17.4912 79.359C17.0712 79.379 16.7112 79.239 16.3512 79.039C15.9512 78.819 15.5712 78.559 15.3312 78.159C15.0512 77.679 15.1112 77.139 15.5312 76.679C15.8912 76.319 16.4112 76.239 16.9112 76.479Z" fill="#668CF5"/>
<path d="M16.7512 79.9787C16.3112 79.5187 15.7712 79.2187 15.1512 79.0987C14.7312 79.0187 14.3112 79.0987 14.0712 79.4587C13.8112 79.8387 13.6112 80.2787 13.3712 80.6787C14.3712 81.2387 15.3712 81.7987 16.3912 82.3587C16.5912 81.9987 16.7912 81.6787 16.9712 81.3187C17.2112 80.8387 17.1512 80.3987 16.7512 79.9787ZM16.5912 81.0587C16.5112 81.2387 16.4112 81.3987 16.3312 81.5787C16.2712 81.7187 16.1912 81.7187 16.0912 81.6387C15.7712 81.4387 15.4312 81.2587 15.1112 81.0787C14.7912 80.8987 14.4712 80.7187 14.1512 80.5587C14.0312 80.4987 14.0112 80.4187 14.0912 80.3187C14.1912 80.1587 14.2712 79.9987 14.3912 79.8387C14.6112 79.5187 14.8512 79.4387 15.1712 79.6187C15.5912 79.8187 16.0112 80.0587 16.4112 80.2987C16.6712 80.4787 16.7312 80.7387 16.5912 81.0587Z" fill="#668CF5"/>
<path d="M14.9512 84.9599C13.9312 84.3999 12.9313 83.8399 11.9113 83.2599C12.2713 82.6199 12.6113 81.9798 12.9713 81.3398C13.0913 81.3998 13.2112 81.4799 13.3512 81.5599C13.0912 82.0399 12.8113 82.5198 12.5312 83.0198C12.8512 83.1998 13.1312 83.3598 13.4512 83.5398C13.6912 83.0998 13.9513 82.6598 14.1913 82.1998C14.3313 82.2798 14.4513 82.3398 14.5913 82.4198C14.3513 82.8598 14.1112 83.2998 13.8512 83.7398C14.1712 83.9198 14.4713 84.0799 14.7913 84.2599C15.0713 83.7599 15.3513 83.2598 15.6313 82.7398C15.7713 82.8198 15.8913 82.8799 16.0312 82.9599C15.6713 83.6399 15.3112 84.2999 14.9512 84.9599Z" fill="#668CF5"/>
<path d="M19.3513 77.059C18.3313 76.479 17.3313 75.939 16.3113 75.359C16.6713 74.719 17.0113 74.099 17.3713 73.459C17.4913 73.539 17.6113 73.599 17.7513 73.679C17.4713 74.159 17.2113 74.659 16.9313 75.139C17.2513 75.319 17.5313 75.479 17.8513 75.659C18.0913 75.219 18.3313 74.779 18.5913 74.339C18.7313 74.419 18.8513 74.479 18.9913 74.559C18.7513 74.999 18.5113 75.419 18.2513 75.879C18.5713 76.059 18.8713 76.219 19.1913 76.399C19.4713 75.899 19.7513 75.399 20.0313 74.879C20.1713 74.959 20.2913 75.019 20.4113 75.099C20.0913 75.739 19.7313 76.399 19.3513 77.059Z" fill="#668CF5"/>
<path d="M15.0513 88.4395C15.2113 88.5395 15.3513 88.5995 15.4913 88.6795C14.9313 89.6995 14.3513 90.6995 13.7913 91.7195C13.1313 91.3595 12.4713 90.9795 11.8113 90.6195C11.8913 90.4795 11.9713 90.3395 12.0513 90.1995C12.5513 90.4795 13.0713 90.7595 13.5913 91.0595C14.0913 90.1795 14.5713 89.3195 15.0513 88.4395Z" fill="#668CF5"/>
<path d="M10.7112 85.3984C11.5912 85.8984 12.4512 86.3784 13.3512 86.8784C13.6512 86.3584 13.9312 85.8384 14.2112 85.3184C14.3512 85.3984 14.4712 85.4584 14.5912 85.5384C14.2312 86.1984 13.8512 86.8584 13.4712 87.5384C12.4712 86.9784 11.4712 86.4184 10.4512 85.8584C10.5512 85.7184 10.6312 85.5784 10.7112 85.3984Z" fill="#668CF5"/>
<path opacity="0.1" d="M211.985 70.1002C211.965 71.4202 211.885 72.7002 211.745 73.9602C209.325 96.1402 188.965 108.46 162.145 113.36C146.485 116.22 128.625 116.56 110.845 114.88L66.485 81.0202L207.765 64.7402L211.965 68.8802C212.005 69.3002 212.005 69.7002 211.985 70.1002Z" fill="#0C00FF"/>
<path d="M150.125 105.441V100.301H137.545H124.965V105.441C124.965 107.981 122.905 110.021 120.385 110.021H137.565H154.745C152.165 110.041 150.125 107.981 150.125 105.441Z" fill="url(#paint14_linear_9423_95620)"/>
<path d="M160.525 110.039H137.545H114.565C112.565 110.039 110.945 111.659 110.945 113.659H137.545H164.145C164.145 111.659 162.525 110.039 160.525 110.039Z" fill="url(#paint15_linear_9423_95620)"/>
<path d="M203.825 0H75.9052C70.3052 0 65.7653 4.55996 65.7653 10.16V91.14C65.7653 96.74 70.3252 101.3 75.9052 101.3H203.825C209.425 101.3 213.965 96.74 213.965 91.14V10.16C213.965 4.55996 209.405 0 203.825 0Z" fill="url(#paint16_radial_9423_95620)"/>
<path d="M201.485 0H73.565C67.965 0 63.425 4.55996 63.425 10.16V91.14C63.425 96.74 67.985 101.3 73.565 101.3H201.485C207.085 101.3 211.625 96.74 211.625 91.14V10.16C211.645 4.55996 207.085 0 201.485 0Z" fill="url(#paint17_linear_9423_95620)"/>
<path d="M211.065 10.1604V82.0405H64.8053V10.1604C64.8053 5.10045 68.9053 0.980469 73.9853 0.980469H201.905C206.965 0.980469 211.065 5.08045 211.065 10.1604Z" fill="url(#paint18_linear_9423_95620)"/>
<path d="M137.525 92.8796C138.983 92.8796 140.165 91.6976 140.165 90.2396C140.165 88.7816 138.983 87.5996 137.525 87.5996C136.067 87.5996 134.885 88.7816 134.885 90.2396C134.885 91.6976 136.067 92.8796 137.525 92.8796Z" fill="#262730"/>
<path d="M201.486 7.16016C202.346 7.16016 203.026 7.8602 203.026 8.7002C203.026 9.5602 202.326 10.2402 201.486 10.2402C200.626 10.2402 199.946 9.5402 199.946 8.7002C199.946 7.8402 200.646 7.16016 201.486 7.16016Z" fill="white"/>
<path d="M201.486 10.5598C200.466 10.5598 199.626 9.71985 199.626 8.69985C199.626 7.67985 200.466 6.83984 201.486 6.83984C202.506 6.83984 203.346 7.67985 203.346 8.69985C203.346 9.71985 202.526 10.5598 201.486 10.5598ZM201.486 7.45981C200.806 7.45981 200.266 8.01983 200.266 8.67983C200.266 9.35983 200.826 9.89985 201.486 9.89985C202.146 9.89985 202.706 9.33983 202.706 8.67983C202.726 8.01983 202.166 7.45981 201.486 7.45981Z" fill="white"/>
<path d="M192.666 7.16016C193.526 7.16016 194.206 7.8602 194.206 8.7002C194.206 9.5602 193.506 10.2402 192.666 10.2402C191.806 10.2402 191.126 9.5402 191.126 8.7002C191.126 7.8402 191.826 7.16016 192.666 7.16016Z" fill="white"/>
<path d="M192.666 10.5598C191.646 10.5598 190.806 9.71985 190.806 8.69985C190.806 7.67985 191.646 6.83984 192.666 6.83984C193.686 6.83984 194.526 7.67985 194.526 8.69985C194.526 9.71985 193.706 10.5598 192.666 10.5598ZM192.666 7.45981C191.986 7.45981 191.446 8.01983 191.446 8.67983C191.446 9.35983 192.006 9.89985 192.666 9.89985C193.326 9.89985 193.886 9.33983 193.886 8.67983C193.906 8.01983 193.346 7.45981 192.666 7.45981Z" fill="white"/>
<path d="M184.166 7.16016C185.026 7.16016 185.706 7.8602 185.706 8.7002C185.706 9.5602 185.006 10.2402 184.166 10.2402C183.306 10.2402 182.626 9.5402 182.626 8.7002C182.626 7.8402 183.306 7.16016 184.166 7.16016Z" fill="white"/>
<path d="M184.166 10.5598C183.146 10.5598 182.306 9.71985 182.306 8.69985C182.306 7.67985 183.146 6.83984 184.166 6.83984C185.186 6.83984 186.026 7.67985 186.026 8.69985C186.026 9.71985 185.186 10.5598 184.166 10.5598ZM184.166 7.45981C183.486 7.45981 182.946 8.01983 182.946 8.67983C182.946 9.35983 183.506 9.89985 184.166 9.89985C184.826 9.89985 185.386 9.33983 185.386 8.67983C185.386 8.01983 184.846 7.45981 184.166 7.45981Z" fill="white"/>
<path d="M157.805 26.5197L155.065 31.0597H155.045C151.305 25.4997 144.965 21.8397 137.765 21.8397C126.665 21.8397 117.585 30.5397 116.985 41.4997H120.105L117.765 45.5597L117.305 46.3597L114.425 51.3597L111.925 47.0397L111.345 46.0397L108.705 41.4797H111.565C112.165 27.6797 123.545 16.6797 137.485 16.6797C145.725 16.7197 153.065 20.5397 157.805 26.5197Z" fill="url(#paint19_radial_9423_95620)"/>
<path d="M117.245 58.34L119.985 53.8H120.005C123.745 59.36 130.085 63.02 137.285 63.02C148.385 63.02 157.465 54.32 158.065 43.36H154.945L157.285 39.3L157.745 38.5L160.625 33.5L163.125 37.82L163.705 38.82L166.345 43.38H163.485C162.885 57.18 151.505 68.18 137.565 68.18C129.325 68.16 121.985 64.32 117.245 58.34Z" fill="url(#paint20_radial_9423_95620)"/>
<path d="M137.525 57.0603C145.6 57.0603 152.145 50.5147 152.145 42.4403C152.145 34.3659 145.6 27.8203 137.525 27.8203C129.451 27.8203 122.905 34.3659 122.905 42.4403C122.905 50.5147 129.451 57.0603 137.525 57.0603Z" fill="url(#paint21_linear_9423_95620)"/>
<path d="M129.685 50.2795C129.105 49.6995 129.105 48.7595 129.685 48.1795L143.285 34.5795C143.865 33.9995 144.805 33.9995 145.385 34.5795C145.965 35.1595 145.965 36.0995 145.385 36.6795L131.785 50.2795C131.205 50.8595 130.265 50.8595 129.685 50.2795Z" fill="#262730"/>
<path d="M129.685 34.5795C130.265 33.9995 131.205 33.9995 131.785 34.5795L145.385 48.1795C145.965 48.7595 145.965 49.6995 145.385 50.2795C144.805 50.8595 143.865 50.8595 143.285 50.2795L129.685 36.6795C129.105 36.0995 129.105 35.1595 129.685 34.5795Z" fill="#262730"/>
<path opacity="0.12" d="M88.8453 0.980469L64.8053 25.0205V16.6405L80.4653 0.980469H88.8453Z" fill="#9FCBFF"/>
<path opacity="0.12" d="M115.885 0.980469L64.8053 52.0405V34.0005L97.8253 0.980469H115.885Z" fill="#9FCBFF"/>
<path d="M231.985 119.039H154.705V119.999H231.985V119.039Z" fill="url(#paint22_linear_9423_95620)"/>
<path d="M203.125 119.98H72.7648C71.7648 119.98 70.9448 119.16 70.9448 118.16V115.48C70.9448 114.48 71.7648 113.66 72.7648 113.66H203.125C204.125 113.66 204.945 114.48 204.945 115.48V118.16C204.945 119.16 204.125 119.98 203.125 119.98Z" fill="url(#paint23_linear_9423_95620)"/>
<path d="M94.5848 113.679H86.6848V111.779C86.6848 111.179 87.1648 110.699 87.7648 110.699H93.5248C94.1248 110.699 94.6048 111.179 94.6048 111.779V113.679H94.5848Z" fill="url(#paint24_linear_9423_95620)"/>
<path d="M84.9249 113.679H77.0249V111.779C77.0249 111.179 77.5049 110.699 78.1049 110.699H83.8649C84.4649 110.699 84.9449 111.179 84.9449 111.779V113.679H84.9249Z" fill="url(#paint25_linear_9423_95620)"/>
<path d="M104.065 113.679H96.1648V111.779C96.1648 111.179 96.6448 110.699 97.2448 110.699H103.005C103.605 110.699 104.085 111.179 104.085 111.779V113.679H104.065Z" fill="url(#paint26_linear_9423_95620)"/>
<path d="M160.925 113.679H115.125V111.779C115.125 111.179 115.605 110.699 116.205 110.699H159.865C160.465 110.699 160.945 111.179 160.945 111.779V113.679H160.925Z" fill="url(#paint27_linear_9423_95620)"/>
<path d="M113.525 113.679H105.625V111.779C105.625 111.179 106.105 110.699 106.705 110.699H112.465C113.065 110.699 113.545 111.179 113.545 111.779V113.679H113.525Z" fill="url(#paint28_linear_9423_95620)"/>
<path d="M170.385 113.679H162.485V111.779C162.485 111.179 162.965 110.699 163.565 110.699H169.325C169.925 110.699 170.405 111.179 170.405 111.779V113.679H170.385Z" fill="url(#paint29_linear_9423_95620)"/>
<path d="M179.865 113.679H171.965V111.779C171.965 111.179 172.445 110.699 173.045 110.699H178.805C179.405 110.699 179.885 111.179 179.885 111.779V113.679H179.865Z" fill="url(#paint30_linear_9423_95620)"/>
<path d="M189.345 113.679H181.445V111.779C181.445 111.179 181.925 110.699 182.525 110.699H188.285C188.885 110.699 189.365 111.179 189.365 111.779V113.679H189.345Z" fill="url(#paint31_linear_9423_95620)"/>
<path d="M198.885 113.679H190.985V111.779C190.985 111.179 191.465 110.699 192.065 110.699H197.825C198.425 110.699 198.905 111.179 198.905 111.779V113.679H198.885Z" fill="url(#paint32_linear_9423_95620)"/>
<defs>
<linearGradient id="paint0_linear_9423_95620" x1="155.331" y1="150.435" x2="64.0264" y2="-29.6324" gradientUnits="userSpaceOnUse">
<stop offset="1.61469e-07" stop-color="#B9E1FE"/>
<stop offset="0.5147" stop-color="#81C4F8"/>
<stop offset="0.9993" stop-color="#B1CBFF"/>
</linearGradient>
<linearGradient id="paint1_linear_9423_95620" x1="41.3469" y1="105.143" x2="46.1591" y2="105.143" gradientUnits="userSpaceOnUse">
<stop stop-color="#668CF5"/>
<stop offset="0.325" stop-color="#6B90F5"/>
<stop offset="0.731" stop-color="#7B9DF3"/>
<stop offset="0.9995" stop-color="#89A8F2"/>
</linearGradient>
<linearGradient id="paint2_linear_9423_95620" x1="43.1479" y1="112.231" x2="71.3564" y2="112.231" gradientUnits="userSpaceOnUse">
<stop stop-color="#668CF5"/>
<stop offset="0.325" stop-color="#6B90F5"/>
<stop offset="0.731" stop-color="#7B9DF3"/>
<stop offset="0.9995" stop-color="#89A8F2"/>
</linearGradient>
<linearGradient id="paint3_linear_9423_95620" x1="18.0778" y1="81.8824" x2="-14.9583" y2="138.118" gradientUnits="userSpaceOnUse">
<stop offset="0.000706264" stop-color="#AECBFF"/>
<stop offset="0.00564257" stop-color="#AFCCFF"/>
<stop offset="0.1648" stop-color="#CCDEFF"/>
<stop offset="0.3334" stop-color="#E2EDFF"/>
<stop offset="0.5165" stop-color="#F3F7FF"/>
<stop offset="0.7225" stop-color="#FCFDFF"/>
<stop offset="1" stop-color="white"/>
</linearGradient>
<linearGradient id="paint4_linear_9423_95620" x1="10.7523" y1="94.8913" x2="36.388" y2="50.4799" gradientUnits="userSpaceOnUse">
<stop offset="0.000706264" stop-color="#AECBFF"/>
<stop offset="0.1045" stop-color="#BED5FF"/>
<stop offset="0.3309" stop-color="#DAE7FF"/>
<stop offset="0.557" stop-color="#EFF4FF"/>
<stop offset="0.7809" stop-color="#FBFCFF"/>
<stop offset="1" stop-color="white"/>
</linearGradient>
<linearGradient id="paint5_linear_9423_95620" x1="40.0484" y1="33.5623" x2="49.9539" y2="33.5623" gradientUnits="userSpaceOnUse">
<stop offset="0.000706264" stop-color="#AECBFF"/>
<stop offset="0.1568" stop-color="#C9DCFF"/>
<stop offset="0.3375" stop-color="#E1ECFF"/>
<stop offset="0.5299" stop-color="#F2F6FF"/>
<stop offset="0.7399" stop-color="#FCFDFF"/>
<stop offset="1" stop-color="white"/>
</linearGradient>
<linearGradient id="paint6_linear_9423_95620" x1="59.3476" y1="95.3336" x2="44.8514" y2="44.1902" gradientUnits="userSpaceOnUse">
<stop stop-color="#F56B3C"/>
<stop offset="0.2698" stop-color="#F4673C"/>
<stop offset="0.5166" stop-color="#F15C3C"/>
<stop offset="0.7544" stop-color="#EC4A3B"/>
<stop offset="0.9855" stop-color="#E5303B"/>
<stop offset="0.999" stop-color="#E52E3B"/>
</linearGradient>
<linearGradient id="paint7_linear_9423_95620" x1="58.9179" y1="62.9968" x2="46.6648" y2="62.9968" gradientUnits="userSpaceOnUse">
<stop stop-color="#F56B3C"/>
<stop offset="0.2909" stop-color="#F0573C"/>
<stop offset="0.7757" stop-color="#E52E3B"/>
</linearGradient>
<linearGradient id="paint8_linear_9423_95620" x1="64.5638" y1="62.9958" x2="39.3366" y2="62.9958" gradientUnits="userSpaceOnUse">
<stop stop-color="#F56B3C"/>
<stop offset="0.2698" stop-color="#F4673C"/>
<stop offset="0.5166" stop-color="#F15C3C"/>
<stop offset="0.7544" stop-color="#EC4A3B"/>
<stop offset="0.9855" stop-color="#E5303B"/>
<stop offset="0.999" stop-color="#E52E3B"/>
</linearGradient>
<radialGradient id="paint9_radial_9423_95620" cx="0" cy="0" r="1" gradientUnits="userSpaceOnUse" gradientTransform="translate(128.153 97.3728) scale(88.9261 76.8055)">
<stop offset="0.00164577" stop-color="#FF8B6C"/>
<stop offset="0.4147" stop-color="#FF8C6E" stop-opacity="0.5837"/>
<stop offset="0.5634" stop-color="#FF9275" stop-opacity="0.4338"/>
<stop offset="0.6695" stop-color="#FF9B80" stop-opacity="0.327"/>
<stop offset="0.7553" stop-color="#FFA891" stop-opacity="0.2405"/>
<stop offset="0.8287" stop-color="#FFBAA7" stop-opacity="0.1665"/>
<stop offset="0.8938" stop-color="#FFCFC3" stop-opacity="0.1009"/>
<stop offset="0.9511" stop-color="#FFE8E2" stop-opacity="0.0431162"/>
<stop offset="0.9939" stop-color="white" stop-opacity="0"/>
</radialGradient>
<linearGradient id="paint10_linear_9423_95620" x1="35.8148" y1="79.3199" x2="49.3156" y2="79.3199" gradientUnits="userSpaceOnUse">
<stop stop-color="#F56B3C"/>
<stop offset="0.2698" stop-color="#F4673C"/>
<stop offset="0.5166" stop-color="#F15C3C"/>
<stop offset="0.7544" stop-color="#EC4A3B"/>
<stop offset="0.9855" stop-color="#E5303B"/>
<stop offset="0.999" stop-color="#E52E3B"/>
</linearGradient>
<linearGradient id="paint11_linear_9423_95620" x1="52.2201" y1="16.2451" x2="4.75358" y2="99.8867" gradientUnits="userSpaceOnUse">
<stop offset="0.000706264" stop-color="#AECBFF"/>
<stop offset="0.0354616" stop-color="#B5CFFF"/>
<stop offset="0.2237" stop-color="#D5E4FF"/>
<stop offset="0.4051" stop-color="#ECF3FF"/>
<stop offset="0.5751" stop-color="#FAFCFF"/>
<stop offset="0.7221" stop-color="white"/>
<stop offset="0.9383" stop-color="#AECBFF"/>
</linearGradient>
<linearGradient id="paint12_linear_9423_95620" x1="48.9432" y1="21.1589" x2="17.2522" y2="77.7572" gradientUnits="userSpaceOnUse">
<stop offset="0.000706264" stop-color="#AECBFF"/>
<stop offset="0.1338" stop-color="#C4D9FF"/>
<stop offset="0.5098" stop-color="white"/>
<stop offset="1" stop-color="#AECBFF"/>
</linearGradient>
<linearGradient id="paint13_linear_9423_95620" x1="37.0567" y1="34.317" x2="45.8783" y2="29.7973" gradientUnits="userSpaceOnUse">
<stop offset="0.000706264" stop-color="#AECBFF"/>
<stop offset="0.4336" stop-color="#CFE0FF"/>
<stop offset="1" stop-color="white"/>
</linearGradient>
<linearGradient id="paint14_linear_9423_95620" x1="142.174" y1="99.3712" x2="128.456" y2="130.866" gradientUnits="userSpaceOnUse">
<stop offset="0.000706264" stop-color="#90B3EB"/>
<stop offset="0.1077" stop-color="#AAC5F0"/>
<stop offset="0.2594" stop-color="#C9DAF5"/>
<stop offset="0.4189" stop-color="#E1EAFA"/>
<stop offset="0.5877" stop-color="#F2F6FD"/>
<stop offset="0.7718" stop-color="#FCFDFE"/>
<stop offset="1" stop-color="white"/>
</linearGradient>
<linearGradient id="paint15_linear_9423_95620" x1="172.585" y1="111.842" x2="119.366" y2="111.842" gradientUnits="userSpaceOnUse">
<stop offset="0.000706264" stop-color="#AECBFF"/>
<stop offset="0.1568" stop-color="#C9DCFF"/>
<stop offset="0.3375" stop-color="#E1ECFF"/>
<stop offset="0.5299" stop-color="#F2F6FF"/>
<stop offset="0.7399" stop-color="#FCFDFF"/>
<stop offset="1" stop-color="white"/>
</linearGradient>
<radialGradient id="paint16_radial_9423_95620" cx="0" cy="0" r="1" gradientUnits="userSpaceOnUse" gradientTransform="translate(139.854 50.6435) scale(63.4698 63.4698)">
<stop offset="0.4778" stop-color="#668CF5"/>
<stop offset="0.8313" stop-color="#678DF3"/>
<stop offset="0.9585" stop-color="#6992EC"/>
<stop offset="0.9995" stop-color="#6B95E8"/>
</radialGradient>
<linearGradient id="paint17_linear_9423_95620" x1="211.638" y1="50.6435" x2="47.271" y2="50.6435" gradientUnits="userSpaceOnUse">
<stop offset="0.000706264" stop-color="#AECBFF"/>
<stop offset="0.1109" stop-color="#C9DCFF"/>
<stop offset="0.2385" stop-color="#E1ECFF"/>
<stop offset="0.3743" stop-color="#F2F6FF"/>
<stop offset="0.5225" stop-color="#FCFDFF"/>
<stop offset="0.7062" stop-color="white"/>
<stop offset="0.7641" stop-color="#FAFCFF"/>
<stop offset="0.8361" stop-color="#EAF2FF"/>
<stop offset="0.9154" stop-color="#D1E2FF"/>
<stop offset="0.9996" stop-color="#AECBFF"/>
<stop offset="1" stop-color="#AECBFF"/>
</linearGradient>
<linearGradient id="paint18_linear_9423_95620" x1="67.7031" y1="41.5081" x2="213.967" y2="41.5081" gradientUnits="userSpaceOnUse">
<stop stop-color="#3B62FA"/>
<stop offset="0.6847" stop-color="#2C396C"/>
<stop offset="0.9998" stop-color="#262730"/>
</linearGradient>
<radialGradient id="paint19_radial_9423_95620" cx="0" cy="0" r="1" gradientUnits="userSpaceOnUse" gradientTransform="translate(119.27 43.043) scale(39.5825 39.5824)">
<stop offset="0.000262306" stop-color="#DAE7FF"/>
<stop offset="0.1968" stop-color="#D5E3FE" stop-opacity="0.8034"/>
<stop offset="0.4428" stop-color="#C5D7FC" stop-opacity="0.5573"/>
<stop offset="0.7151" stop-color="#ACC3F8" stop-opacity="0.2849"/>
<stop offset="1" stop-color="#89A8F2" stop-opacity="0"/>
</radialGradient>
<radialGradient id="paint20_radial_9423_95620" cx="0" cy="0" r="1" gradientUnits="userSpaceOnUse" gradientTransform="translate(169.365 52.267) scale(50.5303 50.5303)">
<stop offset="0.000262306" stop-color="#DAE7FF"/>
<stop offset="0.1968" stop-color="#D5E3FE" stop-opacity="0.8034"/>
<stop offset="0.4428" stop-color="#C5D7FC" stop-opacity="0.5573"/>
<stop offset="0.7151" stop-color="#ACC3F8" stop-opacity="0.2849"/>
<stop offset="1" stop-color="#89A8F2" stop-opacity="0"/>
</radialGradient>
<linearGradient id="paint21_linear_9423_95620" x1="122.911" y1="42.4343" x2="152.147" y2="42.4343" gradientUnits="userSpaceOnUse">
<stop stop-color="#F56B3C"/>
<stop offset="0.2698" stop-color="#F4673C"/>
<stop offset="0.5166" stop-color="#F15C3C"/>
<stop offset="0.7544" stop-color="#EC4A3B"/>
<stop offset="0.9855" stop-color="#E5303B"/>
<stop offset="0.999" stop-color="#E52E3B"/>
</linearGradient>
<linearGradient id="paint22_linear_9423_95620" x1="154.708" y1="119.525" x2="231.995" y2="119.525" gradientUnits="userSpaceOnUse">
<stop stop-color="#668CF5"/>
<stop offset="0.325" stop-color="#6B90F5"/>
<stop offset="0.731" stop-color="#7B9DF3"/>
<stop offset="0.9995" stop-color="#89A8F2"/>
</linearGradient>
<linearGradient id="paint23_linear_9423_95620" x1="195.614" y1="116.83" x2="61.6261" y2="116.83" gradientUnits="userSpaceOnUse">
<stop offset="0.000706264" stop-color="#AECBFF"/>
<stop offset="0.0925123" stop-color="#C9DCFF"/>
<stop offset="0.1989" stop-color="#E1ECFF"/>
<stop offset="0.3121" stop-color="#F2F6FF"/>
<stop offset="0.4356" stop-color="#FCFDFF"/>
<stop offset="0.5886" stop-color="white"/>
<stop offset="1" stop-color="#AECBFF"/>
</linearGradient>
<linearGradient id="paint24_linear_9423_95620" x1="86.6798" y1="112.196" x2="94.5821" y2="112.196" gradientUnits="userSpaceOnUse">
<stop stop-color="#80B8FF"/>
<stop offset="0.2099" stop-color="#7BB2FF"/>
<stop offset="0.4771" stop-color="#6EA3FF"/>
<stop offset="0.7741" stop-color="#5789FF"/>
<stop offset="1" stop-color="#4270FF"/>
</linearGradient>
<linearGradient id="paint25_linear_9423_95620" x1="77.0143" y1="112.196" x2="84.9167" y2="112.196" gradientUnits="userSpaceOnUse">
<stop stop-color="#80B8FF"/>
<stop offset="0.2099" stop-color="#7BB2FF"/>
<stop offset="0.4771" stop-color="#6EA3FF"/>
<stop offset="0.7741" stop-color="#5789FF"/>
<stop offset="1" stop-color="#4270FF"/>
</linearGradient>
<linearGradient id="paint26_linear_9423_95620" x1="96.156" y1="112.196" x2="104.058" y2="112.196" gradientUnits="userSpaceOnUse">
<stop stop-color="#80B8FF"/>
<stop offset="0.2099" stop-color="#7BB2FF"/>
<stop offset="0.4771" stop-color="#6EA3FF"/>
<stop offset="0.7741" stop-color="#5789FF"/>
<stop offset="1" stop-color="#4270FF"/>
</linearGradient>
<linearGradient id="paint27_linear_9423_95620" x1="115.109" y1="112.196" x2="160.916" y2="112.196" gradientUnits="userSpaceOnUse">
<stop stop-color="#80B8FF"/>
<stop offset="0.2099" stop-color="#7BB2FF"/>
<stop offset="0.4771" stop-color="#6EA3FF"/>
<stop offset="0.7741" stop-color="#5789FF"/>
<stop offset="1" stop-color="#4270FF"/>
</linearGradient>
<linearGradient id="paint28_linear_9423_95620" x1="105.632" y1="112.196" x2="113.535" y2="112.196" gradientUnits="userSpaceOnUse">
<stop stop-color="#80B8FF"/>
<stop offset="0.2099" stop-color="#7BB2FF"/>
<stop offset="0.4771" stop-color="#6EA3FF"/>
<stop offset="0.7741" stop-color="#5789FF"/>
<stop offset="1" stop-color="#4270FF"/>
</linearGradient>
<linearGradient id="paint29_linear_9423_95620" x1="162.49" y1="112.196" x2="170.393" y2="112.196" gradientUnits="userSpaceOnUse">
<stop stop-color="#80B8FF"/>
<stop offset="0.2099" stop-color="#7BB2FF"/>
<stop offset="0.4771" stop-color="#6EA3FF"/>
<stop offset="0.7741" stop-color="#5789FF"/>
<stop offset="1" stop-color="#4270FF"/>
</linearGradient>
<linearGradient id="paint30_linear_9423_95620" x1="171.967" y1="112.196" x2="179.869" y2="112.196" gradientUnits="userSpaceOnUse">
<stop stop-color="#80B8FF"/>
<stop offset="0.2099" stop-color="#7BB2FF"/>
<stop offset="0.4771" stop-color="#6EA3FF"/>
<stop offset="0.7741" stop-color="#5789FF"/>
<stop offset="1" stop-color="#4270FF"/>
</linearGradient>
<linearGradient id="paint31_linear_9423_95620" x1="181.443" y1="112.196" x2="189.345" y2="112.196" gradientUnits="userSpaceOnUse">
<stop stop-color="#80B8FF"/>
<stop offset="0.2099" stop-color="#7BB2FF"/>
<stop offset="0.4771" stop-color="#6EA3FF"/>
<stop offset="0.7741" stop-color="#5789FF"/>
<stop offset="1" stop-color="#4270FF"/>
</linearGradient>
<linearGradient id="paint32_linear_9423_95620" x1="190.984" y1="112.196" x2="198.887" y2="112.196" gradientUnits="userSpaceOnUse">
<stop stop-color="#80B8FF"/>
<stop offset="0.2099" stop-color="#7BB2FF"/>
<stop offset="0.4771" stop-color="#6EA3FF"/>
<stop offset="0.7741" stop-color="#5789FF"/>
<stop offset="1" stop-color="#4270FF"/>
</linearGradient>
</defs>
</svg>
