<svg width="120" height="120" viewBox="0 0 120 120" fill="none" xmlns="http://www.w3.org/2000/svg">
<path d="M70.7468 31.4592V45.1344H62.9409V34.437C62.9424 32.9925 62.8627 31.5491 62.7021 30.1137C61.4561 19.1552 55.3213 10.4141 43.5885 10.4141C37.6829 10.4141 33.156 12.6737 29.9721 16.3504C29.6402 16.7334 29.3227 17.1323 29.0197 17.5472C26.2597 21.3203 24.706 26.2991 24.323 31.7541C24.2592 32.6363 24.2305 33.5325 24.2305 34.435V45.1325H16.4297V31.4592C16.4297 23.4874 19.5931 16.2553 24.6671 11.0792C29.5508 6.09722 36.2033 3.01929 43.5113 3.01929H43.6639C58.5684 3.01929 70.7468 15.8181 70.7468 31.4592Z" fill="url(#paint0_linear_3763_2780)"/>
<path d="M85.1347 69.9679V72.1669C85.1347 83.2691 79.6012 93.078 71.1423 98.9862C70.0331 99.7621 68.8766 100.468 67.6794 101.1C67.599 101.142 67.5199 101.183 67.4401 101.227C62.8039 103.625 57.6592 104.873 52.4398 104.866H36.9818C18.9252 104.866 4.29004 90.2298 4.29004 72.1733V69.9743C4.29004 68.896 4.34153 67.83 4.44451 66.7764C5.31453 57.8164 9.80314 49.9128 16.4301 44.5497C16.6743 44.351 16.9216 44.1565 17.1718 43.9663C18.0626 43.2862 18.9881 42.6527 19.9446 42.0686C20.1663 41.932 20.3895 41.7986 20.6142 41.6684C25.5868 38.7857 31.234 37.2709 36.9818 37.2781H52.4423C54.5264 37.2772 56.6058 37.4747 58.6524 37.8679C62.9826 38.7018 67.0979 40.4075 70.7484 42.8812C78.5997 48.1964 84.0151 56.834 84.9796 66.7732C85.0821 67.823 85.1338 68.8879 85.1347 69.9679Z" fill="url(#paint1_linear_3763_2780)"/>
<path opacity="0.5" d="M48.4774 104.859H36.9814C18.9249 104.859 4.28906 90.2241 4.28906 72.1669V69.9679C4.28906 68.8892 4.34077 67.8232 4.44418 66.77C5.34611 57.4794 10.1379 49.3256 17.1708 43.9606C22.8602 39.6154 29.8232 37.2667 36.9821 37.2781H46.0403C42.1735 39.4445 38.5338 42.2684 38.0685 46.5304C37.307 53.5199 46.0474 55.5364 47.9483 65.1053C50.4728 77.8313 37.0204 84.4314 39.2545 94.744C40.2745 99.4496 44.0475 102.547 48.4774 104.859Z" fill="url(#paint2_linear_3763_2780)"/>
<path opacity="0.42" d="M85.1351 69.9678V72.1668C85.1351 84.7204 78.0607 95.6209 67.6798 101.099C68.8556 100.014 70.0416 98.7563 71.0667 97.3079C79.8518 84.857 75.5075 59.3163 61.3848 48.3061C47.2475 37.2837 31.1538 40.8965 20.6152 41.6612C25.5882 38.7799 31.2355 37.2669 36.9828 37.276H52.4421C69.4212 37.276 83.374 50.2184 84.98 66.7705C85.0825 67.8224 85.1342 68.8882 85.1351 69.9678Z" fill="url(#paint3_linear_3763_2780)"/>
<path d="M40.4223 104.859H36.9824C18.9259 104.859 4.29004 90.224 4.29004 72.1668V69.9678C4.29004 68.889 4.34174 67.8231 4.44514 66.7699C5.34708 57.4792 10.1389 49.3255 17.1718 43.9604C11.7774 56.5467 10.6048 76.9075 17.5037 89.6693C24.2462 102.141 35.4307 104.041 40.4223 104.859Z" fill="url(#paint4_linear_3763_2780)"/>
<path d="M52.1585 83.5957C52.2319 83.8943 52.2365 84.2058 52.1719 84.5064C52.1072 84.8071 51.975 85.0891 51.7853 85.3312C51.5956 85.5732 51.3533 85.769 51.0768 85.9036C50.8003 86.0382 50.4968 86.1081 50.1893 86.1081H39.038C38.7304 86.1081 38.4269 86.0382 38.1504 85.9036C37.8739 85.769 37.6316 85.5732 37.4419 85.3312C37.2522 85.0891 37.12 84.8071 37.0554 84.5064C36.9907 84.2058 36.9953 83.8943 37.0688 83.5957L39.8422 72.3161C39.9309 71.9572 39.9195 71.5808 39.8095 71.2278C39.6994 70.8749 39.4949 70.5587 39.218 70.3138C38.3243 69.5284 37.6136 68.5566 37.1359 67.4669C36.6583 66.3772 36.4253 65.196 36.4534 64.0066C36.5454 59.7803 39.8888 56.3322 44.0538 56.0469C44.2198 56.0347 44.387 56.0283 44.5549 56.0271C46.2191 56.0151 47.8473 56.5121 49.2211 57.4516C50.5949 58.391 51.6487 59.7279 52.2413 61.2831C52.8339 62.8383 52.937 64.5375 52.5367 66.1529C52.1363 67.7684 51.2518 69.2228 50.0016 70.3214C49.7264 70.5658 49.5234 70.881 49.4147 71.2326C49.306 71.5843 49.2957 71.959 49.385 72.3161L52.1585 83.5957Z" fill="white"/>
<path d="M39.8414 72.3161L37.0679 83.5957C36.9944 83.8944 36.9898 84.2058 37.0545 84.5065C37.1191 84.8071 37.2513 85.0891 37.441 85.3312C37.6307 85.5732 37.873 85.769 38.1495 85.9036C38.426 86.0382 38.7295 86.1081 39.0371 86.1081H37.9194C37.6119 86.1081 37.3084 86.0382 37.0318 85.9036C36.7553 85.769 36.513 85.5732 36.3233 85.3312C36.1336 85.0891 36.0014 84.8071 35.9368 84.5065C35.8721 84.2058 35.8767 83.8944 35.9502 83.5957L38.7243 72.3161C38.8127 71.9571 38.8012 71.5807 38.6909 71.2277C38.5806 70.8747 38.3758 70.5586 38.0988 70.3138C37.2054 69.5281 36.4949 68.5563 36.0173 67.4666C35.5397 66.377 35.3066 65.196 35.3342 64.0066C35.43 59.6125 39.0403 56.0583 43.4363 56.0277C43.645 56.0277 43.8506 56.0328 44.0549 56.0475C39.8899 56.3328 36.5464 59.781 36.4545 64.0072C36.4264 65.1967 36.6593 66.3778 37.137 67.4675C37.6146 68.5572 38.3253 69.529 39.219 70.3144C39.4955 70.5595 39.6996 70.8756 39.8093 71.2285C39.919 71.5813 39.9301 71.9574 39.8414 72.3161Z" fill="url(#paint5_linear_3763_2780)"/>
<path opacity="0.82" d="M16.4293 36.2804C18.8005 34.1999 21.4602 32.4735 24.3259 31.1548C24.2646 32.0369 24.234 32.9306 24.234 33.8357V39.7911C21.5612 41.0303 18.6738 42.6255 16.4287 44.5332L16.4293 36.2804Z" fill="url(#paint6_linear_3763_2780)"/>
<path opacity="0.16" d="M107.985 73.1754C107.659 76.473 106.83 82.3778 104.744 88.8446C103.968 91.2645 103.042 93.6353 101.971 95.9437C98.4848 103.408 93.0488 110.647 84.5843 114.717C84.4078 114.807 84.2327 114.891 84.05 114.975C84.0331 114.984 84.0154 114.993 83.9971 115C83.9802 114.99 83.9625 114.982 83.9441 114.975C82.7804 114.442 81.6509 113.839 80.5619 113.17C79.7952 112.7 79.0563 112.202 78.3453 111.678C76.9474 110.647 75.6325 109.511 74.4124 108.281C73.7856 107.65 73.1852 106.999 72.6113 106.33C71.1333 104.601 69.8005 102.756 68.6262 100.815C66.5623 97.4261 64.9812 93.8458 63.768 90.3778C62.0028 85.3225 61.0178 80.5084 60.4753 76.8774C60.2615 75.4384 60.1155 74.186 60.0164 73.1774C59.9395 72.4066 60.1351 71.6332 60.5702 70.9879C61.0053 70.3426 61.6533 69.8648 62.4048 69.6353L66.8427 68.2685L81.68 63.7004L83.9435 63.006L83.9693 63L105.587 69.6359C106.339 69.8647 106.988 70.3416 107.425 70.9863C107.862 71.631 108.059 72.4041 107.985 73.1754Z" fill="url(#paint7_linear_3763_2780)"/>
<path d="M115.985 78.1754C115.659 81.473 114.83 87.3778 112.744 93.8446C111.968 96.2645 111.042 98.6353 109.971 100.944C106.485 108.408 101.049 115.647 92.5843 119.717C92.4078 119.807 92.2327 119.891 92.05 119.975C92.0331 119.984 92.0154 119.993 91.9971 120C91.9802 119.99 91.9625 119.982 91.9441 119.975C90.7804 119.442 89.6509 118.839 88.5619 118.17C87.7952 117.7 87.0563 117.202 86.3453 116.678C84.9474 115.647 83.6325 114.511 82.4124 113.281C81.7856 112.65 81.1852 111.999 80.6113 111.33C79.1333 109.601 77.8005 107.756 76.6262 105.815C74.5623 102.426 72.9812 98.8458 71.768 95.3778C70.0028 90.3225 69.0178 85.5084 68.4753 81.8774C68.2615 80.4384 68.1155 79.186 68.0164 78.1774C67.9395 77.4066 68.1351 76.6332 68.5702 75.9879C69.0053 75.3426 69.6533 74.8648 70.4048 74.6353L74.8427 73.2685L89.68 68.7004L91.9435 68.006L91.9693 68L113.587 74.6359C114.339 74.8647 114.988 75.3416 115.425 75.9863C115.862 76.631 116.059 77.4041 115.985 78.1754Z" fill="url(#paint8_linear_3763_2780)"/>
<path d="M97.7239 84.4055L89.7778 92.6572L86.2761 89.0209C85.7554 88.4802 84.9112 88.4802 84.3905 89.0209C83.8698 89.5617 83.8698 90.4383 84.3905 90.9791L88.835 95.5945C89.3557 96.1352 90.1999 96.1352 90.7206 95.5945L99.6095 86.3637C100.13 85.823 100.13 84.9463 99.6095 84.4055C99.0888 83.8648 98.2446 83.8648 97.7239 84.4055Z" fill="white" stroke="white"/>
<mask id="mask0_3763_2780" style="mask-type:alpha" maskUnits="userSpaceOnUse" x="68" y="68" width="48" height="52">
<path d="M115.985 78.1754C115.659 81.473 114.83 87.3778 112.744 93.8446C111.968 96.2645 111.042 98.6353 109.971 100.944C106.485 108.408 101.049 115.647 92.5843 119.717C92.4078 119.807 92.2327 119.891 92.05 119.975C92.0331 119.984 92.0154 119.993 91.9971 120C91.9802 119.99 91.9625 119.982 91.9441 119.975C90.7804 119.442 89.6509 118.839 88.5619 118.17C87.7952 117.7 87.0563 117.202 86.3453 116.678C84.9474 115.647 83.6325 114.511 82.4124 113.281C81.7856 112.65 81.1852 111.999 80.6113 111.33C79.1333 109.601 77.8005 107.756 76.6262 105.815C74.5623 102.426 72.9812 98.8458 71.768 95.3778C70.0028 90.3225 69.0178 85.5084 68.4753 81.8774C68.2615 80.4384 68.1155 79.186 68.0164 78.1774C67.9395 77.4066 68.1351 76.6332 68.5702 75.9879C69.0053 75.3426 69.6533 74.8648 70.4048 74.6353L74.8427 73.2685L89.68 68.7004L91.9435 68.006L91.9693 68L113.587 74.6359C114.339 74.8647 114.988 75.3416 115.425 75.9863C115.862 76.631 116.059 77.4041 115.985 78.1754Z" fill="url(#paint9_linear_3763_2780)"/>
</mask>
<g mask="url(#mask0_3763_2780)">
<g style="mix-blend-mode:soft-light" opacity="0.4">
<path d="M107.321 67.6336L65.6644 105.335C63.4582 102.052 61.9781 98.3422 61.3213 94.4508L96.7844 62.3354H96.803C100.645 63.3502 104.229 65.1554 107.321 67.6336Z" fill="url(#paint10_linear_3763_2780)"/>
</g>
<g style="mix-blend-mode:soft-light" opacity="0.4">
<path d="M124.321 80.6336L82.6644 118.335C80.4582 115.052 76.9781 112.227 76.3213 108.335L113.784 75.3354H113.803C117.645 76.3502 121.229 78.1554 124.321 80.6336Z" fill="url(#paint11_linear_3763_2780)"/>
</g>
</g>
<defs>
<linearGradient id="paint0_linear_3763_2780" x1="43.5885" y1="42.9405" x2="43.5885" y2="3.72845" gradientUnits="userSpaceOnUse">
<stop stop-color="#DEE0E2"/>
<stop offset="1" stop-color="#EFEFEF"/>
</linearGradient>
<linearGradient id="paint1_linear_3763_2780" x1="44.7124" y1="105.007" x2="44.7124" y2="32.4065" gradientUnits="userSpaceOnUse">
<stop stop-color="#DEE0E2"/>
<stop offset="1" stop-color="#EFEFEF"/>
<stop offset="1" stop-color="#EFEFEF"/>
</linearGradient>
<linearGradient id="paint2_linear_3763_2780" x1="-16.3137" y1="71.0678" x2="40.6256" y2="71.0678" gradientUnits="userSpaceOnUse">
<stop stop-color="#FCFDFE"/>
<stop offset="0.09" stop-color="#FEFEFC" stop-opacity="0.96"/>
<stop offset="0.25" stop-color="#FEFEFC" stop-opacity="0.86"/>
<stop offset="0.44" stop-color="#FEFEFD" stop-opacity="0.7"/>
<stop offset="0.68" stop-color="#FFFFFE" stop-opacity="0.47"/>
<stop offset="0.93" stop-color="white" stop-opacity="0.18"/>
<stop offset="1" stop-color="white" stop-opacity="0.1"/>
</linearGradient>
<linearGradient id="paint3_linear_3763_2780" x1="80.2067" y1="83.3672" x2="15.8847" y2="12.8204" gradientUnits="userSpaceOnUse">
<stop stop-color="#DEE0E2"/>
<stop offset="1" stop-color="#B4B9BE"/>
</linearGradient>
<linearGradient id="paint4_linear_3763_2780" x1="7.45989" y1="56.3896" x2="46.8079" y2="127.429" gradientUnits="userSpaceOnUse">
<stop stop-color="#DEE1E2"/>
<stop offset="0.3" stop-color="#D7DBDC"/>
<stop offset="0.75" stop-color="#C3C9CB"/>
<stop offset="1" stop-color="#B4BCBE"/>
</linearGradient>
<linearGradient id="paint5_linear_3763_2780" x1="39.3128" y1="54.1096" x2="40.6961" y2="87.6994" gradientUnits="userSpaceOnUse">
<stop stop-color="#DEE0E2"/>
<stop offset="1" stop-color="#B4B9BE"/>
</linearGradient>
<linearGradient id="paint6_linear_3763_2780" x1="20.3773" y1="28.56" x2="20.3773" y2="44.0282" gradientUnits="userSpaceOnUse">
<stop stop-color="#DEE0E2"/>
<stop offset="1" stop-color="#B4B9BE"/>
</linearGradient>
<linearGradient id="paint7_linear_3763_2780" x1="83.9965" y1="62.3268" x2="83.9999" y2="115" gradientUnits="userSpaceOnUse">
<stop stop-color="#39F89C"/>
<stop offset="1" stop-color="#2EDD89"/>
</linearGradient>
<linearGradient id="paint8_linear_3763_2780" x1="91.9965" y1="67.3268" x2="91.9999" y2="120" gradientUnits="userSpaceOnUse">
<stop stop-color="#39F89C"/>
<stop offset="1" stop-color="#2EDD89"/>
</linearGradient>
<linearGradient id="paint9_linear_3763_2780" x1="91.9965" y1="67.3268" x2="91.9999" y2="120" gradientUnits="userSpaceOnUse">
<stop stop-color="#39F89C"/>
<stop offset="1" stop-color="#2EDD89"/>
</linearGradient>
<linearGradient id="paint10_linear_3763_2780" x1="109.871" y1="55.4089" x2="67.5326" y2="98.6352" gradientUnits="userSpaceOnUse">
<stop stop-color="#FEFEFC"/>
<stop offset="1" stop-color="white" stop-opacity="0"/>
</linearGradient>
<linearGradient id="paint11_linear_3763_2780" x1="126.871" y1="68.4089" x2="84.5326" y2="111.635" gradientUnits="userSpaceOnUse">
<stop stop-color="#FEFEFC"/>
<stop offset="1" stop-color="white" stop-opacity="0.1"/>
</linearGradient>
</defs>
</svg>
