<svg width="120" height="120" viewBox="0 0 120 120" fill="none" xmlns="http://www.w3.org/2000/svg">
<rect width="108" height="95" rx="8" fill="url(#paint0_linear_1760_8720)"/>
<path d="M0 8C0 3.58172 3.58172 0 8 0H100C104.418 0 108 3.58172 108 8V16H0V8Z" fill="#DEDFE1"/>
<path d="M79 11C80.6568 11 82 9.65685 82 8C82 6.34315 80.6568 5 79 5C77.3431 5 76 6.34315 76 8C76 9.65685 77.3431 11 79 11Z" fill="white"/>
<path d="M89 11C90.6569 11 92 9.65685 92 8C92 6.34315 90.6569 5 89 5C87.3432 5 86 6.34315 86 8C86 9.65685 87.3432 11 89 11Z" fill="white"/>
<path d="M99 11C100.657 11 102 9.65685 102 8C102 6.34315 100.657 5 99 5C97.3432 5 96 6.34315 96 8C96 9.65685 97.3432 11 99 11Z" fill="white"/>
<rect opacity="0.66" x="8" y="24" width="32" height="6" rx="3" fill="white"/>
<rect opacity="0.66" x="8" y="38" width="29" height="6" rx="3" fill="white"/>
<rect opacity="0.66" x="8" y="52" width="19" height="6" rx="3" fill="white"/>
<rect opacity="0.66" x="35" y="52" width="45" height="6" rx="3" fill="white"/>
<rect opacity="0.66" x="8" y="66" width="36" height="6" rx="3" fill="white"/>
<rect opacity="0.66" x="45" y="38" width="19" height="6" rx="3" fill="white"/>
<path opacity="0.66" d="M84 27C84 25.3431 85.3431 24 87 24H97C98.6569 24 100 25.3431 100 27V27C100 28.6569 98.6569 30 97 30H87C85.3431 30 84 28.6569 84 27V27Z" fill="white"/>
<rect opacity="0.66" x="48" y="24" width="28" height="6" rx="3" fill="white"/>
<rect opacity="0.66" x="72" y="38" width="27" height="6" rx="3" fill="white"/>
<path opacity="0.16" d="M33.3922 61.5694L37.2685 53.5045C37.295 53.4493 37.3341 53.4017 37.3824 53.3659C37.4308 53.33 37.4869 53.307 37.5458 53.2989C37.6047 53.2907 37.6647 53.2977 37.7204 53.3192C37.7761 53.3407 37.8259 53.3761 37.8653 53.4222L44.3594 60.9915C44.4152 61.0567 44.4829 61.1098 44.5586 61.1478C44.6342 61.1859 44.7164 61.208 44.8003 61.2131C44.8843 61.2182 44.9684 61.2061 45.0478 61.1775C45.1272 61.1489 45.2004 61.1044 45.2632 61.0464L48.2652 58.2787C48.3286 58.2208 48.3803 58.1504 48.4174 58.0718C48.4545 57.9931 48.4763 57.9076 48.4814 57.8201C48.4866 57.7327 48.475 57.6451 48.4473 57.5623C48.4197 57.4795 48.3766 57.4032 48.3204 57.3378L41.8112 49.7544C41.7706 49.7072 41.7421 49.6502 41.7284 49.5886C41.7146 49.527 41.7161 49.4628 41.7326 49.4019C41.7491 49.341 41.7801 49.2855 41.8228 49.2403C41.8655 49.1952 41.9185 49.1619 41.9768 49.1436L50.4684 46.4542C50.6124 46.4179 50.7414 46.3348 50.8367 46.2172C50.932 46.0997 50.9887 45.9536 50.9985 45.8004C51.0083 45.6471 50.9707 45.4946 50.8911 45.365C50.8116 45.2355 50.6943 45.1355 50.5562 45.0798L26.0435 35.0666C25.4641 34.8086 24.8515 35.3426 25.0322 35.9455L32.0036 61.4713C32.2017 62.1268 33.1109 62.188 33.3922 61.5694Z" fill="url(#paint1_linear_1760_8720)"/>
<path d="M37.3922 58.585L41.2685 50.8189C41.295 50.7658 41.3341 50.7199 41.3824 50.6854C41.4308 50.6509 41.4869 50.6288 41.5458 50.6209C41.6047 50.6131 41.6647 50.6198 41.7204 50.6405C41.7761 50.6612 41.8259 50.6953 41.8653 50.7397L48.3594 58.0286C48.4152 58.0913 48.4829 58.1425 48.5586 58.1791C48.6342 58.2157 48.7164 58.2371 48.8003 58.242C48.8842 58.2469 48.9683 58.2352 49.0478 58.2077C49.1272 58.1801 49.2004 58.1372 49.2632 58.0814L52.2652 55.4162C52.3286 55.3605 52.3803 55.2928 52.4174 55.217C52.4545 55.1412 52.4763 55.0589 52.4814 54.9747C52.4866 54.8905 52.475 54.8061 52.4473 54.7264C52.4197 54.6467 52.3766 54.5732 52.3204 54.5102L45.8112 47.2077C45.7706 47.1623 45.7421 47.1074 45.7284 47.0481C45.7146 46.9888 45.7161 46.927 45.7326 46.8683C45.7491 46.8097 45.7801 46.7562 45.8228 46.7127C45.8655 46.6693 45.9185 46.6372 45.9768 46.6196L54.4684 44.0299C54.6124 43.9948 54.7414 43.9149 54.8367 43.8017C54.932 43.6884 54.9887 43.5478 54.9985 43.4002C55.0083 43.2527 54.9706 43.1058 54.8911 42.981C54.8116 42.8562 54.6942 42.76 54.5562 42.7063L30.0435 33.0641C29.4641 32.8157 28.8515 33.3299 29.0322 33.9105L36.0035 58.4906C36.2017 59.1218 37.1109 59.1815 37.3922 58.585Z" fill="url(#paint2_linear_1760_8720)"/>
<path d="M114.999 83.9997C114.999 98.357 103.361 109.999 89.0075 109.999C88.8805 110.002 88.7535 109.997 88.627 109.986C85.492 109.954 82.3895 109.347 79.4741 108.193C77.0394 107.241 74.7671 105.916 72.7381 104.267C68.7091 101.049 65.7303 96.7027 64.1819 91.7834C63.4002 89.2628 63.0018 86.6388 63 83.9997C63 69.6414 74.6384 58 89.0065 58C91.645 58.0018 94.2682 58.4003 96.7883 59.1822C102.012 60.812 106.586 64.054 109.855 68.4436C113.124 72.8331 114.92 78.145 114.986 83.6182C114.997 83.745 115.002 83.8723 114.999 83.9997V83.9997Z" fill="url(#paint3_linear_1760_8720)" fill-opacity="0.12"/>
<path d="M119.999 89.9997C119.999 104.357 108.361 115.999 94.0075 115.999C93.8805 116.002 93.7535 115.997 93.627 115.986C90.492 115.954 87.3895 115.347 84.4741 114.193C82.0394 113.241 79.7671 111.916 77.7381 110.267C73.7091 107.049 70.7303 102.703 69.1819 97.7834C68.4002 95.2628 68.0018 92.6388 68 89.9997C68 75.6414 79.6384 64 94.0065 64C96.645 64.0018 99.2682 64.4003 101.788 65.1822C107.012 66.812 111.586 70.054 114.855 74.4436C118.124 78.8331 119.92 84.145 119.986 89.6182C119.997 89.745 120.002 89.8723 119.999 89.9997V89.9997Z" fill="url(#paint4_linear_1760_8720)"/>
<mask id="mask0_1760_8720" style="mask-type:alpha" maskUnits="userSpaceOnUse" x="68" y="64" width="52" height="52">
<path d="M119.999 89.9997C119.999 104.357 108.361 115.999 94.0075 115.999C93.8805 116.002 93.7535 115.997 93.627 115.986C90.492 115.954 87.3895 115.347 84.4741 114.193C82.0394 113.241 79.7671 111.916 77.7381 110.267C73.7091 107.049 70.7303 102.703 69.1819 97.7834C68.4002 95.2628 68.0018 92.6388 68 89.9997C68 75.6414 79.6384 64 94.0065 64C96.645 64.0018 99.2682 64.4003 101.788 65.1822C107.012 66.812 111.586 70.054 114.855 74.4436C118.124 78.8331 119.92 84.145 119.986 89.6182C119.997 89.745 120.002 89.8723 119.999 89.9997V89.9997Z" fill="url(#paint5_linear_1760_8720)"/>
</mask>
<g mask="url(#mask0_1760_8720)">
<path opacity="0.2" d="M115 63.2981L73.3431 101C71.1369 97.7162 69.6568 94.0067 69 90.1154L104.463 58H104.482C108.324 59.0147 111.908 60.8199 115 63.2981Z" fill="url(#paint6_linear_1760_8720)"/>
<path opacity="0.2" d="M127 77.2981L85.3431 115C83.1369 111.716 79.6568 108.891 79 105L116.463 72H116.482C120.324 73.0147 123.908 74.8199 127 77.2981Z" fill="url(#paint7_linear_1760_8720)"/>
</g>
<path fill-rule="evenodd" clip-rule="evenodd" d="M99.9393 81.9393C100.525 81.3536 101.475 81.3536 102.061 81.9393C102.646 82.5251 102.646 83.4749 102.061 84.0607L96.1221 90L102.061 95.9393C102.602 96.4803 102.643 97.331 102.185 97.9198L102.175 97.9321L102.072 98.0497L102.061 98.0607C101.52 98.6017 100.669 98.6429 100.08 98.185L100.068 98.1754L99.9503 98.0716L94 92.1221L88.0607 98.0607C87.4749 98.6464 86.5251 98.6464 85.9393 98.0607C85.3536 97.4749 85.3536 96.5251 85.9393 95.9393L91.8779 90L85.9393 84.0607C85.3984 83.5197 85.3571 82.669 85.815 82.0802L85.8246 82.0679L85.9284 81.9503L85.9393 81.9393C86.4803 81.3983 87.331 81.3571 87.9198 81.815L87.9321 81.8246L88.0497 81.9284L94 87.8779L99.9393 81.9393Z" fill="white"/>
<defs>
<linearGradient id="paint0_linear_1760_8720" x1="68" y1="138.125" x2="46.3231" y2="2.82978" gradientUnits="userSpaceOnUse">
<stop stop-color="#DEE0E2"/>
<stop offset="1" stop-color="#EFEFEF"/>
</linearGradient>
<linearGradient id="paint1_linear_1760_8720" x1="26" y1="36.0385" x2="29.4554" y2="64.6059" gradientUnits="userSpaceOnUse">
<stop stop-color="#7E98FF"/>
<stop offset="1" stop-color="#435CBE"/>
</linearGradient>
<linearGradient id="paint2_linear_1760_8720" x1="30" y1="34" x2="33.2075" y2="61.5383" gradientUnits="userSpaceOnUse">
<stop stop-color="#7E98FF"/>
<stop offset="1" stop-color="#435CBE"/>
</linearGradient>
<linearGradient id="paint3_linear_1760_8720" x1="79.5" y1="108" x2="101" y2="60.5" gradientUnits="userSpaceOnUse">
<stop stop-color="#D62B37"/>
<stop offset="1" stop-color="#FF5F6A"/>
</linearGradient>
<linearGradient id="paint4_linear_1760_8720" x1="84.5" y1="114" x2="106" y2="66.5" gradientUnits="userSpaceOnUse">
<stop stop-color="#D62B37"/>
<stop offset="1" stop-color="#FF5F6A"/>
</linearGradient>
<linearGradient id="paint5_linear_1760_8720" x1="84.5" y1="114" x2="106" y2="66.5" gradientUnits="userSpaceOnUse">
<stop stop-color="#E02D3A"/>
<stop offset="1" stop-color="#FF4D59"/>
</linearGradient>
<linearGradient id="paint6_linear_1760_8720" x1="117.443" y1="51.0734" x2="75.106" y2="92.4977" gradientUnits="userSpaceOnUse">
<stop stop-color="#FEFEFC"/>
<stop offset="1" stop-color="white" stop-opacity="0.1"/>
</linearGradient>
<linearGradient id="paint7_linear_1760_8720" x1="129.549" y1="65.0734" x2="87.2113" y2="108.3" gradientUnits="userSpaceOnUse">
<stop stop-color="#FEFEFC"/>
<stop offset="1" stop-color="white" stop-opacity="0.1"/>
</linearGradient>
</defs>
</svg>
