<svg width="120" height="120" viewBox="0 0 120 120" fill="none" xmlns="http://www.w3.org/2000/svg">
<rect y="12" width="108" height="95" rx="8" fill="url(#paint0_linear_3535_5739)"/>
<path d="M0 20C0 15.5817 3.58172 12 8 12H100C104.418 12 108 15.5817 108 20V28H0V20Z" fill="#DEDFE1"/>
<path d="M79 23C80.6568 23 82 21.6569 82 20C82 18.3431 80.6568 17 79 17C77.3431 17 76 18.3431 76 20C76 21.6569 77.3431 23 79 23Z" fill="white"/>
<path d="M89 23C90.6569 23 92 21.6569 92 20C92 18.3431 90.6569 17 89 17C87.3432 17 86 18.3431 86 20C86 21.6569 87.3432 23 89 23Z" fill="white"/>
<path d="M99 23C100.657 23 102 21.6569 102 20C102 18.3431 100.657 17 99 17C97.3432 17 96 18.3431 96 20C96 21.6569 97.3432 23 99 23Z" fill="white"/>
<rect opacity="0.66" x="8" y="36" width="32" height="6" rx="3" fill="white"/>
<rect opacity="0.66" x="8" y="50" width="29" height="6" rx="3" fill="white"/>
<rect opacity="0.66" x="8" y="64" width="19" height="6" rx="3" fill="white"/>
<rect opacity="0.66" x="35" y="64" width="45" height="6" rx="3" fill="white"/>
<rect opacity="0.66" x="8" y="78" width="36" height="6" rx="3" fill="white"/>
<rect opacity="0.66" x="45" y="50" width="19" height="6" rx="3" fill="white"/>
<path opacity="0.66" d="M84 39C84 37.3431 85.3431 36 87 36H97C98.6569 36 100 37.3431 100 39C100 40.6569 98.6569 42 97 42H87C85.3431 42 84 40.6569 84 39Z" fill="white"/>
<rect opacity="0.66" x="48" y="36" width="28" height="6" rx="3" fill="white"/>
<rect opacity="0.66" x="72" y="50" width="27" height="6" rx="3" fill="white"/>
<path opacity="0.16" d="M33.3922 73.5694L37.2685 65.5045C37.295 65.4493 37.3341 65.4017 37.3824 65.3659C37.4308 65.33 37.4869 65.307 37.5458 65.2989C37.6047 65.2907 37.6647 65.2977 37.7204 65.3192C37.7761 65.3407 37.8259 65.3761 37.8653 65.4222L44.3594 72.9915C44.4152 73.0567 44.4829 73.1098 44.5586 73.1478C44.6342 73.1859 44.7164 73.208 44.8003 73.2131C44.8843 73.2182 44.9684 73.2061 45.0478 73.1775C45.1272 73.1489 45.2004 73.1044 45.2632 73.0464L48.2652 70.2787C48.3286 70.2208 48.3803 70.1504 48.4174 70.0718C48.4545 69.9931 48.4763 69.9076 48.4814 69.8201C48.4866 69.7327 48.475 69.6451 48.4473 69.5623C48.4197 69.4795 48.3766 69.4032 48.3204 69.3378L41.8112 61.7544C41.7706 61.7072 41.7421 61.6502 41.7284 61.5886C41.7146 61.527 41.7161 61.4628 41.7326 61.4019C41.7491 61.341 41.7801 61.2855 41.8228 61.2403C41.8655 61.1952 41.9185 61.1619 41.9768 61.1436L50.4684 58.4542C50.6124 58.4179 50.7414 58.3348 50.8367 58.2172C50.932 58.0997 50.9887 57.9536 50.9985 57.8004C51.0083 57.6471 50.9707 57.4946 50.8911 57.365C50.8116 57.2355 50.6943 57.1355 50.5562 57.0798L26.0435 47.0666C25.4641 46.8086 24.8515 47.3426 25.0322 47.9455L32.0036 73.4713C32.2017 74.1268 33.1109 74.188 33.3922 73.5694Z" fill="url(#paint1_linear_3535_5739)"/>
<path d="M37.3922 70.585L41.2685 62.8189C41.295 62.7658 41.3341 62.7199 41.3824 62.6854C41.4308 62.6509 41.4869 62.6287 41.5458 62.6209C41.6047 62.6131 41.6647 62.6198 41.7204 62.6405C41.7761 62.6612 41.8259 62.6953 41.8653 62.7397L48.3594 70.0286C48.4152 70.0913 48.4829 70.1425 48.5586 70.1791C48.6342 70.2157 48.7164 70.2371 48.8003 70.242C48.8842 70.2469 48.9683 70.2352 49.0478 70.2077C49.1272 70.1801 49.2004 70.1372 49.2632 70.0814L52.2652 67.4162C52.3286 67.3605 52.3803 67.2928 52.4174 67.217C52.4545 67.1412 52.4763 67.0589 52.4814 66.9747C52.4866 66.8905 52.475 66.8061 52.4473 66.7264C52.4197 66.6467 52.3766 66.5732 52.3204 66.5102L45.8112 59.2077C45.7706 59.1623 45.7421 59.1074 45.7284 59.0481C45.7146 58.9888 45.7161 58.927 45.7326 58.8684C45.7491 58.8097 45.7801 58.7562 45.8228 58.7127C45.8655 58.6693 45.9185 58.6372 45.9768 58.6196L54.4684 56.0299C54.6124 55.9948 54.7414 55.9149 54.8367 55.8017C54.932 55.6884 54.9887 55.5478 54.9985 55.4002C55.0083 55.2527 54.9706 55.1058 54.8911 54.981C54.8116 54.8562 54.6942 54.76 54.5562 54.7063L30.0435 45.0641C29.4641 44.8157 28.8515 45.3299 29.0322 45.9105L36.0035 70.4906C36.2017 71.1218 37.1109 71.1815 37.3922 70.585Z" fill="url(#paint2_linear_3535_5739)"/>
<defs>
<linearGradient id="paint0_linear_3535_5739" x1="68" y1="150.125" x2="46.3231" y2="14.8298" gradientUnits="userSpaceOnUse">
<stop stop-color="#DEE0E2"/>
<stop offset="1" stop-color="#EFEFEF"/>
</linearGradient>
<linearGradient id="paint1_linear_3535_5739" x1="26" y1="48.0385" x2="29.4554" y2="76.6059" gradientUnits="userSpaceOnUse">
<stop stop-color="#7E98FF"/>
<stop offset="1" stop-color="#435CBE"/>
</linearGradient>
<linearGradient id="paint2_linear_3535_5739" x1="30" y1="46" x2="33.2075" y2="73.5383" gradientUnits="userSpaceOnUse">
<stop stop-color="#7E98FF"/>
<stop offset="1" stop-color="#435CBE"/>
</linearGradient>
</defs>
</svg>
