<svg width="120" height="120" viewBox="0 0 120 120" fill="none" xmlns="http://www.w3.org/2000/svg">
<path d="M70.7468 31.4595V45.1347H62.9409V34.4372C62.9424 32.9928 62.8627 31.5494 62.7021 30.1139C61.4561 19.1554 55.3213 10.4144 43.5885 10.4144C37.6829 10.4144 33.156 12.674 29.9721 16.3507C29.6402 16.7336 29.3227 17.1326 29.0197 17.5475C26.2597 21.3205 24.706 26.2994 24.323 31.7544C24.2592 32.6365 24.2305 33.5327 24.2305 34.4353V45.1327H16.4297V31.4595C16.4297 23.4876 19.5931 16.2556 24.6671 11.0795C29.5508 6.09747 36.2033 3.01953 43.5113 3.01953H43.6639C58.5684 3.01953 70.7468 15.8183 70.7468 31.4595Z" fill="url(#paint0_linear_1760_9657)"/>
<path d="M85.1347 69.9682V72.1672C85.1347 83.2693 79.6012 93.0782 71.1423 98.9864C70.0331 99.7623 68.8766 100.468 67.6794 101.1C67.599 101.142 67.5199 101.184 67.4401 101.228C62.8039 103.625 57.6592 104.873 52.4398 104.866H36.9818C18.9252 104.866 4.29004 90.2301 4.29004 72.1735V69.9746C4.29004 68.8962 4.34153 67.8302 4.44451 66.7766C5.31453 57.8166 9.80314 49.9131 16.4301 44.55C16.6743 44.3513 16.9216 44.1568 17.1718 43.9666C18.0626 43.2864 18.9881 42.653 19.9446 42.0689C20.1663 41.9323 20.3895 41.7989 20.6142 41.6687C25.5868 38.7859 31.234 37.2712 36.9818 37.2783H52.4423C54.5264 37.2774 56.6058 37.4749 58.6524 37.8681C62.9826 38.7021 67.0979 40.4077 70.7484 42.8814C78.5997 48.1967 84.0151 56.8343 84.9796 66.7734C85.0821 67.8232 85.1338 68.8881 85.1347 69.9682Z" fill="url(#paint1_linear_1760_9657)"/>
<path opacity="0.5" d="M48.4774 104.86H36.9814C18.9249 104.86 4.28906 90.2244 4.28906 72.1672V69.9682C4.28906 68.8894 4.34077 67.8235 4.44418 66.7702C5.34611 57.4796 10.1379 49.3258 17.1708 43.9608C22.8602 39.6156 29.8232 37.2669 36.9821 37.2784H46.0403C42.1735 39.4448 38.5338 42.2687 38.0685 46.5307C37.307 53.5202 46.0474 55.5366 47.9483 65.1055C50.4728 77.8315 37.0204 84.4317 39.2545 94.7442C40.2745 99.4499 44.0475 102.548 48.4774 104.86Z" fill="url(#paint2_linear_1760_9657)"/>
<path opacity="0.42" d="M85.1351 69.9677V72.1667C85.1351 84.7203 78.0607 95.6208 67.6798 101.099C68.8556 100.014 70.0416 98.7561 71.0667 97.3078C79.8518 84.8569 75.5075 59.3162 61.3848 48.3059C47.2475 37.2836 31.1538 40.8964 20.6152 41.6611C25.5882 38.7798 31.2355 37.2667 36.9828 37.2759H52.4421C69.4212 37.2759 83.374 50.2183 84.98 66.7704C85.0825 67.8223 85.1342 68.8881 85.1351 69.9677Z" fill="url(#paint3_linear_1760_9657)"/>
<path d="M40.4223 104.859H36.9824C18.9259 104.859 4.29004 90.224 4.29004 72.1668V69.9678C4.29004 68.889 4.34174 67.8231 4.44514 66.7699C5.34708 57.4792 10.1389 49.3255 17.1718 43.9604C11.7774 56.5467 10.6048 76.9075 17.5037 89.6693C24.2462 102.141 35.4307 104.041 40.4223 104.859Z" fill="url(#paint4_linear_1760_9657)"/>
<path d="M52.1585 83.5957C52.2319 83.8943 52.2365 84.2058 52.1719 84.5064C52.1072 84.8071 51.975 85.0891 51.7853 85.3312C51.5956 85.5732 51.3533 85.769 51.0768 85.9036C50.8003 86.0382 50.4968 86.1081 50.1893 86.1081H39.038C38.7304 86.1081 38.4269 86.0382 38.1504 85.9036C37.8739 85.769 37.6316 85.5732 37.4419 85.3312C37.2522 85.0891 37.12 84.8071 37.0554 84.5064C36.9907 84.2058 36.9953 83.8943 37.0688 83.5957L39.8422 72.3161C39.9309 71.9572 39.9195 71.5808 39.8095 71.2278C39.6994 70.8749 39.4949 70.5587 39.218 70.3138C38.3243 69.5284 37.6136 68.5566 37.1359 67.4669C36.6583 66.3772 36.4253 65.196 36.4534 64.0066C36.5454 59.7803 39.8888 56.3322 44.0538 56.0469C44.2198 56.0347 44.387 56.0283 44.5549 56.0271C46.2191 56.0151 47.8473 56.5121 49.2211 57.4516C50.5949 58.391 51.6487 59.7279 52.2413 61.2831C52.8339 62.8383 52.937 64.5375 52.5367 66.1529C52.1363 67.7684 51.2518 69.2228 50.0016 70.3214C49.7264 70.5658 49.5234 70.881 49.4147 71.2326C49.306 71.5843 49.2957 71.959 49.385 72.3161L52.1585 83.5957Z" fill="white"/>
<path d="M39.8414 72.3163L37.0679 83.5958C36.9944 83.8945 36.9898 84.2059 37.0545 84.5066C37.1191 84.8072 37.2513 85.0893 37.441 85.3313C37.6307 85.5734 37.873 85.7691 38.1495 85.9037C38.426 86.0383 38.7295 86.1082 39.0371 86.1082H37.9194C37.6119 86.1082 37.3084 86.0383 37.0318 85.9037C36.7553 85.7691 36.513 85.5734 36.3233 85.3313C36.1336 85.0893 36.0014 84.8072 35.9368 84.5066C35.8721 84.2059 35.8767 83.8945 35.9502 83.5958L38.7243 72.3163C38.8127 71.9572 38.8012 71.5808 38.6909 71.2278C38.5806 70.8748 38.3758 70.5588 38.0988 70.3139C37.2054 69.5282 36.4949 68.5564 36.0173 67.4668C35.5397 66.3771 35.3066 65.1961 35.3342 64.0067C35.43 59.6126 39.0403 56.0585 43.4363 56.0278C43.645 56.0278 43.8506 56.0329 44.0549 56.0476C39.8899 56.3329 36.5464 59.7811 36.4545 64.0074C36.4264 65.1968 36.6593 66.378 37.137 67.4677C37.6146 68.5574 38.3253 69.5291 39.219 70.3145C39.4955 70.5597 39.6996 70.8758 39.8093 71.2286C39.919 71.5814 39.9301 71.9576 39.8414 72.3163Z" fill="url(#paint5_linear_1760_9657)"/>
<path opacity="0.82" d="M16.4293 36.2804C18.8005 34.1999 21.4602 32.4735 24.3259 31.1548C24.2646 32.0369 24.234 32.9306 24.234 33.8357V39.7911C21.5612 41.0303 18.6738 42.6255 16.4287 44.5332L16.4293 36.2804Z" fill="url(#paint6_linear_1760_9657)"/>
<rect opacity="0.12" x="48" y="88" width="65" height="24" rx="12" fill="url(#paint7_linear_1760_9657)"/>
<rect x="55" y="92" width="64" height="24" rx="12" fill="url(#paint8_linear_1760_9657)"/>
<path fill-rule="evenodd" clip-rule="evenodd" d="M69.0599 98C69.4338 98 69.7369 98.3001 69.7369 98.6703V109.33C69.7369 109.7 69.4338 110 69.0599 110C68.6859 110 68.3828 109.7 68.3828 109.33V98.6703C68.3828 98.3001 68.6859 98 69.0599 98Z" fill="white"/>
<path fill-rule="evenodd" clip-rule="evenodd" d="M63 103.999C63 103.629 63.3031 103.329 63.6771 103.329H74.4437C74.8176 103.329 75.1207 103.629 75.1207 103.999C75.1207 104.37 74.8176 104.67 74.4437 104.67H63.6771C63.3031 104.67 63 104.37 63 103.999Z" fill="white"/>
<path fill-rule="evenodd" clip-rule="evenodd" d="M64.7745 99.7578C65.0389 99.4961 65.4676 99.4961 65.732 99.7578L73.3455 107.295C73.6099 107.557 73.6099 107.981 73.3455 108.243C73.0811 108.505 72.6524 108.505 72.388 108.243L64.7745 100.706C64.5101 100.444 64.5101 100.02 64.7745 99.7578Z" fill="white"/>
<path fill-rule="evenodd" clip-rule="evenodd" d="M73.3455 99.7578C73.6099 100.02 73.6099 100.444 73.3455 100.706L65.732 108.243C65.4676 108.505 65.0389 108.505 64.7745 108.243C64.5101 107.981 64.5101 107.557 64.7745 107.295L72.388 99.7578C72.6524 99.4961 73.0811 99.4961 73.3455 99.7578Z" fill="white"/>
<path fill-rule="evenodd" clip-rule="evenodd" d="M86.9993 98C87.3733 98 87.6764 98.3001 87.6764 98.6703V109.33C87.6764 109.7 87.3733 110 86.9993 110C86.6254 110 86.3223 109.7 86.3223 109.33V98.6703C86.3223 98.3001 86.6254 98 86.9993 98Z" fill="white"/>
<path fill-rule="evenodd" clip-rule="evenodd" d="M80.9395 103.999C80.9395 103.629 81.2426 103.329 81.6165 103.329H92.3831C92.7571 103.329 93.0602 103.629 93.0602 103.999C93.0602 104.37 92.7571 104.67 92.3831 104.67H81.6165C81.2426 104.67 80.9395 104.37 80.9395 103.999Z" fill="white"/>
<path fill-rule="evenodd" clip-rule="evenodd" d="M82.714 99.7578C82.9784 99.4961 83.4071 99.4961 83.6715 99.7579L91.2843 107.295C91.5487 107.557 91.5487 107.981 91.2843 108.243C91.0199 108.505 90.5912 108.505 90.3268 108.243L82.7139 100.706C82.4495 100.444 82.4495 100.02 82.714 99.7578Z" fill="white"/>
<path fill-rule="evenodd" clip-rule="evenodd" d="M91.2843 99.7578C91.5487 100.02 91.5487 100.444 91.2843 100.706L83.6715 108.243C83.4071 108.505 82.9784 108.505 82.714 108.243C82.4495 107.981 82.4495 107.557 82.7139 107.295L90.3268 99.7579C90.5912 99.4961 91.0199 99.4961 91.2843 99.7578Z" fill="white"/>
<path fill-rule="evenodd" clip-rule="evenodd" d="M104.939 98C105.313 98 105.616 98.3001 105.616 98.6703V109.33C105.616 109.7 105.313 110 104.939 110C104.565 110 104.262 109.7 104.262 109.33V98.6703C104.262 98.3001 104.565 98 104.939 98Z" fill="white"/>
<path fill-rule="evenodd" clip-rule="evenodd" d="M98.8789 103.999C98.8789 103.629 99.182 103.329 99.556 103.329H110.323C110.697 103.329 111 103.629 111 103.999C111 104.37 110.697 104.67 110.323 104.67H99.556C99.182 104.67 98.8789 104.37 98.8789 103.999Z" fill="white"/>
<path fill-rule="evenodd" clip-rule="evenodd" d="M100.653 99.7578C100.918 99.4961 101.347 99.4961 101.611 99.7579L109.224 107.295C109.488 107.557 109.488 107.981 109.224 108.243C108.959 108.505 108.531 108.505 108.266 108.243L100.653 100.706C100.389 100.444 100.389 100.02 100.653 99.7578Z" fill="white"/>
<path fill-rule="evenodd" clip-rule="evenodd" d="M109.224 99.7578C109.488 100.02 109.488 100.444 109.224 100.706L101.611 108.243C101.347 108.505 100.918 108.505 100.653 108.243C100.389 107.981 100.389 107.557 100.653 107.295L108.266 99.7579C108.531 99.4961 108.959 99.4961 109.224 99.7578Z" fill="white"/>
<defs>
<linearGradient id="paint0_linear_1760_9657" x1="43.5885" y1="42.9408" x2="43.5885" y2="3.7287" gradientUnits="userSpaceOnUse">
<stop stop-color="#DEE0E2"/>
<stop offset="1" stop-color="#EFEFEF"/>
</linearGradient>
<linearGradient id="paint1_linear_1760_9657" x1="44.7124" y1="105.007" x2="44.7124" y2="32.4068" gradientUnits="userSpaceOnUse">
<stop stop-color="#DEE0E2"/>
<stop offset="1" stop-color="#EFEFEF"/>
<stop offset="1" stop-color="#EFEFEF"/>
</linearGradient>
<linearGradient id="paint2_linear_1760_9657" x1="-16.3137" y1="71.068" x2="40.6256" y2="71.068" gradientUnits="userSpaceOnUse">
<stop stop-color="#FCFDFE"/>
<stop offset="0.09" stop-color="#FEFEFC" stop-opacity="0.96"/>
<stop offset="0.25" stop-color="#FEFEFC" stop-opacity="0.86"/>
<stop offset="0.44" stop-color="#FEFEFD" stop-opacity="0.7"/>
<stop offset="0.68" stop-color="#FFFFFE" stop-opacity="0.47"/>
<stop offset="0.93" stop-color="white" stop-opacity="0.18"/>
<stop offset="1" stop-color="white" stop-opacity="0.1"/>
</linearGradient>
<linearGradient id="paint3_linear_1760_9657" x1="80.2067" y1="83.3671" x2="15.8847" y2="12.8203" gradientUnits="userSpaceOnUse">
<stop stop-color="#DEE0E2"/>
<stop offset="1" stop-color="#B4B9BE"/>
</linearGradient>
<linearGradient id="paint4_linear_1760_9657" x1="7.45989" y1="56.3896" x2="46.8079" y2="127.429" gradientUnits="userSpaceOnUse">
<stop stop-color="#DEE1E2"/>
<stop offset="0.3" stop-color="#D7DBDC"/>
<stop offset="0.75" stop-color="#C3C9CB"/>
<stop offset="1" stop-color="#B4BCBE"/>
</linearGradient>
<linearGradient id="paint5_linear_1760_9657" x1="39.3128" y1="54.1097" x2="40.6961" y2="87.6996" gradientUnits="userSpaceOnUse">
<stop stop-color="#DEE0E2"/>
<stop offset="1" stop-color="#B4B9BE"/>
</linearGradient>
<linearGradient id="paint6_linear_1760_9657" x1="20.3773" y1="28.56" x2="20.3773" y2="44.0282" gradientUnits="userSpaceOnUse">
<stop stop-color="#DEE0E2"/>
<stop offset="1" stop-color="#B4B9BE"/>
</linearGradient>
<linearGradient id="paint7_linear_1760_9657" x1="106.091" y1="89.9582" x2="53.5613" y2="110.777" gradientUnits="userSpaceOnUse">
<stop stop-color="#7E98FF"/>
<stop offset="1" stop-color="#435CBE"/>
</linearGradient>
<linearGradient id="paint8_linear_1760_9657" x1="112.197" y1="93.9582" x2="60.2605" y2="114.225" gradientUnits="userSpaceOnUse">
<stop stop-color="#7E98FF"/>
<stop offset="1" stop-color="#435CBE"/>
</linearGradient>
</defs>
</svg>
