<svg width="120" height="120" viewBox="0 0 120 120" fill="none" xmlns="http://www.w3.org/2000/svg">
<path d="M70.7468 31.4592V45.1344H62.9409V34.437C62.9424 32.9925 62.8627 31.5491 62.7021 30.1137C61.4561 19.1552 55.3213 10.4141 43.5885 10.4141C37.6829 10.4141 33.156 12.6737 29.9721 16.3504C29.6402 16.7334 29.3227 17.1323 29.0197 17.5472C26.2597 21.3203 24.706 26.2991 24.323 31.7541C24.2592 32.6363 24.2305 33.5325 24.2305 34.435V45.1325H16.4297V31.4592C16.4297 23.4874 19.5931 16.2553 24.6671 11.0792C29.5508 6.09722 36.2033 3.01929 43.5113 3.01929H43.6639C58.5684 3.01929 70.7468 15.8181 70.7468 31.4592Z" fill="url(#paint0_linear_4447_7861)"/>
<path d="M85.1347 69.9679V72.1669C85.1347 83.2691 79.6012 93.078 71.1423 98.9862C70.0331 99.7621 68.8766 100.468 67.6794 101.1C67.599 101.142 67.5199 101.183 67.4401 101.227C62.8039 103.625 57.6592 104.873 52.4398 104.866H36.9818C18.9252 104.866 4.29004 90.2298 4.29004 72.1733V69.9743C4.29004 68.896 4.34153 67.83 4.44451 66.7764C5.31453 57.8164 9.80314 49.9128 16.4301 44.5497C16.6743 44.351 16.9216 44.1565 17.1718 43.9663C18.0626 43.2862 18.9881 42.6527 19.9446 42.0686C20.1663 41.932 20.3895 41.7986 20.6142 41.6684C25.5868 38.7857 31.234 37.2709 36.9818 37.2781H52.4423C54.5264 37.2772 56.6058 37.4747 58.6524 37.8679C62.9826 38.7018 67.0979 40.4075 70.7484 42.8812C78.5997 48.1964 84.0151 56.834 84.9796 66.7732C85.0821 67.823 85.1338 68.8879 85.1347 69.9679Z" fill="url(#paint1_linear_4447_7861)"/>
<path opacity="0.5" d="M48.4774 104.859H36.9814C18.9249 104.859 4.28906 90.2241 4.28906 72.1669V69.9679C4.28906 68.8892 4.34077 67.8232 4.44418 66.77C5.34611 57.4794 10.1379 49.3256 17.1708 43.9606C22.8602 39.6154 29.8232 37.2667 36.9821 37.2781H46.0403C42.1735 39.4445 38.5338 42.2684 38.0685 46.5304C37.307 53.5199 46.0474 55.5364 47.9483 65.1053C50.4728 77.8313 37.0204 84.4314 39.2545 94.744C40.2745 99.4496 44.0475 102.547 48.4774 104.859Z" fill="url(#paint2_linear_4447_7861)"/>
<path opacity="0.42" d="M85.1351 69.9678V72.1668C85.1351 84.7204 78.0607 95.6209 67.6798 101.099C68.8556 100.014 70.0416 98.7563 71.0667 97.3079C79.8518 84.857 75.5075 59.3163 61.3848 48.3061C47.2475 37.2837 31.1538 40.8965 20.6152 41.6612C25.5882 38.7799 31.2355 37.2669 36.9828 37.276H52.4421C69.4212 37.276 83.374 50.2184 84.98 66.7705C85.0825 67.8224 85.1342 68.8882 85.1351 69.9678Z" fill="url(#paint3_linear_4447_7861)"/>
<path d="M40.4223 104.859H36.9824C18.9259 104.859 4.29004 90.224 4.29004 72.1668V69.9678C4.29004 68.889 4.34174 67.8231 4.44514 66.7699C5.34708 57.4792 10.1389 49.3255 17.1718 43.9604C11.7774 56.5467 10.6048 76.9075 17.5037 89.6693C24.2462 102.141 35.4307 104.041 40.4223 104.859Z" fill="url(#paint4_linear_4447_7861)"/>
<path d="M52.1585 83.5957C52.2319 83.8943 52.2365 84.2058 52.1719 84.5064C52.1072 84.8071 51.975 85.0891 51.7853 85.3312C51.5956 85.5732 51.3533 85.769 51.0768 85.9036C50.8003 86.0382 50.4968 86.1081 50.1893 86.1081H39.038C38.7304 86.1081 38.4269 86.0382 38.1504 85.9036C37.8739 85.769 37.6316 85.5732 37.4419 85.3312C37.2522 85.0891 37.12 84.8071 37.0554 84.5064C36.9907 84.2058 36.9953 83.8943 37.0688 83.5957L39.8422 72.3161C39.9309 71.9572 39.9195 71.5808 39.8095 71.2278C39.6994 70.8749 39.4949 70.5587 39.218 70.3138C38.3243 69.5284 37.6136 68.5566 37.1359 67.4669C36.6583 66.3772 36.4253 65.196 36.4534 64.0066C36.5454 59.7803 39.8888 56.3322 44.0538 56.0469C44.2198 56.0347 44.387 56.0283 44.5549 56.0271C46.2191 56.0151 47.8473 56.5121 49.2211 57.4516C50.5949 58.391 51.6487 59.7279 52.2413 61.2831C52.8339 62.8383 52.937 64.5375 52.5367 66.1529C52.1363 67.7684 51.2518 69.2228 50.0016 70.3214C49.7264 70.5658 49.5234 70.881 49.4147 71.2326C49.306 71.5843 49.2957 71.959 49.385 72.3161L52.1585 83.5957Z" fill="white"/>
<path d="M39.8414 72.3161L37.0679 83.5957C36.9944 83.8944 36.9898 84.2058 37.0545 84.5065C37.1191 84.8071 37.2513 85.0891 37.441 85.3312C37.6307 85.5732 37.873 85.769 38.1495 85.9036C38.426 86.0382 38.7295 86.1081 39.0371 86.1081H37.9194C37.6119 86.1081 37.3084 86.0382 37.0318 85.9036C36.7553 85.769 36.513 85.5732 36.3233 85.3312C36.1336 85.0891 36.0014 84.8071 35.9368 84.5065C35.8721 84.2058 35.8767 83.8944 35.9502 83.5957L38.7243 72.3161C38.8127 71.9571 38.8012 71.5807 38.6909 71.2277C38.5806 70.8747 38.3758 70.5586 38.0988 70.3138C37.2054 69.5281 36.4949 68.5563 36.0173 67.4666C35.5397 66.377 35.3066 65.196 35.3342 64.0066C35.43 59.6125 39.0403 56.0583 43.4363 56.0277C43.645 56.0277 43.8506 56.0328 44.0549 56.0475C39.8899 56.3328 36.5464 59.781 36.4545 64.0072C36.4264 65.1967 36.6593 66.3778 37.137 67.4675C37.6146 68.5572 38.3253 69.529 39.219 70.3144C39.4955 70.5595 39.6996 70.8756 39.8093 71.2285C39.919 71.5813 39.9301 71.9574 39.8414 72.3161Z" fill="url(#paint5_linear_4447_7861)"/>
<path opacity="0.82" d="M16.4293 36.2804C18.8005 34.1999 21.4602 32.4735 24.3259 31.1548C24.2646 32.0369 24.234 32.9306 24.234 33.8357V39.7911C21.5612 41.0303 18.6738 42.6255 16.4287 44.5332L16.4293 36.2804Z" fill="url(#paint6_linear_4447_7861)"/>
<path opacity="0.12" d="M61.4241 116H103.576C105.117 116 106.44 115.672 107.546 115.015C108.652 114.358 109.504 113.464 110.103 112.333C110.701 111.22 111 109.97 111 108.583C111 107.945 110.909 107.297 110.728 106.64C110.547 105.983 110.284 105.354 109.939 104.752L88.8364 67.7495C88.1293 66.5088 87.2047 65.5782 86.0625 64.9579C84.9385 64.3193 83.751 64 82.5 64C81.249 64 80.0525 64.3193 78.9103 64.9579C77.7681 65.5782 76.8526 66.5088 76.1636 67.7495L55.0606 104.752C54.3535 105.974 54 107.251 54 108.583C54 109.97 54.2991 111.22 54.8974 112.333C55.4957 113.464 56.3478 114.358 57.4537 115.015C58.5596 115.672 59.8831 116 61.4241 116ZM82.5272 97.6905C81.0768 97.6905 80.3335 96.9425 80.2972 95.4463L79.9437 80.5305C79.9256 79.8189 80.1522 79.226 80.6236 78.7516C81.1131 78.2772 81.7386 78.04 82.5 78.04C83.2433 78.04 83.8597 78.2863 84.3492 78.7789C84.8569 79.2533 85.1016 79.8463 85.0835 80.5579L84.6756 95.4463C84.6574 96.9425 83.9413 97.6905 82.5272 97.6905ZM82.5272 106.859C81.7114 106.859 80.9952 106.576 80.3788 106.011C79.7805 105.445 79.4814 104.752 79.4814 103.931C79.4814 103.128 79.7805 102.434 80.3788 101.851C80.9771 101.267 81.6932 100.975 82.5272 100.975C83.343 100.975 84.0501 101.267 84.6484 101.851C85.2648 102.416 85.573 103.109 85.573 103.931C85.573 104.752 85.2648 105.445 84.6484 106.011C84.0501 106.576 83.343 106.859 82.5272 106.859Z" fill="url(#paint7_linear_4447_7861)"/>
<path d="M67.4241 120H109.576C111.117 120 112.44 119.672 113.546 119.015C114.652 118.358 115.504 117.464 116.103 116.333C116.701 115.22 117 113.97 117 112.583C117 111.945 116.909 111.297 116.728 110.64C116.547 109.983 116.284 109.354 115.939 108.752L94.8364 71.7495C94.1293 70.5088 93.2047 69.5782 92.0625 68.9579C90.9385 68.3193 89.751 68 88.5 68C87.249 68 86.0525 68.3193 84.9103 68.9579C83.7681 69.5782 82.8526 70.5088 82.1636 71.7495L61.0606 108.752C60.3535 109.974 60 111.251 60 112.583C60 113.97 60.2991 115.22 60.8974 116.333C61.4957 117.464 62.3478 118.358 63.4537 119.015C64.5596 119.672 65.8831 120 67.4241 120Z" fill="url(#paint8_linear_4447_7861)"/>
<mask id="mask0_4447_7861" style="mask-type:alpha" maskUnits="userSpaceOnUse" x="60" y="68" width="57" height="52">
<path d="M67.4241 120H109.576C111.117 120 112.44 119.672 113.546 119.015C114.652 118.358 115.504 117.464 116.103 116.333C116.701 115.22 117 113.97 117 112.583C117 111.945 116.909 111.297 116.728 110.64C116.547 109.983 116.284 109.354 115.939 108.752L94.8364 71.7495C94.1293 70.5088 93.2047 69.5782 92.0625 68.9579C90.9385 68.3193 89.751 68 88.5 68C87.249 68 86.0525 68.3193 84.9103 68.9579C83.7681 69.5782 82.8526 70.5088 82.1636 71.7495L61.0606 108.752C60.3535 109.974 60 111.251 60 112.583C60 113.97 60.2991 115.22 60.8974 116.333C61.4957 117.464 62.3478 118.358 63.4537 119.015C64.5596 119.672 65.8831 120 67.4241 120Z" fill="url(#paint9_linear_4447_7861)"/>
</mask>
<g mask="url(#mask0_4447_7861)">
<path opacity="0.2" d="M107 74.2981L65.3431 112C63.1369 108.716 61.6568 105.007 61 101.115L96.4631 69H96.4817C100.324 70.0147 103.908 71.8199 107 74.2981Z" fill="url(#paint10_linear_4447_7861)"/>
<path opacity="0.2" d="M119 88.2981L77.3431 126C75.1369 122.716 64.6568 126.391 64 122.5L108.463 83H108.482C112.324 84.0147 115.908 85.8199 119 88.2981Z" fill="url(#paint11_linear_4447_7861)"/>
</g>
<path d="M86.2973 99.4464C86.3335 100.942 87.0769 101.691 88.5272 101.691C89.9414 101.691 90.6575 100.942 90.6756 99.4464L91.0835 84.5579C91.1017 83.8464 90.8569 83.2534 90.3493 82.779C89.8598 82.2864 89.2434 82.04 88.5001 82.04C87.7386 82.04 87.1131 82.2772 86.6236 82.7516C86.1522 83.226 85.9256 83.819 85.9438 84.5306L86.2973 99.4464Z" fill="white"/>
<path d="M86.3789 110.011C86.9953 110.576 87.7114 110.859 88.5272 110.859C89.3431 110.859 90.0501 110.576 90.6484 110.011C91.2648 109.445 91.573 108.752 91.573 107.931C91.573 107.11 91.2648 106.416 90.6484 105.851C90.0501 105.267 89.3431 104.975 88.5272 104.975C87.6933 104.975 86.9772 105.267 86.3789 105.851C85.7806 106.434 85.4814 107.128 85.4814 107.931C85.4814 108.752 85.7806 109.445 86.3789 110.011Z" fill="white"/>
<defs>
<linearGradient id="paint0_linear_4447_7861" x1="43.5885" y1="42.9405" x2="43.5885" y2="3.72845" gradientUnits="userSpaceOnUse">
<stop stop-color="#DEE0E2"/>
<stop offset="1" stop-color="#EFEFEF"/>
</linearGradient>
<linearGradient id="paint1_linear_4447_7861" x1="44.7124" y1="105.007" x2="44.7124" y2="32.4065" gradientUnits="userSpaceOnUse">
<stop stop-color="#DEE0E2"/>
<stop offset="1" stop-color="#EFEFEF"/>
<stop offset="1" stop-color="#EFEFEF"/>
</linearGradient>
<linearGradient id="paint2_linear_4447_7861" x1="-16.3137" y1="71.0678" x2="40.6256" y2="71.0678" gradientUnits="userSpaceOnUse">
<stop stop-color="#FCFDFE"/>
<stop offset="0.09" stop-color="#FEFEFC" stop-opacity="0.96"/>
<stop offset="0.25" stop-color="#FEFEFC" stop-opacity="0.86"/>
<stop offset="0.44" stop-color="#FEFEFD" stop-opacity="0.7"/>
<stop offset="0.68" stop-color="#FFFFFE" stop-opacity="0.47"/>
<stop offset="0.93" stop-color="white" stop-opacity="0.18"/>
<stop offset="1" stop-color="white" stop-opacity="0.1"/>
</linearGradient>
<linearGradient id="paint3_linear_4447_7861" x1="80.2067" y1="83.3672" x2="15.8847" y2="12.8204" gradientUnits="userSpaceOnUse">
<stop stop-color="#DEE0E2"/>
<stop offset="1" stop-color="#B4B9BE"/>
</linearGradient>
<linearGradient id="paint4_linear_4447_7861" x1="7.45989" y1="56.3896" x2="46.8079" y2="127.429" gradientUnits="userSpaceOnUse">
<stop stop-color="#DEE1E2"/>
<stop offset="0.3" stop-color="#D7DBDC"/>
<stop offset="0.75" stop-color="#C3C9CB"/>
<stop offset="1" stop-color="#B4BCBE"/>
</linearGradient>
<linearGradient id="paint5_linear_4447_7861" x1="39.3128" y1="54.1096" x2="40.6961" y2="87.6994" gradientUnits="userSpaceOnUse">
<stop stop-color="#DEE0E2"/>
<stop offset="1" stop-color="#B4B9BE"/>
</linearGradient>
<linearGradient id="paint6_linear_4447_7861" x1="20.3773" y1="28.56" x2="20.3773" y2="44.0282" gradientUnits="userSpaceOnUse">
<stop stop-color="#DEE0E2"/>
<stop offset="1" stop-color="#B4B9BE"/>
</linearGradient>
<linearGradient id="paint7_linear_4447_7861" x1="72.0865" y1="114" x2="92.2764" y2="65.1054" gradientUnits="userSpaceOnUse">
<stop stop-color="#E02D3A"/>
<stop offset="1" stop-color="#FF4D59"/>
</linearGradient>
<linearGradient id="paint8_linear_4447_7861" x1="78.0865" y1="118" x2="98.2764" y2="69.1054" gradientUnits="userSpaceOnUse">
<stop stop-color="#E02D3A"/>
<stop offset="1" stop-color="#FF4D59"/>
</linearGradient>
<linearGradient id="paint9_linear_4447_7861" x1="78.0865" y1="118" x2="98.2764" y2="69.1054" gradientUnits="userSpaceOnUse">
<stop stop-color="#E02D3A"/>
<stop offset="1" stop-color="#FF4D59"/>
</linearGradient>
<linearGradient id="paint10_linear_4447_7861" x1="109.443" y1="62.0734" x2="67.106" y2="103.498" gradientUnits="userSpaceOnUse">
<stop stop-color="#FEFEFC"/>
<stop offset="1" stop-color="white" stop-opacity="0.1"/>
</linearGradient>
<linearGradient id="paint11_linear_4447_7861" x1="121.921" y1="76.0734" x2="80.0899" y2="125.011" gradientUnits="userSpaceOnUse">
<stop stop-color="#FEFEFC"/>
<stop offset="1" stop-color="white" stop-opacity="0.1"/>
</linearGradient>
</defs>
</svg>
