<svg width="120" height="120" viewBox="0 0 120 120" fill="none" xmlns="http://www.w3.org/2000/svg">
<path d="M0 8C0 3.58172 3.58172 0 8 0H68C72.4183 0 76 3.58172 76 8V96C76 100.418 72.4183 104 68 104H8C3.58172 104 0 100.418 0 96V8Z" fill="url(#paint0_linear_2026_13977)"/>
<path d="M38 58C50.7025 58 61 47.7025 61 35C61 22.2974 50.7025 12 38 12C25.2974 12 15 22.2974 15 35C15 47.7025 25.2974 58 38 58Z" fill="#F5F6F6"/>
<path opacity="0.82" fill-rule="evenodd" clip-rule="evenodd" d="M43.25 27C43.25 30.1066 40.7316 32.625 37.625 32.625C34.5184 32.625 32 30.1066 32 27C32 23.8934 34.5184 21.375 37.625 21.375C40.7316 21.375 43.25 23.8934 43.25 27ZM31.7816 47.625H44.2188C45.2217 47.6249 46.1835 47.2159 46.8925 46.488C47.6016 45.76 48 44.7728 48 43.7435V43.2725C48 38.7728 44.4461 35.125 40.0623 35.125H35.9377C31.5539 35.125 28 38.7728 28 43.2725V43.7435C28 44.7729 28.3984 45.7602 29.1076 46.4881C29.8168 47.2161 30.7787 47.625 31.7816 47.625Z" fill="url(#paint1_linear_2026_13977)"/>
<path opacity="0.66" d="M12 72C12 70.3431 13.3431 69 15 69H63C64.6569 69 66 70.3431 66 72C66 73.6569 64.6569 75 63 75H15C13.3431 75 12 73.6569 12 72Z" fill="white"/>
<path opacity="0.66" d="M12 85C12 83.3431 13.3431 82 15 82H42C43.6569 82 45 83.3431 45 85C45 86.6569 43.6569 88 42 88H15C13.3431 88 12 86.6569 12 85Z" fill="white"/>
<path opacity="0.12" d="M105 69.6341C105 70.96 104.004 72.0528 102.722 72.2021L102.421 72.2195H100.243L97.0668 104.586C96.7097 108.226 93.6567 111 90.0088 111H70.9912C67.3433 111 64.2903 108.226 63.9332 104.586L60.7575 72.2195H58.5789C57.1546 72.2195 56 71.062 56 69.6341C56 68.2063 57.1546 67.0488 58.5789 67.0488H71.4737C71.4737 62.0513 75.5149 58 80.5 58C85.4851 58 89.5263 62.0513 89.5263 67.0488H102.421C103.845 67.0488 105 68.2063 105 69.6341ZM86.3026 78.0366C85.3234 78.0366 84.5142 78.7661 84.3861 79.7125L84.3684 79.9756V98.0732L84.3861 98.3363C84.5142 99.2827 85.3234 100.012 86.3026 100.012C87.2818 100.012 88.0911 99.2827 88.2192 98.3363L88.2368 98.0732V79.9756L88.2192 79.7125C88.0911 78.7661 87.2818 78.0366 86.3026 78.0366ZM74.6974 78.0366C73.7182 78.0366 72.9089 78.7661 72.7808 79.7125L72.7632 79.9756V98.0732L72.7808 98.3363C72.9089 99.2827 73.7182 100.012 74.6974 100.012C75.6766 100.012 76.4858 99.2827 76.6139 98.3363L76.6316 98.0732V79.9756L76.6139 79.7125C76.4858 78.7661 75.6766 78.0366 74.6974 78.0366ZM80.5 63.1707C78.3635 63.1707 76.6316 64.907 76.6316 67.0488H84.3684C84.3684 64.907 82.6365 63.1707 80.5 63.1707Z" fill="url(#paint2_linear_2026_13977)"/>
<path d="M112 74.6341C112 75.96 111.004 77.0528 109.722 77.2021L109.421 77.2195H107.243L104.067 109.586C103.71 113.226 100.657 116 97.0088 116H77.9912C74.3433 116 71.2903 113.226 70.9332 109.586L67.7575 77.2195H65.5789C64.1546 77.2195 63 76.062 63 74.6341C63 73.2063 64.1546 72.0488 65.5789 72.0488H78.4737C78.4737 67.0513 82.5149 63 87.5 63C92.4851 63 96.5263 67.0513 96.5263 72.0488H109.421C110.845 72.0488 112 73.2063 112 74.6341ZM93.3026 83.0366C92.3234 83.0366 91.5142 83.7661 91.3861 84.7125L91.3684 84.9756V103.073L91.3861 103.336C91.5142 104.283 92.3234 105.012 93.3026 105.012C94.2818 105.012 95.0911 104.283 95.2192 103.336L95.2368 103.073V84.9756L95.2192 84.7125C95.0911 83.7661 94.2818 83.0366 93.3026 83.0366ZM81.6974 83.0366C80.7182 83.0366 79.9089 83.7661 79.7808 84.7125L79.7632 84.9756V103.073L79.7808 103.336C79.9089 104.283 80.7182 105.012 81.6974 105.012C82.6766 105.012 83.4858 104.283 83.6139 103.336L83.6316 103.073V84.9756L83.6139 84.7125C83.4858 83.7661 82.6766 83.0366 81.6974 83.0366ZM87.5 68.1707C85.3635 68.1707 83.6316 69.907 83.6316 72.0488H91.3684C91.3684 69.907 89.6365 68.1707 87.5 68.1707Z" fill="url(#paint3_linear_2026_13977)"/>
<mask id="mask0_2026_13977" style="mask-type:alpha" maskUnits="userSpaceOnUse" x="63" y="63" width="49" height="53">
<path d="M112 74.6341C112 75.96 111.004 77.0528 109.722 77.2021L109.421 77.2195H107.243L104.067 109.586C103.71 113.226 100.657 116 97.0088 116H77.9912C74.3433 116 71.2903 113.226 70.9332 109.586L67.7575 77.2195H65.5789C64.1546 77.2195 63 76.062 63 74.6341C63 73.2063 64.1546 72.0488 65.5789 72.0488H78.4737C78.4737 67.0513 82.5149 63 87.5 63C92.4851 63 96.5263 67.0513 96.5263 72.0488H109.421C110.845 72.0488 112 73.2063 112 74.6341ZM93.3026 83.0366C92.3234 83.0366 91.5142 83.7661 91.3861 84.7125L91.3684 84.9756V103.073L91.3861 103.336C91.5142 104.283 92.3234 105.012 93.3026 105.012C94.2818 105.012 95.0911 104.283 95.2192 103.336L95.2368 103.073V84.9756L95.2192 84.7125C95.0911 83.7661 94.2818 83.0366 93.3026 83.0366ZM81.6974 83.0366C80.7182 83.0366 79.9089 83.7661 79.7808 84.7125L79.7632 84.9756V103.073L79.7808 103.336C79.9089 104.283 80.7182 105.012 81.6974 105.012C82.6766 105.012 83.4858 104.283 83.6139 103.336L83.6316 103.073V84.9756L83.6139 84.7125C83.4858 83.7661 82.6766 83.0366 81.6974 83.0366ZM87.5 68.1707C85.3635 68.1707 83.6316 69.907 83.6316 72.0488H91.3684C91.3684 69.907 89.6365 68.1707 87.5 68.1707Z" fill="url(#paint4_linear_2026_13977)"/>
</mask>
<g mask="url(#mask0_2026_13977)">
<g style="mix-blend-mode:soft-light" opacity="0.4">
<path d="M112 72.2981L70.3431 110C68.1369 106.716 66.6568 103.007 66 99.1154L101.463 67H101.482C105.324 68.0147 108.908 69.8199 112 72.2981Z" fill="url(#paint5_linear_2026_13977)"/>
</g>
<g style="mix-blend-mode:soft-light" opacity="0.4">
<path d="M124 87.2981L82.3431 125C80.1369 121.716 76.6568 118.891 76 115L113.463 82H113.482C117.324 83.0147 120.908 84.8199 124 87.2981Z" fill="url(#paint6_linear_2026_13977)"/>
</g>
</g>
<defs>
<linearGradient id="paint0_linear_2026_13977" x1="38.0004" y1="98.5824" x2="38.0004" y2="1.75123" gradientUnits="userSpaceOnUse">
<stop stop-color="#DEE0E2"/>
<stop offset="1" stop-color="#EFEFEF"/>
</linearGradient>
<linearGradient id="paint1_linear_2026_13977" x1="38" y1="16.2838" x2="38" y2="46.6343" gradientUnits="userSpaceOnUse">
<stop stop-color="#DEE0E2"/>
<stop offset="1" stop-color="#B4B9BE"/>
</linearGradient>
<linearGradient id="paint2_linear_2026_13977" x1="71.5481" y1="108.962" x2="94.5848" y2="61.9077" gradientUnits="userSpaceOnUse">
<stop stop-color="#D62B37"/>
<stop offset="1" stop-color="#FF5F6A"/>
</linearGradient>
<linearGradient id="paint3_linear_2026_13977" x1="78.5481" y1="113.962" x2="101.585" y2="66.9077" gradientUnits="userSpaceOnUse">
<stop stop-color="#D62B37"/>
<stop offset="1" stop-color="#FF5F6A"/>
</linearGradient>
<linearGradient id="paint4_linear_2026_13977" x1="78.5481" y1="113.962" x2="101.585" y2="66.9077" gradientUnits="userSpaceOnUse">
<stop stop-color="#D62B37"/>
<stop offset="1" stop-color="#FF5F6A"/>
</linearGradient>
<linearGradient id="paint5_linear_2026_13977" x1="114.549" y1="60.0734" x2="72.2113" y2="103.3" gradientUnits="userSpaceOnUse">
<stop stop-color="#FEFEFC"/>
<stop offset="1" stop-color="white" stop-opacity="0"/>
</linearGradient>
<linearGradient id="paint6_linear_2026_13977" x1="126.549" y1="75.0734" x2="84.2113" y2="118.3" gradientUnits="userSpaceOnUse">
<stop stop-color="#FEFEFC"/>
<stop offset="1" stop-color="white" stop-opacity="0.1"/>
</linearGradient>
</defs>
</svg>
