<svg width="120" height="121" viewBox="0 0 120 121" fill="none" xmlns="http://www.w3.org/2000/svg">
<path d="M0 8C0 3.58172 3.58172 0 8 0H68C72.4183 0 76 3.58172 76 8V96C76 100.418 72.4183 104 68 104H8C3.58172 104 0 100.418 0 96V8Z" fill="url(#paint0_linear_2026_14000)"/>
<path d="M38 58C50.7025 58 61 47.7025 61 35C61 22.2974 50.7025 12 38 12C25.2974 12 15 22.2974 15 35C15 47.7025 25.2974 58 38 58Z" fill="#F5F6F6"/>
<path opacity="0.82" fill-rule="evenodd" clip-rule="evenodd" d="M43.25 27C43.25 30.1066 40.7316 32.625 37.625 32.625C34.5184 32.625 32 30.1066 32 27C32 23.8934 34.5184 21.375 37.625 21.375C40.7316 21.375 43.25 23.8934 43.25 27ZM31.7816 47.625H44.2188C45.2217 47.6249 46.1835 47.2159 46.8925 46.488C47.6016 45.76 48 44.7728 48 43.7435V43.2725C48 38.7728 44.4461 35.125 40.0623 35.125H35.9377C31.5539 35.125 28 38.7728 28 43.2725V43.7435C28 44.7729 28.3984 45.7602 29.1076 46.4881C29.8168 47.2161 30.7787 47.625 31.7816 47.625Z" fill="url(#paint1_linear_2026_14000)"/>
<path opacity="0.66" d="M12 72C12 70.3431 13.3431 69 15 69H63C64.6569 69 66 70.3431 66 72C66 73.6569 64.6569 75 63 75H15C13.3431 75 12 73.6569 12 72Z" fill="white"/>
<path opacity="0.66" d="M12 85C12 83.3431 13.3431 82 15 82H42C43.6569 82 45 83.3431 45 85C45 86.6569 43.6569 88 42 88H15C13.3431 88 12 86.6569 12 85Z" fill="white"/>
<path opacity="0.12" d="M60.0053 120.44C60.0053 120.44 59.8935 64.5542 103.136 49C103.136 49 111.563 65.8647 97.7832 70.1367C85.5241 73.9373 84.5122 76.0127 85.8218 78.7612C86.5203 80.2288 90.072 79.4762 92.2984 78.4844C93.1025 78.1264 93.9075 78.9855 93.4762 79.7521C92.3464 81.7602 90.5033 84.9855 81.3323 88.4647C78.1333 89.6783 75.5114 92.0627 73.547 94.8645C70.5907 99.0728 66.1422 106.699 60.0053 120.44Z" fill="url(#paint2_linear_2026_14000)"/>
<path d="M104.485 75.6263C101.487 76.1082 99.1269 76.5814 97.2794 77.0634C95.8527 77.438 94.7343 77.816 93.8673 78.2063C91.1136 79.4417 90.8988 80.7933 91.4227 82.4792C91.6584 83.2388 92.645 83.5671 93.8673 83.6264C94.9395 83.6814 96.1941 83.5252 97.2794 83.272C97.4837 83.2239 97.6819 83.1724 97.8739 83.1174C98.7217 82.8773 99.3975 83.8395 98.8623 84.5397C98.3864 85.1864 97.8569 85.7918 97.2794 86.3496C96.4936 87.0917 95.4302 87.8932 93.8673 88.6878C92.4625 89.4054 90.6578 90.1161 88.2978 90.7832C87.4719 91.0163 86.5805 91.2407 85.614 91.459C82.2744 92.2098 79.3443 94.2022 77.0035 96.6975C76.2745 97.4746 75.4625 98.3905 74.5588 99.4644C71.1066 103.568 66.3474 110.014 60 120.112C60 120.112 62.7625 100.4 74.5588 82.5237C78.2093 76.9892 82.7266 71.631 88.2961 67.0892C90.0706 65.6384 91.9304 64.2952 93.8656 63.0668C94.9686 62.3683 96.1059 61.7019 97.2776 61.0674C102.136 58.4496 107.351 56.5589 112.758 55.4561C112.758 55.4561 118.729 73.3362 104.485 75.6263Z" fill="url(#paint3_linear_2026_14000)"/>
<defs>
<linearGradient id="paint0_linear_2026_14000" x1="38.0004" y1="98.5824" x2="38.0004" y2="1.75123" gradientUnits="userSpaceOnUse">
<stop stop-color="#DEE0E2"/>
<stop offset="1" stop-color="#EFEFEF"/>
</linearGradient>
<linearGradient id="paint1_linear_2026_14000" x1="38" y1="16.2838" x2="38" y2="46.6343" gradientUnits="userSpaceOnUse">
<stop stop-color="#DEE0E2"/>
<stop offset="1" stop-color="#B4B9BE"/>
</linearGradient>
<linearGradient id="paint2_linear_2026_14000" x1="100.831" y1="54.8289" x2="58.4857" y2="58.7913" gradientUnits="userSpaceOnUse">
<stop stop-color="#7E98FF"/>
<stop offset="1" stop-color="#435CBE"/>
</linearGradient>
<linearGradient id="paint3_linear_2026_14000" x1="108.26" y1="60.7314" x2="58.5086" y2="66.8119" gradientUnits="userSpaceOnUse">
<stop stop-color="#7E98FF"/>
<stop offset="1" stop-color="#435CBE"/>
</linearGradient>
</defs>
</svg>
