<svg width="120" height="120" viewBox="0 0 120 120" fill="none" xmlns="http://www.w3.org/2000/svg">
<path d="M0 16C0 9.37258 5.37258 4 12 4H88C92.4183 4 96 7.58172 96 12V64C96 68.4183 92.4183 72 88 72H12C5.37258 72 0 66.6274 0 60V16Z" fill="url(#paint0_linear_1760_10427)"/>
<path opacity="0.82" d="M0 21C0 16.5817 3.59001 13 8.00829 13C34.7377 13 53.2623 13 79.9917 13C84.41 13 88 16.5817 88 21V61C88 65.4183 84.4183 69 80 69H8C3.58172 69 0 65.4183 0 61V21Z" fill="url(#paint1_linear_1760_10427)"/>
<path fill-rule="evenodd" clip-rule="evenodd" d="M0 16C0 9.37258 5.37258 4 12 4H13C9.68629 4 7 6.68629 7 10C7 13.3137 9.68629 16 13 16H28H56H80C84.4183 16 88 19.5817 88 24V76C88 80.4183 84.4183 84 80 84H8C3.58172 84 0 80.4183 0 76V28V24V16Z" fill="url(#paint2_linear_1760_10427)"/>
<path d="M56 38C56 32.4772 60.4772 28 66 28H96C98.2091 28 100 29.7909 100 32V44C100 46.2091 98.2091 48 96 48H66C60.4772 48 56 43.5228 56 38Z" fill="url(#paint3_linear_1760_10427)"/>
<path d="M66 42C68.2091 42 70 40.2091 70 38C70 35.7909 68.2091 34 66 34C63.7909 34 62 35.7909 62 38C62 40.2091 63.7909 42 66 42Z" fill="white"/>
<path opacity="0.12" d="M61.4241 108H103.576C105.117 108 106.44 107.672 107.546 107.015C108.652 106.358 109.504 105.464 110.103 104.333C110.701 103.22 111 101.97 111 100.583C111 99.9446 110.909 99.2968 110.728 98.64C110.547 97.9832 110.284 97.3537 109.939 96.7516L88.8364 59.7495C88.1293 58.5088 87.2047 57.5782 86.0625 56.9579C84.9385 56.3193 83.751 56 82.5 56C81.249 56 80.0525 56.3193 78.9103 56.9579C77.7681 57.5782 76.8526 58.5088 76.1636 59.7495L55.0606 96.7516C54.3535 97.974 54 99.2512 54 100.583C54 101.97 54.2991 103.22 54.8974 104.333C55.4957 105.464 56.3478 106.358 57.4537 107.015C58.5596 107.672 59.8831 108 61.4241 108ZM82.5272 89.6905C81.0768 89.6905 80.3335 88.9425 80.2972 87.4463L79.9437 72.5305C79.9256 71.8189 80.1522 71.226 80.6236 70.7516C81.1131 70.2772 81.7386 70.04 82.5 70.04C83.2433 70.04 83.8597 70.2863 84.3492 70.7789C84.8569 71.2533 85.1016 71.8463 85.0835 72.5579L84.6756 87.4463C84.6574 88.9425 83.9413 89.6905 82.5272 89.6905ZM82.5272 98.8589C81.7114 98.8589 80.9952 98.5761 80.3788 98.0105C79.7805 97.4449 79.4814 96.7516 79.4814 95.9305C79.4814 95.1277 79.7805 94.4344 80.3788 93.8505C80.9771 93.2667 81.6932 92.9747 82.5272 92.9747C83.343 92.9747 84.0501 93.2667 84.6484 93.8505C85.2648 94.4161 85.573 95.1095 85.573 95.9305C85.573 96.7516 85.2648 97.4449 84.6484 98.0105C84.0501 98.5761 83.343 98.8589 82.5272 98.8589Z" fill="url(#paint4_linear_1760_10427)"/>
<path d="M67.4241 112H109.576C111.117 112 112.44 111.672 113.546 111.015C114.652 110.358 115.504 109.464 116.103 108.333C116.701 107.22 117 105.97 117 104.583C117 103.945 116.909 103.297 116.728 102.64C116.547 101.983 116.284 101.354 115.939 100.752L94.8364 63.7495C94.1293 62.5088 93.2047 61.5782 92.0625 60.9579C90.9385 60.3193 89.751 60 88.5 60C87.249 60 86.0525 60.3193 84.9103 60.9579C83.7681 61.5782 82.8526 62.5088 82.1636 63.7495L61.0606 100.752C60.3535 101.974 60 103.251 60 104.583C60 105.97 60.2991 107.22 60.8974 108.333C61.4957 109.464 62.3478 110.358 63.4537 111.015C64.5596 111.672 65.8831 112 67.4241 112Z" fill="url(#paint5_linear_1760_10427)"/>
<mask id="mask0_1760_10427" style="mask-type:alpha" maskUnits="userSpaceOnUse" x="60" y="60" width="57" height="52">
<path d="M67.4241 112H109.576C111.117 112 112.44 111.672 113.546 111.015C114.652 110.358 115.504 109.464 116.103 108.333C116.701 107.22 117 105.97 117 104.583C117 103.945 116.909 103.297 116.728 102.64C116.547 101.983 116.284 101.354 115.939 100.752L94.8364 63.7495C94.1293 62.5088 93.2047 61.5782 92.0625 60.9579C90.9385 60.3193 89.751 60 88.5 60C87.249 60 86.0525 60.3193 84.9103 60.9579C83.7681 61.5782 82.8526 62.5088 82.1636 63.7495L61.0606 100.752C60.3535 101.974 60 103.251 60 104.583C60 105.97 60.2991 107.22 60.8974 108.333C61.4957 109.464 62.3478 110.358 63.4537 111.015C64.5596 111.672 65.8831 112 67.4241 112Z" fill="url(#paint6_linear_1760_10427)"/>
</mask>
<g mask="url(#mask0_1760_10427)">
<path opacity="0.2" d="M107 66.2981L55.3431 114C53.1369 110.716 51.6568 107.007 51 103.115L96.4631 61H96.4817C100.324 62.0147 103.908 63.8199 107 66.2981Z" fill="url(#paint7_linear_1760_10427)"/>
<path opacity="0.2" d="M119 80.2981L77.3431 118C75.1369 114.716 64.6568 118.391 64 114.5L108.463 75H108.482C112.324 76.0147 115.908 77.8199 119 80.2981Z" fill="url(#paint8_linear_1760_10427)"/>
</g>
<path d="M86.2973 91.4464C86.3335 92.9425 87.0769 93.6906 88.5272 93.6906C89.9414 93.6906 90.6575 92.9425 90.6756 91.4464L91.0835 76.5579C91.1017 75.8464 90.8569 75.2534 90.3493 74.779C89.8598 74.2864 89.2434 74.04 88.5001 74.04C87.7386 74.04 87.1131 74.2772 86.6236 74.7516C86.1522 75.226 85.9256 75.819 85.9438 76.5306L86.2973 91.4464Z" fill="white"/>
<path d="M86.3789 102.011C86.9953 102.576 87.7114 102.859 88.5272 102.859C89.3431 102.859 90.0501 102.576 90.6484 102.011C91.2648 101.445 91.573 100.752 91.573 99.9306C91.573 99.1095 91.2648 98.4162 90.6484 97.8506C90.0501 97.2667 89.3431 96.9748 88.5272 96.9748C87.6933 96.9748 86.9772 97.2667 86.3789 97.8506C85.7806 98.4344 85.4814 99.1278 85.4814 99.9306C85.4814 100.752 85.7806 101.445 86.3789 102.011Z" fill="white"/>
<defs>
<linearGradient id="paint0_linear_1760_10427" x1="30" y1="7.5" x2="35.0174" y2="101.368" gradientUnits="userSpaceOnUse">
<stop stop-color="#DEE1E2"/>
<stop offset="0.3" stop-color="#D7DBDC"/>
<stop offset="0.75" stop-color="#C3C9CB"/>
<stop offset="1" stop-color="#B4BCBE"/>
</linearGradient>
<linearGradient id="paint1_linear_1760_10427" x1="-1.49999" y1="-12" x2="6" y2="76.5" gradientUnits="userSpaceOnUse">
<stop stop-color="#DEE0E2"/>
<stop offset="1" stop-color="#B4B9BE"/>
</linearGradient>
<linearGradient id="paint2_linear_1760_10427" x1="81" y1="80" x2="13.5" y2="20.5" gradientUnits="userSpaceOnUse">
<stop stop-color="#DEE0E2"/>
<stop offset="1" stop-color="#EFEFEF"/>
</linearGradient>
<linearGradient id="paint3_linear_1760_10427" x1="100" y1="56" x2="36.9304" y2="30.4913" gradientUnits="userSpaceOnUse">
<stop stop-color="#DEE0E2"/>
<stop offset="1" stop-color="#FAFAFA"/>
</linearGradient>
<linearGradient id="paint4_linear_1760_10427" x1="72.0865" y1="106" x2="92.2764" y2="57.1054" gradientUnits="userSpaceOnUse">
<stop stop-color="#E02D3A"/>
<stop offset="1" stop-color="#FF4D59"/>
</linearGradient>
<linearGradient id="paint5_linear_1760_10427" x1="78.0865" y1="110" x2="98.2764" y2="61.1054" gradientUnits="userSpaceOnUse">
<stop stop-color="#E02D3A"/>
<stop offset="1" stop-color="#FF4D59"/>
</linearGradient>
<linearGradient id="paint6_linear_1760_10427" x1="78.0865" y1="110" x2="98.2764" y2="61.1054" gradientUnits="userSpaceOnUse">
<stop stop-color="#E02D3A"/>
<stop offset="1" stop-color="#FF4D59"/>
</linearGradient>
<linearGradient id="paint7_linear_1760_10427" x1="109.443" y1="54.0734" x2="67.106" y2="95.4977" gradientUnits="userSpaceOnUse">
<stop stop-color="#FEFEFC"/>
<stop offset="1" stop-color="white" stop-opacity="0.1"/>
</linearGradient>
<linearGradient id="paint8_linear_1760_10427" x1="121.921" y1="68.0734" x2="80.0899" y2="117.011" gradientUnits="userSpaceOnUse">
<stop stop-color="#FEFEFC"/>
<stop offset="1" stop-color="white" stop-opacity="0.1"/>
</linearGradient>
</defs>
</svg>
