<svg width="120" height="120" viewBox="0 0 120 120" fill="none" xmlns="http://www.w3.org/2000/svg">
<path d="M0 24.233L23.3846 0H68C72.4183 0 76 3.58172 76 8V96C76 100.418 72.4183 104 68 104H8C3.58172 104 0 100.418 0 96V24.233Z" fill="url(#paint0_linear_1760_9097)"/>
<path opacity="0.66" d="M12 35C12 33.3431 13.3431 32 15 32H63C64.6569 32 66 33.3431 66 35C66 36.6569 64.6569 38 63 38H15C13.3431 38 12 36.6569 12 35Z" fill="white"/>
<path opacity="0.66" d="M12 49C12 47.3431 13.3431 46 15 46H63C64.6569 46 66 47.3431 66 49C66 50.6569 64.6569 52 63 52H15C13.3431 52 12 50.6569 12 49Z" fill="white"/>
<path opacity="0.66" d="M12 63C12 61.3431 13.3431 60 15 60H42C43.6569 60 45 61.3431 45 63C45 64.6569 43.6569 66 42 66H15C13.3431 66 12 64.6569 12 63Z" fill="white"/>
<path opacity="0.82" d="M0 24L24 0V16C24 20.4183 20.4183 24 16 24H0Z" fill="url(#paint1_linear_1760_9097)"/>
<path opacity="0.12" d="M58.889 60.0256C57.103 61.8276 55.76 63.8495 54.8599 66.0914C53.9598 68.3332 53.5098 70.646 53.5098 73.0298C53.5098 75.4135 53.9598 77.7263 54.8599 79.9682C55.7459 82.1959 57.0819 84.2107 58.868 86.0127C60.654 87.8147 62.6721 89.184 64.9222 90.1204C67.1864 91.0427 69.535 91.4968 71.9679 91.4826C74.3868 91.4542 76.7495 90.9292 79.0559 89.9076L98.5687 109.595C98.85 109.879 99.1453 110.091 99.4547 110.233C99.7782 110.361 100.144 110.432 100.552 110.446L107.302 110.404C107.696 110.404 108.061 110.248 108.399 109.935C108.737 109.623 108.912 109.219 108.926 108.722L108.926 96.0372C108.912 95.5122 108.737 95.0937 108.399 94.7815C108.09 94.4694 107.696 94.3133 107.218 94.3133L99.729 94.3346V83.7779C99.729 83.3523 99.5672 82.9763 99.2438 82.6499C98.9203 82.3236 98.5055 82.1604 97.9992 82.1604L87.7048 82.1178C89.5049 77.8044 90.1307 73.725 89.5823 69.8798C89.0338 66.0346 87.3954 62.7357 84.6671 59.983C82.8952 58.1952 80.8982 56.8472 78.6762 55.9391C76.4541 55.031 74.1689 54.5841 71.8203 54.5983C69.4576 54.5983 67.1653 55.0523 64.9433 55.9604C62.7072 56.8543 60.6892 58.2094 58.889 60.0256ZM71.0398 72.2849C70.0835 73.2497 68.9162 73.7463 67.538 73.7747C66.1598 73.7747 64.9785 73.2781 63.994 72.2849C63.0096 71.2916 62.5244 70.1069 62.5385 68.7305C62.5385 67.34 63.0237 66.1552 63.994 65.1762C64.9785 64.1829 66.1598 63.6863 67.538 63.6863C68.9162 63.6863 70.0905 64.1759 71.0609 65.1549C72.0453 66.1481 72.5375 67.34 72.5375 68.7305C72.5234 70.1069 72.0242 71.2916 71.0398 72.2849Z" fill="url(#paint2_linear_1760_9097)"/>
<path d="M58.7352 52.6498C56.9492 54.4518 55.6061 56.4738 54.7061 58.7156C53.806 60.9575 53.356 63.2703 53.356 65.6541C53.356 68.0378 53.806 70.3506 54.7061 72.5925C55.5921 74.8201 56.9281 76.835 58.7141 78.637C60.5002 80.439 62.5183 81.8082 64.7684 82.7447C67.0326 83.667 69.3812 84.121 71.8141 84.1068C74.233 84.0785 76.5957 83.5535 78.9021 82.5319L98.4149 102.219C98.6962 102.503 98.9915 102.716 99.3009 102.858C99.6244 102.985 99.99 103.056 100.398 103.07L107.148 103.028C107.542 103.028 107.908 102.872 108.245 102.56C108.583 102.247 108.759 101.843 108.773 101.346L108.773 88.6615C108.759 88.1365 108.583 87.7179 108.245 87.4058C107.936 87.0936 107.542 86.9375 107.064 86.9375L99.5752 86.9588V76.4022C99.5752 75.9765 99.4134 75.6005 99.09 75.2742C98.7665 74.9478 98.3516 74.7847 97.8454 74.7847L87.551 74.7421C89.3511 70.4286 89.9769 66.3493 89.4285 62.5041C88.88 58.6589 87.2416 55.3599 84.5133 52.6073C82.7413 50.8195 80.7444 49.4715 78.5223 48.5634C76.3003 47.6553 74.015 47.2084 71.6665 47.2225C69.3038 47.2226 67.0115 47.6766 64.7895 48.5847C62.5534 49.4786 60.5353 50.8336 58.7352 52.6498ZM70.886 64.9091C69.9297 65.874 68.7624 66.3706 67.3842 66.399C66.006 66.399 64.8247 65.9024 63.8402 64.9091C62.8558 63.9159 62.3706 62.7311 62.3847 61.3548C62.3847 59.9643 62.8699 58.7795 63.8402 57.8004C64.8247 56.8072 66.006 56.3106 67.3842 56.3106C68.7624 56.3106 69.9367 56.8001 70.9071 57.7792C71.8915 58.7724 72.3837 59.9643 72.3837 61.3548C72.3696 62.7311 71.8704 63.9159 70.886 64.9091Z" fill="url(#paint3_linear_1760_9097)"/>
<defs>
<linearGradient id="paint0_linear_1760_9097" x1="38.0004" y1="98.5824" x2="38.0004" y2="1.75123" gradientUnits="userSpaceOnUse">
<stop stop-color="#DEE0E2"/>
<stop offset="1" stop-color="#EFEFEF"/>
</linearGradient>
<linearGradient id="paint1_linear_1760_9097" x1="12" y1="-4.6548" x2="12" y2="23.0942" gradientUnits="userSpaceOnUse">
<stop stop-color="#DEE0E2"/>
<stop offset="1" stop-color="#B4B9BE"/>
</linearGradient>
<linearGradient id="paint2_linear_1760_9097" x1="73.0948" y1="53.8409" x2="50.7123" y2="79.6893" gradientUnits="userSpaceOnUse">
<stop stop-color="#7E98FF"/>
<stop offset="1" stop-color="#435CBE"/>
</linearGradient>
<linearGradient id="paint3_linear_1760_9097" x1="72.941" y1="46.4651" x2="50.5585" y2="72.3136" gradientUnits="userSpaceOnUse">
<stop stop-color="#7E98FF"/>
<stop offset="1" stop-color="#435CBE"/>
</linearGradient>
</defs>
</svg>
