<svg width="140" height="140" viewBox="0 0 140 140" fill="none" xmlns="http://www.w3.org/2000/svg">
<path d="M0 16.6667C0 10.0393 5.37258 4.66666 12 4.66666H104C108.418 4.66666 112 8.24839 112 12.6667V76C112 80.4183 108.418 84 104 84H12C5.37258 84 0 78.6274 0 72V16.6667Z" fill="url(#paint0_linear_1838_11238)"/>
<path opacity="0.82" d="M0 23.1667C0 18.7484 3.58854 15.1667 8.00682 15.1667C40.362 15.1667 62.3047 15.1667 94.6599 15.1667C99.0781 15.1667 102.667 18.7484 102.667 23.1667V72.5C102.667 76.9183 99.0849 80.5 94.6667 80.5H7.99999C3.58171 80.5 0 76.9183 0 72.5V23.1667Z" fill="url(#paint1_linear_1838_11238)"/>
<path fill-rule="evenodd" clip-rule="evenodd" d="M0 16.6667C0 10.0392 5.37259 4.66666 12 4.66666H15.1667C11.3007 4.66666 8.16667 7.80067 8.16667 11.6667C8.16667 15.5327 11.3007 18.6667 15.1667 18.6667H32.6667H65.3333H94.6667C99.085 18.6667 102.667 22.2484 102.667 26.6667V90C102.667 94.4183 99.0849 98 94.6667 98H7.99999C3.58171 98 0 94.4183 0 90V34.6667V26.6667V16.6667Z" fill="url(#paint2_linear_1838_11238)"/>
<path d="M65.333 44.3333C65.333 37.89 70.5564 32.6667 76.9997 32.6667H112.666C114.875 32.6667 116.666 34.4575 116.666 36.6667V52C116.666 54.2091 114.875 56 112.666 56H76.9997C70.5563 56 65.333 50.7767 65.333 44.3333Z" fill="url(#paint3_linear_1838_11238)"/>
<path d="M76.9997 49C79.577 49 81.6663 46.9107 81.6663 44.3333C81.6663 41.756 79.577 39.6667 76.9997 39.6667C74.4223 39.6667 72.333 41.756 72.333 44.3333C72.333 46.9107 74.4223 49 76.9997 49Z" fill="white"/>
<path opacity="0.16" d="M134.166 97.9996C134.166 114.75 120.588 128.333 103.842 128.333C103.694 128.335 103.546 128.33 103.398 128.317C99.7407 128.28 96.1211 127.571 92.7198 126.225C89.8793 125.114 87.2283 123.569 84.8611 121.645C80.1606 117.89 76.6853 112.82 74.8789 107.081C73.9669 104.14 73.5021 101.079 73.5 97.9996C73.5 81.2483 87.0781 67.6667 103.841 67.6667C106.919 67.6688 109.98 68.1337 112.92 69.0459C119.014 70.9474 124.351 74.7297 128.164 79.8508C131.978 84.972 134.074 91.1692 134.15 97.5545C134.163 97.7025 134.169 97.8511 134.166 97.9996Z" fill="url(#paint4_linear_1838_11238)"/>
<path d="M139.999 105C139.999 121.75 126.421 135.333 109.675 135.333C109.527 135.335 109.379 135.33 109.231 135.317C105.574 135.28 101.954 134.571 98.5528 133.225C95.7123 132.114 93.0613 130.569 90.6941 128.645C85.9936 124.89 82.5183 119.82 80.7119 114.081C79.7999 111.14 79.3351 108.079 79.333 105C79.333 88.2483 92.9111 74.6667 109.674 74.6667C112.752 74.6688 115.813 75.1337 118.753 76.0459C124.847 77.9474 130.184 81.7297 133.997 86.8508C137.811 91.972 139.907 98.1692 139.983 104.555C139.996 104.703 140.002 104.851 139.999 105Z" fill="url(#paint5_linear_1838_11238)"/>
<mask id="mask0_1838_11238" style="mask-type:alpha" maskUnits="userSpaceOnUse" x="79" y="74" width="61" height="62">
<path d="M139.999 105C139.999 121.75 126.421 135.333 109.675 135.333C109.527 135.335 109.379 135.33 109.231 135.317C105.574 135.28 101.954 134.571 98.5528 133.225C95.7123 132.114 93.0613 130.569 90.6941 128.645C85.9936 124.89 82.5183 119.82 80.7119 114.081C79.7999 111.14 79.3351 108.079 79.333 105C79.333 88.2483 92.9111 74.6667 109.674 74.6667C112.752 74.6688 115.813 75.1337 118.753 76.0459C124.847 77.9474 130.184 81.7297 133.997 86.8508C137.811 91.972 139.907 98.1692 139.983 104.555C139.996 104.703 140.002 104.851 139.999 105Z" fill="url(#paint6_linear_1838_11238)"/>
</mask>
<g mask="url(#mask0_1838_11238)">
<g style="mix-blend-mode:soft-light" opacity="0.4">
<path d="M134.167 73.8478L85.5669 117.833C82.9931 114.002 81.2663 109.675 80.5 105.135L121.874 67.6667H121.895C126.378 68.8505 130.559 70.9566 134.167 73.8478Z" fill="url(#paint7_linear_1838_11238)"/>
</g>
<g style="mix-blend-mode:soft-light" opacity="0.4">
<path d="M148.166 90.1812L99.5663 134.167C96.9925 130.336 92.9323 127.04 92.166 122.5L135.873 84H135.895C140.377 85.1839 144.558 87.2899 148.166 90.1812Z" fill="url(#paint8_linear_1838_11238)"/>
</g>
</g>
<path d="M116.344 98.4731L107.074 108.1L102.989 103.858C102.381 103.227 101.396 103.227 100.789 103.858C100.181 104.489 100.181 105.511 100.789 106.142L105.974 111.527C106.581 112.158 107.566 112.158 108.174 111.527L118.544 100.758C119.152 100.127 119.152 99.104 118.544 98.4731C117.937 97.8423 116.952 97.8423 116.344 98.4731Z" fill="white" stroke="white"/>
<defs>
<linearGradient id="paint0_linear_1838_11238" x1="35" y1="8.75" x2="40.8536" y2="118.263" gradientUnits="userSpaceOnUse">
<stop stop-color="#DEE1E2"/>
<stop offset="0.3" stop-color="#D7DBDC"/>
<stop offset="0.75" stop-color="#C3C9CB"/>
<stop offset="1" stop-color="#B4BCBE"/>
</linearGradient>
<linearGradient id="paint1_linear_1838_11238" x1="-1.74999" y1="-14" x2="7" y2="89.25" gradientUnits="userSpaceOnUse">
<stop stop-color="#DEE0E2"/>
<stop offset="1" stop-color="#B4B9BE"/>
</linearGradient>
<linearGradient id="paint2_linear_1838_11238" x1="94.5" y1="93.3333" x2="15.75" y2="23.9167" gradientUnits="userSpaceOnUse">
<stop stop-color="#DEE0E2"/>
<stop offset="1" stop-color="#EFEFEF"/>
</linearGradient>
<linearGradient id="paint3_linear_1838_11238" x1="116.666" y1="65.3333" x2="43.0852" y2="35.5732" gradientUnits="userSpaceOnUse">
<stop stop-color="#DEE0E2"/>
<stop offset="1" stop-color="#FAFAFA"/>
</linearGradient>
<linearGradient id="paint4_linear_1838_11238" x1="103.829" y1="66.8813" x2="103.833" y2="128.333" gradientUnits="userSpaceOnUse">
<stop offset="0.00702659" stop-color="#21FF94"/>
<stop offset="1" stop-color="#2EDD89"/>
</linearGradient>
<linearGradient id="paint5_linear_1838_11238" x1="109.662" y1="73.8813" x2="109.666" y2="135.333" gradientUnits="userSpaceOnUse">
<stop stop-color="#39F89C"/>
<stop offset="1" stop-color="#2EDD89"/>
</linearGradient>
<linearGradient id="paint6_linear_1838_11238" x1="98.583" y1="133" x2="123.666" y2="77.5833" gradientUnits="userSpaceOnUse">
<stop stop-color="#E02D3A"/>
<stop offset="1" stop-color="#FF4D59"/>
</linearGradient>
<linearGradient id="paint7_linear_1838_11238" x1="137.141" y1="59.5856" x2="87.7465" y2="110.016" gradientUnits="userSpaceOnUse">
<stop stop-color="#FEFEFC"/>
<stop offset="1" stop-color="white" stop-opacity="0"/>
</linearGradient>
<linearGradient id="paint8_linear_1838_11238" x1="151.14" y1="75.919" x2="101.746" y2="126.35" gradientUnits="userSpaceOnUse">
<stop stop-color="#FEFEFC"/>
<stop offset="1" stop-color="white" stop-opacity="0.1"/>
</linearGradient>
</defs>
</svg>
