<svg width="120" height="120" viewBox="0 0 120 120" fill="none" xmlns="http://www.w3.org/2000/svg">
<path opacity="0.16" d="M101.999 61.4994C101.999 87.7291 80.7366 108.999 54.5136 108.999C54.2817 109.003 54.0497 108.995 53.8186 108.974C48.0912 108.916 42.4232 107.806 37.0969 105.699C32.649 103.959 28.4976 101.539 24.7907 98.5263C17.4301 92.6469 11.988 84.7069 9.15923 75.7198C7.7311 71.1147 7.00323 66.321 7 61.4994C7 35.2679 28.2624 14 54.5119 14C59.3322 14.0033 64.1246 14.7314 68.7286 16.1598C78.2723 19.1374 86.6288 25.0602 92.601 33.0796C98.5731 41.099 101.854 50.8034 101.974 60.8024C101.995 61.0342 102.003 61.2668 101.999 61.4994Z" fill="url(#paint0_linear_6255_1043)"/>
<path d="M95.4884 54.7441C95.4884 81.1089 74.1165 102.488 47.7584 102.488C47.5252 102.493 47.292 102.484 47.0598 102.463C41.3029 102.405 35.6056 101.289 30.2519 99.1715C25.7811 97.422 21.6083 94.9898 17.8823 91.9617C10.4838 86.052 5.01371 78.0711 2.17035 69.0377C0.734869 64.4089 0.00324336 59.5905 0 54.7441C0 28.3774 21.3719 7 47.7566 7C52.6018 7.00335 57.4189 7.73516 62.0466 9.17091C71.6394 12.1638 80.039 18.1172 86.0419 26.1779C92.0448 34.2386 95.3429 43.993 95.4636 54.0435C95.4841 54.2764 95.4923 54.5103 95.4884 54.7441Z" fill="url(#paint1_linear_6255_1043)"/>
<mask id="mask0_6255_1043" style="mask-type:alpha" maskUnits="userSpaceOnUse" x="0" y="7" width="96" height="96">
<path d="M95.4884 54.7441C95.4884 81.1089 74.1165 102.488 47.7584 102.488C47.5252 102.493 47.292 102.484 47.0598 102.463C41.3029 102.405 35.6056 101.289 30.2519 99.1715C25.7811 97.422 21.6083 94.9898 17.8823 91.9617C10.4838 86.052 5.01371 78.0711 2.17035 69.0377C0.734869 64.4089 0.00324336 59.5905 0 54.7441C0 28.3774 21.3719 7 47.7566 7C52.6018 7.00335 57.4189 7.73516 62.0466 9.17091C71.6394 12.1638 80.039 18.1172 86.0419 26.1779C92.0448 34.2386 95.3429 43.993 95.4636 54.0435C95.4841 54.2764 95.4923 54.5103 95.4884 54.7441Z" fill="url(#paint2_linear_6255_1043)"/>
</mask>
<g mask="url(#mask0_6255_1043)">
<path opacity="0.2" d="M86.3078 5.71107L9.81174 74.9443C5.76057 68.9142 3.04259 62.1023 1.83643 54.9565L66.9586 -4.01807H66.9926C74.0483 -2.15468 80.6293 1.16022 86.3078 5.71107Z" fill="url(#paint3_linear_6255_1043)"/>
<path opacity="0.2" d="M108.343 31.4198L31.8474 100.653C27.7963 94.6229 21.4056 89.4356 20.1995 82.2897L88.9943 21.6907H89.0283C96.084 23.5541 102.665 26.869 108.343 31.4198Z" fill="url(#paint4_linear_6255_1043)"/>
</g>
<path d="M58.2554 44.4713L43.6638 59.6242L37.2336 52.9467C36.2774 51.9537 34.7271 51.9537 33.771 52.9467C32.8148 53.9396 32.8148 55.5495 33.771 56.5425L41.9325 65.0179C42.8886 66.0108 44.4389 66.0108 45.3951 65.0179L61.718 48.0671C62.6742 47.0741 62.6742 45.4642 61.718 44.4713C60.7619 43.4783 59.2116 43.4783 58.2554 44.4713Z" fill="white" stroke="white"/>
<defs>
<linearGradient id="paint0_linear_6255_1043" x1="54.493" y1="12.7702" x2="54.4988" y2="109" gradientUnits="userSpaceOnUse">
<stop offset="0.00702659" stop-color="#21FF94"/>
<stop offset="1" stop-color="#2EDD89"/>
</linearGradient>
<linearGradient id="paint1_linear_6255_1043" x1="47.7376" y1="5.76387" x2="47.7435" y2="102.489" gradientUnits="userSpaceOnUse">
<stop stop-color="#39F89C"/>
<stop offset="1" stop-color="#2EDD89"/>
</linearGradient>
<linearGradient id="paint2_linear_6255_1043" x1="30.2995" y1="98.8167" x2="69.7807" y2="11.5908" gradientUnits="userSpaceOnUse">
<stop stop-color="#E02D3A"/>
<stop offset="1" stop-color="#FF4D59"/>
</linearGradient>
<linearGradient id="paint3_linear_6255_1043" x1="90.7942" y1="-16.7376" x2="13.0491" y2="59.3313" gradientUnits="userSpaceOnUse">
<stop stop-color="#FEFEFC"/>
<stop offset="1" stop-color="white" stop-opacity="0.1"/>
</linearGradient>
<linearGradient id="paint4_linear_6255_1043" x1="113.025" y1="8.97114" x2="35.2781" y2="88.3491" gradientUnits="userSpaceOnUse">
<stop stop-color="#FEFEFC"/>
<stop offset="1" stop-color="white" stop-opacity="0.1"/>
</linearGradient>
</defs>
</svg>
