<svg width="264" height="140" viewBox="0 0 264 140" fill="none" xmlns="http://www.w3.org/2000/svg">
<rect x="142.333" y="131.833" width="61.8333" height="3.5" rx="1.75" fill="#E2E2E4"/>
<g opacity="0.33">
<path d="M174.296 134.629V111.524H171.263V134.629H174.296Z" fill="white"/>
<path d="M167.895 134.629V111.524H162.008V134.629H167.895Z" fill="white"/>
</g>
<path d="M177.333 78.8854V131.115C177.334 131.669 177.214 132.217 176.981 132.729C176.747 133.241 176.406 133.706 175.975 134.098C175.544 134.49 175.032 134.8 174.469 135.012C173.906 135.224 173.303 135.333 172.694 135.333H169.167C169.776 135.333 170.379 135.224 170.942 135.012C171.505 134.8 172.017 134.49 172.448 134.098C172.879 133.706 173.22 133.241 173.454 132.729C173.687 132.217 173.807 131.669 173.806 131.115V78.8854C173.807 78.3314 173.687 77.7827 173.454 77.2708C173.22 76.7589 172.879 76.2938 172.448 75.902C172.017 75.5103 171.505 75.1995 170.942 74.9875C170.379 74.7756 169.776 74.6665 169.167 74.6667H172.694C173.303 74.6665 173.906 74.7756 174.469 74.9875C175.032 75.1995 175.544 75.5103 175.975 75.902C176.406 76.2938 176.747 76.7589 176.981 77.2708C177.214 77.7827 177.334 78.3314 177.333 78.8854Z" fill="url(#paint0_linear_1838_7953)"/>
<path d="M173.833 78.8854V131.115C173.834 131.669 173.727 132.217 173.521 132.729C173.315 133.241 173.012 133.706 172.631 134.098C172.249 134.49 171.797 134.8 171.298 135.012C170.8 135.224 170.266 135.333 169.727 135.333H165.667C166.755 135.333 167.799 134.888 168.568 134.097C169.337 133.305 169.769 132.233 169.769 131.115V78.8854C169.769 77.7673 169.337 76.6946 168.568 75.9035C167.799 75.1123 166.755 74.6675 165.667 74.6667H169.727C170.266 74.6665 170.8 74.7756 171.298 74.9875C171.797 75.1995 172.249 75.5103 172.631 75.902C173.012 76.2938 173.315 76.7589 173.521 77.2708C173.727 77.7827 173.834 78.3314 173.833 78.8854Z" fill="#ECEDEE"/>
<path d="M171.5 78.8864V131.116C171.5 131.316 171.486 131.516 171.455 131.714C171.305 132.718 170.78 133.637 169.977 134.302C169.173 134.967 168.145 135.333 167.081 135.333H139.758C139.177 135.334 138.602 135.225 138.065 135.013C137.528 134.801 137.04 134.49 136.629 134.099C136.218 133.707 135.892 133.242 135.67 132.73C135.448 132.218 135.333 131.67 135.333 131.116V78.8864C135.333 78.3322 135.447 77.7835 135.67 77.2715C135.892 76.7594 136.218 76.2942 136.629 75.9023C137.04 75.5105 137.528 75.1996 138.064 74.9876C138.601 74.7756 139.177 74.6665 139.758 74.6667H167.081C168.145 74.6674 169.174 75.0341 169.977 75.6993C170.78 76.3646 171.305 77.2838 171.455 78.2884C171.486 78.4864 171.5 78.6863 171.5 78.8864Z" fill="url(#paint1_linear_1838_7953)"/>
<path d="M143.5 74.6667V135.333H140.12C139.492 135.333 138.869 135.224 138.288 135.012C137.707 134.801 137.18 134.49 136.735 134.098C136.29 133.706 135.938 133.241 135.697 132.729C135.457 132.217 135.333 131.669 135.333 131.115V78.8854C135.333 78.3313 135.457 77.7827 135.697 77.2708C135.938 76.7589 136.29 76.2938 136.735 75.902C137.18 75.5102 137.707 75.1995 138.288 74.9875C138.869 74.7756 139.492 74.6665 140.12 74.6667H143.5Z" fill="url(#paint2_linear_1838_7953)"/>
<g style="mix-blend-mode:soft-light" opacity="0.5">
<path d="M171.5 93.3333H135.333V102.667H171.5V93.3333Z" fill="url(#paint3_linear_1838_7953)"/>
</g>
<path d="M165.12 88.3788L161.732 84.6201C161.709 84.592 161.68 84.5693 161.647 84.5537C161.614 84.5382 161.578 84.5301 161.542 84.5301C161.505 84.5301 161.469 84.5382 161.436 84.5537C161.403 84.5693 161.374 84.592 161.351 84.6201L157.962 88.3788C157.789 88.5694 157.501 88.4284 157.501 88.1501V74.984C157.495 74.9057 157.521 74.8285 157.572 74.769C157.623 74.7096 157.696 74.6728 157.774 74.6667H165.303C165.381 74.6728 165.454 74.7096 165.505 74.769C165.557 74.8285 165.582 74.9057 165.577 74.984V88.1492C165.586 88.4284 165.294 88.5714 165.12 88.3788Z" fill="url(#paint4_linear_1838_7953)"/>
<path d="M163.471 86.9091L160.293 83.2257C160.272 83.1989 160.245 83.1773 160.215 83.1624C160.184 83.1475 160.151 83.1398 160.117 83.1398C160.083 83.1398 160.049 83.1475 160.018 83.1624C159.988 83.1773 159.961 83.1989 159.94 83.2257L156.767 86.9091C156.604 87.0997 156.334 86.9577 156.334 86.6842V73.8107C156.328 73.7357 156.35 73.661 156.398 73.6028C156.446 73.5447 156.515 73.5077 156.59 73.5H163.642C163.717 73.5077 163.786 73.5447 163.834 73.6028C163.882 73.661 163.905 73.7357 163.898 73.8107V86.6851C163.903 86.9587 163.629 87.0997 163.471 86.9091Z" fill="#4DE99E"/>
<path d="M163.903 73.8088V86.6871C163.903 86.9577 163.636 87.0978 163.47 86.9082L160.294 83.2266C160.272 83.1996 160.245 83.1778 160.214 83.1626C160.183 83.1474 160.149 83.1393 160.115 83.1389V73.5H163.641C163.791 73.5 163.903 73.6401 163.903 73.8088Z" fill="#4DE99E"/>
<path d="M135.333 66.1665V134.501C135.333 134.961 134.94 135.333 134.455 135.333H122.214C121.727 135.333 121.333 134.961 121.333 134.501V66.1665C121.333 65.7064 121.727 65.3333 122.214 65.3333H134.455C134.941 65.3333 135.333 65.7074 135.333 66.1665Z" fill="url(#paint5_linear_1838_7953)"/>
<path d="M135.736 81.6184H120.715V84.63H135.736V81.6184Z" fill="white"/>
<g style="mix-blend-mode:soft-light" opacity="0.5">
<path d="M130.667 135.333H134.205C134.829 135.333 135.333 134.998 135.333 134.584V73.0822C135.333 72.6681 134.829 72.3333 134.205 72.3333H130.667V135.333Z" fill="url(#paint6_linear_1838_7953)"/>
</g>
<g style="mix-blend-mode:soft-light" opacity="0.5">
<path d="M135.333 116.667H121.333V121.333H135.333V116.667Z" fill="url(#paint7_linear_1838_7953)"/>
</g>
<path d="M144.667 11.5082V95.8128C144.667 97.3259 144.364 98.8242 143.775 100.222C143.187 101.62 142.324 102.89 141.235 103.96C140.147 105.03 138.855 105.879 137.434 106.457C136.012 107.036 134.488 107.334 132.949 107.333H11.7166C8.60961 107.332 5.63035 106.118 3.4334 103.957C1.23645 101.797 0.00153115 98.8678 0 95.8128V11.5082C0.00178746 8.45447 1.23719 5.52646 3.43444 3.36828C5.6317 1.21009 8.61084 -0.00149732 11.7166 9.97641e-06H132.949C134.487 -0.00198161 136.011 0.294229 137.433 0.871703C138.854 1.44918 140.146 2.29658 141.234 3.36544C142.323 4.4343 143.186 5.70364 143.775 7.10086C144.364 8.49808 144.667 9.99576 144.667 11.5082Z" fill="url(#paint8_linear_1838_7953)"/>
<rect opacity="0.56" x="91" y="11.6667" width="42" height="46.6667" rx="4" fill="#D8DADB"/>
<path d="M121.15 42.9079C120.842 42.908 120.543 43.014 120.303 43.2083C120.064 43.4025 119.898 43.6733 119.833 43.9754L114.748 43.7289C114.764 43.6327 114.772 43.5353 114.773 43.4378C114.772 43.2621 114.748 43.0874 114.699 42.9186L116.545 41.8512C116.766 42.1244 117.083 42.3024 117.43 42.3486C117.778 42.3948 118.13 42.3056 118.414 42.0995C118.698 41.8933 118.893 41.5858 118.957 41.2404C119.022 40.895 118.952 40.5379 118.762 40.2426C118.571 39.9473 118.275 39.7364 117.935 39.6533C117.594 39.5701 117.234 39.6211 116.93 39.7957C116.625 39.9702 116.399 40.2551 116.298 40.5917C116.197 40.9282 116.229 41.2908 116.386 41.6047L114.594 42.6391C114.389 42.2039 114.025 41.8642 113.577 41.6903C113.129 41.5165 112.632 41.5217 112.188 41.7051C111.744 41.8885 111.387 42.2358 111.191 42.6754C110.995 43.1149 110.976 43.613 111.137 44.0666L107.817 44.8798C107.794 44.4244 107.606 43.9932 107.287 43.6678L107.886 42.8361C108.213 42.9488 108.572 42.9314 108.887 42.7873C109.203 42.6433 109.451 42.3836 109.582 42.0617C109.712 41.7398 109.714 41.3801 109.588 41.0566C109.462 40.733 109.217 40.4702 108.903 40.3221C108.59 40.1741 108.231 40.152 107.902 40.2604C107.573 40.3689 107.297 40.5997 107.133 40.9053C106.968 41.2109 106.926 41.5682 107.016 41.9037C107.106 42.2391 107.321 42.5273 107.616 42.709L107.065 43.4746C106.676 43.1805 106.186 43.0531 105.704 43.1205L105.13 39.8464C105.391 39.7888 105.637 39.676 105.85 39.5156C106.064 39.3551 106.241 39.1507 106.37 38.9161C106.498 38.6814 106.575 38.4219 106.595 38.1551C106.615 37.8882 106.578 37.6201 106.487 37.3688C106.395 37.1174 106.25 36.8887 106.063 36.6978C105.876 36.507 105.65 36.3585 105.401 36.2623C105.152 36.1661 104.885 36.1244 104.618 36.14C104.351 36.1557 104.091 36.2283 103.855 36.353L102.411 33.534C102.718 33.3779 102.977 33.1402 103.159 32.847L104.356 33.1633C104.346 33.2276 104.341 33.2924 104.34 33.3574C104.339 33.6966 104.464 34.024 104.691 34.2754C104.918 34.5268 105.231 34.6839 105.568 34.7159C105.905 34.7479 106.242 34.6524 106.512 34.4482C106.782 34.2441 106.967 33.946 107.029 33.6126C107.091 33.2792 107.026 32.9346 106.848 32.6465C106.669 32.3584 106.389 32.1477 106.063 32.0557C105.738 31.9638 105.389 31.9973 105.087 32.1496C104.784 32.302 104.55 32.5621 104.429 32.879L103.298 32.5801C103.452 32.2115 103.482 31.8032 103.386 31.4157L106.713 29.8824C107.012 30.2585 107.443 30.5053 107.918 30.5719C108.393 30.6384 108.876 30.5197 109.266 30.2402C109.656 29.9607 109.924 29.5418 110.015 29.0698C110.106 28.5979 110.013 28.1089 109.755 27.7039L111.885 25.6195C112.145 25.7875 112.443 25.8876 112.751 25.9107V26.8306C112.408 26.8678 112.093 27.0353 111.87 27.2985C111.646 27.5616 111.532 27.9005 111.551 28.2454C111.57 28.5903 111.72 28.9149 111.97 29.1524C112.22 29.3899 112.552 29.5223 112.896 29.5223C113.241 29.5223 113.572 29.3899 113.823 29.1524C114.073 28.9149 114.223 28.5903 114.241 28.2454C114.26 27.9005 114.146 27.5616 113.923 27.2985C113.7 27.0353 113.384 26.8678 113.041 26.8306V25.9116C113.308 25.8915 113.567 25.8141 113.801 25.6846L116.135 28.356C115.937 28.6152 115.81 28.9213 115.767 29.2444C115.723 29.5674 115.764 29.8963 115.886 30.1986C116.008 30.5009 116.206 30.7663 116.461 30.9687C116.716 31.1711 117.019 31.3035 117.341 31.3529C117.662 31.4023 117.991 31.367 118.295 31.2505C118.599 31.134 118.867 30.9402 119.074 30.6883C119.28 30.4364 119.418 30.135 119.473 29.8137C119.528 29.4924 119.498 29.1623 119.388 28.8558L120.115 28.4453C120.337 28.7091 120.651 28.8778 120.993 28.9165C121.335 28.9553 121.679 28.8613 121.954 28.6538C122.229 28.4462 122.414 28.141 122.472 27.8009C122.529 27.4607 122.454 27.1115 122.262 26.825C122.071 26.5385 121.777 26.3365 121.441 26.2605C121.105 26.1846 120.753 26.2404 120.457 26.4166C120.161 26.5928 119.943 26.876 119.849 27.2078C119.755 27.5397 119.792 27.895 119.951 28.2008L119.268 28.5889C119.13 28.3365 118.936 28.1194 118.701 27.9543C118.465 27.7893 118.195 27.6807 117.911 27.6371C117.627 27.5935 117.337 27.6159 117.063 27.7027C116.789 27.7895 116.539 27.9384 116.331 28.1377L114.047 25.5235C114.273 25.3459 114.456 25.1184 114.581 24.8588L116.582 25.1926C116.658 25.5284 116.859 25.8225 117.144 26.0146C117.429 26.2067 117.776 26.2822 118.115 26.2256C118.454 26.1691 118.758 25.9848 118.966 25.7105C119.174 25.4362 119.269 25.0927 119.232 24.7505C119.194 24.4083 119.028 24.0933 118.767 23.8701C118.505 23.6468 118.168 23.5323 117.825 23.55C117.482 23.5677 117.159 23.7162 116.921 23.9652C116.684 24.2141 116.551 24.5446 116.549 24.8888L114.69 24.5793C114.786 24.2572 114.793 23.9152 114.712 23.5891C114.631 23.2629 114.464 22.9646 114.228 22.7254C113.992 22.4861 113.697 22.3146 113.373 22.2288C113.048 22.143 112.707 22.1461 112.384 22.2377C112.062 22.3293 111.769 22.5061 111.538 22.7496C111.307 22.993 111.145 23.2943 111.07 23.6218C110.994 23.9493 111.008 24.2911 111.11 24.6115C111.211 24.9318 111.397 25.219 111.647 25.4429L109.574 27.4691C109.253 27.1001 108.801 26.8716 108.315 26.8325V25.4148C108.657 25.3775 108.973 25.2101 109.196 24.9469C109.419 24.6837 109.533 24.3448 109.514 24C109.496 23.6551 109.346 23.3305 109.096 23.093C108.846 22.8554 108.514 22.723 108.169 22.723C107.825 22.723 107.493 22.8554 107.243 23.093C106.993 23.3305 106.843 23.6551 106.824 24C106.806 24.3448 106.92 24.6837 107.143 24.9469C107.366 25.2101 107.681 25.3775 108.024 25.4148V26.8306C107.709 26.8542 107.405 26.9576 107.14 27.1309C106.875 27.3043 106.659 27.5421 106.511 27.822C106.363 28.1019 106.288 28.4148 106.294 28.7315C106.299 29.0483 106.385 29.3584 106.542 29.6331L103.292 31.1313C103.175 30.8513 102.991 30.6039 102.758 30.4103L104.03 28.1241C104.142 28.1536 104.257 28.169 104.372 28.1697C104.702 28.1704 105.021 28.0497 105.269 27.8305C105.516 27.6112 105.675 27.3087 105.715 26.9801C105.755 26.6516 105.673 26.3198 105.485 26.0476C105.297 25.7754 105.016 25.5816 104.695 25.503C104.375 25.4244 104.036 25.4664 103.744 25.621C103.452 25.7756 103.227 26.0322 103.111 26.3421C102.995 26.652 102.996 26.9938 103.115 27.3027C103.233 27.6116 103.461 27.8662 103.754 28.0183L102.516 30.2425C102.246 30.0833 101.942 29.9942 101.629 29.9833C101.317 29.9724 101.006 30.04 100.727 30.1801C100.447 30.3201 100.207 30.528 100.028 30.7849C99.849 31.0419 99.7371 31.3396 99.7025 31.6509C99.6679 31.9623 99.7116 32.2773 99.8296 32.5674C99.9476 32.8575 100.136 33.1134 100.378 33.3117C100.62 33.51 100.908 33.6445 101.215 33.7028C101.522 33.7611 101.839 33.7414 102.137 33.6456L103.604 36.5102C103.233 36.7845 102.977 37.1864 102.884 37.6387L101.818 37.3243C101.846 37.2163 101.861 37.1051 101.861 36.9934C101.861 36.6626 101.74 36.3432 101.521 36.0958C101.302 35.8485 101 35.6904 100.672 35.6516C100.344 35.6128 100.013 35.6961 99.7425 35.8855C99.4719 36.0749 99.28 36.3573 99.2035 36.6791C99.1269 37.0009 99.171 37.3397 99.3272 37.6311C99.4835 37.9225 99.7411 38.1462 100.051 38.2598C100.361 38.3734 100.702 38.369 101.009 38.2473C101.316 38.1257 101.568 37.8953 101.717 37.5999L102.846 37.9337C102.846 37.9619 102.846 37.9881 102.846 38.0162C102.846 38.3301 102.924 38.639 103.075 38.9145C103.225 39.19 103.441 39.4233 103.705 39.5931L102.98 40.546C102.722 40.3183 102.386 40.1985 102.042 40.2112C101.697 40.224 101.371 40.3683 101.13 40.6145C100.889 40.8608 100.751 41.1903 100.745 41.5353C100.738 41.8803 100.864 42.2146 101.096 42.4696C101.328 42.7246 101.649 42.8808 101.992 42.9062C102.336 42.9317 102.676 42.8243 102.943 42.6063C103.21 42.3882 103.383 42.076 103.427 41.7338C103.472 41.3916 103.383 41.0454 103.181 40.7663L103.969 39.7367C104.206 39.841 104.463 39.8949 104.722 39.8949C104.761 39.8949 104.801 39.8949 104.84 39.8891L105.421 43.1835C105.137 43.2674 104.878 43.4173 104.663 43.6211C104.448 43.8248 104.285 44.0766 104.186 44.3558C104.087 44.635 104.056 44.9337 104.094 45.2274C104.132 45.5212 104.24 45.8016 104.407 46.0458C104.574 46.2901 104.797 46.4911 105.057 46.6326C105.317 46.774 105.606 46.8518 105.902 46.8596C106.197 46.8674 106.491 46.8049 106.757 46.6774C107.024 46.5498 107.257 46.3608 107.437 46.1257L110.149 47.3358C110.125 47.436 110.113 47.5386 110.113 47.6415C110.112 47.9745 110.233 48.2962 110.454 48.5452C110.674 48.7942 110.979 48.9529 111.309 48.9911C111.639 49.0292 111.972 48.9441 112.243 48.752C112.515 48.5599 112.706 48.2743 112.78 47.9497C112.855 47.6252 112.807 47.2846 112.647 46.9929C112.487 46.7013 112.225 46.4791 111.911 46.3689C111.597 46.2587 111.254 46.2682 110.947 46.3955C110.64 46.5229 110.391 46.7592 110.247 47.0592L107.6 45.8783C107.716 45.6643 107.789 45.4296 107.815 45.1874L111.261 44.3422C111.392 44.5815 111.573 44.7893 111.792 44.9512C112.011 45.113 112.263 45.225 112.53 45.2792C112.796 45.3335 113.072 45.3287 113.336 45.2652C113.601 45.2018 113.849 45.0811 114.062 44.9118L115.352 46.0268C115.207 46.3424 115.188 46.7016 115.3 47.0306C115.411 47.3596 115.644 47.6334 115.95 47.7957C116.257 47.958 116.614 47.9965 116.948 47.9032C117.282 47.8099 117.567 47.592 117.746 47.2942C117.925 46.9964 117.982 46.6414 117.908 46.3021C117.833 45.9628 117.632 45.6651 117.345 45.4702C117.058 45.2752 116.707 45.1978 116.365 45.2538C116.023 45.3099 115.715 45.4951 115.505 45.7715L114.278 44.7109C114.461 44.5133 114.6 44.2783 114.684 44.0219L119.808 44.2694C119.81 44.5357 119.89 44.7956 120.039 45.0161C120.189 45.2366 120.399 45.408 120.646 45.5086C120.892 45.6092 121.162 45.6346 121.423 45.5814C121.683 45.5283 121.922 45.3991 122.109 45.21C122.297 45.021 122.424 44.7807 122.475 44.5193C122.526 44.2579 122.499 43.9872 122.397 43.7413C122.295 43.4954 122.122 43.2853 121.901 43.1375C121.68 42.9897 121.42 42.9109 121.154 42.9109L121.15 42.9079Z" fill="white"/>
<path d="M144.667 84V96.033C144.668 97.6359 144.316 99.2207 143.633 100.682C143.478 101.016 143.304 101.343 143.117 101.658C142.93 101.973 142.724 102.279 142.508 102.576C142.344 102.796 142.172 103.01 141.995 103.221C141.754 103.5 141.504 103.766 141.237 104.022C140.152 105.074 138.862 105.908 137.441 106.476C136.021 107.044 134.498 107.335 132.96 107.333H11.7091C8.60373 107.333 5.62562 106.142 3.4298 104.022C1.23397 101.902 0.000255386 99.0272 0 96.0293V84H144.667Z" fill="url(#paint9_linear_1838_7953)"/>
<path d="M95.7706 126.537H47.8333C50.4922 125.559 52.4211 122.762 52.4211 119.507V107.333H91.1741V119.506C91.177 122.762 93.1069 125.559 95.7706 126.537Z" fill="url(#paint10_linear_1838_7953)"/>
<path d="M105.632 126H39.0341C38.0947 126 37.3333 126.933 37.3333 128.083V133.25C37.3333 134.401 38.0947 135.333 39.0341 135.333H105.632C106.572 135.333 107.333 134.401 107.333 133.25V128.083C107.333 126.933 106.572 126 105.632 126Z" fill="url(#paint11_linear_1838_7953)"/>
<path d="M72.3333 100.333C75.555 100.333 78.1667 97.7217 78.1667 94.5C78.1667 91.2783 75.555 88.6667 72.3333 88.6667C69.1117 88.6667 66.5 91.2783 66.5 94.5C66.5 97.7217 69.1117 100.333 72.3333 100.333Z" fill="#EFEFEF"/>
<path opacity="0.56" d="M74.2984 17.5H15.535C13.3986 17.5 11.6667 19.067 11.6667 21C11.6667 22.933 13.3986 24.5 15.535 24.5H74.2984C76.4349 24.5 78.1667 22.933 78.1667 21C78.1667 19.067 76.4349 17.5 74.2984 17.5Z" fill="#D8DADB"/>
<path opacity="0.56" d="M55.5282 30.3333H15.6386C13.445 30.3333 11.6667 31.88 11.6667 33.7878V33.8789C11.6667 35.7867 13.445 37.3333 15.6386 37.3333H55.5282C57.7218 37.3333 59.5001 35.7867 59.5001 33.8789V33.7878C59.5001 31.88 57.7218 30.3333 55.5282 30.3333Z" fill="#D8DADB"/>
<path opacity="0.56" d="M15.2635 58.3333L69.9031 58.3333C71.8896 58.3333 73.5 56.7663 73.5 54.8333C73.5 52.9003 71.8896 51.3333 69.9031 51.3333L15.2635 51.3333C13.277 51.3333 11.6667 52.9003 11.6667 54.8333C11.6667 56.7663 13.277 58.3333 15.2635 58.3333Z" fill="#D8DADB"/>
<rect x="208.833" y="131.833" width="26.8333" height="3.5" rx="1.75" fill="#E2E2E4"/>
<rect x="238" y="131.833" width="15.1666" height="3.5" rx="1.75" fill="#E2E2E4"/>
<rect x="256.667" y="131.833" width="3.5" height="3.5" rx="1.75" fill="#E2E2E4"/>
<path opacity="0.56" d="M14.9707 70.7605H49.1015C50.9784 70.7605 52.5 69.2389 52.5 67.362V67.2724C52.5 65.3955 50.9784 63.8739 49.1015 63.8739L14.9707 63.8739C13.0937 63.8739 11.5722 65.3955 11.5722 67.2724V67.362C11.5722 69.2389 13.0937 70.7605 14.9707 70.7605Z" fill="#D8DADB"/>
<path opacity="0.08" d="M48.2909 76.4976L52.8133 67.0886C52.8441 67.0242 52.8898 66.9687 52.9462 66.9268C53.0026 66.885 53.068 66.8582 53.1368 66.8487C53.2055 66.8392 53.2755 66.8473 53.3405 66.8724C53.4055 66.8975 53.4635 66.9388 53.5095 66.9926L61.0859 75.8234C61.1511 75.8995 61.2301 75.9614 61.3183 76.0058C61.4066 76.0502 61.5024 76.0761 61.6004 76.082C61.6983 76.0879 61.7964 76.0738 61.8891 76.0404C61.9817 76.0071 62.0671 75.9551 62.1404 75.8875L65.6427 72.6584C65.7167 72.5909 65.777 72.5089 65.8203 72.417C65.8636 72.3252 65.889 72.2255 65.895 72.1235C65.901 72.0215 65.8875 71.9193 65.8552 71.8227C65.823 71.7261 65.7727 71.6371 65.7071 71.5608L58.1131 62.7134C58.0657 62.6584 58.0325 62.5919 58.0164 62.52C58.0004 62.4481 58.0021 62.3732 58.0213 62.3022C58.0406 62.2312 58.0768 62.1664 58.1266 62.1137C58.1764 62.061 58.2382 62.0222 58.3063 62.0008L68.2132 58.8633C68.3811 58.8208 68.5316 58.724 68.6428 58.5868C68.754 58.4496 68.8201 58.2792 68.8316 58.1004C68.843 57.9216 68.7991 57.7437 68.7063 57.5925C68.6135 57.4414 68.4766 57.3248 68.3156 57.2598L39.7174 45.5776C39.0415 45.2767 38.3267 45.8997 38.5376 46.6031L46.6708 76.3832C46.902 77.148 47.9627 77.2193 48.2909 76.4976Z" fill="url(#paint12_linear_1838_7953)"/>
<path d="M52.9577 70.6825L57.48 61.6221C57.5109 61.5601 57.5565 61.5066 57.6129 61.4663C57.6693 61.426 57.7348 61.4002 57.8035 61.3911C57.8723 61.3819 57.9422 61.3898 58.0072 61.414C58.0722 61.4381 58.1302 61.4778 58.1763 61.5296L65.7527 70.0333C65.8178 70.1065 65.8968 70.1662 65.9851 70.2089C66.0733 70.2517 66.1692 70.2766 66.2671 70.2823C66.365 70.2881 66.4631 70.2745 66.5558 70.2423C66.6485 70.2102 66.7339 70.1601 66.8072 70.095L70.3094 66.9856C70.3834 66.9206 70.4438 66.8416 70.4871 66.7532C70.5304 66.6647 70.5558 66.5687 70.5617 66.4704C70.5677 66.3722 70.5542 66.2738 70.522 66.1808C70.4897 66.0878 70.4394 66.0021 70.3739 65.9286L62.7798 57.409C62.7324 57.356 62.6992 57.292 62.6832 57.2228C62.6671 57.1536 62.6688 57.0815 62.6881 57.0131C62.7073 56.9447 62.7435 56.8823 62.7934 56.8315C62.8432 56.7808 62.905 56.7434 62.9731 56.7228L72.8799 53.7015C73.0479 53.6607 73.1984 53.5674 73.3096 53.4353C73.4208 53.3032 73.4869 53.1391 73.4983 52.9669C73.5097 52.7948 73.4658 52.6234 73.373 52.4779C73.2802 52.3323 73.1434 52.22 72.9823 52.1574L44.3842 40.9081C43.7082 40.6183 42.9935 41.2182 43.2044 41.8955L51.3376 70.5724C51.5687 71.3088 52.6294 71.3784 52.9577 70.6825Z" fill="url(#paint13_linear_1838_7953)"/>
<path d="M224 102.667L219.333 135.333H196L191.333 102.667H224Z" fill="url(#paint14_linear_1838_7953)"/>
<path d="M226.333 98H189V106.167H226.333V98Z" fill="#E52E3B"/>
<path d="M221.667 98H192.5L195.079 93.3333H219.089L221.667 98Z" fill="#F6535E"/>
<path d="M199.48 86.9149V78.6104C199.48 77.566 199.065 76.5645 198.326 75.826C197.588 75.0876 196.586 74.6727 195.542 74.6727H189.842C188.692 74.6727 187.589 74.2165 186.775 73.4041C185.961 72.5918 185.502 71.4897 185.5 70.3396V53.6909C185.5 52.5394 185.957 51.435 186.772 50.6207C187.586 49.8065 188.69 49.349 189.842 49.349H202.85C203.894 49.349 204.896 48.9342 205.634 48.1957C206.373 47.4573 206.788 46.4557 206.788 45.4113V35.196C206.788 34.1517 207.202 33.1501 207.941 32.4117C208.679 31.6732 209.681 31.2584 210.725 31.2584H218.251C219.295 31.2584 220.297 30.8435 221.035 30.105C221.774 29.3666 222.188 28.365 222.188 27.3207V19.1043C222.188 18.06 222.603 17.0584 223.342 16.32C224.08 15.5815 225.082 15.1667 226.126 15.1667C227.17 15.1667 228.172 15.5815 228.91 16.32C229.649 17.0584 230.064 18.06 230.064 19.1043V37.3978C230.064 38.4422 229.649 39.4437 228.91 40.1822C228.172 40.9207 227.17 41.3355 226.126 41.3355H224.812C223.768 41.3355 222.766 41.7504 222.028 42.4888C221.289 43.2273 220.874 44.2288 220.874 45.2732V57.2067C220.874 57.7239 220.976 58.2362 221.174 58.7141C221.371 59.192 221.662 59.6262 222.027 59.992C222.393 60.3578 222.827 60.648 223.305 60.846C223.783 61.0439 224.295 61.1459 224.812 61.1459H226.123C227.167 61.1459 228.169 61.5607 228.907 62.2992C229.646 63.0376 230.061 64.0392 230.061 65.0835V71.1774C230.061 72.2218 229.646 73.2233 228.907 73.9618C228.169 74.7003 227.167 75.1151 226.123 75.1151H216.087C215.043 75.1151 214.041 75.53 213.303 76.2685C212.564 77.0069 212.149 78.0085 212.149 79.0528V86.9164C212.149 87.9607 211.735 88.9623 210.996 89.7007C210.258 90.4392 209.256 90.8541 208.212 90.8541H203.417C202.9 90.8541 202.388 90.7522 201.91 90.5542C201.432 90.3562 200.998 90.066 200.632 89.7002C200.267 89.3344 199.977 88.9002 199.779 88.4222C199.581 87.9443 199.479 87.4321 199.48 86.9149Z" fill="#ECEDEE"/>
<path d="M210.811 58.6883H198.687C197.557 58.6883 196.64 59.605 196.64 60.7358V63.6858C196.64 64.8165 197.557 65.7332 198.687 65.7332H210.811C211.941 65.7332 212.858 64.8165 212.858 63.6858V60.7358C212.858 59.605 211.941 58.6883 210.811 58.6883Z" fill="#FEFEFE"/>
<g style="mix-blend-mode:soft-light" opacity="0.6">
<path d="M214.667 106.167H210V135.333H214.667V106.167Z" fill="url(#paint15_linear_1838_7953)"/>
</g>
<mask id="mask0_1838_7953" style="mask-type:alpha" maskUnits="userSpaceOnUse" x="191" y="102" width="33" height="34">
<path d="M224 102.667L219.333 135.333H196L191.333 102.667H224Z" fill="url(#paint16_linear_1838_7953)"/>
</mask>
<g mask="url(#mask0_1838_7953)">
<g style="mix-blend-mode:soft-light" opacity="0.5">
<rect x="164" y="98" width="28" height="9" fill="url(#paint17_linear_1838_7953)"/>
</g>
</g>
<defs>
<linearGradient id="paint0_linear_1838_7953" x1="169.481" y1="77" x2="201.707" y2="114.245" gradientUnits="userSpaceOnUse">
<stop stop-color="#7E98FF"/>
<stop offset="1" stop-color="#435CBE"/>
</linearGradient>
<linearGradient id="paint1_linear_1838_7953" x1="136.724" y1="77" x2="148.981" y2="139.733" gradientUnits="userSpaceOnUse">
<stop stop-color="#7E98FF"/>
<stop offset="1" stop-color="#435CBE"/>
</linearGradient>
<linearGradient id="paint2_linear_1838_7953" x1="139.417" y1="74.6667" x2="139.417" y2="135.333" gradientUnits="userSpaceOnUse">
<stop stop-color="#7E98FF"/>
<stop offset="1" stop-color="#435CBE"/>
</linearGradient>
<linearGradient id="paint3_linear_1838_7953" x1="135.333" y1="98.0005" x2="171.5" y2="98.0005" gradientUnits="userSpaceOnUse">
<stop stop-color="#FEFEFC"/>
<stop offset="0.22" stop-color="#FEFEFD" stop-opacity="0.8"/>
<stop offset="1" stop-color="white" stop-opacity="0.1"/>
</linearGradient>
<linearGradient id="paint4_linear_1838_7953" x1="161.539" y1="74.6667" x2="161.539" y2="88.4671" gradientUnits="userSpaceOnUse">
<stop stop-color="#7E98FF"/>
<stop offset="1" stop-color="#435CBE"/>
</linearGradient>
<linearGradient id="paint5_linear_1838_7953" x1="128.332" y1="64.4272" x2="128.354" y2="135.333" gradientUnits="userSpaceOnUse">
<stop stop-color="#39F89C"/>
<stop offset="1" stop-color="#2EDD89"/>
</linearGradient>
<linearGradient id="paint6_linear_1838_7953" x1="130.667" y1="103.837" x2="135.333" y2="103.837" gradientUnits="userSpaceOnUse">
<stop stop-color="#FEFEFC"/>
<stop offset="0.22" stop-color="#FEFEFD" stop-opacity="0.8"/>
<stop offset="1" stop-color="white" stop-opacity="0.1"/>
</linearGradient>
<linearGradient id="paint7_linear_1838_7953" x1="121.333" y1="119" x2="135.333" y2="119" gradientUnits="userSpaceOnUse">
<stop stop-color="#FEFEFC"/>
<stop offset="0.22" stop-color="#FEFEFD" stop-opacity="0.8"/>
<stop offset="1" stop-color="white" stop-opacity="0.1"/>
</linearGradient>
<linearGradient id="paint8_linear_1838_7953" x1="72.3333" y1="140.187" x2="72.3333" y2="19.7514" gradientUnits="userSpaceOnUse">
<stop stop-color="#DEE0E2"/>
<stop offset="1" stop-color="#EFEFEF"/>
</linearGradient>
<linearGradient id="paint9_linear_1838_7953" x1="121.267" y1="95.6685" x2="-24.1463" y2="95.6685" gradientUnits="userSpaceOnUse">
<stop stop-color="#DEE0E2"/>
<stop offset="1" stop-color="#B4B9BE"/>
</linearGradient>
<linearGradient id="paint10_linear_1838_7953" x1="71.8038" y1="126.455" x2="71.8038" y2="102.453" gradientUnits="userSpaceOnUse">
<stop stop-color="#DEE0E2"/>
<stop offset="1" stop-color="#B4B9BE"/>
</linearGradient>
<linearGradient id="paint11_linear_1838_7953" x1="72.3328" y1="154.102" x2="72.3328" y2="88.1255" gradientUnits="userSpaceOnUse">
<stop stop-color="#DEE0E2"/>
<stop offset="1" stop-color="#B4B9BE"/>
</linearGradient>
<linearGradient id="paint12_linear_1838_7953" x1="39.6667" y1="46.7115" x2="43.698" y2="80.0403" gradientUnits="userSpaceOnUse">
<stop stop-color="#7E98FF"/>
<stop offset="1" stop-color="#435CBE"/>
</linearGradient>
<linearGradient id="paint13_linear_1838_7953" x1="44.3334" y1="42" x2="48.0755" y2="74.128" gradientUnits="userSpaceOnUse">
<stop stop-color="#7E98FF"/>
<stop offset="1" stop-color="#435CBE"/>
</linearGradient>
<linearGradient id="paint14_linear_1838_7953" x1="194.085" y1="120.89" x2="216.587" y2="116.927" gradientUnits="userSpaceOnUse">
<stop stop-color="#E64A56"/>
<stop offset="1" stop-color="#E52E3B"/>
</linearGradient>
<linearGradient id="paint15_linear_1838_7953" x1="214.442" y1="103.046" x2="203.777" y2="105.597" gradientUnits="userSpaceOnUse">
<stop stop-color="#FEFEFC"/>
<stop offset="1" stop-color="white" stop-opacity="0.1"/>
</linearGradient>
<linearGradient id="paint16_linear_1838_7953" x1="194.085" y1="120.89" x2="216.587" y2="116.927" gradientUnits="userSpaceOnUse">
<stop stop-color="#E64A56"/>
<stop offset="1" stop-color="#E52E3B"/>
</linearGradient>
<linearGradient id="paint17_linear_1838_7953" x1="164" y1="102.501" x2="192" y2="102.501" gradientUnits="userSpaceOnUse">
<stop stop-color="#FEFEFC"/>
<stop offset="0.22" stop-color="#FEFEFD" stop-opacity="0.8"/>
<stop offset="1" stop-color="white" stop-opacity="0.1"/>
</linearGradient>
</defs>
</svg>
