<svg width="269" height="144" viewBox="0 0 269 144" fill="none" xmlns="http://www.w3.org/2000/svg">
<g filter="url(#filter0_d_1838_7953)">
<rect x="146.333" y="131.833" width="61.8333" height="3.5" rx="1.75" fill="#E2E2E4"/>
<g opacity="0.33">
<path d="M178.296 134.629V111.524H175.263V134.629H178.296Z" fill="white"/>
<path d="M171.895 134.629V111.524H166.008V134.629H171.895Z" fill="white"/>
</g>
<path d="M181.333 78.8854V131.115C181.334 131.669 181.214 132.217 180.981 132.729C180.747 133.241 180.406 133.706 179.975 134.098C179.544 134.49 179.032 134.8 178.469 135.012C177.906 135.224 177.303 135.333 176.694 135.333H173.167C173.776 135.333 174.379 135.224 174.942 135.012C175.505 134.8 176.017 134.49 176.448 134.098C176.879 133.706 177.22 133.241 177.454 132.729C177.687 132.217 177.807 131.669 177.806 131.115V78.8854C177.807 78.3314 177.687 77.7827 177.454 77.2708C177.22 76.7589 176.879 76.2938 176.448 75.902C176.017 75.5103 175.505 75.1995 174.942 74.9875C174.379 74.7756 173.776 74.6665 173.167 74.6667H176.694C177.303 74.6665 177.906 74.7756 178.469 74.9875C179.032 75.1995 179.544 75.5103 179.975 75.902C180.406 76.2938 180.747 76.7589 180.981 77.2708C181.214 77.7827 181.334 78.3314 181.333 78.8854Z" fill="url(#paint0_linear_1838_7953)"/>
<path d="M177.833 78.8854V131.115C177.834 131.669 177.727 132.217 177.521 132.729C177.315 133.241 177.012 133.706 176.631 134.098C176.249 134.49 175.797 134.8 175.298 135.012C174.8 135.224 174.266 135.333 173.727 135.333H169.667C170.755 135.333 171.799 134.888 172.568 134.097C173.337 133.305 173.769 132.233 173.769 131.115V78.8854C173.769 77.7673 173.337 76.6946 172.568 75.9035C171.799 75.1123 170.755 74.6675 169.667 74.6667H173.727C174.266 74.6665 174.8 74.7756 175.298 74.9875C175.797 75.1995 176.249 75.5103 176.631 75.902C177.012 76.2938 177.315 76.7589 177.521 77.2708C177.727 77.7827 177.834 78.3314 177.833 78.8854Z" fill="#ECEDEE"/>
<path d="M175.5 78.8864V131.116C175.5 131.316 175.486 131.516 175.455 131.714C175.305 132.718 174.78 133.637 173.977 134.302C173.173 134.967 172.145 135.333 171.081 135.333H143.758C143.177 135.334 142.602 135.225 142.065 135.013C141.528 134.801 141.04 134.49 140.629 134.099C140.218 133.707 139.892 133.242 139.67 132.73C139.448 132.218 139.333 131.67 139.333 131.116V78.8864C139.333 78.3322 139.447 77.7835 139.67 77.2715C139.892 76.7594 140.218 76.2942 140.629 75.9023C141.04 75.5105 141.528 75.1996 142.064 74.9876C142.601 74.7756 143.177 74.6665 143.758 74.6667H171.081C172.145 74.6674 173.174 75.0341 173.977 75.6993C174.78 76.3646 175.305 77.2838 175.455 78.2884C175.486 78.4864 175.5 78.6863 175.5 78.8864Z" fill="url(#paint1_linear_1838_7953)"/>
<path d="M147.5 74.6667V135.333H144.12C143.492 135.333 142.869 135.224 142.288 135.012C141.707 134.801 141.18 134.49 140.735 134.098C140.29 133.706 139.938 133.241 139.697 132.729C139.457 132.217 139.333 131.669 139.333 131.115V78.8854C139.333 78.3313 139.457 77.7827 139.697 77.2708C139.938 76.7589 140.29 76.2938 140.735 75.902C141.18 75.5102 141.707 75.1995 142.288 74.9875C142.869 74.7756 143.492 74.6665 144.12 74.6667H147.5Z" fill="url(#paint2_linear_1838_7953)"/>
<g style="mix-blend-mode:soft-light" opacity="0.5">
<path d="M175.5 93.3333H139.333V102.667H175.5V93.3333Z" fill="url(#paint3_linear_1838_7953)"/>
</g>
<path d="M169.12 88.3788L165.732 84.6201C165.709 84.592 165.68 84.5693 165.647 84.5537C165.614 84.5382 165.578 84.5301 165.542 84.5301C165.505 84.5301 165.469 84.5382 165.436 84.5537C165.403 84.5693 165.374 84.592 165.351 84.6201L161.962 88.3788C161.789 88.5694 161.501 88.4284 161.501 88.1501V74.984C161.495 74.9057 161.521 74.8285 161.572 74.769C161.623 74.7096 161.696 74.6728 161.774 74.6667H169.303C169.381 74.6728 169.454 74.7096 169.505 74.769C169.557 74.8285 169.582 74.9057 169.577 74.984V88.1492C169.586 88.4284 169.294 88.5714 169.12 88.3788Z" fill="url(#paint4_linear_1838_7953)"/>
<path d="M167.471 86.9091L164.293 83.2257C164.272 83.1989 164.245 83.1773 164.215 83.1624C164.184 83.1475 164.151 83.1398 164.117 83.1398C164.083 83.1398 164.049 83.1475 164.018 83.1624C163.988 83.1773 163.961 83.1989 163.94 83.2257L160.767 86.9091C160.604 87.0997 160.334 86.9577 160.334 86.6842V73.8107C160.328 73.7357 160.35 73.661 160.398 73.6028C160.446 73.5447 160.515 73.5077 160.59 73.5H167.642C167.717 73.5077 167.786 73.5447 167.834 73.6028C167.882 73.661 167.905 73.7357 167.898 73.8107V86.6851C167.903 86.9587 167.629 87.0997 167.471 86.9091Z" fill="#4DE99E"/>
<path d="M167.903 73.8088V86.6871C167.903 86.9577 167.636 87.0978 167.47 86.9082L164.294 83.2266C164.272 83.1996 164.245 83.1778 164.214 83.1626C164.183 83.1474 164.149 83.1393 164.115 83.1389V73.5H167.641C167.791 73.5 167.903 73.6401 167.903 73.8088Z" fill="#4DE99E"/>
<path d="M139.333 66.1665V134.501C139.333 134.961 138.94 135.333 138.455 135.333H126.214C125.727 135.333 125.333 134.961 125.333 134.501V66.1665C125.333 65.7064 125.727 65.3333 126.214 65.3333H138.455C138.941 65.3333 139.333 65.7074 139.333 66.1665Z" fill="url(#paint5_linear_1838_7953)"/>
<path d="M139.736 81.6184H124.715V84.63H139.736V81.6184Z" fill="white"/>
<g style="mix-blend-mode:soft-light" opacity="0.5">
<path d="M134.667 135.333H138.205C138.829 135.333 139.333 134.998 139.333 134.584V73.0822C139.333 72.6681 138.829 72.3333 138.205 72.3333H134.667V135.333Z" fill="url(#paint6_linear_1838_7953)"/>
</g>
<g style="mix-blend-mode:soft-light" opacity="0.5">
<path d="M139.333 116.667H125.333V121.333H139.333V116.667Z" fill="url(#paint7_linear_1838_7953)"/>
</g>
<path d="M148.667 11.5082V95.8128C148.667 97.3259 148.364 98.8242 147.775 100.222C147.187 101.62 146.324 102.89 145.235 103.96C144.147 105.03 142.855 105.879 141.434 106.457C140.012 107.036 138.488 107.334 136.949 107.333H15.7166C12.6096 107.332 9.63035 106.118 7.4334 103.957C5.23645 101.797 4.00153 98.8678 4 95.8128V11.5082C4.00179 8.45447 5.23719 5.52646 7.43444 3.36828C9.6317 1.21009 12.6108 -0.00149732 15.7166 9.97641e-06H136.949C138.487 -0.00198161 140.011 0.294229 141.433 0.871703C142.854 1.44918 144.146 2.29658 145.234 3.36544C146.323 4.4343 147.186 5.70364 147.775 7.10086C148.364 8.49808 148.667 9.99576 148.667 11.5082Z" fill="url(#paint8_linear_1838_7953)"/>
<rect opacity="0.56" x="95" y="11.6667" width="42" height="46.6667" rx="4" fill="#D8DADB"/>
<path d="M125.15 42.9079C124.842 42.908 124.543 43.014 124.303 43.2083C124.064 43.4025 123.898 43.6733 123.833 43.9754L118.748 43.7289C118.764 43.6327 118.772 43.5353 118.773 43.4378C118.772 43.2621 118.748 43.0874 118.699 42.9186L120.545 41.8512C120.766 42.1244 121.083 42.3024 121.43 42.3486C121.778 42.3948 122.13 42.3056 122.414 42.0995C122.698 41.8933 122.893 41.5858 122.957 41.2404C123.022 40.895 122.952 40.5379 122.762 40.2426C122.571 39.9473 122.275 39.7364 121.935 39.6533C121.594 39.5701 121.234 39.6211 120.93 39.7957C120.625 39.9702 120.399 40.2551 120.298 40.5917C120.197 40.9282 120.229 41.2908 120.386 41.6047L118.594 42.6391C118.389 42.2039 118.025 41.8642 117.577 41.6903C117.129 41.5165 116.632 41.5217 116.188 41.7051C115.744 41.8885 115.387 42.2358 115.191 42.6754C114.995 43.1149 114.976 43.613 115.137 44.0666L111.817 44.8798C111.794 44.4244 111.606 43.9932 111.287 43.6678L111.886 42.8361C112.213 42.9488 112.572 42.9314 112.887 42.7873C113.203 42.6433 113.451 42.3836 113.582 42.0617C113.712 41.7398 113.714 41.3801 113.588 41.0566C113.462 40.733 113.217 40.4702 112.903 40.3221C112.59 40.1741 112.231 40.152 111.902 40.2604C111.573 40.3689 111.297 40.5997 111.133 40.9053C110.968 41.2109 110.926 41.5682 111.016 41.9037C111.106 42.2391 111.321 42.5273 111.616 42.709L111.065 43.4746C110.676 43.1805 110.186 43.0531 109.704 43.1205L109.13 39.8464C109.391 39.7888 109.637 39.676 109.85 39.5156C110.064 39.3551 110.241 39.1507 110.37 38.9161C110.498 38.6814 110.575 38.4219 110.595 38.1551C110.615 37.8882 110.578 37.6201 110.487 37.3688C110.395 37.1174 110.25 36.8887 110.063 36.6978C109.876 36.507 109.65 36.3585 109.401 36.2623C109.152 36.1661 108.885 36.1244 108.618 36.14C108.351 36.1557 108.091 36.2283 107.855 36.353L106.411 33.534C106.718 33.3779 106.977 33.1402 107.159 32.847L108.356 33.1633C108.346 33.2276 108.341 33.2924 108.34 33.3574C108.339 33.6966 108.464 34.024 108.691 34.2754C108.918 34.5268 109.231 34.6839 109.568 34.7159C109.905 34.7479 110.242 34.6524 110.512 34.4482C110.782 34.2441 110.967 33.946 111.029 33.6126C111.091 33.2792 111.026 32.9346 110.848 32.6465C110.669 32.3584 110.389 32.1477 110.063 32.0557C109.738 31.9638 109.389 31.9973 109.087 32.1496C108.784 32.302 108.55 32.5621 108.429 32.879L107.298 32.5801C107.452 32.2115 107.482 31.8032 107.386 31.4157L110.713 29.8824C111.012 30.2585 111.443 30.5053 111.918 30.5719C112.393 30.6384 112.876 30.5197 113.266 30.2402C113.656 29.9607 113.924 29.5418 114.015 29.0698C114.106 28.5979 114.013 28.1089 113.755 27.7039L115.885 25.6195C116.145 25.7875 116.443 25.8876 116.751 25.9107V26.8306C116.408 26.8678 116.093 27.0353 115.87 27.2985C115.646 27.5616 115.532 27.9005 115.551 28.2454C115.57 28.5903 115.72 28.9149 115.97 29.1524C116.22 29.3899 116.552 29.5223 116.896 29.5223C117.241 29.5223 117.572 29.3899 117.823 29.1524C118.073 28.9149 118.223 28.5903 118.241 28.2454C118.26 27.9005 118.146 27.5616 117.923 27.2985C117.7 27.0353 117.384 26.8678 117.041 26.8306V25.9116C117.308 25.8915 117.567 25.8141 117.801 25.6846L120.135 28.356C119.937 28.6152 119.81 28.9213 119.767 29.2444C119.723 29.5674 119.764 29.8963 119.886 30.1986C120.008 30.5009 120.206 30.7663 120.461 30.9687C120.716 31.1711 121.019 31.3035 121.341 31.3529C121.662 31.4023 121.991 31.367 122.295 31.2505C122.599 31.134 122.867 30.9402 123.074 30.6883C123.28 30.4364 123.418 30.135 123.473 29.8137C123.528 29.4924 123.498 29.1623 123.388 28.8558L124.115 28.4453C124.337 28.7091 124.651 28.8778 124.993 28.9165C125.335 28.9553 125.679 28.8613 125.954 28.6538C126.229 28.4462 126.414 28.141 126.472 27.8009C126.529 27.4607 126.454 27.1115 126.262 26.825C126.071 26.5385 125.777 26.3365 125.441 26.2605C125.105 26.1846 124.753 26.2404 124.457 26.4166C124.161 26.5928 123.943 26.876 123.849 27.2078C123.755 27.5397 123.792 27.895 123.951 28.2008L123.268 28.5889C123.13 28.3365 122.936 28.1194 122.701 27.9543C122.465 27.7893 122.195 27.6807 121.911 27.6371C121.627 27.5935 121.337 27.6159 121.063 27.7027C120.789 27.7895 120.539 27.9384 120.331 28.1377L118.047 25.5235C118.273 25.3459 118.456 25.1184 118.581 24.8588L120.582 25.1926C120.658 25.5284 120.859 25.8225 121.144 26.0146C121.429 26.2067 121.776 26.2822 122.115 26.2256C122.454 26.1691 122.758 25.9848 122.966 25.7105C123.174 25.4362 123.269 25.0927 123.232 24.7505C123.194 24.4083 123.028 24.0933 122.767 23.8701C122.505 23.6468 122.168 23.5323 121.825 23.55C121.482 23.5677 121.159 23.7162 120.921 23.9652C120.684 24.2141 120.551 24.5446 120.549 24.8888L118.69 24.5793C118.786 24.2572 118.793 23.9152 118.712 23.5891C118.631 23.2629 118.464 22.9646 118.228 22.7254C117.992 22.4861 117.697 22.3146 117.373 22.2288C117.048 22.143 116.707 22.1461 116.384 22.2377C116.062 22.3293 115.769 22.5061 115.538 22.7496C115.307 22.993 115.145 23.2943 115.07 23.6218C114.994 23.9493 115.008 24.2911 115.11 24.6115C115.211 24.9318 115.397 25.219 115.647 25.4429L113.574 27.4691C113.253 27.1001 112.801 26.8716 112.315 26.8325V25.4148C112.657 25.3775 112.973 25.2101 113.196 24.9469C113.419 24.6837 113.533 24.3448 113.514 24C113.496 23.6551 113.346 23.3305 113.096 23.093C112.846 22.8554 112.514 22.723 112.169 22.723C111.825 22.723 111.493 22.8554 111.243 23.093C110.993 23.3305 110.843 23.6551 110.824 24C110.806 24.3448 110.92 24.6837 111.143 24.9469C111.366 25.2101 111.681 25.3775 112.024 25.4148V26.8306C111.709 26.8542 111.405 26.9576 111.14 27.1309C110.875 27.3043 110.659 27.5421 110.511 27.822C110.363 28.1019 110.288 28.4148 110.294 28.7315C110.299 29.0483 110.385 29.3584 110.542 29.6331L107.292 31.1313C107.175 30.8513 106.991 30.6039 106.758 30.4103L108.03 28.1241C108.142 28.1536 108.257 28.169 108.372 28.1697C108.702 28.1704 109.021 28.0497 109.269 27.8305C109.516 27.6112 109.675 27.3087 109.715 26.9801C109.755 26.6516 109.673 26.3198 109.485 26.0476C109.297 25.7754 109.016 25.5816 108.695 25.503C108.375 25.4244 108.036 25.4664 107.744 25.621C107.452 25.7756 107.227 26.0322 107.111 26.3421C106.995 26.652 106.996 26.9938 107.115 27.3027C107.233 27.6116 107.461 27.8662 107.754 28.0183L106.516 30.2425C106.246 30.0833 105.942 29.9942 105.629 29.9833C105.317 29.9724 105.006 30.04 104.727 30.1801C104.447 30.3201 104.207 30.528 104.028 30.7849C103.849 31.0419 103.737 31.3396 103.703 31.6509C103.668 31.9623 103.712 32.2773 103.83 32.5674C103.948 32.8575 104.136 33.1134 104.378 33.3117C104.62 33.51 104.908 33.6445 105.215 33.7028C105.522 33.7611 105.839 33.7414 106.137 33.6456L107.604 36.5102C107.233 36.7845 106.977 37.1864 106.884 37.6387L105.818 37.3243C105.846 37.2163 105.861 37.1051 105.861 36.9934C105.861 36.6626 105.74 36.3432 105.521 36.0958C105.302 35.8485 105 35.6904 104.672 35.6516C104.344 35.6128 104.013 35.6961 103.743 35.8855C103.472 36.0749 103.28 36.3573 103.203 36.6791C103.127 37.0009 103.171 37.3397 103.327 37.6311C103.484 37.9225 103.741 38.1462 104.051 38.2598C104.361 38.3734 104.702 38.369 105.009 38.2473C105.316 38.1257 105.568 37.8953 105.717 37.5999L106.846 37.9337C106.846 37.9619 106.846 37.9881 106.846 38.0162C106.846 38.3301 106.924 38.639 107.075 38.9145C107.225 39.19 107.441 39.4233 107.705 39.5931L106.98 40.546C106.722 40.3183 106.386 40.1985 106.042 40.2112C105.697 40.224 105.371 40.3683 105.13 40.6145C104.889 40.8608 104.751 41.1903 104.745 41.5353C104.738 41.8803 104.864 42.2146 105.096 42.4696C105.328 42.7246 105.649 42.8808 105.992 42.9062C106.336 42.9317 106.676 42.8243 106.943 42.6063C107.21 42.3882 107.383 42.076 107.427 41.7338C107.472 41.3916 107.383 41.0454 107.181 40.7663L107.969 39.7367C108.206 39.841 108.463 39.8949 108.722 39.8949C108.761 39.8949 108.801 39.8949 108.84 39.8891L109.421 43.1835C109.137 43.2674 108.878 43.4173 108.663 43.6211C108.448 43.8248 108.285 44.0766 108.186 44.3558C108.087 44.635 108.056 44.9337 108.094 45.2274C108.132 45.5212 108.24 45.8016 108.407 46.0458C108.574 46.2901 108.797 46.4911 109.057 46.6326C109.317 46.774 109.606 46.8518 109.902 46.8596C110.197 46.8674 110.491 46.8049 110.757 46.6774C111.024 46.5498 111.257 46.3608 111.437 46.1257L114.149 47.3358C114.125 47.436 114.113 47.5386 114.113 47.6415C114.112 47.9745 114.233 48.2962 114.454 48.5452C114.674 48.7942 114.979 48.9529 115.309 48.9911C115.639 49.0292 115.972 48.9441 116.243 48.752C116.515 48.5599 116.706 48.2743 116.78 47.9497C116.855 47.6252 116.807 47.2846 116.647 46.9929C116.487 46.7013 116.225 46.4791 115.911 46.3689C115.597 46.2587 115.254 46.2682 114.947 46.3955C114.64 46.5229 114.391 46.7592 114.247 47.0592L111.6 45.8783C111.716 45.6643 111.789 45.4296 111.815 45.1874L115.261 44.3422C115.392 44.5815 115.573 44.7893 115.792 44.9512C116.011 45.113 116.263 45.225 116.53 45.2792C116.796 45.3335 117.072 45.3287 117.336 45.2652C117.601 45.2018 117.849 45.0811 118.062 44.9118L119.352 46.0268C119.207 46.3424 119.188 46.7016 119.3 47.0306C119.411 47.3596 119.644 47.6334 119.95 47.7957C120.257 47.958 120.614 47.9965 120.948 47.9032C121.282 47.8099 121.567 47.592 121.746 47.2942C121.925 46.9964 121.982 46.6414 121.908 46.3021C121.833 45.9628 121.632 45.6651 121.345 45.4702C121.058 45.2752 120.707 45.1978 120.365 45.2538C120.023 45.3099 119.715 45.4951 119.505 45.7715L118.278 44.7109C118.461 44.5133 118.6 44.2783 118.684 44.0219L123.808 44.2694C123.81 44.5357 123.89 44.7956 124.039 45.0161C124.189 45.2366 124.399 45.408 124.646 45.5086C124.892 45.6092 125.162 45.6346 125.423 45.5814C125.683 45.5283 125.922 45.3991 126.109 45.21C126.297 45.021 126.424 44.7807 126.475 44.5193C126.526 44.2579 126.499 43.9872 126.397 43.7413C126.295 43.4954 126.122 43.2853 125.901 43.1375C125.68 42.9897 125.42 42.9109 125.154 42.9109L125.15 42.9079Z" fill="white"/>
<path d="M148.667 84V96.033C148.668 97.6359 148.316 99.2207 147.633 100.682C147.478 101.016 147.304 101.343 147.117 101.658C146.93 101.973 146.724 102.279 146.508 102.576C146.344 102.796 146.172 103.01 145.995 103.221C145.754 103.5 145.504 103.766 145.237 104.022C144.152 105.074 142.862 105.908 141.441 106.476C140.021 107.044 138.498 107.335 136.96 107.333H15.7091C12.6037 107.333 9.62562 106.142 7.4298 104.022C5.23397 101.902 4.00026 99.0272 4 96.0293V84H148.667Z" fill="url(#paint9_linear_1838_7953)"/>
<path d="M99.7706 126.537H51.8333C54.4922 125.559 56.4211 122.762 56.4211 119.507V107.333H95.1741V119.506C95.177 122.762 97.1069 125.559 99.7706 126.537Z" fill="url(#paint10_linear_1838_7953)"/>
<path d="M109.632 126H43.0341C42.0947 126 41.3333 126.933 41.3333 128.083V133.25C41.3333 134.401 42.0947 135.333 43.0341 135.333H109.632C110.572 135.333 111.333 134.401 111.333 133.25V128.083C111.333 126.933 110.572 126 109.632 126Z" fill="url(#paint11_linear_1838_7953)"/>
<path d="M76.3333 100.333C79.555 100.333 82.1667 97.7217 82.1667 94.5C82.1667 91.2783 79.555 88.6667 76.3333 88.6667C73.1117 88.6667 70.5 91.2783 70.5 94.5C70.5 97.7217 73.1117 100.333 76.3333 100.333Z" fill="#EFEFEF"/>
<path opacity="0.56" d="M78.2984 17.5H19.535C17.3986 17.5 15.6667 19.067 15.6667 21C15.6667 22.933 17.3986 24.5 19.535 24.5H78.2984C80.4349 24.5 82.1667 22.933 82.1667 21C82.1667 19.067 80.4349 17.5 78.2984 17.5Z" fill="#D8DADB"/>
<path opacity="0.56" d="M59.5282 30.3333H19.6386C17.445 30.3333 15.6667 31.88 15.6667 33.7878V33.8789C15.6667 35.7867 17.445 37.3333 19.6386 37.3333H59.5282C61.7218 37.3333 63.5001 35.7867 63.5001 33.8789V33.7878C63.5001 31.88 61.7218 30.3333 59.5282 30.3333Z" fill="#D8DADB"/>
<path opacity="0.56" d="M19.2635 58.3333L73.9031 58.3333C75.8896 58.3333 77.5 56.7663 77.5 54.8333C77.5 52.9003 75.8896 51.3333 73.9031 51.3333L19.2635 51.3333C17.277 51.3333 15.6667 52.9003 15.6667 54.8333C15.6667 56.7663 17.277 58.3333 19.2635 58.3333Z" fill="#D8DADB"/>
<rect x="212.833" y="131.833" width="26.8333" height="3.5" rx="1.75" fill="#E2E2E4"/>
<rect x="242" y="131.833" width="15.1666" height="3.5" rx="1.75" fill="#E2E2E4"/>
<rect x="260.667" y="131.833" width="3.5" height="3.5" rx="1.75" fill="#E2E2E4"/>
<path opacity="0.56" d="M18.9707 70.7605H53.1015C54.9784 70.7605 56.5 69.2389 56.5 67.362V67.2724C56.5 65.3955 54.9784 63.8739 53.1015 63.8739L18.9707 63.8739C17.0937 63.8739 15.5722 65.3955 15.5722 67.2724V67.362C15.5722 69.2389 17.0937 70.7605 18.9707 70.7605Z" fill="#D8DADB"/>
<path opacity="0.08" d="M52.2909 76.4976L56.8133 67.0886C56.8441 67.0242 56.8898 66.9687 56.9462 66.9268C57.0026 66.885 57.068 66.8582 57.1368 66.8487C57.2055 66.8392 57.2755 66.8473 57.3405 66.8724C57.4055 66.8975 57.4635 66.9388 57.5095 66.9926L65.0859 75.8234C65.1511 75.8995 65.2301 75.9614 65.3183 76.0058C65.4066 76.0502 65.5024 76.0761 65.6004 76.082C65.6983 76.0879 65.7964 76.0738 65.8891 76.0404C65.9817 76.0071 66.0671 75.9551 66.1404 75.8875L69.6427 72.6584C69.7167 72.5909 69.777 72.5089 69.8203 72.417C69.8636 72.3252 69.889 72.2255 69.895 72.1235C69.901 72.0215 69.8875 71.9193 69.8552 71.8227C69.823 71.7261 69.7727 71.6371 69.7071 71.5608L62.1131 62.7134C62.0657 62.6584 62.0325 62.5919 62.0164 62.52C62.0004 62.4481 62.0021 62.3732 62.0213 62.3022C62.0406 62.2312 62.0768 62.1664 62.1266 62.1137C62.1764 62.061 62.2382 62.0222 62.3063 62.0008L72.2132 58.8633C72.3811 58.8208 72.5316 58.724 72.6428 58.5868C72.754 58.4496 72.8201 58.2792 72.8316 58.1004C72.843 57.9216 72.7991 57.7437 72.7063 57.5925C72.6135 57.4414 72.4766 57.3248 72.3156 57.2598L43.7174 45.5776C43.0415 45.2767 42.3267 45.8997 42.5376 46.6031L50.6708 76.3832C50.902 77.148 51.9627 77.2193 52.2909 76.4976Z" fill="url(#paint12_linear_1838_7953)"/>
<path d="M56.9577 70.6825L61.48 61.6221C61.5109 61.5601 61.5565 61.5066 61.6129 61.4663C61.6693 61.426 61.7348 61.4002 61.8035 61.3911C61.8723 61.3819 61.9422 61.3898 62.0072 61.414C62.0722 61.4381 62.1302 61.4778 62.1763 61.5296L69.7527 70.0333C69.8178 70.1065 69.8968 70.1662 69.9851 70.2089C70.0733 70.2517 70.1692 70.2766 70.2671 70.2823C70.365 70.2881 70.4631 70.2745 70.5558 70.2423C70.6485 70.2102 70.7339 70.1601 70.8072 70.095L74.3094 66.9856C74.3834 66.9206 74.4438 66.8416 74.4871 66.7532C74.5304 66.6647 74.5558 66.5687 74.5617 66.4704C74.5677 66.3722 74.5542 66.2738 74.522 66.1808C74.4897 66.0878 74.4394 66.0021 74.3739 65.9286L66.7798 57.409C66.7324 57.356 66.6992 57.292 66.6832 57.2228C66.6671 57.1536 66.6688 57.0815 66.6881 57.0131C66.7073 56.9447 66.7435 56.8823 66.7934 56.8315C66.8432 56.7808 66.905 56.7434 66.9731 56.7228L76.8799 53.7015C77.0479 53.6607 77.1984 53.5674 77.3096 53.4353C77.4208 53.3032 77.4869 53.1391 77.4983 52.9669C77.5097 52.7948 77.4658 52.6234 77.373 52.4779C77.2802 52.3323 77.1434 52.22 76.9823 52.1574L48.3842 40.9081C47.7082 40.6183 46.9935 41.2182 47.2044 41.8955L55.3376 70.5724C55.5687 71.3088 56.6294 71.3784 56.9577 70.6825Z" fill="url(#paint13_linear_1838_7953)"/>
<path d="M228 102.667L223.333 135.333H200L195.333 102.667H228Z" fill="url(#paint14_linear_1838_7953)"/>
<path d="M230.333 98H193V106.167H230.333V98Z" fill="#E52E3B"/>
<path d="M225.667 98H196.5L199.079 93.3333H223.089L225.667 98Z" fill="#F6535E"/>
<path d="M203.48 86.9149V78.6104C203.48 77.566 203.065 76.5645 202.326 75.826C201.588 75.0876 200.586 74.6727 199.542 74.6727H193.842C192.692 74.6727 191.589 74.2165 190.775 73.4041C189.961 72.5918 189.502 71.4897 189.5 70.3396V53.6909C189.5 52.5394 189.957 51.435 190.772 50.6207C191.586 49.8065 192.69 49.349 193.842 49.349H206.85C207.894 49.349 208.896 48.9342 209.634 48.1957C210.373 47.4573 210.788 46.4557 210.788 45.4113V35.196C210.788 34.1517 211.202 33.1501 211.941 32.4117C212.679 31.6732 213.681 31.2584 214.725 31.2584H222.251C223.295 31.2584 224.297 30.8435 225.035 30.105C225.774 29.3666 226.188 28.365 226.188 27.3207V19.1043C226.188 18.06 226.603 17.0584 227.342 16.32C228.08 15.5815 229.082 15.1667 230.126 15.1667C231.17 15.1667 232.172 15.5815 232.91 16.32C233.649 17.0584 234.064 18.06 234.064 19.1043V37.3978C234.064 38.4422 233.649 39.4437 232.91 40.1822C232.172 40.9207 231.17 41.3355 230.126 41.3355H228.812C227.768 41.3355 226.766 41.7504 226.028 42.4888C225.289 43.2273 224.874 44.2288 224.874 45.2732V57.2067C224.874 57.7239 224.976 58.2362 225.174 58.7141C225.371 59.192 225.662 59.6262 226.027 59.992C226.393 60.3578 226.827 60.648 227.305 60.846C227.783 61.0439 228.295 61.1459 228.812 61.1459H230.123C231.167 61.1459 232.169 61.5607 232.907 62.2992C233.646 63.0376 234.061 64.0392 234.061 65.0835V71.1774C234.061 72.2218 233.646 73.2233 232.907 73.9618C232.169 74.7003 231.167 75.1151 230.123 75.1151H220.087C219.043 75.1151 218.041 75.53 217.303 76.2685C216.564 77.0069 216.149 78.0085 216.149 79.0528V86.9164C216.149 87.9607 215.735 88.9623 214.996 89.7007C214.258 90.4392 213.256 90.8541 212.212 90.8541H207.417C206.9 90.8541 206.388 90.7522 205.91 90.5542C205.432 90.3562 204.998 90.066 204.632 89.7002C204.267 89.3344 203.977 88.9002 203.779 88.4222C203.581 87.9443 203.479 87.4321 203.48 86.9149Z" fill="#ECEDEE"/>
<path d="M214.811 58.6883H202.687C201.557 58.6883 200.64 59.605 200.64 60.7358V63.6858C200.64 64.8165 201.557 65.7332 202.687 65.7332H214.811C215.941 65.7332 216.858 64.8165 216.858 63.6858V60.7358C216.858 59.605 215.941 58.6883 214.811 58.6883Z" fill="#FEFEFE"/>
<g style="mix-blend-mode:soft-light" opacity="0.6">
<path d="M218.667 106.167H214V135.333H218.667V106.167Z" fill="url(#paint15_linear_1838_7953)"/>
</g>
<mask id="mask0_1838_7953" style="mask-type:alpha" maskUnits="userSpaceOnUse" x="195" y="102" width="33" height="34">
<path d="M228 102.667L223.333 135.333H200L195.333 102.667H228Z" fill="url(#paint16_linear_1838_7953)"/>
</mask>
<g mask="url(#mask0_1838_7953)">
<g style="mix-blend-mode:soft-light" opacity="0.5">
<rect x="168" y="98" width="28" height="9" fill="url(#paint17_linear_1838_7953)"/>
</g>
</g>
</g>
<defs>
<filter id="filter0_d_1838_7953" x="0" y="0" width="272" height="148" filterUnits="userSpaceOnUse" color-interpolation-filters="sRGB">
<feFlood flood-opacity="0" result="BackgroundImageFix"/>
<feColorMatrix in="SourceAlpha" type="matrix" values="0 0 0 0 0 0 0 0 0 0 0 0 0 0 0 0 0 0 127 0" result="hardAlpha"/>
<feOffset dy="4"/>
<feGaussianBlur stdDeviation="2"/>
<feComposite in2="hardAlpha" operator="out"/>
<feColorMatrix type="matrix" values="0 0 0 0 0 0 0 0 0 0 0 0 0 0 0 0 0 0 0.25 0"/>
<feBlend mode="normal" in2="BackgroundImageFix" result="effect1_dropShadow_1838_7953"/>
<feBlend mode="normal" in="SourceGraphic" in2="effect1_dropShadow_1838_7953" result="shape"/>
</filter>
<linearGradient id="paint0_linear_1838_7953" x1="173.481" y1="77" x2="205.707" y2="114.245" gradientUnits="userSpaceOnUse">
<stop stop-color="#7E98FF"/>
<stop offset="1" stop-color="#435CBE"/>
</linearGradient>
<linearGradient id="paint1_linear_1838_7953" x1="140.724" y1="77" x2="152.981" y2="139.733" gradientUnits="userSpaceOnUse">
<stop stop-color="#7E98FF"/>
<stop offset="1" stop-color="#435CBE"/>
</linearGradient>
<linearGradient id="paint2_linear_1838_7953" x1="143.417" y1="74.6667" x2="143.417" y2="135.333" gradientUnits="userSpaceOnUse">
<stop stop-color="#7E98FF"/>
<stop offset="1" stop-color="#435CBE"/>
</linearGradient>
<linearGradient id="paint3_linear_1838_7953" x1="139.333" y1="98.0005" x2="175.5" y2="98.0005" gradientUnits="userSpaceOnUse">
<stop stop-color="#FEFEFC"/>
<stop offset="0.22" stop-color="#FEFEFD" stop-opacity="0.8"/>
<stop offset="1" stop-color="white" stop-opacity="0.1"/>
</linearGradient>
<linearGradient id="paint4_linear_1838_7953" x1="165.539" y1="74.6667" x2="165.539" y2="88.4671" gradientUnits="userSpaceOnUse">
<stop stop-color="#7E98FF"/>
<stop offset="1" stop-color="#435CBE"/>
</linearGradient>
<linearGradient id="paint5_linear_1838_7953" x1="132.332" y1="64.4272" x2="132.354" y2="135.333" gradientUnits="userSpaceOnUse">
<stop stop-color="#39F89C"/>
<stop offset="1" stop-color="#2EDD89"/>
</linearGradient>
<linearGradient id="paint6_linear_1838_7953" x1="134.667" y1="103.837" x2="139.333" y2="103.837" gradientUnits="userSpaceOnUse">
<stop stop-color="#FEFEFC"/>
<stop offset="0.22" stop-color="#FEFEFD" stop-opacity="0.8"/>
<stop offset="1" stop-color="white" stop-opacity="0.1"/>
</linearGradient>
<linearGradient id="paint7_linear_1838_7953" x1="125.333" y1="119" x2="139.333" y2="119" gradientUnits="userSpaceOnUse">
<stop stop-color="#FEFEFC"/>
<stop offset="0.22" stop-color="#FEFEFD" stop-opacity="0.8"/>
<stop offset="1" stop-color="white" stop-opacity="0.1"/>
</linearGradient>
<linearGradient id="paint8_linear_1838_7953" x1="76.3333" y1="140.187" x2="76.3333" y2="19.7514" gradientUnits="userSpaceOnUse">
<stop stop-color="#DEE0E2"/>
<stop offset="1" stop-color="#EFEFEF"/>
</linearGradient>
<linearGradient id="paint9_linear_1838_7953" x1="125.267" y1="95.6685" x2="-20.1463" y2="95.6685" gradientUnits="userSpaceOnUse">
<stop stop-color="#DEE0E2"/>
<stop offset="1" stop-color="#B4B9BE"/>
</linearGradient>
<linearGradient id="paint10_linear_1838_7953" x1="75.8038" y1="126.455" x2="75.8038" y2="102.453" gradientUnits="userSpaceOnUse">
<stop stop-color="#DEE0E2"/>
<stop offset="1" stop-color="#B4B9BE"/>
</linearGradient>
<linearGradient id="paint11_linear_1838_7953" x1="76.3328" y1="154.102" x2="76.3328" y2="88.1255" gradientUnits="userSpaceOnUse">
<stop stop-color="#DEE0E2"/>
<stop offset="1" stop-color="#B4B9BE"/>
</linearGradient>
<linearGradient id="paint12_linear_1838_7953" x1="43.6667" y1="46.7115" x2="47.698" y2="80.0403" gradientUnits="userSpaceOnUse">
<stop stop-color="#7E98FF"/>
<stop offset="1" stop-color="#435CBE"/>
</linearGradient>
<linearGradient id="paint13_linear_1838_7953" x1="48.3334" y1="42" x2="52.0755" y2="74.128" gradientUnits="userSpaceOnUse">
<stop stop-color="#7E98FF"/>
<stop offset="1" stop-color="#435CBE"/>
</linearGradient>
<linearGradient id="paint14_linear_1838_7953" x1="198.085" y1="120.89" x2="220.587" y2="116.927" gradientUnits="userSpaceOnUse">
<stop stop-color="#E64A56"/>
<stop offset="1" stop-color="#E52E3B"/>
</linearGradient>
<linearGradient id="paint15_linear_1838_7953" x1="218.442" y1="103.046" x2="207.777" y2="105.597" gradientUnits="userSpaceOnUse">
<stop stop-color="#FEFEFC"/>
<stop offset="1" stop-color="white" stop-opacity="0.1"/>
</linearGradient>
<linearGradient id="paint16_linear_1838_7953" x1="198.085" y1="120.89" x2="220.587" y2="116.927" gradientUnits="userSpaceOnUse">
<stop stop-color="#E64A56"/>
<stop offset="1" stop-color="#E52E3B"/>
</linearGradient>
<linearGradient id="paint17_linear_1838_7953" x1="168" y1="102.501" x2="196" y2="102.501" gradientUnits="userSpaceOnUse">
<stop stop-color="#FEFEFC"/>
<stop offset="0.22" stop-color="#FEFEFD" stop-opacity="0.8"/>
<stop offset="1" stop-color="white" stop-opacity="0.1"/>
</linearGradient>
</defs>
</svg>
