<svg width="1007" height="600" viewBox="0 0 1007 600" fill="none" xmlns="http://www.w3.org/2000/svg">
<path d="M1002.96 402.71C998.056 425.21 986.456 445.71 969.456 464.11C966.856 467.01 964.057 469.81 961.156 472.51C959.557 474.01 957.956 475.51 956.356 476.91C841.356 579.21 547.857 607.01 315.257 533.41C308.757 531.41 302.357 529.21 295.957 527.01C289.257 524.71 282.556 522.31 275.757 519.81C148.557 472.81 50.6565 393.71 10.9565 276.31C-42.4435 118.51 106.357 -49.2899 305.157 13.5101C424.357 51.2101 529.857 195.01 626.956 215.41C633.556 216.81 640.356 217.81 647.056 218.31C655.356 218.91 663.857 218.81 672.456 217.81C940.156 187.71 1027.06 292.81 1002.96 402.71Z" fill="url(#paint0_linear_6852_33660)"/>
<path opacity="0.29" d="M956.357 476.91C841.357 579.21 547.857 607.01 315.257 533.41C308.757 531.41 302.357 529.21 295.957 527.01C289.257 524.71 282.557 522.31 275.757 519.81L626.957 215.41L635.157 208.31L647.057 218.31L956.357 476.91Z" fill="#FF66B6"/>
<path d="M799.056 468.11L736.956 506.31L151.256 71.9102L218.756 22.7104C227.056 16.7104 236.956 13.4102 247.256 13.4102H782.156C799.956 13.4102 814.456 27.8104 814.456 45.7104V440.51C814.356 451.81 808.556 462.21 799.056 468.11Z" fill="url(#paint1_linear_6852_33660)"/>
<path d="M722.156 511.31H167.056C153.456 511.31 142.456 500.31 142.456 486.71V90.7104C142.456 77.1104 153.456 66.1104 167.056 66.1104H722.156C735.756 66.1104 746.756 77.1104 746.756 90.7104V486.71C746.656 500.31 735.656 511.31 722.156 511.31Z" fill="url(#paint2_linear_6852_33660)"/>
<path opacity="0.29" d="M695.156 476.41H202.556C193.656 476.41 186.456 469.21 186.456 460.31V126.71C186.456 117.81 193.656 110.61 202.556 110.61H695.056C704.056 110.61 711.356 117.91 711.356 126.91V460.21C711.356 469.11 704.156 476.41 695.156 476.41Z" fill="#3A008E"/>
<path d="M690.756 471.71H198.256C189.356 471.71 182.156 464.51 182.156 455.61V122.01C182.156 113.11 189.356 105.91 198.256 105.91H690.756C699.756 105.91 707.056 113.21 707.056 122.21V455.51C707.056 464.41 699.756 471.71 690.756 471.71Z" fill="url(#paint3_linear_6852_33660)"/>
<path d="M709.556 220.01C705.156 220.01 701.656 216.51 701.656 212.11V155.51C701.656 151.11 705.256 147.61 709.556 147.61C713.956 147.61 717.456 151.11 717.456 155.51V212.11C717.556 216.51 713.956 220.01 709.556 220.01Z" fill="url(#paint4_linear_6852_33660)"/>
<path d="M709.556 430.01C705.156 430.01 701.656 426.41 701.656 422.11V365.51C701.656 361.11 705.256 357.61 709.556 357.61C713.956 357.61 717.456 361.21 717.456 365.51V422.11C717.556 426.41 713.956 430.01 709.556 430.01Z" fill="url(#paint5_linear_6852_33660)"/>
<path d="M627.956 415.71H261.156C257.156 415.71 253.856 412.41 253.856 408.41V170.51C253.856 166.51 257.156 163.21 261.156 163.21H627.956C631.956 163.21 635.256 166.51 635.256 170.51V408.41C635.256 412.51 631.956 415.71 627.956 415.71Z" fill="url(#paint6_linear_6852_33660)"/>
<g opacity="0.16">
<mask id="mask0_6852_33660" style="mask-type:luminance" maskUnits="userSpaceOnUse" x="253" y="163" width="383" height="253">
<path d="M627.956 415.71H261.156C257.156 415.71 253.856 412.41 253.856 408.41V170.51C253.856 166.51 257.156 163.21 261.156 163.21H627.956C631.956 163.21 635.256 166.51 635.256 170.51V408.41C635.256 412.51 631.956 415.71 627.956 415.71Z" fill="white"/>
</mask>
<g mask="url(#mask0_6852_33660)">
<path d="M263.056 182.41H259.556C257.956 182.41 256.556 181.11 256.556 179.41V175.91C256.556 174.31 257.856 172.91 259.556 172.91H263.056C264.656 172.91 266.056 174.21 266.056 175.91V179.41C265.956 181.11 264.656 182.41 263.056 182.41Z" fill="#6EA9FF"/>
<path d="M263.056 206.01H259.556C257.956 206.01 256.556 204.71 256.556 203.01V199.51C256.556 197.91 257.856 196.51 259.556 196.51H263.056C264.656 196.51 266.056 197.81 266.056 199.51V203.01C265.956 204.71 264.656 206.01 263.056 206.01Z" fill="#6EA9FF"/>
<path d="M263.056 229.61H259.556C257.956 229.61 256.556 228.31 256.556 226.61V223.11C256.556 221.51 257.856 220.11 259.556 220.11H263.056C264.656 220.11 266.056 221.41 266.056 223.11V226.61C265.956 228.31 264.656 229.61 263.056 229.61Z" fill="#6EA9FF"/>
<path d="M263.056 253.21H259.556C257.956 253.21 256.556 251.91 256.556 250.21V246.71C256.556 245.11 257.856 243.71 259.556 243.71H263.056C264.656 243.71 266.056 245.01 266.056 246.71V250.21C265.956 251.91 264.656 253.21 263.056 253.21Z" fill="#6EA9FF"/>
<path d="M263.056 276.81H259.556C257.956 276.81 256.556 275.51 256.556 273.81V270.31C256.556 268.71 257.856 267.31 259.556 267.31H263.056C264.656 267.31 266.056 268.61 266.056 270.31V273.81C265.956 275.51 264.656 276.81 263.056 276.81Z" fill="#6EA9FF"/>
<path d="M263.056 300.41H259.556C257.956 300.41 256.556 299.11 256.556 297.41V293.91C256.556 292.31 257.856 290.91 259.556 290.91H263.056C264.656 290.91 266.056 292.21 266.056 293.91V297.41C265.956 299.01 264.656 300.41 263.056 300.41Z" fill="#6EA9FF"/>
<path d="M263.056 324.01H259.556C257.956 324.01 256.556 322.71 256.556 321.01V317.51C256.556 315.91 257.856 314.51 259.556 314.51H263.056C264.656 314.51 266.056 315.81 266.056 317.51V321.01C265.956 322.61 264.656 324.01 263.056 324.01Z" fill="#6EA9FF"/>
<path d="M263.056 347.51H259.556C257.956 347.51 256.556 346.21 256.556 344.51V341.01C256.556 339.41 257.856 338.01 259.556 338.01H263.056C264.656 338.01 266.056 339.31 266.056 341.01V344.51C265.956 346.21 264.656 347.51 263.056 347.51Z" fill="#6EA9FF"/>
<path d="M263.056 371.11H259.556C257.956 371.11 256.556 369.81 256.556 368.11V364.61C256.556 363.01 257.856 361.61 259.556 361.61H263.056C264.656 361.61 266.056 362.91 266.056 364.61V368.11C265.956 369.81 264.656 371.11 263.056 371.11Z" fill="#6EA9FF"/>
<path d="M263.056 394.71H259.556C257.956 394.71 256.556 393.41 256.556 391.71V388.21C256.556 386.61 257.856 385.21 259.556 385.21H263.056C264.656 385.21 266.056 386.51 266.056 388.21V391.71C265.956 393.41 264.656 394.71 263.056 394.71Z" fill="#6EA9FF"/>
<path d="M263.056 418.31H259.556C257.956 418.31 256.556 417.01 256.556 415.31V411.81C256.556 410.21 257.856 408.81 259.556 408.81H263.056C264.656 408.81 266.056 410.11 266.056 411.81V415.31C265.956 417.01 264.656 418.31 263.056 418.31Z" fill="#6EA9FF"/>
<path d="M280.456 170.51H276.956C275.356 170.51 273.956 169.21 273.956 167.51V164.01C273.956 162.41 275.256 161.01 276.956 161.01H280.456C282.056 161.01 283.456 162.31 283.456 164.01V167.51C283.356 169.11 282.056 170.51 280.456 170.51Z" fill="#6EA9FF"/>
<path d="M280.456 194.01H276.956C275.356 194.01 273.956 192.71 273.956 191.01V187.51C273.956 185.91 275.256 184.51 276.956 184.51H280.456C282.056 184.51 283.456 185.81 283.456 187.51V191.01C283.356 192.71 282.056 194.01 280.456 194.01Z" fill="#6EA9FF"/>
<path d="M280.456 217.61H276.956C275.356 217.61 273.956 216.31 273.956 214.61V211.11C273.956 209.51 275.256 208.11 276.956 208.11H280.456C282.056 208.11 283.456 209.41 283.456 211.11V214.61C283.356 216.31 282.056 217.61 280.456 217.61Z" fill="#6EA9FF"/>
<path d="M280.456 241.21H276.956C275.356 241.21 273.956 239.91 273.956 238.21V234.71C273.956 233.11 275.256 231.71 276.956 231.71H280.456C282.056 231.71 283.456 233.01 283.456 234.71V238.21C283.356 239.91 282.056 241.21 280.456 241.21Z" fill="#6EA9FF"/>
<path d="M280.456 264.81H276.956C275.356 264.81 273.956 263.51 273.956 261.81V258.31C273.956 256.71 275.256 255.31 276.956 255.31H280.456C282.056 255.31 283.456 256.61 283.456 258.31V261.81C283.356 263.51 282.056 264.81 280.456 264.81Z" fill="#6EA9FF"/>
<path d="M280.456 288.41H276.956C275.356 288.41 273.956 287.11 273.956 285.41V281.91C273.956 280.31 275.256 278.91 276.956 278.91H280.456C282.056 278.91 283.456 280.21 283.456 281.91V285.41C283.356 287.11 282.056 288.41 280.456 288.41Z" fill="#6EA9FF"/>
<path d="M280.456 312.01H276.956C275.356 312.01 273.956 310.71 273.956 309.01V305.51C273.956 303.91 275.256 302.51 276.956 302.51H280.456C282.056 302.51 283.456 303.81 283.456 305.51V309.01C283.356 310.71 282.056 312.01 280.456 312.01Z" fill="#6EA9FF"/>
<path d="M280.456 335.61H276.956C275.356 335.61 273.956 334.31 273.956 332.61V329.11C273.956 327.51 275.256 326.11 276.956 326.11H280.456C282.056 326.11 283.456 327.41 283.456 329.11V332.61C283.356 334.21 282.056 335.61 280.456 335.61Z" fill="#6EA9FF"/>
<path d="M280.456 359.11H276.956C275.356 359.11 273.956 357.81 273.956 356.11V352.61C273.956 351.01 275.256 349.61 276.956 349.61H280.456C282.056 349.61 283.456 350.91 283.456 352.61V356.11C283.356 357.81 282.056 359.11 280.456 359.11Z" fill="#6EA9FF"/>
<path d="M280.456 382.71H276.956C275.356 382.71 273.956 381.41 273.956 379.71V376.21C273.956 374.61 275.256 373.21 276.956 373.21H280.456C282.056 373.21 283.456 374.51 283.456 376.21V379.71C283.356 381.41 282.056 382.71 280.456 382.71Z" fill="#6EA9FF"/>
<path d="M280.456 406.31H276.956C275.356 406.31 273.956 405.01 273.956 403.31V399.81C273.956 398.21 275.256 396.81 276.956 396.81H280.456C282.056 396.81 283.456 398.11 283.456 399.81V403.31C283.356 405.01 282.056 406.31 280.456 406.31Z" fill="#6EA9FF"/>
<path d="M297.156 182.41H293.656C292.056 182.41 290.656 181.11 290.656 179.41V175.91C290.656 174.31 291.956 172.91 293.656 172.91H297.156C298.756 172.91 300.156 174.21 300.156 175.91V179.41C300.156 181.11 298.856 182.41 297.156 182.41Z" fill="#6EA9FF"/>
<path d="M297.156 206.01H293.656C292.056 206.01 290.656 204.71 290.656 203.01V199.51C290.656 197.91 291.956 196.51 293.656 196.51H297.156C298.756 196.51 300.156 197.81 300.156 199.51V203.01C300.156 204.71 298.856 206.01 297.156 206.01Z" fill="#6EA9FF"/>
<path d="M297.156 229.61H293.656C292.056 229.61 290.656 228.31 290.656 226.61V223.11C290.656 221.51 291.956 220.11 293.656 220.11H297.156C298.756 220.11 300.156 221.41 300.156 223.11V226.61C300.156 228.31 298.856 229.61 297.156 229.61Z" fill="#6EA9FF"/>
<path d="M297.156 253.21H293.656C292.056 253.21 290.656 251.91 290.656 250.21V246.71C290.656 245.11 291.956 243.71 293.656 243.71H297.156C298.756 243.71 300.156 245.01 300.156 246.71V250.21C300.156 251.91 298.856 253.21 297.156 253.21Z" fill="#6EA9FF"/>
<path d="M297.156 276.81H293.656C292.056 276.81 290.656 275.51 290.656 273.81V270.31C290.656 268.71 291.956 267.31 293.656 267.31H297.156C298.756 267.31 300.156 268.61 300.156 270.31V273.81C300.156 275.51 298.856 276.81 297.156 276.81Z" fill="#6EA9FF"/>
<path d="M297.156 300.41H293.656C292.056 300.41 290.656 299.11 290.656 297.41V293.91C290.656 292.31 291.956 290.91 293.656 290.91H297.156C298.756 290.91 300.156 292.21 300.156 293.91V297.41C300.156 299.01 298.856 300.41 297.156 300.41Z" fill="#6EA9FF"/>
<path d="M297.156 324.01H293.656C292.056 324.01 290.656 322.71 290.656 321.01V317.51C290.656 315.91 291.956 314.51 293.656 314.51H297.156C298.756 314.51 300.156 315.81 300.156 317.51V321.01C300.156 322.61 298.856 324.01 297.156 324.01Z" fill="#6EA9FF"/>
<path d="M297.156 347.51H293.656C292.056 347.51 290.656 346.21 290.656 344.51V341.01C290.656 339.41 291.956 338.01 293.656 338.01H297.156C298.756 338.01 300.156 339.31 300.156 341.01V344.51C300.156 346.21 298.856 347.51 297.156 347.51Z" fill="#6EA9FF"/>
<path d="M297.156 371.11H293.656C292.056 371.11 290.656 369.81 290.656 368.11V364.61C290.656 363.01 291.956 361.61 293.656 361.61H297.156C298.756 361.61 300.156 362.91 300.156 364.61V368.11C300.156 369.81 298.856 371.11 297.156 371.11Z" fill="#6EA9FF"/>
<path d="M297.156 394.71H293.656C292.056 394.71 290.656 393.41 290.656 391.71V388.21C290.656 386.61 291.956 385.21 293.656 385.21H297.156C298.756 385.21 300.156 386.51 300.156 388.21V391.71C300.156 393.41 298.856 394.71 297.156 394.71Z" fill="#6EA9FF"/>
<path d="M297.156 418.31H293.656C292.056 418.31 290.656 417.01 290.656 415.31V411.81C290.656 410.21 291.956 408.81 293.656 408.81H297.156C298.756 408.81 300.156 410.11 300.156 411.81V415.31C300.156 417.01 298.856 418.31 297.156 418.31Z" fill="#6EA9FF"/>
<path d="M314.556 170.51H311.056C309.456 170.51 308.056 169.21 308.056 167.51V164.01C308.056 162.41 309.356 161.01 311.056 161.01H314.556C316.156 161.01 317.556 162.31 317.556 164.01V167.51C317.556 169.11 316.256 170.51 314.556 170.51Z" fill="#6EA9FF"/>
<path d="M314.556 194.01H311.056C309.456 194.01 308.056 192.71 308.056 191.01V187.51C308.056 185.91 309.356 184.51 311.056 184.51H314.556C316.156 184.51 317.556 185.81 317.556 187.51V191.01C317.556 192.71 316.256 194.01 314.556 194.01Z" fill="#6EA9FF"/>
<path d="M314.556 217.61H311.056C309.456 217.61 308.056 216.31 308.056 214.61V211.11C308.056 209.51 309.356 208.11 311.056 208.11H314.556C316.156 208.11 317.556 209.41 317.556 211.11V214.61C317.556 216.31 316.256 217.61 314.556 217.61Z" fill="#6EA9FF"/>
<path d="M314.556 241.21H311.056C309.456 241.21 308.056 239.91 308.056 238.21V234.71C308.056 233.11 309.356 231.71 311.056 231.71H314.556C316.156 231.71 317.556 233.01 317.556 234.71V238.21C317.556 239.91 316.256 241.21 314.556 241.21Z" fill="#6EA9FF"/>
<path d="M314.556 264.81H311.056C309.456 264.81 308.056 263.51 308.056 261.81V258.31C308.056 256.71 309.356 255.31 311.056 255.31H314.556C316.156 255.31 317.556 256.61 317.556 258.31V261.81C317.556 263.51 316.256 264.81 314.556 264.81Z" fill="#6EA9FF"/>
<path d="M314.556 288.41H311.056C309.456 288.41 308.056 287.11 308.056 285.41V281.91C308.056 280.31 309.356 278.91 311.056 278.91H314.556C316.156 278.91 317.556 280.21 317.556 281.91V285.41C317.556 287.11 316.256 288.41 314.556 288.41Z" fill="#6EA9FF"/>
<path d="M314.556 312.01H311.056C309.456 312.01 308.056 310.71 308.056 309.01V305.51C308.056 303.91 309.356 302.51 311.056 302.51H314.556C316.156 302.51 317.556 303.81 317.556 305.51V309.01C317.556 310.71 316.256 312.01 314.556 312.01Z" fill="#6EA9FF"/>
<path d="M314.556 335.61H311.056C309.456 335.61 308.056 334.31 308.056 332.61V329.11C308.056 327.51 309.356 326.11 311.056 326.11H314.556C316.156 326.11 317.556 327.41 317.556 329.11V332.61C317.556 334.21 316.256 335.61 314.556 335.61Z" fill="#6EA9FF"/>
<path d="M314.556 359.11H311.056C309.456 359.11 308.056 357.81 308.056 356.11V352.61C308.056 351.01 309.356 349.61 311.056 349.61H314.556C316.156 349.61 317.556 350.91 317.556 352.61V356.11C317.556 357.81 316.256 359.11 314.556 359.11Z" fill="#6EA9FF"/>
<path d="M314.556 382.71H311.056C309.456 382.71 308.056 381.41 308.056 379.71V376.21C308.056 374.61 309.356 373.21 311.056 373.21H314.556C316.156 373.21 317.556 374.51 317.556 376.21V379.71C317.556 381.41 316.256 382.71 314.556 382.71Z" fill="#6EA9FF"/>
<path d="M314.556 406.31H311.056C309.456 406.31 308.056 405.01 308.056 403.31V399.81C308.056 398.21 309.356 396.81 311.056 396.81H314.556C316.156 396.81 317.556 398.11 317.556 399.81V403.31C317.556 405.01 316.256 406.31 314.556 406.31Z" fill="#6EA9FF"/>
<path d="M331.356 182.41H327.756C326.156 182.41 324.756 181.11 324.756 179.41V175.91C324.756 174.31 326.056 172.91 327.756 172.91H331.256C332.856 172.91 334.256 174.21 334.256 175.91V179.41C334.256 181.11 332.956 182.41 331.356 182.41Z" fill="#6EA9FF"/>
<path d="M331.356 206.01H327.756C326.156 206.01 324.756 204.71 324.756 203.01V199.51C324.756 197.91 326.056 196.51 327.756 196.51H331.256C332.856 196.51 334.256 197.81 334.256 199.51V203.01C334.256 204.71 332.956 206.01 331.356 206.01Z" fill="#6EA9FF"/>
<path d="M331.356 229.61H327.756C326.156 229.61 324.756 228.31 324.756 226.61V223.11C324.756 221.51 326.056 220.11 327.756 220.11H331.256C332.856 220.11 334.256 221.41 334.256 223.11V226.61C334.256 228.31 332.956 229.61 331.356 229.61Z" fill="#6EA9FF"/>
<path d="M331.356 253.21H327.756C326.156 253.21 324.756 251.91 324.756 250.21V246.71C324.756 245.11 326.056 243.71 327.756 243.71H331.256C332.856 243.71 334.256 245.01 334.256 246.71V250.21C334.256 251.91 332.956 253.21 331.356 253.21Z" fill="#6EA9FF"/>
<path d="M331.356 276.81H327.756C326.156 276.81 324.756 275.51 324.756 273.81V270.31C324.756 268.71 326.056 267.31 327.756 267.31H331.256C332.856 267.31 334.256 268.61 334.256 270.31V273.81C334.256 275.51 332.956 276.81 331.356 276.81Z" fill="#6EA9FF"/>
<path d="M331.356 300.41H327.756C326.156 300.41 324.756 299.11 324.756 297.41V293.91C324.756 292.31 326.056 290.91 327.756 290.91H331.256C332.856 290.91 334.256 292.21 334.256 293.91V297.41C334.256 299.01 332.956 300.41 331.356 300.41Z" fill="#6EA9FF"/>
<path d="M331.356 324.01H327.756C326.156 324.01 324.756 322.71 324.756 321.01V317.51C324.756 315.91 326.056 314.51 327.756 314.51H331.256C332.856 314.51 334.256 315.81 334.256 317.51V321.01C334.256 322.61 332.956 324.01 331.356 324.01Z" fill="#6EA9FF"/>
<path d="M331.356 347.51H327.756C326.156 347.51 324.756 346.21 324.756 344.51V341.01C324.756 339.41 326.056 338.01 327.756 338.01H331.256C332.856 338.01 334.256 339.31 334.256 341.01V344.51C334.256 346.21 332.956 347.51 331.356 347.51Z" fill="#6EA9FF"/>
<path d="M331.356 371.11H327.756C326.156 371.11 324.756 369.81 324.756 368.11V364.61C324.756 363.01 326.056 361.61 327.756 361.61H331.256C332.856 361.61 334.256 362.91 334.256 364.61V368.11C334.256 369.81 332.956 371.11 331.356 371.11Z" fill="#6EA9FF"/>
<path d="M331.356 394.71H327.756C326.156 394.71 324.756 393.41 324.756 391.71V388.21C324.756 386.61 326.056 385.21 327.756 385.21H331.256C332.856 385.21 334.256 386.51 334.256 388.21V391.71C334.256 393.41 332.956 394.71 331.356 394.71Z" fill="#6EA9FF"/>
<path d="M331.356 418.31H327.756C326.156 418.31 324.756 417.01 324.756 415.31V411.81C324.756 410.21 326.056 408.81 327.756 408.81H331.256C332.856 408.81 334.256 410.11 334.256 411.81V415.31C334.256 417.01 332.956 418.31 331.356 418.31Z" fill="#6EA9FF"/>
<path d="M348.756 170.51H345.256C343.656 170.51 342.256 169.21 342.256 167.51V164.01C342.256 162.41 343.556 161.01 345.256 161.01H348.756C350.356 161.01 351.756 162.31 351.756 164.01V167.51C351.656 169.11 350.356 170.51 348.756 170.51Z" fill="#6EA9FF"/>
<path d="M348.756 194.01H345.256C343.656 194.01 342.256 192.71 342.256 191.01V187.51C342.256 185.91 343.556 184.51 345.256 184.51H348.756C350.356 184.51 351.756 185.81 351.756 187.51V191.01C351.656 192.71 350.356 194.01 348.756 194.01Z" fill="#6EA9FF"/>
<path d="M348.756 217.61H345.256C343.656 217.61 342.256 216.31 342.256 214.61V211.11C342.256 209.51 343.556 208.11 345.256 208.11H348.756C350.356 208.11 351.756 209.41 351.756 211.11V214.61C351.656 216.31 350.356 217.61 348.756 217.61Z" fill="#6EA9FF"/>
<path d="M348.756 241.21H345.256C343.656 241.21 342.256 239.91 342.256 238.21V234.71C342.256 233.11 343.556 231.71 345.256 231.71H348.756C350.356 231.71 351.756 233.01 351.756 234.71V238.21C351.656 239.91 350.356 241.21 348.756 241.21Z" fill="#6EA9FF"/>
<path d="M348.756 264.81H345.256C343.656 264.81 342.256 263.51 342.256 261.81V258.31C342.256 256.71 343.556 255.31 345.256 255.31H348.756C350.356 255.31 351.756 256.61 351.756 258.31V261.81C351.656 263.51 350.356 264.81 348.756 264.81Z" fill="#6EA9FF"/>
<path d="M348.756 288.41H345.256C343.656 288.41 342.256 287.11 342.256 285.41V281.91C342.256 280.31 343.556 278.91 345.256 278.91H348.756C350.356 278.91 351.756 280.21 351.756 281.91V285.41C351.656 287.11 350.356 288.41 348.756 288.41Z" fill="#6EA9FF"/>
<path d="M348.756 312.01H345.256C343.656 312.01 342.256 310.71 342.256 309.01V305.51C342.256 303.91 343.556 302.51 345.256 302.51H348.756C350.356 302.51 351.756 303.81 351.756 305.51V309.01C351.656 310.71 350.356 312.01 348.756 312.01Z" fill="#6EA9FF"/>
<path d="M348.756 335.61H345.256C343.656 335.61 342.256 334.31 342.256 332.61V329.11C342.256 327.51 343.556 326.11 345.256 326.11H348.756C350.356 326.11 351.756 327.41 351.756 329.11V332.61C351.656 334.21 350.356 335.61 348.756 335.61Z" fill="#6EA9FF"/>
<path d="M348.756 359.11H345.256C343.656 359.11 342.256 357.81 342.256 356.11V352.61C342.256 351.01 343.556 349.61 345.256 349.61H348.756C350.356 349.61 351.756 350.91 351.756 352.61V356.11C351.656 357.81 350.356 359.11 348.756 359.11Z" fill="#6EA9FF"/>
<path d="M348.756 382.71H345.256C343.656 382.71 342.256 381.41 342.256 379.71V376.21C342.256 374.61 343.556 373.21 345.256 373.21H348.756C350.356 373.21 351.756 374.51 351.756 376.21V379.71C351.656 381.41 350.356 382.71 348.756 382.71Z" fill="#6EA9FF"/>
<path d="M348.756 406.31H345.256C343.656 406.31 342.256 405.01 342.256 403.31V399.81C342.256 398.21 343.556 396.81 345.256 396.81H348.756C350.356 396.81 351.756 398.11 351.756 399.81V403.31C351.656 405.01 350.356 406.31 348.756 406.31Z" fill="#6EA9FF"/>
<path d="M365.456 182.41H361.956C360.356 182.41 358.956 181.11 358.956 179.41V175.91C358.956 174.31 360.256 172.91 361.956 172.91H365.456C367.056 172.91 368.456 174.21 368.456 175.91V179.41C368.456 181.11 367.156 182.41 365.456 182.41Z" fill="#6EA9FF"/>
<path d="M365.456 206.01H361.956C360.356 206.01 358.956 204.71 358.956 203.01V199.51C358.956 197.91 360.256 196.51 361.956 196.51H365.456C367.056 196.51 368.456 197.81 368.456 199.51V203.01C368.456 204.71 367.156 206.01 365.456 206.01Z" fill="#6EA9FF"/>
<path d="M365.456 229.61H361.956C360.356 229.61 358.956 228.31 358.956 226.61V223.11C358.956 221.51 360.256 220.11 361.956 220.11H365.456C367.056 220.11 368.456 221.41 368.456 223.11V226.61C368.456 228.31 367.156 229.61 365.456 229.61Z" fill="#6EA9FF"/>
<path d="M365.456 253.21H361.956C360.356 253.21 358.956 251.91 358.956 250.21V246.71C358.956 245.11 360.256 243.71 361.956 243.71H365.456C367.056 243.71 368.456 245.01 368.456 246.71V250.21C368.456 251.91 367.156 253.21 365.456 253.21Z" fill="#6EA9FF"/>
<path d="M365.456 276.81H361.956C360.356 276.81 358.956 275.51 358.956 273.81V270.31C358.956 268.71 360.256 267.31 361.956 267.31H365.456C367.056 267.31 368.456 268.61 368.456 270.31V273.81C368.456 275.51 367.156 276.81 365.456 276.81Z" fill="#6EA9FF"/>
<path d="M365.456 300.41H361.956C360.356 300.41 358.956 299.11 358.956 297.41V293.91C358.956 292.31 360.256 290.91 361.956 290.91H365.456C367.056 290.91 368.456 292.21 368.456 293.91V297.41C368.456 299.01 367.156 300.41 365.456 300.41Z" fill="#6EA9FF"/>
<path d="M365.456 324.01H361.956C360.356 324.01 358.956 322.71 358.956 321.01V317.51C358.956 315.91 360.256 314.51 361.956 314.51H365.456C367.056 314.51 368.456 315.81 368.456 317.51V321.01C368.456 322.61 367.156 324.01 365.456 324.01Z" fill="#6EA9FF"/>
<path d="M365.456 347.51H361.956C360.356 347.51 358.956 346.21 358.956 344.51V341.01C358.956 339.41 360.256 338.01 361.956 338.01H365.456C367.056 338.01 368.456 339.31 368.456 341.01V344.51C368.456 346.21 367.156 347.51 365.456 347.51Z" fill="#6EA9FF"/>
<path d="M365.456 371.11H361.956C360.356 371.11 358.956 369.81 358.956 368.11V364.61C358.956 363.01 360.256 361.61 361.956 361.61H365.456C367.056 361.61 368.456 362.91 368.456 364.61V368.11C368.456 369.81 367.156 371.11 365.456 371.11Z" fill="#6EA9FF"/>
<path d="M365.456 394.71H361.956C360.356 394.71 358.956 393.41 358.956 391.71V388.21C358.956 386.61 360.256 385.21 361.956 385.21H365.456C367.056 385.21 368.456 386.51 368.456 388.21V391.71C368.456 393.41 367.156 394.71 365.456 394.71Z" fill="#6EA9FF"/>
<path d="M365.456 418.31H361.956C360.356 418.31 358.956 417.01 358.956 415.31V411.81C358.956 410.21 360.256 408.81 361.956 408.81H365.456C367.056 408.81 368.456 410.11 368.456 411.81V415.31C368.456 417.01 367.156 418.31 365.456 418.31Z" fill="#6EA9FF"/>
<path d="M382.856 170.51H379.356C377.756 170.51 376.356 169.21 376.356 167.51V164.01C376.356 162.41 377.656 161.01 379.356 161.01H382.856C384.456 161.01 385.856 162.31 385.856 164.01V167.51C385.856 169.11 384.556 170.51 382.856 170.51Z" fill="#6EA9FF"/>
<path d="M382.856 194.01H379.356C377.756 194.01 376.356 192.71 376.356 191.01V187.51C376.356 185.91 377.656 184.51 379.356 184.51H382.856C384.456 184.51 385.856 185.81 385.856 187.51V191.01C385.856 192.71 384.556 194.01 382.856 194.01Z" fill="#6EA9FF"/>
<path d="M382.856 217.61H379.356C377.756 217.61 376.356 216.31 376.356 214.61V211.11C376.356 209.51 377.656 208.11 379.356 208.11H382.856C384.456 208.11 385.856 209.41 385.856 211.11V214.61C385.856 216.31 384.556 217.61 382.856 217.61Z" fill="#6EA9FF"/>
<path d="M382.856 241.21H379.356C377.756 241.21 376.356 239.91 376.356 238.21V234.71C376.356 233.11 377.656 231.71 379.356 231.71H382.856C384.456 231.71 385.856 233.01 385.856 234.71V238.21C385.856 239.91 384.556 241.21 382.856 241.21Z" fill="#6EA9FF"/>
<path d="M382.856 264.81H379.356C377.756 264.81 376.356 263.51 376.356 261.81V258.31C376.356 256.71 377.656 255.31 379.356 255.31H382.856C384.456 255.31 385.856 256.61 385.856 258.31V261.81C385.856 263.51 384.556 264.81 382.856 264.81Z" fill="#6EA9FF"/>
<path d="M382.856 288.41H379.356C377.756 288.41 376.356 287.11 376.356 285.41V281.91C376.356 280.31 377.656 278.91 379.356 278.91H382.856C384.456 278.91 385.856 280.21 385.856 281.91V285.41C385.856 287.11 384.556 288.41 382.856 288.41Z" fill="#6EA9FF"/>
<path d="M382.856 312.01H379.356C377.756 312.01 376.356 310.71 376.356 309.01V305.51C376.356 303.91 377.656 302.51 379.356 302.51H382.856C384.456 302.51 385.856 303.81 385.856 305.51V309.01C385.856 310.71 384.556 312.01 382.856 312.01Z" fill="#6EA9FF"/>
<path d="M382.856 335.61H379.356C377.756 335.61 376.356 334.31 376.356 332.61V329.11C376.356 327.51 377.656 326.11 379.356 326.11H382.856C384.456 326.11 385.856 327.41 385.856 329.11V332.61C385.856 334.21 384.556 335.61 382.856 335.61Z" fill="#6EA9FF"/>
<path d="M382.856 359.11H379.356C377.756 359.11 376.356 357.81 376.356 356.11V352.61C376.356 351.01 377.656 349.61 379.356 349.61H382.856C384.456 349.61 385.856 350.91 385.856 352.61V356.11C385.856 357.81 384.556 359.11 382.856 359.11Z" fill="#6EA9FF"/>
<path d="M382.856 382.71H379.356C377.756 382.71 376.356 381.41 376.356 379.71V376.21C376.356 374.61 377.656 373.21 379.356 373.21H382.856C384.456 373.21 385.856 374.51 385.856 376.21V379.71C385.856 381.41 384.556 382.71 382.856 382.71Z" fill="#6EA9FF"/>
<path d="M382.856 406.31H379.356C377.756 406.31 376.356 405.01 376.356 403.31V399.81C376.356 398.21 377.656 396.81 379.356 396.81H382.856C384.456 396.81 385.856 398.11 385.856 399.81V403.31C385.856 405.01 384.556 406.31 382.856 406.31Z" fill="#6EA9FF"/>
<path d="M399.656 182.41H396.156C394.556 182.41 393.156 181.11 393.156 179.41V175.91C393.156 174.31 394.456 172.91 396.156 172.91H399.656C401.256 172.91 402.656 174.21 402.656 175.91V179.41C402.556 181.11 401.256 182.41 399.656 182.41Z" fill="#6EA9FF"/>
<path d="M399.656 206.01H396.156C394.556 206.01 393.156 204.71 393.156 203.01V199.51C393.156 197.91 394.456 196.51 396.156 196.51H399.656C401.256 196.51 402.656 197.81 402.656 199.51V203.01C402.556 204.71 401.256 206.01 399.656 206.01Z" fill="#6EA9FF"/>
<path d="M399.656 229.61H396.156C394.556 229.61 393.156 228.31 393.156 226.61V223.11C393.156 221.51 394.456 220.11 396.156 220.11H399.656C401.256 220.11 402.656 221.41 402.656 223.11V226.61C402.556 228.31 401.256 229.61 399.656 229.61Z" fill="#6EA9FF"/>
<path d="M399.656 253.21H396.156C394.556 253.21 393.156 251.91 393.156 250.21V246.71C393.156 245.11 394.456 243.71 396.156 243.71H399.656C401.256 243.71 402.656 245.01 402.656 246.71V250.21C402.556 251.91 401.256 253.21 399.656 253.21Z" fill="#6EA9FF"/>
<path d="M399.656 276.81H396.156C394.556 276.81 393.156 275.51 393.156 273.81V270.31C393.156 268.71 394.456 267.31 396.156 267.31H399.656C401.256 267.31 402.656 268.61 402.656 270.31V273.81C402.556 275.51 401.256 276.81 399.656 276.81Z" fill="#6EA9FF"/>
<path d="M399.656 300.41H396.156C394.556 300.41 393.156 299.11 393.156 297.41V293.91C393.156 292.31 394.456 290.91 396.156 290.91H399.656C401.256 290.91 402.656 292.21 402.656 293.91V297.41C402.556 299.01 401.256 300.41 399.656 300.41Z" fill="#6EA9FF"/>
<path d="M399.656 324.01H396.156C394.556 324.01 393.156 322.71 393.156 321.01V317.51C393.156 315.91 394.456 314.51 396.156 314.51H399.656C401.256 314.51 402.656 315.81 402.656 317.51V321.01C402.556 322.61 401.256 324.01 399.656 324.01Z" fill="#6EA9FF"/>
<path d="M399.656 347.51H396.156C394.556 347.51 393.156 346.21 393.156 344.51V341.01C393.156 339.41 394.456 338.01 396.156 338.01H399.656C401.256 338.01 402.656 339.31 402.656 341.01V344.51C402.556 346.21 401.256 347.51 399.656 347.51Z" fill="#6EA9FF"/>
<path d="M399.656 371.11H396.156C394.556 371.11 393.156 369.81 393.156 368.11V364.61C393.156 363.01 394.456 361.61 396.156 361.61H399.656C401.256 361.61 402.656 362.91 402.656 364.61V368.11C402.556 369.81 401.256 371.11 399.656 371.11Z" fill="#6EA9FF"/>
<path d="M399.656 394.71H396.156C394.556 394.71 393.156 393.41 393.156 391.71V388.21C393.156 386.61 394.456 385.21 396.156 385.21H399.656C401.256 385.21 402.656 386.51 402.656 388.21V391.71C402.556 393.41 401.256 394.71 399.656 394.71Z" fill="#6EA9FF"/>
<path d="M399.656 418.31H396.156C394.556 418.31 393.156 417.01 393.156 415.31V411.81C393.156 410.21 394.456 408.81 396.156 408.81H399.656C401.256 408.81 402.656 410.11 402.656 411.81V415.31C402.556 417.01 401.256 418.31 399.656 418.31Z" fill="#6EA9FF"/>
<path d="M417.056 170.51H413.556C411.956 170.51 410.556 169.21 410.556 167.51V164.01C410.556 162.41 411.856 161.01 413.556 161.01H417.056C418.656 161.01 420.056 162.31 420.056 164.01V167.51C419.956 169.11 418.656 170.51 417.056 170.51Z" fill="#6EA9FF"/>
<path d="M417.056 194.01H413.556C411.956 194.01 410.556 192.71 410.556 191.01V187.51C410.556 185.91 411.856 184.51 413.556 184.51H417.056C418.656 184.51 420.056 185.81 420.056 187.51V191.01C419.956 192.71 418.656 194.01 417.056 194.01Z" fill="#6EA9FF"/>
<path d="M417.056 217.61H413.556C411.956 217.61 410.556 216.31 410.556 214.61V211.11C410.556 209.51 411.856 208.11 413.556 208.11H417.056C418.656 208.11 420.056 209.41 420.056 211.11V214.61C419.956 216.31 418.656 217.61 417.056 217.61Z" fill="#6EA9FF"/>
<path d="M417.056 241.21H413.556C411.956 241.21 410.556 239.91 410.556 238.21V234.71C410.556 233.11 411.856 231.71 413.556 231.71H417.056C418.656 231.71 420.056 233.01 420.056 234.71V238.21C419.956 239.91 418.656 241.21 417.056 241.21Z" fill="#6EA9FF"/>
<path d="M417.056 264.81H413.556C411.956 264.81 410.556 263.51 410.556 261.81V258.31C410.556 256.71 411.856 255.31 413.556 255.31H417.056C418.656 255.31 420.056 256.61 420.056 258.31V261.81C419.956 263.51 418.656 264.81 417.056 264.81Z" fill="#6EA9FF"/>
<path d="M417.056 288.41H413.556C411.956 288.41 410.556 287.11 410.556 285.41V281.91C410.556 280.31 411.856 278.91 413.556 278.91H417.056C418.656 278.91 420.056 280.21 420.056 281.91V285.41C419.956 287.11 418.656 288.41 417.056 288.41Z" fill="#6EA9FF"/>
<path d="M417.056 312.01H413.556C411.956 312.01 410.556 310.71 410.556 309.01V305.51C410.556 303.91 411.856 302.51 413.556 302.51H417.056C418.656 302.51 420.056 303.81 420.056 305.51V309.01C419.956 310.71 418.656 312.01 417.056 312.01Z" fill="#6EA9FF"/>
<path d="M417.056 335.61H413.556C411.956 335.61 410.556 334.31 410.556 332.61V329.11C410.556 327.51 411.856 326.11 413.556 326.11H417.056C418.656 326.11 420.056 327.41 420.056 329.11V332.61C419.956 334.21 418.656 335.61 417.056 335.61Z" fill="#6EA9FF"/>
<path d="M417.056 359.11H413.556C411.956 359.11 410.556 357.81 410.556 356.11V352.61C410.556 351.01 411.856 349.61 413.556 349.61H417.056C418.656 349.61 420.056 350.91 420.056 352.61V356.11C419.956 357.81 418.656 359.11 417.056 359.11Z" fill="#6EA9FF"/>
<path d="M417.056 382.71H413.556C411.956 382.71 410.556 381.41 410.556 379.71V376.21C410.556 374.61 411.856 373.21 413.556 373.21H417.056C418.656 373.21 420.056 374.51 420.056 376.21V379.71C419.956 381.41 418.656 382.71 417.056 382.71Z" fill="#6EA9FF"/>
<path d="M417.056 406.31H413.556C411.956 406.31 410.556 405.01 410.556 403.31V399.81C410.556 398.21 411.856 396.81 413.556 396.81H417.056C418.656 396.81 420.056 398.11 420.056 399.81V403.31C419.956 405.01 418.656 406.31 417.056 406.31Z" fill="#6EA9FF"/>
<path d="M433.756 182.41H430.256C428.656 182.41 427.256 181.11 427.256 179.41V175.91C427.256 174.31 428.556 172.91 430.256 172.91H433.756C435.356 172.91 436.756 174.21 436.756 175.91V179.41C436.756 181.11 435.456 182.41 433.756 182.41Z" fill="#6EA9FF"/>
<path d="M433.756 206.01H430.256C428.656 206.01 427.256 204.71 427.256 203.01V199.51C427.256 197.91 428.556 196.51 430.256 196.51H433.756C435.356 196.51 436.756 197.81 436.756 199.51V203.01C436.756 204.71 435.456 206.01 433.756 206.01Z" fill="#6EA9FF"/>
<path d="M433.756 229.61H430.256C428.656 229.61 427.256 228.31 427.256 226.61V223.11C427.256 221.51 428.556 220.11 430.256 220.11H433.756C435.356 220.11 436.756 221.41 436.756 223.11V226.61C436.756 228.31 435.456 229.61 433.756 229.61Z" fill="#6EA9FF"/>
<path d="M433.756 253.21H430.256C428.656 253.21 427.256 251.91 427.256 250.21V246.71C427.256 245.11 428.556 243.71 430.256 243.71H433.756C435.356 243.71 436.756 245.01 436.756 246.71V250.21C436.756 251.91 435.456 253.21 433.756 253.21Z" fill="#6EA9FF"/>
<path d="M433.756 276.81H430.256C428.656 276.81 427.256 275.51 427.256 273.81V270.31C427.256 268.71 428.556 267.31 430.256 267.31H433.756C435.356 267.31 436.756 268.61 436.756 270.31V273.81C436.756 275.51 435.456 276.81 433.756 276.81Z" fill="#6EA9FF"/>
<path d="M433.756 300.41H430.256C428.656 300.41 427.256 299.11 427.256 297.41V293.91C427.256 292.31 428.556 290.91 430.256 290.91H433.756C435.356 290.91 436.756 292.21 436.756 293.91V297.41C436.756 299.01 435.456 300.41 433.756 300.41Z" fill="#6EA9FF"/>
<path d="M433.756 324.01H430.256C428.656 324.01 427.256 322.71 427.256 321.01V317.51C427.256 315.91 428.556 314.51 430.256 314.51H433.756C435.356 314.51 436.756 315.81 436.756 317.51V321.01C436.756 322.61 435.456 324.01 433.756 324.01Z" fill="#6EA9FF"/>
<path d="M433.756 347.51H430.256C428.656 347.51 427.256 346.21 427.256 344.51V341.01C427.256 339.41 428.556 338.01 430.256 338.01H433.756C435.356 338.01 436.756 339.31 436.756 341.01V344.51C436.756 346.21 435.456 347.51 433.756 347.51Z" fill="#6EA9FF"/>
<path d="M433.756 371.11H430.256C428.656 371.11 427.256 369.81 427.256 368.11V364.61C427.256 363.01 428.556 361.61 430.256 361.61H433.756C435.356 361.61 436.756 362.91 436.756 364.61V368.11C436.756 369.81 435.456 371.11 433.756 371.11Z" fill="#6EA9FF"/>
<path d="M433.756 394.71H430.256C428.656 394.71 427.256 393.41 427.256 391.71V388.21C427.256 386.61 428.556 385.21 430.256 385.21H433.756C435.356 385.21 436.756 386.51 436.756 388.21V391.71C436.756 393.41 435.456 394.71 433.756 394.71Z" fill="#6EA9FF"/>
<path d="M433.756 418.31H430.256C428.656 418.31 427.256 417.01 427.256 415.31V411.81C427.256 410.21 428.556 408.81 430.256 408.81H433.756C435.356 408.81 436.756 410.11 436.756 411.81V415.31C436.756 417.01 435.456 418.31 433.756 418.31Z" fill="#6EA9FF"/>
<path d="M451.156 170.51H447.656C446.056 170.51 444.656 169.21 444.656 167.51V164.01C444.656 162.41 445.956 161.01 447.656 161.01H451.156C452.756 161.01 454.156 162.31 454.156 164.01V167.51C454.156 169.11 452.856 170.51 451.156 170.51Z" fill="#6EA9FF"/>
<path d="M451.156 194.01H447.656C446.056 194.01 444.656 192.71 444.656 191.01V187.51C444.656 185.91 445.956 184.51 447.656 184.51H451.156C452.756 184.51 454.156 185.81 454.156 187.51V191.01C454.156 192.71 452.856 194.01 451.156 194.01Z" fill="#6EA9FF"/>
<path d="M451.156 217.61H447.656C446.056 217.61 444.656 216.31 444.656 214.61V211.11C444.656 209.51 445.956 208.11 447.656 208.11H451.156C452.756 208.11 454.156 209.41 454.156 211.11V214.61C454.156 216.31 452.856 217.61 451.156 217.61Z" fill="#6EA9FF"/>
<path d="M451.156 241.21H447.656C446.056 241.21 444.656 239.91 444.656 238.21V234.71C444.656 233.11 445.956 231.71 447.656 231.71H451.156C452.756 231.71 454.156 233.01 454.156 234.71V238.21C454.156 239.91 452.856 241.21 451.156 241.21Z" fill="#6EA9FF"/>
<path d="M451.156 264.81H447.656C446.056 264.81 444.656 263.51 444.656 261.81V258.31C444.656 256.71 445.956 255.31 447.656 255.31H451.156C452.756 255.31 454.156 256.61 454.156 258.31V261.81C454.156 263.51 452.856 264.81 451.156 264.81Z" fill="#6EA9FF"/>
<path d="M451.156 288.41H447.656C446.056 288.41 444.656 287.11 444.656 285.41V281.91C444.656 280.31 445.956 278.91 447.656 278.91H451.156C452.756 278.91 454.156 280.21 454.156 281.91V285.41C454.156 287.11 452.856 288.41 451.156 288.41Z" fill="#6EA9FF"/>
<path d="M451.156 312.01H447.656C446.056 312.01 444.656 310.71 444.656 309.01V305.51C444.656 303.91 445.956 302.51 447.656 302.51H451.156C452.756 302.51 454.156 303.81 454.156 305.51V309.01C454.156 310.71 452.856 312.01 451.156 312.01Z" fill="#6EA9FF"/>
<path d="M451.156 335.61H447.656C446.056 335.61 444.656 334.31 444.656 332.61V329.11C444.656 327.51 445.956 326.11 447.656 326.11H451.156C452.756 326.11 454.156 327.41 454.156 329.11V332.61C454.156 334.21 452.856 335.61 451.156 335.61Z" fill="#6EA9FF"/>
<path d="M451.156 359.11H447.656C446.056 359.11 444.656 357.81 444.656 356.11V352.61C444.656 351.01 445.956 349.61 447.656 349.61H451.156C452.756 349.61 454.156 350.91 454.156 352.61V356.11C454.156 357.81 452.856 359.11 451.156 359.11Z" fill="#6EA9FF"/>
<path d="M451.156 382.71H447.656C446.056 382.71 444.656 381.41 444.656 379.71V376.21C444.656 374.61 445.956 373.21 447.656 373.21H451.156C452.756 373.21 454.156 374.51 454.156 376.21V379.71C454.156 381.41 452.856 382.71 451.156 382.71Z" fill="#6EA9FF"/>
<path d="M451.156 406.31H447.656C446.056 406.31 444.656 405.01 444.656 403.31V399.81C444.656 398.21 445.956 396.81 447.656 396.81H451.156C452.756 396.81 454.156 398.11 454.156 399.81V403.31C454.156 405.01 452.856 406.31 451.156 406.31Z" fill="#6EA9FF"/>
<path d="M467.956 182.41H464.456C462.856 182.41 461.456 181.11 461.456 179.41V175.91C461.456 174.31 462.756 172.91 464.456 172.91H467.956C469.556 172.91 470.956 174.21 470.956 175.91V179.41C470.856 181.11 469.556 182.41 467.956 182.41Z" fill="#6EA9FF"/>
<path d="M467.956 206.01H464.456C462.856 206.01 461.456 204.71 461.456 203.01V199.51C461.456 197.91 462.756 196.51 464.456 196.51H467.956C469.556 196.51 470.956 197.81 470.956 199.51V203.01C470.856 204.71 469.556 206.01 467.956 206.01Z" fill="#6EA9FF"/>
<path d="M467.956 229.61H464.456C462.856 229.61 461.456 228.31 461.456 226.61V223.11C461.456 221.51 462.756 220.11 464.456 220.11H467.956C469.556 220.11 470.956 221.41 470.956 223.11V226.61C470.856 228.31 469.556 229.61 467.956 229.61Z" fill="#6EA9FF"/>
<path d="M467.956 253.21H464.456C462.856 253.21 461.456 251.91 461.456 250.21V246.71C461.456 245.11 462.756 243.71 464.456 243.71H467.956C469.556 243.71 470.956 245.01 470.956 246.71V250.21C470.856 251.91 469.556 253.21 467.956 253.21Z" fill="#6EA9FF"/>
<path d="M467.956 276.81H464.456C462.856 276.81 461.456 275.51 461.456 273.81V270.31C461.456 268.71 462.756 267.31 464.456 267.31H467.956C469.556 267.31 470.956 268.61 470.956 270.31V273.81C470.856 275.51 469.556 276.81 467.956 276.81Z" fill="#6EA9FF"/>
<path d="M467.956 300.41H464.456C462.856 300.41 461.456 299.11 461.456 297.41V293.91C461.456 292.31 462.756 290.91 464.456 290.91H467.956C469.556 290.91 470.956 292.21 470.956 293.91V297.41C470.856 299.01 469.556 300.41 467.956 300.41Z" fill="#6EA9FF"/>
<path d="M467.956 324.01H464.456C462.856 324.01 461.456 322.71 461.456 321.01V317.51C461.456 315.91 462.756 314.51 464.456 314.51H467.956C469.556 314.51 470.956 315.81 470.956 317.51V321.01C470.856 322.61 469.556 324.01 467.956 324.01Z" fill="#6EA9FF"/>
<path d="M467.956 347.51H464.456C462.856 347.51 461.456 346.21 461.456 344.51V341.01C461.456 339.41 462.756 338.01 464.456 338.01H467.956C469.556 338.01 470.956 339.31 470.956 341.01V344.51C470.856 346.21 469.556 347.51 467.956 347.51Z" fill="#6EA9FF"/>
<path d="M467.956 371.11H464.456C462.856 371.11 461.456 369.81 461.456 368.11V364.61C461.456 363.01 462.756 361.61 464.456 361.61H467.956C469.556 361.61 470.956 362.91 470.956 364.61V368.11C470.856 369.81 469.556 371.11 467.956 371.11Z" fill="#6EA9FF"/>
<path d="M467.956 394.71H464.456C462.856 394.71 461.456 393.41 461.456 391.71V388.21C461.456 386.61 462.756 385.21 464.456 385.21H467.956C469.556 385.21 470.956 386.51 470.956 388.21V391.71C470.856 393.41 469.556 394.71 467.956 394.71Z" fill="#6EA9FF"/>
<path d="M467.956 418.31H464.456C462.856 418.31 461.456 417.01 461.456 415.31V411.81C461.456 410.21 462.756 408.81 464.456 408.81H467.956C469.556 408.81 470.956 410.11 470.956 411.81V415.31C470.856 417.01 469.556 418.31 467.956 418.31Z" fill="#6EA9FF"/>
<path d="M485.356 170.51H481.856C480.256 170.51 478.856 169.21 478.856 167.51V164.01C478.856 162.41 480.156 161.01 481.856 161.01H485.356C486.956 161.01 488.356 162.31 488.356 164.01V167.51C488.356 169.11 486.956 170.51 485.356 170.51Z" fill="#6EA9FF"/>
<path d="M485.356 194.01H481.856C480.256 194.01 478.856 192.71 478.856 191.01V187.51C478.856 185.91 480.156 184.51 481.856 184.51H485.356C486.956 184.51 488.356 185.81 488.356 187.51V191.01C488.356 192.71 486.956 194.01 485.356 194.01Z" fill="#6EA9FF"/>
<path d="M485.356 217.61H481.856C480.256 217.61 478.856 216.31 478.856 214.61V211.11C478.856 209.51 480.156 208.11 481.856 208.11H485.356C486.956 208.11 488.356 209.41 488.356 211.11V214.61C488.356 216.31 486.956 217.61 485.356 217.61Z" fill="#6EA9FF"/>
<path d="M485.356 241.21H481.856C480.256 241.21 478.856 239.91 478.856 238.21V234.71C478.856 233.11 480.156 231.71 481.856 231.71H485.356C486.956 231.71 488.356 233.01 488.356 234.71V238.21C488.356 239.91 486.956 241.21 485.356 241.21Z" fill="#6EA9FF"/>
<path d="M485.356 264.81H481.856C480.256 264.81 478.856 263.51 478.856 261.81V258.31C478.856 256.71 480.156 255.31 481.856 255.31H485.356C486.956 255.31 488.356 256.61 488.356 258.31V261.81C488.356 263.51 486.956 264.81 485.356 264.81Z" fill="#6EA9FF"/>
<path d="M485.356 288.41H481.856C480.256 288.41 478.856 287.11 478.856 285.41V281.91C478.856 280.31 480.156 278.91 481.856 278.91H485.356C486.956 278.91 488.356 280.21 488.356 281.91V285.41C488.356 287.11 486.956 288.41 485.356 288.41Z" fill="#6EA9FF"/>
<path d="M485.356 312.01H481.856C480.256 312.01 478.856 310.71 478.856 309.01V305.51C478.856 303.91 480.156 302.51 481.856 302.51H485.356C486.956 302.51 488.356 303.81 488.356 305.51V309.01C488.356 310.71 486.956 312.01 485.356 312.01Z" fill="#6EA9FF"/>
<path d="M485.356 335.61H481.856C480.256 335.61 478.856 334.31 478.856 332.61V329.11C478.856 327.51 480.156 326.11 481.856 326.11H485.356C486.956 326.11 488.356 327.41 488.356 329.11V332.61C488.356 334.21 486.956 335.61 485.356 335.61Z" fill="#6EA9FF"/>
<path d="M485.356 359.11H481.856C480.256 359.11 478.856 357.81 478.856 356.11V352.61C478.856 351.01 480.156 349.61 481.856 349.61H485.356C486.956 349.61 488.356 350.91 488.356 352.61V356.11C488.356 357.81 486.956 359.11 485.356 359.11Z" fill="#6EA9FF"/>
<path d="M485.356 382.71H481.856C480.256 382.71 478.856 381.41 478.856 379.71V376.21C478.856 374.61 480.156 373.21 481.856 373.21H485.356C486.956 373.21 488.356 374.51 488.356 376.21V379.71C488.356 381.41 486.956 382.71 485.356 382.71Z" fill="#6EA9FF"/>
<path d="M485.356 406.31H481.856C480.256 406.31 478.856 405.01 478.856 403.31V399.81C478.856 398.21 480.156 396.81 481.856 396.81H485.356C486.956 396.81 488.356 398.11 488.356 399.81V403.31C488.356 405.01 486.956 406.31 485.356 406.31Z" fill="#6EA9FF"/>
<path d="M502.056 182.41H498.556C496.956 182.41 495.556 181.11 495.556 179.41V175.91C495.556 174.31 496.856 172.91 498.556 172.91H502.056C503.656 172.91 505.056 174.21 505.056 175.91V179.41C505.056 181.11 503.756 182.41 502.056 182.41Z" fill="#6EA9FF"/>
<path d="M502.056 206.01H498.556C496.956 206.01 495.556 204.71 495.556 203.01V199.51C495.556 197.91 496.856 196.51 498.556 196.51H502.056C503.656 196.51 505.056 197.81 505.056 199.51V203.01C505.056 204.71 503.756 206.01 502.056 206.01Z" fill="#6EA9FF"/>
<path d="M502.056 229.61H498.556C496.956 229.61 495.556 228.31 495.556 226.61V223.11C495.556 221.51 496.856 220.11 498.556 220.11H502.056C503.656 220.11 505.056 221.41 505.056 223.11V226.61C505.056 228.31 503.756 229.61 502.056 229.61Z" fill="#6EA9FF"/>
<path d="M502.056 253.21H498.556C496.956 253.21 495.556 251.91 495.556 250.21V246.71C495.556 245.11 496.856 243.71 498.556 243.71H502.056C503.656 243.71 505.056 245.01 505.056 246.71V250.21C505.056 251.91 503.756 253.21 502.056 253.21Z" fill="#6EA9FF"/>
<path d="M502.056 276.81H498.556C496.956 276.81 495.556 275.51 495.556 273.81V270.31C495.556 268.71 496.856 267.31 498.556 267.31H502.056C503.656 267.31 505.056 268.61 505.056 270.31V273.81C505.056 275.51 503.756 276.81 502.056 276.81Z" fill="#6EA9FF"/>
<path d="M502.056 300.41H498.556C496.956 300.41 495.556 299.11 495.556 297.41V293.91C495.556 292.31 496.856 290.91 498.556 290.91H502.056C503.656 290.91 505.056 292.21 505.056 293.91V297.41C505.056 299.01 503.756 300.41 502.056 300.41Z" fill="#6EA9FF"/>
<path d="M502.056 324.01H498.556C496.956 324.01 495.556 322.71 495.556 321.01V317.51C495.556 315.91 496.856 314.51 498.556 314.51H502.056C503.656 314.51 505.056 315.81 505.056 317.51V321.01C505.056 322.61 503.756 324.01 502.056 324.01Z" fill="#6EA9FF"/>
<path d="M502.056 347.51H498.556C496.956 347.51 495.556 346.21 495.556 344.51V341.01C495.556 339.41 496.856 338.01 498.556 338.01H502.056C503.656 338.01 505.056 339.31 505.056 341.01V344.51C505.056 346.21 503.756 347.51 502.056 347.51Z" fill="#6EA9FF"/>
<path d="M502.056 371.11H498.556C496.956 371.11 495.556 369.81 495.556 368.11V364.61C495.556 363.01 496.856 361.61 498.556 361.61H502.056C503.656 361.61 505.056 362.91 505.056 364.61V368.11C505.056 369.81 503.756 371.11 502.056 371.11Z" fill="#6EA9FF"/>
<path d="M502.056 394.71H498.556C496.956 394.71 495.556 393.41 495.556 391.71V388.21C495.556 386.61 496.856 385.21 498.556 385.21H502.056C503.656 385.21 505.056 386.51 505.056 388.21V391.71C505.056 393.41 503.756 394.71 502.056 394.71Z" fill="#6EA9FF"/>
<path d="M502.056 418.31H498.556C496.956 418.31 495.556 417.01 495.556 415.31V411.81C495.556 410.21 496.856 408.81 498.556 408.81H502.056C503.656 408.81 505.056 410.11 505.056 411.81V415.31C505.056 417.01 503.756 418.31 502.056 418.31Z" fill="#6EA9FF"/>
<path d="M519.456 170.51H515.956C514.356 170.51 512.956 169.21 512.956 167.51V164.01C512.956 162.41 514.256 161.01 515.956 161.01H519.456C521.056 161.01 522.456 162.31 522.456 164.01V167.51C522.456 169.11 521.156 170.51 519.456 170.51Z" fill="#6EA9FF"/>
<path d="M519.456 194.01H515.956C514.356 194.01 512.956 192.71 512.956 191.01V187.51C512.956 185.91 514.256 184.51 515.956 184.51H519.456C521.056 184.51 522.456 185.81 522.456 187.51V191.01C522.456 192.71 521.156 194.01 519.456 194.01Z" fill="#6EA9FF"/>
<path d="M519.456 217.61H515.956C514.356 217.61 512.956 216.31 512.956 214.61V211.11C512.956 209.51 514.256 208.11 515.956 208.11H519.456C521.056 208.11 522.456 209.41 522.456 211.11V214.61C522.456 216.31 521.156 217.61 519.456 217.61Z" fill="#6EA9FF"/>
<path d="M519.456 241.21H515.956C514.356 241.21 512.956 239.91 512.956 238.21V234.71C512.956 233.11 514.256 231.71 515.956 231.71H519.456C521.056 231.71 522.456 233.01 522.456 234.71V238.21C522.456 239.91 521.156 241.21 519.456 241.21Z" fill="#6EA9FF"/>
<path d="M519.456 264.81H515.956C514.356 264.81 512.956 263.51 512.956 261.81V258.31C512.956 256.71 514.256 255.31 515.956 255.31H519.456C521.056 255.31 522.456 256.61 522.456 258.31V261.81C522.456 263.51 521.156 264.81 519.456 264.81Z" fill="#6EA9FF"/>
<path d="M519.456 288.41H515.956C514.356 288.41 512.956 287.11 512.956 285.41V281.91C512.956 280.31 514.256 278.91 515.956 278.91H519.456C521.056 278.91 522.456 280.21 522.456 281.91V285.41C522.456 287.11 521.156 288.41 519.456 288.41Z" fill="#6EA9FF"/>
<path d="M519.456 312.01H515.956C514.356 312.01 512.956 310.71 512.956 309.01V305.51C512.956 303.91 514.256 302.51 515.956 302.51H519.456C521.056 302.51 522.456 303.81 522.456 305.51V309.01C522.456 310.71 521.156 312.01 519.456 312.01Z" fill="#6EA9FF"/>
<path d="M519.456 335.61H515.956C514.356 335.61 512.956 334.31 512.956 332.61V329.11C512.956 327.51 514.256 326.11 515.956 326.11H519.456C521.056 326.11 522.456 327.41 522.456 329.11V332.61C522.456 334.21 521.156 335.61 519.456 335.61Z" fill="#6EA9FF"/>
<path d="M519.456 359.11H515.956C514.356 359.11 512.956 357.81 512.956 356.11V352.61C512.956 351.01 514.256 349.61 515.956 349.61H519.456C521.056 349.61 522.456 350.91 522.456 352.61V356.11C522.456 357.81 521.156 359.11 519.456 359.11Z" fill="#6EA9FF"/>
<path d="M519.456 382.71H515.956C514.356 382.71 512.956 381.41 512.956 379.71V376.21C512.956 374.61 514.256 373.21 515.956 373.21H519.456C521.056 373.21 522.456 374.51 522.456 376.21V379.71C522.456 381.41 521.156 382.71 519.456 382.71Z" fill="#6EA9FF"/>
<path d="M519.456 406.31H515.956C514.356 406.31 512.956 405.01 512.956 403.31V399.81C512.956 398.21 514.256 396.81 515.956 396.81H519.456C521.056 396.81 522.456 398.11 522.456 399.81V403.31C522.456 405.01 521.156 406.31 519.456 406.31Z" fill="#6EA9FF"/>
<path d="M536.256 182.41H532.756C531.156 182.41 529.756 181.11 529.756 179.41V175.91C529.756 174.31 531.056 172.91 532.756 172.91H536.256C537.856 172.91 539.256 174.21 539.256 175.91V179.41C539.156 181.11 537.856 182.41 536.256 182.41Z" fill="#6EA9FF"/>
<path d="M536.256 206.01H532.756C531.156 206.01 529.756 204.71 529.756 203.01V199.51C529.756 197.91 531.056 196.51 532.756 196.51H536.256C537.856 196.51 539.256 197.81 539.256 199.51V203.01C539.156 204.71 537.856 206.01 536.256 206.01Z" fill="#6EA9FF"/>
<path d="M536.256 229.61H532.756C531.156 229.61 529.756 228.31 529.756 226.61V223.11C529.756 221.51 531.056 220.11 532.756 220.11H536.256C537.856 220.11 539.256 221.41 539.256 223.11V226.61C539.156 228.31 537.856 229.61 536.256 229.61Z" fill="#6EA9FF"/>
<path d="M536.256 253.21H532.756C531.156 253.21 529.756 251.91 529.756 250.21V246.71C529.756 245.11 531.056 243.71 532.756 243.71H536.256C537.856 243.71 539.256 245.01 539.256 246.71V250.21C539.156 251.91 537.856 253.21 536.256 253.21Z" fill="#6EA9FF"/>
<path d="M536.256 276.81H532.756C531.156 276.81 529.756 275.51 529.756 273.81V270.31C529.756 268.71 531.056 267.31 532.756 267.31H536.256C537.856 267.31 539.256 268.61 539.256 270.31V273.81C539.156 275.51 537.856 276.81 536.256 276.81Z" fill="#6EA9FF"/>
<path d="M536.256 300.41H532.756C531.156 300.41 529.756 299.11 529.756 297.41V293.91C529.756 292.31 531.056 290.91 532.756 290.91H536.256C537.856 290.91 539.256 292.21 539.256 293.91V297.41C539.156 299.01 537.856 300.41 536.256 300.41Z" fill="#6EA9FF"/>
<path d="M536.256 324.01H532.756C531.156 324.01 529.756 322.71 529.756 321.01V317.51C529.756 315.91 531.056 314.51 532.756 314.51H536.256C537.856 314.51 539.256 315.81 539.256 317.51V321.01C539.156 322.61 537.856 324.01 536.256 324.01Z" fill="#6EA9FF"/>
<path d="M536.256 347.51H532.756C531.156 347.51 529.756 346.21 529.756 344.51V341.01C529.756 339.41 531.056 338.01 532.756 338.01H536.256C537.856 338.01 539.256 339.31 539.256 341.01V344.51C539.156 346.21 537.856 347.51 536.256 347.51Z" fill="#6EA9FF"/>
<path d="M536.256 371.11H532.756C531.156 371.11 529.756 369.81 529.756 368.11V364.61C529.756 363.01 531.056 361.61 532.756 361.61H536.256C537.856 361.61 539.256 362.91 539.256 364.61V368.11C539.156 369.81 537.856 371.11 536.256 371.11Z" fill="#6EA9FF"/>
<path d="M536.256 394.71H532.756C531.156 394.71 529.756 393.41 529.756 391.71V388.21C529.756 386.61 531.056 385.21 532.756 385.21H536.256C537.856 385.21 539.256 386.51 539.256 388.21V391.71C539.156 393.41 537.856 394.71 536.256 394.71Z" fill="#6EA9FF"/>
<path d="M536.256 418.31H532.756C531.156 418.31 529.756 417.01 529.756 415.31V411.81C529.756 410.21 531.056 408.81 532.756 408.81H536.256C537.856 408.81 539.256 410.11 539.256 411.81V415.31C539.156 417.01 537.856 418.31 536.256 418.31Z" fill="#6EA9FF"/>
<path d="M553.656 170.51H550.156C548.556 170.51 547.156 169.21 547.156 167.51V164.01C547.156 162.41 548.456 161.01 550.156 161.01H553.656C555.256 161.01 556.656 162.31 556.656 164.01V167.51C556.656 169.11 555.256 170.51 553.656 170.51Z" fill="#6EA9FF"/>
<path d="M553.656 194.01H550.156C548.556 194.01 547.156 192.71 547.156 191.01V187.51C547.156 185.91 548.456 184.51 550.156 184.51H553.656C555.256 184.51 556.656 185.81 556.656 187.51V191.01C556.656 192.71 555.256 194.01 553.656 194.01Z" fill="#6EA9FF"/>
<path d="M553.656 217.61H550.156C548.556 217.61 547.156 216.31 547.156 214.61V211.11C547.156 209.51 548.456 208.11 550.156 208.11H553.656C555.256 208.11 556.656 209.41 556.656 211.11V214.61C556.656 216.31 555.256 217.61 553.656 217.61Z" fill="#6EA9FF"/>
<path d="M553.656 241.21H550.156C548.556 241.21 547.156 239.91 547.156 238.21V234.71C547.156 233.11 548.456 231.71 550.156 231.71H553.656C555.256 231.71 556.656 233.01 556.656 234.71V238.21C556.656 239.91 555.256 241.21 553.656 241.21Z" fill="#6EA9FF"/>
<path d="M553.656 264.81H550.156C548.556 264.81 547.156 263.51 547.156 261.81V258.31C547.156 256.71 548.456 255.31 550.156 255.31H553.656C555.256 255.31 556.656 256.61 556.656 258.31V261.81C556.656 263.51 555.256 264.81 553.656 264.81Z" fill="#6EA9FF"/>
<path d="M553.656 288.41H550.156C548.556 288.41 547.156 287.11 547.156 285.41V281.91C547.156 280.31 548.456 278.91 550.156 278.91H553.656C555.256 278.91 556.656 280.21 556.656 281.91V285.41C556.656 287.11 555.256 288.41 553.656 288.41Z" fill="#6EA9FF"/>
<path d="M553.656 312.01H550.156C548.556 312.01 547.156 310.71 547.156 309.01V305.51C547.156 303.91 548.456 302.51 550.156 302.51H553.656C555.256 302.51 556.656 303.81 556.656 305.51V309.01C556.656 310.71 555.256 312.01 553.656 312.01Z" fill="#6EA9FF"/>
<path d="M553.656 335.61H550.156C548.556 335.61 547.156 334.31 547.156 332.61V329.11C547.156 327.51 548.456 326.11 550.156 326.11H553.656C555.256 326.11 556.656 327.41 556.656 329.11V332.61C556.656 334.21 555.256 335.61 553.656 335.61Z" fill="#6EA9FF"/>
<path d="M553.656 359.11H550.156C548.556 359.11 547.156 357.81 547.156 356.11V352.61C547.156 351.01 548.456 349.61 550.156 349.61H553.656C555.256 349.61 556.656 350.91 556.656 352.61V356.11C556.656 357.81 555.256 359.11 553.656 359.11Z" fill="#6EA9FF"/>
<path d="M553.656 382.71H550.156C548.556 382.71 547.156 381.41 547.156 379.71V376.21C547.156 374.61 548.456 373.21 550.156 373.21H553.656C555.256 373.21 556.656 374.51 556.656 376.21V379.71C556.656 381.41 555.256 382.71 553.656 382.71Z" fill="#6EA9FF"/>
<path d="M553.656 406.31H550.156C548.556 406.31 547.156 405.01 547.156 403.31V399.81C547.156 398.21 548.456 396.81 550.156 396.81H553.656C555.256 396.81 556.656 398.11 556.656 399.81V403.31C556.656 405.01 555.256 406.31 553.656 406.31Z" fill="#6EA9FF"/>
<path d="M570.356 182.41H566.856C565.256 182.41 563.856 181.11 563.856 179.41V175.91C563.856 174.31 565.156 172.91 566.856 172.91H570.356C571.956 172.91 573.356 174.21 573.356 175.91V179.41C573.356 181.11 572.056 182.41 570.356 182.41Z" fill="#6EA9FF"/>
<path d="M570.356 206.01H566.856C565.256 206.01 563.856 204.71 563.856 203.01V199.51C563.856 197.91 565.156 196.51 566.856 196.51H570.356C571.956 196.51 573.356 197.81 573.356 199.51V203.01C573.356 204.71 572.056 206.01 570.356 206.01Z" fill="#6EA9FF"/>
<path d="M570.356 229.61H566.856C565.256 229.61 563.856 228.31 563.856 226.61V223.11C563.856 221.51 565.156 220.11 566.856 220.11H570.356C571.956 220.11 573.356 221.41 573.356 223.11V226.61C573.356 228.31 572.056 229.61 570.356 229.61Z" fill="#6EA9FF"/>
<path d="M570.356 253.21H566.856C565.256 253.21 563.856 251.91 563.856 250.21V246.71C563.856 245.11 565.156 243.71 566.856 243.71H570.356C571.956 243.71 573.356 245.01 573.356 246.71V250.21C573.356 251.91 572.056 253.21 570.356 253.21Z" fill="#6EA9FF"/>
<path d="M570.356 276.81H566.856C565.256 276.81 563.856 275.51 563.856 273.81V270.31C563.856 268.71 565.156 267.31 566.856 267.31H570.356C571.956 267.31 573.356 268.61 573.356 270.31V273.81C573.356 275.51 572.056 276.81 570.356 276.81Z" fill="#6EA9FF"/>
<path d="M570.356 300.41H566.856C565.256 300.41 563.856 299.11 563.856 297.41V293.91C563.856 292.31 565.156 290.91 566.856 290.91H570.356C571.956 290.91 573.356 292.21 573.356 293.91V297.41C573.356 299.01 572.056 300.41 570.356 300.41Z" fill="#6EA9FF"/>
<path d="M570.356 324.01H566.856C565.256 324.01 563.856 322.71 563.856 321.01V317.51C563.856 315.91 565.156 314.51 566.856 314.51H570.356C571.956 314.51 573.356 315.81 573.356 317.51V321.01C573.356 322.61 572.056 324.01 570.356 324.01Z" fill="#6EA9FF"/>
<path d="M570.356 347.51H566.856C565.256 347.51 563.856 346.21 563.856 344.51V341.01C563.856 339.41 565.156 338.01 566.856 338.01H570.356C571.956 338.01 573.356 339.31 573.356 341.01V344.51C573.356 346.21 572.056 347.51 570.356 347.51Z" fill="#6EA9FF"/>
<path d="M570.356 371.11H566.856C565.256 371.11 563.856 369.81 563.856 368.11V364.61C563.856 363.01 565.156 361.61 566.856 361.61H570.356C571.956 361.61 573.356 362.91 573.356 364.61V368.11C573.356 369.81 572.056 371.11 570.356 371.11Z" fill="#6EA9FF"/>
<path d="M570.356 394.71H566.856C565.256 394.71 563.856 393.41 563.856 391.71V388.21C563.856 386.61 565.156 385.21 566.856 385.21H570.356C571.956 385.21 573.356 386.51 573.356 388.21V391.71C573.356 393.41 572.056 394.71 570.356 394.71Z" fill="#6EA9FF"/>
<path d="M570.356 418.31H566.856C565.256 418.31 563.856 417.01 563.856 415.31V411.81C563.856 410.21 565.156 408.81 566.856 408.81H570.356C571.956 408.81 573.356 410.11 573.356 411.81V415.31C573.356 417.01 572.056 418.31 570.356 418.31Z" fill="#6EA9FF"/>
<path d="M587.856 170.51H584.356C582.756 170.51 581.356 169.21 581.356 167.51V164.01C581.356 162.41 582.656 161.01 584.356 161.01H587.856C589.456 161.01 590.856 162.31 590.856 164.01V167.51C590.756 169.11 589.456 170.51 587.856 170.51Z" fill="#6EA9FF"/>
<path d="M587.856 194.01H584.356C582.756 194.01 581.356 192.71 581.356 191.01V187.51C581.356 185.91 582.656 184.51 584.356 184.51H587.856C589.456 184.51 590.856 185.81 590.856 187.51V191.01C590.756 192.71 589.456 194.01 587.856 194.01Z" fill="#6EA9FF"/>
<path d="M587.856 217.61H584.356C582.756 217.61 581.356 216.31 581.356 214.61V211.11C581.356 209.51 582.656 208.11 584.356 208.11H587.856C589.456 208.11 590.856 209.41 590.856 211.11V214.61C590.756 216.31 589.456 217.61 587.856 217.61Z" fill="#6EA9FF"/>
<path d="M587.856 241.21H584.356C582.756 241.21 581.356 239.91 581.356 238.21V234.71C581.356 233.11 582.656 231.71 584.356 231.71H587.856C589.456 231.71 590.856 233.01 590.856 234.71V238.21C590.756 239.91 589.456 241.21 587.856 241.21Z" fill="#6EA9FF"/>
<path d="M587.856 264.81H584.356C582.756 264.81 581.356 263.51 581.356 261.81V258.31C581.356 256.71 582.656 255.31 584.356 255.31H587.856C589.456 255.31 590.856 256.61 590.856 258.31V261.81C590.756 263.51 589.456 264.81 587.856 264.81Z" fill="#6EA9FF"/>
<path d="M587.856 288.41H584.356C582.756 288.41 581.356 287.11 581.356 285.41V281.91C581.356 280.31 582.656 278.91 584.356 278.91H587.856C589.456 278.91 590.856 280.21 590.856 281.91V285.41C590.756 287.11 589.456 288.41 587.856 288.41Z" fill="#6EA9FF"/>
<path d="M587.856 312.01H584.356C582.756 312.01 581.356 310.71 581.356 309.01V305.51C581.356 303.91 582.656 302.51 584.356 302.51H587.856C589.456 302.51 590.856 303.81 590.856 305.51V309.01C590.756 310.71 589.456 312.01 587.856 312.01Z" fill="#6EA9FF"/>
<path d="M587.856 335.61H584.356C582.756 335.61 581.356 334.31 581.356 332.61V329.11C581.356 327.51 582.656 326.11 584.356 326.11H587.856C589.456 326.11 590.856 327.41 590.856 329.11V332.61C590.756 334.21 589.456 335.61 587.856 335.61Z" fill="#6EA9FF"/>
<path d="M587.856 359.11H584.356C582.756 359.11 581.356 357.81 581.356 356.11V352.61C581.356 351.01 582.656 349.61 584.356 349.61H587.856C589.456 349.61 590.856 350.91 590.856 352.61V356.11C590.756 357.81 589.456 359.11 587.856 359.11Z" fill="#6EA9FF"/>
<path d="M587.856 382.71H584.356C582.756 382.71 581.356 381.41 581.356 379.71V376.21C581.356 374.61 582.656 373.21 584.356 373.21H587.856C589.456 373.21 590.856 374.51 590.856 376.21V379.71C590.756 381.41 589.456 382.71 587.856 382.71Z" fill="#6EA9FF"/>
<path d="M587.856 406.31H584.356C582.756 406.31 581.356 405.01 581.356 403.31V399.81C581.356 398.21 582.656 396.81 584.356 396.81H587.856C589.456 396.81 590.856 398.11 590.856 399.81V403.31C590.756 405.01 589.456 406.31 587.856 406.31Z" fill="#6EA9FF"/>
<path d="M604.556 182.41H601.056C599.456 182.41 598.056 181.11 598.056 179.41V175.91C598.056 174.31 599.356 172.91 601.056 172.91H604.556C606.156 172.91 607.556 174.21 607.556 175.91V179.41C607.556 181.11 606.156 182.41 604.556 182.41Z" fill="#6EA9FF"/>
<path d="M604.556 206.01H601.056C599.456 206.01 598.056 204.71 598.056 203.01V199.51C598.056 197.91 599.356 196.51 601.056 196.51H604.556C606.156 196.51 607.556 197.81 607.556 199.51V203.01C607.556 204.71 606.156 206.01 604.556 206.01Z" fill="#6EA9FF"/>
<path d="M604.556 229.61H601.056C599.456 229.61 598.056 228.31 598.056 226.61V223.11C598.056 221.51 599.356 220.11 601.056 220.11H604.556C606.156 220.11 607.556 221.41 607.556 223.11V226.61C607.556 228.31 606.156 229.61 604.556 229.61Z" fill="#6EA9FF"/>
<path d="M604.556 253.21H601.056C599.456 253.21 598.056 251.91 598.056 250.21V246.71C598.056 245.11 599.356 243.71 601.056 243.71H604.556C606.156 243.71 607.556 245.01 607.556 246.71V250.21C607.556 251.91 606.156 253.21 604.556 253.21Z" fill="#6EA9FF"/>
<path d="M604.556 276.81H601.056C599.456 276.81 598.056 275.51 598.056 273.81V270.31C598.056 268.71 599.356 267.31 601.056 267.31H604.556C606.156 267.31 607.556 268.61 607.556 270.31V273.81C607.556 275.51 606.156 276.81 604.556 276.81Z" fill="#6EA9FF"/>
<path d="M604.556 300.41H601.056C599.456 300.41 598.056 299.11 598.056 297.41V293.91C598.056 292.31 599.356 290.91 601.056 290.91H604.556C606.156 290.91 607.556 292.21 607.556 293.91V297.41C607.556 299.01 606.156 300.41 604.556 300.41Z" fill="#6EA9FF"/>
<path d="M604.556 324.01H601.056C599.456 324.01 598.056 322.71 598.056 321.01V317.51C598.056 315.91 599.356 314.51 601.056 314.51H604.556C606.156 314.51 607.556 315.81 607.556 317.51V321.01C607.556 322.61 606.156 324.01 604.556 324.01Z" fill="#6EA9FF"/>
<path d="M604.556 347.51H601.056C599.456 347.51 598.056 346.21 598.056 344.51V341.01C598.056 339.41 599.356 338.01 601.056 338.01H604.556C606.156 338.01 607.556 339.31 607.556 341.01V344.51C607.556 346.21 606.156 347.51 604.556 347.51Z" fill="#6EA9FF"/>
<path d="M604.556 371.11H601.056C599.456 371.11 598.056 369.81 598.056 368.11V364.61C598.056 363.01 599.356 361.61 601.056 361.61H604.556C606.156 361.61 607.556 362.91 607.556 364.61V368.11C607.556 369.81 606.156 371.11 604.556 371.11Z" fill="#6EA9FF"/>
<path d="M604.556 394.71H601.056C599.456 394.71 598.056 393.41 598.056 391.71V388.21C598.056 386.61 599.356 385.21 601.056 385.21H604.556C606.156 385.21 607.556 386.51 607.556 388.21V391.71C607.556 393.41 606.156 394.71 604.556 394.71Z" fill="#6EA9FF"/>
<path d="M604.556 418.31H601.056C599.456 418.31 598.056 417.01 598.056 415.31V411.81C598.056 410.21 599.356 408.81 601.056 408.81H604.556C606.156 408.81 607.556 410.11 607.556 411.81V415.31C607.556 417.01 606.156 418.31 604.556 418.31Z" fill="#6EA9FF"/>
<path d="M621.956 170.51H618.456C616.856 170.51 615.456 169.21 615.456 167.51V164.01C615.456 162.41 616.756 161.01 618.456 161.01H621.956C623.556 161.01 624.956 162.31 624.956 164.01V167.51C624.956 169.11 623.556 170.51 621.956 170.51Z" fill="#6EA9FF"/>
<path d="M621.956 194.01H618.456C616.856 194.01 615.456 192.71 615.456 191.01V187.51C615.456 185.91 616.756 184.51 618.456 184.51H621.956C623.556 184.51 624.956 185.81 624.956 187.51V191.01C624.956 192.71 623.556 194.01 621.956 194.01Z" fill="#6EA9FF"/>
<path d="M621.956 217.61H618.456C616.856 217.61 615.456 216.31 615.456 214.61V211.11C615.456 209.51 616.756 208.11 618.456 208.11H621.956C623.556 208.11 624.956 209.41 624.956 211.11V214.61C624.956 216.31 623.556 217.61 621.956 217.61Z" fill="#6EA9FF"/>
<path d="M621.956 241.21H618.456C616.856 241.21 615.456 239.91 615.456 238.21V234.71C615.456 233.11 616.756 231.71 618.456 231.71H621.956C623.556 231.71 624.956 233.01 624.956 234.71V238.21C624.956 239.91 623.556 241.21 621.956 241.21Z" fill="#6EA9FF"/>
<path d="M621.956 264.81H618.456C616.856 264.81 615.456 263.51 615.456 261.81V258.31C615.456 256.71 616.756 255.31 618.456 255.31H621.956C623.556 255.31 624.956 256.61 624.956 258.31V261.81C624.956 263.51 623.556 264.81 621.956 264.81Z" fill="#6EA9FF"/>
<path d="M621.956 288.41H618.456C616.856 288.41 615.456 287.11 615.456 285.41V281.91C615.456 280.31 616.756 278.91 618.456 278.91H621.956C623.556 278.91 624.956 280.21 624.956 281.91V285.41C624.956 287.11 623.556 288.41 621.956 288.41Z" fill="#6EA9FF"/>
<path d="M621.956 312.01H618.456C616.856 312.01 615.456 310.71 615.456 309.01V305.51C615.456 303.91 616.756 302.51 618.456 302.51H621.956C623.556 302.51 624.956 303.81 624.956 305.51V309.01C624.956 310.71 623.556 312.01 621.956 312.01Z" fill="#6EA9FF"/>
<path d="M621.956 335.61H618.456C616.856 335.61 615.456 334.31 615.456 332.61V329.11C615.456 327.51 616.756 326.11 618.456 326.11H621.956C623.556 326.11 624.956 327.41 624.956 329.11V332.61C624.956 334.21 623.556 335.61 621.956 335.61Z" fill="#6EA9FF"/>
<path d="M621.956 359.11H618.456C616.856 359.11 615.456 357.81 615.456 356.11V352.61C615.456 351.01 616.756 349.61 618.456 349.61H621.956C623.556 349.61 624.956 350.91 624.956 352.61V356.11C624.956 357.81 623.556 359.11 621.956 359.11Z" fill="#6EA9FF"/>
<path d="M621.956 382.71H618.456C616.856 382.71 615.456 381.41 615.456 379.71V376.21C615.456 374.61 616.756 373.21 618.456 373.21H621.956C623.556 373.21 624.956 374.51 624.956 376.21V379.71C624.956 381.41 623.556 382.71 621.956 382.71Z" fill="#6EA9FF"/>
<path d="M621.956 406.31H618.456C616.856 406.31 615.456 405.01 615.456 403.31V399.81C615.456 398.21 616.756 396.81 618.456 396.81H621.956C623.556 396.81 624.956 398.11 624.956 399.81V403.31C624.956 405.01 623.556 406.31 621.956 406.31Z" fill="#6EA9FF"/>
<path d="M638.656 182.41H635.156C633.556 182.41 632.156 181.11 632.156 179.41V175.91C632.156 174.31 633.456 172.91 635.156 172.91H638.656C640.256 172.91 641.656 174.21 641.656 175.91V179.41C641.656 181.11 640.356 182.41 638.656 182.41Z" fill="#6EA9FF"/>
<path d="M638.656 206.01H635.156C633.556 206.01 632.156 204.71 632.156 203.01V199.51C632.156 197.91 633.456 196.51 635.156 196.51H638.656C640.256 196.51 641.656 197.81 641.656 199.51V203.01C641.656 204.71 640.356 206.01 638.656 206.01Z" fill="#6EA9FF"/>
<path d="M638.656 229.61H635.156C633.556 229.61 632.156 228.31 632.156 226.61V223.11C632.156 221.51 633.456 220.11 635.156 220.11H638.656C640.256 220.11 641.656 221.41 641.656 223.11V226.61C641.656 228.31 640.356 229.61 638.656 229.61Z" fill="#6EA9FF"/>
<path d="M638.656 253.21H635.156C633.556 253.21 632.156 251.91 632.156 250.21V246.71C632.156 245.11 633.456 243.71 635.156 243.71H638.656C640.256 243.71 641.656 245.01 641.656 246.71V250.21C641.656 251.91 640.356 253.21 638.656 253.21Z" fill="#6EA9FF"/>
<path d="M638.656 276.81H635.156C633.556 276.81 632.156 275.51 632.156 273.81V270.31C632.156 268.71 633.456 267.31 635.156 267.31H638.656C640.256 267.31 641.656 268.61 641.656 270.31V273.81C641.656 275.51 640.356 276.81 638.656 276.81Z" fill="#6EA9FF"/>
<path d="M638.656 300.41H635.156C633.556 300.41 632.156 299.11 632.156 297.41V293.91C632.156 292.31 633.456 290.91 635.156 290.91H638.656C640.256 290.91 641.656 292.21 641.656 293.91V297.41C641.656 299.01 640.356 300.41 638.656 300.41Z" fill="#6EA9FF"/>
<path d="M638.656 324.01H635.156C633.556 324.01 632.156 322.71 632.156 321.01V317.51C632.156 315.91 633.456 314.51 635.156 314.51H638.656C640.256 314.51 641.656 315.81 641.656 317.51V321.01C641.656 322.61 640.356 324.01 638.656 324.01Z" fill="#6EA9FF"/>
<path d="M638.656 347.51H635.156C633.556 347.51 632.156 346.21 632.156 344.51V341.01C632.156 339.41 633.456 338.01 635.156 338.01H638.656C640.256 338.01 641.656 339.31 641.656 341.01V344.51C641.656 346.21 640.356 347.51 638.656 347.51Z" fill="#6EA9FF"/>
<path d="M638.656 371.11H635.156C633.556 371.11 632.156 369.81 632.156 368.11V364.61C632.156 363.01 633.456 361.61 635.156 361.61H638.656C640.256 361.61 641.656 362.91 641.656 364.61V368.11C641.656 369.81 640.356 371.11 638.656 371.11Z" fill="#6EA9FF"/>
<path d="M638.656 394.71H635.156C633.556 394.71 632.156 393.41 632.156 391.71V388.21C632.156 386.61 633.456 385.21 635.156 385.21H638.656C640.256 385.21 641.656 386.51 641.656 388.21V391.71C641.656 393.41 640.356 394.71 638.656 394.71Z" fill="#6EA9FF"/>
<path d="M638.656 418.31H635.156C633.556 418.31 632.156 417.01 632.156 415.31V411.81C632.156 410.21 633.456 408.81 635.156 408.81H638.656C640.256 408.81 641.656 410.11 641.656 411.81V415.31C641.656 417.01 640.356 418.31 638.656 418.31Z" fill="#6EA9FF"/>
<path d="M693.256 55.1104H-84.9443V713.01H693.256V55.1104Z" fill="url(#paint7_radial_6852_33660)"/>
</g>
</g>
<path d="M573.957 205.71H435.557V241.41H573.957V205.71Z" fill="url(#paint8_linear_6852_33660)"/>
<path d="M451.557 294.91C460.393 294.91 467.557 287.747 467.557 278.91C467.557 270.074 460.393 262.91 451.557 262.91C442.72 262.91 435.557 270.074 435.557 278.91C435.557 287.747 442.72 294.91 451.557 294.91Z" fill="url(#paint9_linear_6852_33660)"/>
<path d="M504.656 294.91C513.493 294.91 520.656 287.747 520.656 278.91C520.656 270.074 513.493 262.91 504.656 262.91C495.82 262.91 488.656 270.074 488.656 278.91C488.656 287.747 495.82 294.91 504.656 294.91Z" fill="url(#paint10_linear_6852_33660)"/>
<path d="M557.856 294.91C566.693 294.91 573.856 287.747 573.856 278.91C573.856 270.074 566.693 262.91 557.856 262.91C549.02 262.91 541.856 270.074 541.856 278.91C541.856 287.747 549.02 294.91 557.856 294.91Z" fill="url(#paint11_linear_6852_33660)"/>
<path d="M451.557 336.31C460.393 336.31 467.557 329.147 467.557 320.31C467.557 311.474 460.393 304.31 451.557 304.31C442.72 304.31 435.557 311.474 435.557 320.31C435.557 329.147 442.72 336.31 451.557 336.31Z" fill="url(#paint12_linear_6852_33660)"/>
<path d="M504.656 336.31C513.493 336.31 520.656 329.147 520.656 320.31C520.656 311.474 513.493 304.31 504.656 304.31C495.82 304.31 488.656 311.474 488.656 320.31C488.656 329.147 495.82 336.31 504.656 336.31Z" fill="url(#paint13_linear_6852_33660)"/>
<path d="M557.856 336.31C566.693 336.31 573.856 329.147 573.856 320.31C573.856 311.474 566.693 304.31 557.856 304.31C549.02 304.31 541.856 311.474 541.856 320.31C541.856 329.147 549.02 336.31 557.856 336.31Z" fill="url(#paint14_linear_6852_33660)"/>
<path d="M451.557 377.61C460.393 377.61 467.557 370.447 467.557 361.61C467.557 352.774 460.393 345.61 451.557 345.61C442.72 345.61 435.557 352.774 435.557 361.61C435.557 370.447 442.72 377.61 451.557 377.61Z" fill="url(#paint15_linear_6852_33660)"/>
<path d="M504.656 377.61C513.493 377.61 520.656 370.447 520.656 361.61C520.656 352.774 513.493 345.61 504.656 345.61C495.82 345.61 488.656 352.774 488.656 361.61C488.656 370.447 495.82 377.61 504.656 377.61Z" fill="url(#paint16_linear_6852_33660)"/>
<path d="M557.856 377.61C566.693 377.61 573.856 370.447 573.856 361.61C573.856 352.774 566.693 345.61 557.856 345.61C549.02 345.61 541.856 352.774 541.856 361.61C541.856 370.447 549.02 377.61 557.856 377.61Z" fill="url(#paint17_linear_6852_33660)"/>
<path d="M396.757 294.91C396.757 323.71 373.457 347.01 344.657 347.01C315.857 347.01 292.557 323.71 292.557 294.91C292.557 266.11 315.857 242.81 344.657 242.81C373.457 242.81 396.757 266.11 396.757 294.91Z" fill="url(#paint18_radial_6852_33660)"/>
<path d="M346.056 255.61V278.41C346.056 279.21 345.456 279.81 344.656 279.81C343.856 279.81 343.256 279.21 343.256 278.41V255.61C322.156 256.31 305.356 273.71 305.356 294.91C305.356 316.61 322.956 334.31 344.756 334.31C366.456 334.31 384.156 316.71 384.156 294.91C383.956 273.61 367.156 256.31 346.056 255.61Z" fill="#2DDC88"/>
<path d="M376.456 294.91C376.456 312.51 362.156 326.81 344.556 326.81C326.956 326.81 312.656 312.51 312.656 294.91C312.656 277.81 326.156 263.81 343.056 263.11V278.41C343.056 279.21 343.656 279.81 344.456 279.81C345.256 279.81 345.856 279.21 345.856 278.41V263.11C362.956 263.81 376.456 277.81 376.456 294.91Z" fill="url(#paint19_linear_6852_33660)"/>
<path d="M346.057 263.11V278.41C346.057 279.21 345.457 279.81 344.657 279.81C343.857 279.81 343.257 279.21 343.257 278.41V263.11C343.757 263.11 344.157 263.11 344.657 263.11C345.057 263.01 345.557 263.01 346.057 263.11Z" fill="#2DDC88"/>
<path d="M346.057 255.61V263.11C345.557 263.11 345.157 263.11 344.657 263.11C344.157 263.11 343.757 263.11 343.257 263.11V255.61C343.757 255.61 344.157 255.61 344.657 255.61C345.057 255.51 345.557 255.51 346.057 255.61Z" fill="#1EC471"/>
<path d="M185.756 600.01C256.118 600.01 313.156 542.971 313.156 472.61C313.156 402.249 256.118 345.21 185.756 345.21C115.395 345.21 58.3564 402.249 58.3564 472.61C58.3564 542.971 115.395 600.01 185.756 600.01Z" fill="url(#paint20_radial_6852_33660)"/>
<path d="M174.356 587.61C244.717 587.61 301.756 530.572 301.756 460.21C301.756 389.849 244.717 332.81 174.356 332.81C103.995 332.81 46.9561 389.849 46.9561 460.21C46.9561 530.572 103.995 587.61 174.356 587.61Z" fill="url(#paint21_radial_6852_33660)"/>
<path d="M219.856 496.21C220.056 499.81 218.756 503.41 216.056 506.21C211.456 510.81 204.356 511.21 199.256 507.61C198.656 507.21 198.056 506.71 197.556 506.21L170.156 478.81L142.756 506.21C138.256 510.71 131.356 511.21 126.256 507.81C125.556 507.31 124.856 506.81 124.256 506.21C121.556 503.51 120.356 500.01 120.456 496.51C120.556 494.41 121.056 492.41 122.156 490.51V490.41C122.156 490.31 122.256 490.31 122.256 490.21C122.456 489.91 122.656 489.51 122.956 489.21C123.056 489.11 123.156 489.01 123.256 488.81C123.556 488.41 123.956 488.01 124.256 487.61L151.656 460.21L124.156 432.71C120.556 429.11 119.456 423.91 120.956 419.41C121.456 417.91 122.256 416.51 123.256 415.21C123.256 415.11 123.356 415.11 123.356 415.01C123.556 414.71 123.856 414.51 124.056 414.21C126.556 411.61 129.956 410.41 133.356 410.41C136.756 410.41 140.056 411.71 142.656 414.21L143.756 415.31L170.156 441.71L170.256 441.61L197.556 414.31C201.756 410.11 208.156 409.31 213.156 412.11C213.456 412.31 213.756 412.41 214.056 412.61C214.356 412.81 214.656 413.11 215.056 413.31C215.456 413.61 215.756 413.91 216.056 414.21L216.156 414.31C216.256 414.41 216.356 414.51 216.456 414.61C216.556 414.71 216.656 414.91 216.756 415.01C216.856 415.11 216.956 415.31 217.156 415.51C217.256 415.61 217.356 415.81 217.456 415.91C217.656 416.21 217.856 416.51 218.056 416.81C218.156 416.91 218.256 417.11 218.256 417.21C218.456 417.61 218.656 418.11 218.856 418.51C219.456 420.11 219.756 421.81 219.756 423.41C219.756 426.81 218.456 430.11 215.956 432.71L188.556 460.21L215.956 487.61C218.356 490.01 219.656 493.11 219.856 496.21Z" fill="url(#paint22_linear_6852_33660)"/>
<path d="M219.856 496.211C220.056 499.811 218.756 503.411 216.056 506.211C211.456 510.811 204.356 511.211 199.256 507.611L172.956 481.31L172.856 481.41L170.156 478.711L142.756 506.111C138.256 510.611 131.356 511.111 126.256 507.711C124.156 505.211 123.156 502.01 123.256 498.91C123.356 496.81 123.856 494.81 124.956 492.91V492.81C124.956 492.71 125.056 492.711 125.056 492.611C125.256 492.311 125.456 491.911 125.756 491.611C125.856 491.511 125.956 491.411 126.056 491.211C126.356 490.811 126.756 490.41 127.056 490.01L154.456 462.611L126.956 435.111C123.356 431.511 122.256 426.31 123.756 421.81C124.256 420.31 125.056 418.911 126.056 417.611C126.056 417.511 126.156 417.51 126.156 417.41C126.356 417.11 126.656 416.911 126.856 416.611C129.356 414.011 132.756 412.81 136.156 412.81C138.856 412.81 141.456 413.611 143.656 415.211C144.256 415.611 144.856 416.111 145.356 416.611L172.856 444.111L200.256 416.611C204.456 412.411 210.856 411.61 215.856 414.41C216.156 414.61 216.456 414.71 216.756 414.91C216.856 415.01 216.956 415.21 217.156 415.41C217.256 415.51 217.356 415.71 217.456 415.81C217.656 416.11 217.856 416.411 218.056 416.711C218.156 416.811 218.256 417.011 218.256 417.111C218.456 417.511 218.656 418.01 218.856 418.41C219.456 420.01 219.756 421.71 219.756 423.31C219.756 426.71 218.456 430.011 215.956 432.611L188.556 460.111L215.956 487.51C218.356 490.01 219.656 493.111 219.856 496.211Z" fill="#262730"/>
<path d="M635.256 208.31C635.256 181.91 613.856 160.51 587.456 160.51C613.856 160.51 635.256 139.11 635.256 112.71C635.256 139.11 656.656 160.51 683.056 160.51C656.656 160.51 635.256 181.91 635.256 208.31Z" fill="white"/>
<path d="M786.492 381.325L744.281 424.667L773.868 453.482L816.079 410.14L786.492 381.325Z" fill="white"/>
<path d="M940.956 565.11L931.556 574.71C919.256 587.31 898.956 587.61 886.356 575.31L773.556 453.71L815.756 410.41L940.256 519.91C953.056 532.21 953.256 552.41 940.956 565.11Z" fill="url(#paint23_linear_6852_33660)"/>
<path d="M637.156 470.21C743.029 470.21 828.856 384.383 828.856 278.51C828.856 172.637 743.029 86.8101 637.156 86.8101C531.283 86.8101 445.456 172.637 445.456 278.51C445.456 384.383 531.283 470.21 637.156 470.21Z" fill="url(#paint24_radial_6852_33660)"/>
<mask id="mask1_6852_33660" style="mask-type:luminance" maskUnits="userSpaceOnUse" x="477" y="118" width="320" height="320">
<path d="M637.156 437.31C725.19 437.31 796.556 365.944 796.556 277.91C796.556 189.876 725.19 118.51 637.156 118.51C549.122 118.51 477.756 189.876 477.756 277.91C477.756 365.944 549.122 437.31 637.156 437.31Z" fill="white"/>
</mask>
<g mask="url(#mask1_6852_33660)">
<path d="M810.955 450.11H281.456C275.656 450.11 270.855 445.41 270.855 439.51V96.0103C270.855 90.2103 275.556 85.4102 281.456 85.4102H810.955C816.755 85.4102 821.556 90.1103 821.556 96.0103V439.51C821.556 445.31 816.855 450.11 810.955 450.11Z" fill="url(#paint25_linear_6852_33660)"/>
<path d="M732.956 146.81H533.156V198.31H732.956V146.81Z" fill="url(#paint26_linear_6852_33660)"/>
<path d="M556.256 275.61C569.014 275.61 579.356 265.268 579.356 252.51C579.356 239.752 569.014 229.41 556.256 229.41C543.498 229.41 533.156 239.752 533.156 252.51C533.156 265.268 543.498 275.61 556.256 275.61Z" fill="url(#paint27_linear_6852_33660)"/>
<path d="M633.056 275.61C645.814 275.61 656.156 265.268 656.156 252.51C656.156 239.752 645.814 229.41 633.056 229.41C620.298 229.41 609.956 239.752 609.956 252.51C609.956 265.268 620.298 275.61 633.056 275.61Z" fill="url(#paint28_linear_6852_33660)"/>
<path d="M709.856 275.61C722.614 275.61 732.956 265.268 732.956 252.51C732.956 239.752 722.614 229.41 709.856 229.41C697.098 229.41 686.756 239.752 686.756 252.51C686.756 265.268 697.098 275.61 709.856 275.61Z" fill="url(#paint29_linear_6852_33660)"/>
<path d="M556.256 335.31C569.014 335.31 579.356 324.968 579.356 312.21C579.356 299.453 569.014 289.11 556.256 289.11C543.498 289.11 533.156 299.453 533.156 312.21C533.156 324.968 543.498 335.31 556.256 335.31Z" fill="url(#paint30_linear_6852_33660)"/>
<path d="M633.056 335.31C645.814 335.31 656.156 324.968 656.156 312.21C656.156 299.453 645.814 289.11 633.056 289.11C620.298 289.11 609.956 299.453 609.956 312.21C609.956 324.968 620.298 335.31 633.056 335.31Z" fill="url(#paint31_linear_6852_33660)"/>
<path d="M709.856 335.31C722.614 335.31 732.956 324.968 732.956 312.21C732.956 299.453 722.614 289.11 709.856 289.11C697.098 289.11 686.756 299.453 686.756 312.21C686.756 324.968 697.098 335.31 709.856 335.31Z" fill="url(#paint32_linear_6852_33660)"/>
<path d="M556.256 395.01C569.014 395.01 579.356 384.668 579.356 371.91C579.356 359.152 569.014 348.81 556.256 348.81C543.498 348.81 533.156 359.152 533.156 371.91C533.156 384.668 543.498 395.01 556.256 395.01Z" fill="url(#paint33_linear_6852_33660)"/>
<path d="M633.056 395.01C645.814 395.01 656.156 384.668 656.156 371.91C656.156 359.152 645.814 348.81 633.056 348.81C620.298 348.81 609.956 359.152 609.956 371.91C609.956 384.668 620.298 395.01 633.056 395.01Z" fill="url(#paint34_linear_6852_33660)"/>
<path d="M709.856 395.01C722.614 395.01 732.956 384.668 732.956 371.91C732.956 359.152 722.614 348.81 709.856 348.81C697.098 348.81 686.756 359.152 686.756 371.91C686.756 384.668 697.098 395.01 709.856 395.01Z" fill="url(#paint35_linear_6852_33660)"/>
<path d="M546.855 162.71L563.655 179.51C564.455 180.31 564.455 181.61 563.655 182.41C562.855 183.21 561.555 183.21 560.755 182.41L543.955 165.61C543.155 164.81 543.155 163.51 543.955 162.71C544.755 161.91 546.055 161.91 546.855 162.71Z" fill="#262730"/>
<path d="M563.655 165.61L546.855 182.41C546.055 183.21 544.755 183.21 543.955 182.41C543.155 181.61 543.155 180.31 543.955 179.51L560.755 162.71C561.555 161.91 562.855 161.91 563.655 162.71C564.455 163.51 564.455 164.81 563.655 165.61Z" fill="#262730"/>
<path d="M578.556 162.71L595.356 179.51C596.156 180.31 596.156 181.61 595.356 182.41C594.556 183.21 593.256 183.21 592.456 182.41L575.656 165.61C574.856 164.81 574.856 163.51 575.656 162.71C576.456 161.91 577.756 161.91 578.556 162.71Z" fill="#262730"/>
<path d="M595.356 165.61L578.556 182.41C577.756 183.21 576.456 183.21 575.656 182.41C574.856 181.61 574.856 180.31 575.656 179.51L592.456 162.71C593.256 161.91 594.556 161.91 595.356 162.71C596.156 163.51 596.156 164.81 595.356 165.61Z" fill="#262730"/>
<path d="M610.355 162.71L627.155 179.51C627.955 180.31 627.955 181.61 627.155 182.41C626.355 183.21 625.055 183.21 624.255 182.41L607.455 165.61C606.655 164.81 606.655 163.51 607.455 162.71C608.255 161.91 609.555 161.91 610.355 162.71Z" fill="#262730"/>
<path d="M627.155 165.61L610.355 182.41C609.555 183.21 608.255 183.21 607.455 182.41C606.655 181.61 606.655 180.31 607.455 179.51L624.255 162.71C625.055 161.91 626.355 161.91 627.155 162.71C627.955 163.51 627.955 164.81 627.155 165.61Z" fill="#262730"/>
<path d="M642.056 162.71L658.856 179.51C659.656 180.31 659.656 181.61 658.856 182.41C658.056 183.21 656.756 183.21 655.956 182.41L639.156 165.61C638.356 164.81 638.356 163.51 639.156 162.71C639.956 161.91 641.256 161.91 642.056 162.71Z" fill="#262730"/>
<path d="M658.856 165.61L642.056 182.41C641.256 183.21 639.956 183.21 639.156 182.41C638.356 181.61 638.356 180.31 639.156 179.51L655.956 162.71C656.756 161.91 658.056 161.91 658.856 162.71C659.656 163.51 659.656 164.81 658.856 165.61Z" fill="#262730"/>
<path d="M673.855 162.71L690.655 179.51C691.455 180.31 691.455 181.61 690.655 182.41C689.855 183.21 688.555 183.21 687.755 182.41L670.955 165.61C670.155 164.81 670.155 163.51 670.955 162.71C671.755 161.91 673.055 161.91 673.855 162.71Z" fill="#262730"/>
<path d="M690.655 165.61L673.855 182.41C673.055 183.21 671.755 183.21 670.955 182.41C670.155 181.61 670.155 180.31 670.955 179.51L687.755 162.71C688.555 161.91 689.855 161.91 690.655 162.71C691.455 163.51 691.455 164.81 690.655 165.61Z" fill="#262730"/>
<path d="M705.556 162.71L722.356 179.51C723.156 180.31 723.156 181.61 722.356 182.41C721.556 183.21 720.256 183.21 719.456 182.41L702.656 165.61C701.856 164.81 701.856 163.51 702.656 162.71C703.556 161.91 704.756 161.91 705.556 162.71Z" fill="#262730"/>
<path d="M722.356 165.61L705.556 182.41C704.756 183.21 703.456 183.21 702.656 182.41C701.856 181.61 701.856 180.31 702.656 179.51L719.456 162.71C720.256 161.91 721.556 161.91 722.356 162.71C723.156 163.51 723.156 164.81 722.356 165.61Z" fill="#262730"/>
</g>
<defs>
<linearGradient id="paint0_linear_6852_33660" x1="0.0959016" y1="287.453" x2="1006.81" y2="287.453" gradientUnits="userSpaceOnUse">
<stop offset="0.1275" stop-color="#FF94D1"/>
<stop offset="0.5111" stop-color="#FFB6DC"/>
</linearGradient>
<linearGradient id="paint1_linear_6852_33660" x1="211.862" y1="-589.238" x2="608.795" y2="355.519" gradientUnits="userSpaceOnUse">
<stop stop-color="#33BBFF"/>
<stop offset="1" stop-color="#4B7AFF"/>
</linearGradient>
<linearGradient id="paint2_linear_6852_33660" x1="444.576" y1="-227.926" x2="444.576" y2="708.984" gradientUnits="userSpaceOnUse">
<stop stop-color="#33BBFF"/>
<stop offset="0.3133" stop-color="#39AAFF"/>
<stop offset="0.9278" stop-color="#497FFF"/>
<stop offset="1" stop-color="#4B7AFF"/>
</linearGradient>
<linearGradient id="paint3_linear_6852_33660" x1="362.8" y1="288.772" x2="887.734" y2="288.772" gradientUnits="userSpaceOnUse">
<stop stop-color="#33BBFF"/>
<stop offset="0.2472" stop-color="#37B0FF"/>
<stop offset="0.6767" stop-color="#4194FF"/>
<stop offset="1" stop-color="#4B7AFF"/>
</linearGradient>
<linearGradient id="paint4_linear_6852_33660" x1="684.193" y1="183.792" x2="727.286" y2="183.792" gradientUnits="userSpaceOnUse">
<stop stop-color="#4066FF"/>
<stop offset="0.9998" stop-color="#0A2EBF"/>
</linearGradient>
<linearGradient id="paint5_linear_6852_33660" x1="684.193" y1="393.752" x2="727.286" y2="393.752" gradientUnits="userSpaceOnUse">
<stop stop-color="#4066FF"/>
<stop offset="0.9998" stop-color="#0A2EBF"/>
</linearGradient>
<linearGradient id="paint6_linear_6852_33660" x1="302.884" y1="-47.7566" x2="533.272" y2="500.602" gradientUnits="userSpaceOnUse">
<stop stop-color="#33BBFF"/>
<stop offset="0.1428" stop-color="#35B5FF"/>
<stop offset="0.3256" stop-color="#3BA5FF"/>
<stop offset="0.5294" stop-color="#458BFF"/>
<stop offset="0.6401" stop-color="#4B7AFF"/>
</linearGradient>
<radialGradient id="paint7_radial_6852_33660" cx="0" cy="0" r="1" gradientUnits="userSpaceOnUse" gradientTransform="translate(739.562 161.778) scale(443.632 383.165)">
<stop offset="0.00164577" stop-color="#6EA9FF"/>
<stop offset="0.3276" stop-color="#70AAFF" stop-opacity="0.6715"/>
<stop offset="0.4863" stop-color="#78AFFF" stop-opacity="0.5115"/>
<stop offset="0.6088" stop-color="#85B7FF" stop-opacity="0.3881"/>
<stop offset="0.7128" stop-color="#97C2FF" stop-opacity="0.2832"/>
<stop offset="0.8051" stop-color="#B0D0FF" stop-opacity="0.1903"/>
<stop offset="0.889" stop-color="#CDE1FF" stop-opacity="0.1057"/>
<stop offset="0.9651" stop-color="#F0F6FF" stop-opacity="0.0290605"/>
<stop offset="0.9939" stop-color="white" stop-opacity="0"/>
</radialGradient>
<linearGradient id="paint8_linear_6852_33660" x1="472.114" y1="145.989" x2="525.104" y2="272.114" gradientUnits="userSpaceOnUse">
<stop offset="1.61469e-07" stop-color="#B9E1FE"/>
<stop offset="0.5147" stop-color="#81C4F8"/>
<stop offset="0.9993" stop-color="#B1CBFF"/>
</linearGradient>
<linearGradient id="paint9_linear_6852_33660" x1="439.456" y1="250.215" x2="459.058" y2="296.872" gradientUnits="userSpaceOnUse">
<stop offset="0.0543061" stop-color="#DAED73"/>
<stop offset="0.0785062" stop-color="#CEED73"/>
<stop offset="0.1601" stop-color="#A9EF74"/>
<stop offset="0.2363" stop-color="#8FEF75"/>
<stop offset="0.3042" stop-color="#7FF075"/>
<stop offset="0.3569" stop-color="#79F075"/>
<stop offset="0.4198" stop-color="#68EB79"/>
<stop offset="0.557" stop-color="#48E381"/>
<stop offset="0.6723" stop-color="#34DE86"/>
<stop offset="0.7509" stop-color="#2DDC88"/>
</linearGradient>
<linearGradient id="paint10_linear_6852_33660" x1="492.648" y1="250.215" x2="512.25" y2="296.872" gradientUnits="userSpaceOnUse">
<stop offset="0.0543061" stop-color="#DAED73"/>
<stop offset="0.0785062" stop-color="#CEED73"/>
<stop offset="0.1601" stop-color="#A9EF74"/>
<stop offset="0.2363" stop-color="#8FEF75"/>
<stop offset="0.3042" stop-color="#7FF075"/>
<stop offset="0.3569" stop-color="#79F075"/>
<stop offset="0.4198" stop-color="#68EB79"/>
<stop offset="0.557" stop-color="#48E381"/>
<stop offset="0.6723" stop-color="#34DE86"/>
<stop offset="0.7509" stop-color="#2DDC88"/>
</linearGradient>
<linearGradient id="paint11_linear_6852_33660" x1="545.841" y1="250.215" x2="565.443" y2="296.872" gradientUnits="userSpaceOnUse">
<stop offset="0.0543061" stop-color="#DAED73"/>
<stop offset="0.0785062" stop-color="#CEED73"/>
<stop offset="0.1601" stop-color="#A9EF74"/>
<stop offset="0.2363" stop-color="#8FEF75"/>
<stop offset="0.3042" stop-color="#7FF075"/>
<stop offset="0.3569" stop-color="#79F075"/>
<stop offset="0.4198" stop-color="#68EB79"/>
<stop offset="0.557" stop-color="#48E381"/>
<stop offset="0.6723" stop-color="#34DE86"/>
<stop offset="0.7509" stop-color="#2DDC88"/>
</linearGradient>
<linearGradient id="paint12_linear_6852_33660" x1="439.456" y1="291.568" x2="459.058" y2="338.225" gradientUnits="userSpaceOnUse">
<stop offset="0.0543061" stop-color="#DAED73"/>
<stop offset="0.0785062" stop-color="#CEED73"/>
<stop offset="0.1601" stop-color="#A9EF74"/>
<stop offset="0.2363" stop-color="#8FEF75"/>
<stop offset="0.3042" stop-color="#7FF075"/>
<stop offset="0.3569" stop-color="#79F075"/>
<stop offset="0.4198" stop-color="#68EB79"/>
<stop offset="0.557" stop-color="#48E381"/>
<stop offset="0.6723" stop-color="#34DE86"/>
<stop offset="0.7509" stop-color="#2DDC88"/>
</linearGradient>
<linearGradient id="paint13_linear_6852_33660" x1="492.648" y1="291.568" x2="512.25" y2="338.225" gradientUnits="userSpaceOnUse">
<stop offset="0.0543061" stop-color="#DAED73"/>
<stop offset="0.0785062" stop-color="#CEED73"/>
<stop offset="0.1601" stop-color="#A9EF74"/>
<stop offset="0.2363" stop-color="#8FEF75"/>
<stop offset="0.3042" stop-color="#7FF075"/>
<stop offset="0.3569" stop-color="#79F075"/>
<stop offset="0.4198" stop-color="#68EB79"/>
<stop offset="0.557" stop-color="#48E381"/>
<stop offset="0.6723" stop-color="#34DE86"/>
<stop offset="0.7509" stop-color="#2DDC88"/>
</linearGradient>
<linearGradient id="paint14_linear_6852_33660" x1="545.841" y1="291.568" x2="565.443" y2="338.225" gradientUnits="userSpaceOnUse">
<stop offset="0.0543061" stop-color="#DAED73"/>
<stop offset="0.0785062" stop-color="#CEED73"/>
<stop offset="0.1601" stop-color="#A9EF74"/>
<stop offset="0.2363" stop-color="#8FEF75"/>
<stop offset="0.3042" stop-color="#7FF075"/>
<stop offset="0.3569" stop-color="#79F075"/>
<stop offset="0.4198" stop-color="#68EB79"/>
<stop offset="0.557" stop-color="#48E381"/>
<stop offset="0.6723" stop-color="#34DE86"/>
<stop offset="0.7509" stop-color="#2DDC88"/>
</linearGradient>
<linearGradient id="paint15_linear_6852_33660" x1="439.456" y1="332.921" x2="459.058" y2="379.578" gradientUnits="userSpaceOnUse">
<stop offset="0.1275" stop-color="#FF94D1"/>
<stop offset="0.5111" stop-color="#FFB6DC"/>
</linearGradient>
<linearGradient id="paint16_linear_6852_33660" x1="492.648" y1="332.921" x2="512.25" y2="379.578" gradientUnits="userSpaceOnUse">
<stop offset="0.0543061" stop-color="#DAED73"/>
<stop offset="0.0785062" stop-color="#CEED73"/>
<stop offset="0.1601" stop-color="#A9EF74"/>
<stop offset="0.2363" stop-color="#8FEF75"/>
<stop offset="0.3042" stop-color="#7FF075"/>
<stop offset="0.3569" stop-color="#79F075"/>
<stop offset="0.4198" stop-color="#68EB79"/>
<stop offset="0.557" stop-color="#48E381"/>
<stop offset="0.6723" stop-color="#34DE86"/>
<stop offset="0.7509" stop-color="#2DDC88"/>
</linearGradient>
<linearGradient id="paint17_linear_6852_33660" x1="545.841" y1="332.921" x2="565.443" y2="379.578" gradientUnits="userSpaceOnUse">
<stop offset="0.1275" stop-color="#FF94D1"/>
<stop offset="0.5111" stop-color="#FFB6DC"/>
</linearGradient>
<radialGradient id="paint18_radial_6852_33660" cx="0" cy="0" r="1" gradientUnits="userSpaceOnUse" gradientTransform="translate(344.619 294.902) scale(65.6485 65.6486)">
<stop stop-color="#4391FF"/>
<stop offset="0.3159" stop-color="#428EFE"/>
<stop offset="0.553" stop-color="#3F84FB"/>
<stop offset="0.7645" stop-color="#3B74F7"/>
<stop offset="0.9598" stop-color="#355EF1"/>
<stop offset="0.9998" stop-color="#3358EF"/>
</radialGradient>
<linearGradient id="paint19_linear_6852_33660" x1="312.755" y1="294.918" x2="434.459" y2="294.918" gradientUnits="userSpaceOnUse">
<stop offset="0.0543061" stop-color="#DAED73"/>
<stop offset="0.0785062" stop-color="#CEED73"/>
<stop offset="0.1601" stop-color="#A9EF74"/>
<stop offset="0.2363" stop-color="#8FEF75"/>
<stop offset="0.3042" stop-color="#7FF075"/>
<stop offset="0.3569" stop-color="#79F075"/>
<stop offset="0.4198" stop-color="#68EB79"/>
<stop offset="0.557" stop-color="#48E381"/>
<stop offset="0.6723" stop-color="#34DE86"/>
<stop offset="0.7509" stop-color="#2DDC88"/>
</linearGradient>
<radialGradient id="paint20_radial_6852_33660" cx="0" cy="0" r="1" gradientUnits="userSpaceOnUse" gradientTransform="translate(181.049 466.671) scale(137.858 137.858)">
<stop offset="0.8408" stop-color="#F56B3C"/>
<stop offset="0.9129" stop-color="#EE523C"/>
<stop offset="0.999" stop-color="#E52E3B"/>
</radialGradient>
<radialGradient id="paint21_radial_6852_33660" cx="0" cy="0" r="1" gradientUnits="userSpaceOnUse" gradientTransform="translate(146.069 426.61) scale(140.34 140.34)">
<stop stop-color="#F56B3C"/>
<stop offset="0.2877" stop-color="#F4683C"/>
<stop offset="0.5259" stop-color="#F15D3C"/>
<stop offset="0.7463" stop-color="#ED4C3B"/>
<stop offset="0.9549" stop-color="#E7343B"/>
<stop offset="0.999" stop-color="#E52E3B"/>
</radialGradient>
<linearGradient id="paint22_linear_6852_33660" x1="219.735" y1="509.913" x2="149.31" y2="439.487" gradientUnits="userSpaceOnUse">
<stop stop-color="#F56B3C"/>
<stop offset="0.4553" stop-color="#EE523C"/>
<stop offset="0.999" stop-color="#E52E3B"/>
</linearGradient>
<linearGradient id="paint23_linear_6852_33660" x1="773.595" y1="497.362" x2="950.021" y2="497.362" gradientUnits="userSpaceOnUse">
<stop stop-color="#F56B3C"/>
<stop offset="0.4553" stop-color="#EE523C"/>
<stop offset="0.999" stop-color="#E52E3B"/>
</linearGradient>
<radialGradient id="paint24_radial_6852_33660" cx="0" cy="0" r="1" gradientUnits="userSpaceOnUse" gradientTransform="translate(679.04 378.644) scale(313.948 313.949)">
<stop stop-color="#F56B3C"/>
<stop offset="0.3798" stop-color="#F4693C"/>
<stop offset="0.5896" stop-color="#F2613C"/>
<stop offset="0.7579" stop-color="#EF533C"/>
<stop offset="0.9034" stop-color="#EA3F3B"/>
<stop offset="0.999" stop-color="#E52E3B"/>
</radialGradient>
<linearGradient id="paint25_linear_6852_33660" x1="410.821" y1="-54.4811" x2="743.463" y2="737.257" gradientUnits="userSpaceOnUse">
<stop stop-color="#33BBFF"/>
<stop offset="0.1405" stop-color="#35B6FF"/>
<stop offset="0.314" stop-color="#3BA7FF"/>
<stop offset="0.5042" stop-color="#448EFF"/>
<stop offset="0.6239" stop-color="#4B7AFF"/>
</linearGradient>
<linearGradient id="paint26_linear_6852_33660" x1="585.973" y1="60.5775" x2="662.483" y2="242.68" gradientUnits="userSpaceOnUse">
<stop offset="1.61469e-07" stop-color="#B9E1FE"/>
<stop offset="0.5147" stop-color="#81C4F8"/>
<stop offset="0.9993" stop-color="#B1CBFF"/>
</linearGradient>
<linearGradient id="paint27_linear_6852_33660" x1="538.82" y1="211.063" x2="567.123" y2="278.428" gradientUnits="userSpaceOnUse">
<stop offset="0.0543061" stop-color="#DAED73"/>
<stop offset="0.0785062" stop-color="#CEED73"/>
<stop offset="0.1601" stop-color="#A9EF74"/>
<stop offset="0.2363" stop-color="#8FEF75"/>
<stop offset="0.3042" stop-color="#7FF075"/>
<stop offset="0.3569" stop-color="#79F075"/>
<stop offset="0.4198" stop-color="#68EB79"/>
<stop offset="0.557" stop-color="#48E381"/>
<stop offset="0.6723" stop-color="#34DE86"/>
<stop offset="0.7509" stop-color="#2DDC88"/>
</linearGradient>
<linearGradient id="paint28_linear_6852_33660" x1="615.621" y1="211.063" x2="643.924" y2="278.428" gradientUnits="userSpaceOnUse">
<stop offset="0.0543061" stop-color="#DAED73"/>
<stop offset="0.0785062" stop-color="#CEED73"/>
<stop offset="0.1601" stop-color="#A9EF74"/>
<stop offset="0.2363" stop-color="#8FEF75"/>
<stop offset="0.3042" stop-color="#7FF075"/>
<stop offset="0.3569" stop-color="#79F075"/>
<stop offset="0.4198" stop-color="#68EB79"/>
<stop offset="0.557" stop-color="#48E381"/>
<stop offset="0.6723" stop-color="#34DE86"/>
<stop offset="0.7509" stop-color="#2DDC88"/>
</linearGradient>
<linearGradient id="paint29_linear_6852_33660" x1="692.422" y1="211.063" x2="720.725" y2="278.428" gradientUnits="userSpaceOnUse">
<stop offset="0.0543061" stop-color="#DAED73"/>
<stop offset="0.0785062" stop-color="#CEED73"/>
<stop offset="0.1601" stop-color="#A9EF74"/>
<stop offset="0.2363" stop-color="#8FEF75"/>
<stop offset="0.3042" stop-color="#7FF075"/>
<stop offset="0.3569" stop-color="#79F075"/>
<stop offset="0.4198" stop-color="#68EB79"/>
<stop offset="0.557" stop-color="#48E381"/>
<stop offset="0.6723" stop-color="#34DE86"/>
<stop offset="0.7509" stop-color="#2DDC88"/>
</linearGradient>
<linearGradient id="paint30_linear_6852_33660" x1="538.82" y1="270.77" x2="567.122" y2="338.135" gradientUnits="userSpaceOnUse">
<stop offset="0.0543061" stop-color="#DAED73"/>
<stop offset="0.0785062" stop-color="#CEED73"/>
<stop offset="0.1601" stop-color="#A9EF74"/>
<stop offset="0.2363" stop-color="#8FEF75"/>
<stop offset="0.3042" stop-color="#7FF075"/>
<stop offset="0.3569" stop-color="#79F075"/>
<stop offset="0.4198" stop-color="#68EB79"/>
<stop offset="0.557" stop-color="#48E381"/>
<stop offset="0.6723" stop-color="#34DE86"/>
<stop offset="0.7509" stop-color="#2DDC88"/>
</linearGradient>
<linearGradient id="paint31_linear_6852_33660" x1="615.621" y1="270.77" x2="643.923" y2="338.135" gradientUnits="userSpaceOnUse">
<stop offset="0.0543061" stop-color="#DAED73"/>
<stop offset="0.0785062" stop-color="#CEED73"/>
<stop offset="0.1601" stop-color="#A9EF74"/>
<stop offset="0.2363" stop-color="#8FEF75"/>
<stop offset="0.3042" stop-color="#7FF075"/>
<stop offset="0.3569" stop-color="#79F075"/>
<stop offset="0.4198" stop-color="#68EB79"/>
<stop offset="0.557" stop-color="#48E381"/>
<stop offset="0.6723" stop-color="#34DE86"/>
<stop offset="0.7509" stop-color="#2DDC88"/>
</linearGradient>
<linearGradient id="paint32_linear_6852_33660" x1="692.422" y1="270.77" x2="720.724" y2="338.135" gradientUnits="userSpaceOnUse">
<stop offset="0.0543061" stop-color="#DAED73"/>
<stop offset="0.0785062" stop-color="#CEED73"/>
<stop offset="0.1601" stop-color="#A9EF74"/>
<stop offset="0.2363" stop-color="#8FEF75"/>
<stop offset="0.3042" stop-color="#7FF075"/>
<stop offset="0.3569" stop-color="#79F075"/>
<stop offset="0.4198" stop-color="#68EB79"/>
<stop offset="0.557" stop-color="#48E381"/>
<stop offset="0.6723" stop-color="#34DE86"/>
<stop offset="0.7509" stop-color="#2DDC88"/>
</linearGradient>
<linearGradient id="paint33_linear_6852_33660" x1="538.82" y1="330.476" x2="567.123" y2="397.841" gradientUnits="userSpaceOnUse">
<stop offset="0.1275" stop-color="#FF94D1"/>
<stop offset="0.5111" stop-color="#FFB6DC"/>
</linearGradient>
<linearGradient id="paint34_linear_6852_33660" x1="615.621" y1="330.476" x2="643.924" y2="397.841" gradientUnits="userSpaceOnUse">
<stop offset="0.0543061" stop-color="#DAED73"/>
<stop offset="0.0785062" stop-color="#CEED73"/>
<stop offset="0.1601" stop-color="#A9EF74"/>
<stop offset="0.2363" stop-color="#8FEF75"/>
<stop offset="0.3042" stop-color="#7FF075"/>
<stop offset="0.3569" stop-color="#79F075"/>
<stop offset="0.4198" stop-color="#68EB79"/>
<stop offset="0.557" stop-color="#48E381"/>
<stop offset="0.6723" stop-color="#34DE86"/>
<stop offset="0.7509" stop-color="#2DDC88"/>
</linearGradient>
<linearGradient id="paint35_linear_6852_33660" x1="692.422" y1="330.476" x2="720.725" y2="397.841" gradientUnits="userSpaceOnUse">
<stop offset="0.1275" stop-color="#FF94D1"/>
<stop offset="0.5111" stop-color="#FFB6DC"/>
</linearGradient>
</defs>
</svg>
