<svg width="120" height="120" viewBox="0 0 120 120" fill="none" xmlns="http://www.w3.org/2000/svg">
<path d="M0 8C0 3.58172 3.58172 0 8 0H52.6863C54.808 0 56.8429 0.842855 58.3431 2.34315L76 20V96C76 100.418 72.4183 104 68 104H8C3.58172 104 0 100.418 0 96V8Z" fill="url(#paint0_linear_1825_5017)"/>
<path opacity="0.66" d="M40 30C40 28.3431 41.3431 27 43 27H62C63.6569 27 65 28.3431 65 30V30C65 31.6569 63.6569 33 62 33H43C41.3431 33 40 31.6569 40 30V30Z" fill="white"/>
<path opacity="0.66" d="M11 30C11 28.3431 12.3431 27 14 27H33C34.6569 27 36 28.3431 36 30V30C36 31.6569 34.6569 33 33 33H14C12.3431 33 11 31.6569 11 30V30Z" fill="white"/>
<path opacity="0.66" d="M11 44C11 42.3431 12.3431 41 14 41H22C23.6569 41 25 42.3431 25 44V44C25 45.6569 23.6569 47 22 47H14C12.3431 47 11 45.6569 11 44V44Z" fill="white"/>
<path opacity="0.66" d="M29 44C29 42.3431 30.3431 41 32 41H62C63.6569 41 65 42.3431 65 44V44C65 45.6569 63.6569 47 62 47H32C30.3431 47 29 45.6569 29 44V44Z" fill="white"/>
<path opacity="0.66" d="M11 58C11 56.3431 12.3431 55 14 55H39C40.6569 55 42 56.3431 42 58V58C42 59.6569 40.6569 61 39 61H14C12.3431 61 11 59.6569 11 58V58Z" fill="white"/>
<path opacity="0.66" d="M46 58C46 56.3431 47.3431 55 49 55H62C63.6569 55 65 56.3431 65 58V58C65 59.6569 63.6569 61 62 61H49C47.3431 61 46 59.6569 46 58V58Z" fill="white"/>
<path opacity="0.66" d="M11 72C11 70.3431 12.3431 69 14 69H25C26.6569 69 28 70.3431 28 72V72C28 73.6569 26.6569 75 25 75H14C12.3431 75 11 73.6569 11 72V72Z" fill="white"/>
<path opacity="0.45" d="M0 8C0 3.58172 3.58172 0 8 0H56L68 12H0V8Z" fill="url(#paint1_linear_1825_5017)"/>
<path opacity="0.45" d="M0 92H76V96C76 100.418 72.4183 104 68 104H8C3.58172 104 0 100.418 0 96V92Z" fill="url(#paint2_linear_1825_5017)"/>
<path opacity="0.82" d="M76 19.9998H61.5217C60.2731 20.0097 59.0596 19.5914 58.0869 18.8161L57.9999 18.7498C57.3743 18.2349 56.8709 17.59 56.5253 16.8608C56.1796 16.1316 56.0003 15.336 56 14.5304V0L76 19.9998Z" fill="url(#paint3_linear_1825_5017)"/>
<path d="M105.999 86.9997C105.999 101.357 94.3611 112.999 80.0075 112.999C79.8805 113.002 79.7535 112.997 79.627 112.986C76.492 112.954 73.3895 112.347 70.4741 111.193C68.0394 110.241 65.7671 108.916 63.7381 107.267C59.7091 104.049 56.7303 99.7027 55.1819 94.7834C54.4002 92.2628 54.0018 89.6388 54 86.9997C54 72.6414 65.6384 61 80.0065 61C82.645 61.0018 85.2682 61.4003 87.7883 62.1822C93.0122 63.812 97.5863 67.054 100.855 71.4436C104.124 75.8331 105.92 81.145 105.986 86.6182C105.997 86.745 106.002 86.8723 105.999 86.9997V86.9997Z" fill="url(#paint4_linear_1825_5017)" fill-opacity="0.12"/>
<path d="M110.999 92.9997C110.999 107.357 99.3611 118.999 85.0075 118.999C84.8805 119.002 84.7535 118.997 84.627 118.986C81.492 118.954 78.3895 118.347 75.4741 117.193C73.0394 116.241 70.7671 114.916 68.7381 113.267C64.7091 110.049 61.7303 105.703 60.1819 100.783C59.4002 98.2628 59.0018 95.6388 59 92.9997C59 78.6414 70.6384 67 85.0065 67C87.645 67.0018 90.2682 67.4003 92.7883 68.1822C98.0122 69.812 102.586 73.054 105.855 77.4436C109.124 81.8331 110.92 87.145 110.986 92.6182C110.997 92.745 111.002 92.8723 110.999 92.9997V92.9997Z" fill="url(#paint5_linear_1825_5017)"/>
<mask id="mask0_1825_5017" style="mask-type:alpha" maskUnits="userSpaceOnUse" x="59" y="67" width="52" height="52">
<path d="M110.999 92.9997C110.999 107.357 99.3611 118.999 85.0075 118.999C84.8805 119.002 84.7535 118.997 84.627 118.986C81.492 118.954 78.3895 118.347 75.4741 117.193C73.0394 116.241 70.7671 114.916 68.7381 113.267C64.7091 110.049 61.7303 105.703 60.1819 100.783C59.4002 98.2628 59.0018 95.6388 59 92.9997C59 78.6414 70.6384 67 85.0065 67C87.645 67.0018 90.2682 67.4003 92.7883 68.1822C98.0122 69.812 102.586 73.054 105.855 77.4436C109.124 81.8331 110.92 87.145 110.986 92.6182C110.997 92.745 111.002 92.8723 110.999 92.9997V92.9997Z" fill="url(#paint6_linear_1825_5017)"/>
</mask>
<g mask="url(#mask0_1825_5017)">
<path opacity="0.2" d="M106 66.2981L64.3431 104C62.1369 100.716 60.6568 97.0067 60 93.1154L95.4631 61H95.4817C99.3239 62.0147 102.908 63.8199 106 66.2981Z" fill="url(#paint7_linear_1825_5017)"/>
<path opacity="0.2" d="M118 80.2981L76.3431 118C74.1369 114.716 70.6568 111.891 70 108L107.463 75H107.482C111.324 76.0147 114.908 77.8199 118 80.2981Z" fill="url(#paint8_linear_1825_5017)"/>
</g>
<path fill-rule="evenodd" clip-rule="evenodd" d="M90.4393 84.4393C91.0251 83.8536 91.9749 83.8536 92.5607 84.4393C93.1464 85.0251 93.1464 85.9749 92.5607 86.5607L86.6221 92.5L92.5607 98.4393C93.1017 98.9803 93.1429 99.831 92.685 100.42L92.6754 100.432L92.5716 100.55L92.5607 100.561C92.0197 101.102 91.169 101.143 90.5802 100.685L90.5679 100.675L90.4503 100.572L84.5 94.6221L78.5607 100.561C77.9749 101.146 77.0251 101.146 76.4393 100.561C75.8536 99.9749 75.8536 99.0251 76.4393 98.4393L82.3779 92.5L76.4393 86.5607C75.8984 86.0197 75.8571 85.169 76.315 84.5802L76.3246 84.5679L76.4284 84.4503L76.4393 84.4393C76.9803 83.8983 77.831 83.8571 78.4198 84.315L78.4321 84.3246L78.5497 84.4284L84.5 90.3779L90.4393 84.4393Z" fill="white"/>
<defs>
<linearGradient id="paint0_linear_1825_5017" x1="38.0004" y1="98.5824" x2="38.0004" y2="1.75123" gradientUnits="userSpaceOnUse">
<stop stop-color="#DEE0E2"/>
<stop offset="1" stop-color="#EFEFEF"/>
</linearGradient>
<linearGradient id="paint1_linear_1825_5017" x1="73.8378" y1="4.8869" x2="-73.0626" y2="4.8869" gradientUnits="userSpaceOnUse">
<stop stop-color="#DEE1E2"/>
<stop offset="1" stop-color="#B4BCBE"/>
</linearGradient>
<linearGradient id="paint2_linear_1825_5017" x1="73.8378" y1="96.8869" x2="-73.0626" y2="96.8869" gradientUnits="userSpaceOnUse">
<stop stop-color="#DEE1E2"/>
<stop offset="1" stop-color="#B4BCBE"/>
</linearGradient>
<linearGradient id="paint3_linear_1825_5017" x1="66" y1="-3.879" x2="66" y2="19.2452" gradientUnits="userSpaceOnUse">
<stop stop-color="#DEE0E2"/>
<stop offset="1" stop-color="#B4B9BE"/>
</linearGradient>
<linearGradient id="paint4_linear_1825_5017" x1="70.5" y1="111" x2="92" y2="63.5" gradientUnits="userSpaceOnUse">
<stop stop-color="#D62B37"/>
<stop offset="1" stop-color="#FF5F6A"/>
</linearGradient>
<linearGradient id="paint5_linear_1825_5017" x1="75.5" y1="117" x2="97" y2="69.5" gradientUnits="userSpaceOnUse">
<stop stop-color="#D62B37"/>
<stop offset="1" stop-color="#FF5F6A"/>
</linearGradient>
<linearGradient id="paint6_linear_1825_5017" x1="75.5" y1="117" x2="97" y2="69.5" gradientUnits="userSpaceOnUse">
<stop stop-color="#E02D3A"/>
<stop offset="1" stop-color="#FF4D59"/>
</linearGradient>
<linearGradient id="paint7_linear_1825_5017" x1="108.443" y1="54.0734" x2="66.106" y2="95.4977" gradientUnits="userSpaceOnUse">
<stop stop-color="#FEFEFC"/>
<stop offset="1" stop-color="white" stop-opacity="0.1"/>
</linearGradient>
<linearGradient id="paint8_linear_1825_5017" x1="120.549" y1="68.0734" x2="78.2113" y2="111.3" gradientUnits="userSpaceOnUse">
<stop stop-color="#FEFEFC"/>
<stop offset="1" stop-color="white" stop-opacity="0.1"/>
</linearGradient>
</defs>
</svg>
