<svg width="16" height="16" viewBox="0 0 16 16" fill="none" xmlns="http://www.w3.org/2000/svg">
<rect width="16" height="16" rx="2" fill="#FF0012"/>
<path fill-rule="evenodd" clip-rule="evenodd" d="M9.52998 2.15149C9.16523 1.7926 8.57387 1.7926 8.20913 2.15149L2.92572 7.35014C2.56097 7.70903 2.56098 8.29091 2.92572 8.6498L8.20913 13.8484C8.57387 14.2073 9.16524 14.2073 9.52998 13.8484L12.5019 10.9242C12.6843 10.7448 12.6843 10.4538 12.5019 10.2744L11.181 8.97472C10.9987 8.79527 10.703 8.79527 10.5206 8.97472L9.36487 10.1119C9.09131 10.3811 8.64779 10.3811 8.37423 10.1119L6.72317 8.48735C6.44961 8.21818 6.44961 7.78177 6.72317 7.5126L8.37423 5.88802C8.64779 5.61885 9.09131 5.61885 9.36487 5.88802L10.5206 7.02522C10.703 7.20467 10.9987 7.20467 11.181 7.02522L12.5019 5.72556C12.6843 5.54612 12.6843 5.25518 12.5019 5.07573L9.52998 2.15149Z" fill="white"/>
</svg>
